<svg width="80" height="20" viewBox="0 0 80 20" fill="none" xmlns="http://www.w3.org/2000/svg">
<g clip-path="url(#clip0_99_7533)">
<path d="M31.1112 14.199L30.0203 19.2708H27.5112L31.6567 0.889869H34.629L38.529 19.2708H35.9926L34.929 14.199H31.1112ZM34.629 12.1535L33.7835 7.76214C33.538 6.5076 33.2926 4.87214 33.1021 3.5626H32.9926C32.8021 4.89896 32.5285 6.58941 32.284 7.76214L31.4112 12.1535H34.629ZM48.1062 0.399414V15.8621C48.1062 16.8717 48.1608 18.3444 48.2149 19.2712H46.0062L45.8426 17.6626H45.7608C45.3244 18.5894 44.3153 19.4899 42.9794 19.4899C40.5249 19.4899 39.0249 16.8167 39.0249 12.6994C39.0249 8.0085 41.0153 5.79941 43.1158 5.79941C44.179 5.79941 45.0244 6.29078 45.488 7.29941H45.5426V0.399414H48.1062ZM45.5421 11.0626C45.5421 10.8176 45.5421 10.5176 45.5149 10.244C45.3785 9.04441 44.6967 8.00805 43.7699 8.00805C42.1603 8.00805 41.6153 10.244 41.6153 12.699C41.6153 15.4262 42.3244 17.3349 43.688 17.3349C44.2608 17.3349 45.024 17.0349 45.4603 15.4535C45.5149 15.2353 45.5421 14.9076 45.5421 14.6085V11.0626ZM54.2126 19.4894C51.5676 19.4894 49.658 17.2258 49.658 12.6721C49.658 7.84441 51.9212 5.79896 54.3485 5.79896C56.9667 5.79896 58.848 8.14441 58.848 12.6171C58.848 17.8808 56.2571 19.4894 54.2394 19.4894H54.2126ZM54.294 17.4717C55.8753 17.4717 56.2303 14.6626 56.2303 12.6449C56.2303 10.6535 55.8758 7.8176 54.2399 7.8176C52.5485 7.8176 52.2217 10.6535 52.2217 12.6449C52.2217 14.8535 52.6035 17.4717 54.2671 17.4717H54.294ZM60.3935 0.399414H62.9567V7.51714H63.0112C63.693 6.3176 64.6203 5.79896 65.793 5.79896C68.0562 5.79896 69.4749 8.3626 69.4749 12.4262C69.4749 17.1712 67.5385 19.4894 65.3567 19.4894C64.0476 19.4894 63.3112 18.7799 62.738 17.6071H62.6299L62.493 19.2708H60.2844C60.339 18.3712 60.3935 16.8712 60.3935 15.8617V0.399414ZM62.9567 14.5799C62.9567 14.8808 62.984 15.1808 63.0658 15.3985C63.4744 17.008 64.2658 17.3349 64.7835 17.3349C66.3108 17.3349 66.8835 15.3171 66.8835 12.5899C66.8835 10.0535 66.284 8.00805 64.7562 8.00805C63.9108 8.00805 63.229 9.01714 63.038 9.97169C62.9835 10.2444 62.9562 10.5994 62.9562 10.8717V14.5799H62.9567ZM73.2576 13.1621C73.2849 16.5712 74.7571 17.4162 76.3117 17.4162C77.239 17.4162 78.0299 17.1985 78.6026 16.9253L78.9844 18.7799C78.1935 19.189 76.9935 19.4076 75.8208 19.4076C72.494 19.4076 70.7485 16.8985 70.7485 12.8076C70.7485 8.47123 72.739 5.7985 75.4935 5.7985C78.248 5.7985 79.5299 8.44396 79.5299 11.7717C79.5299 12.4258 79.5021 12.8353 79.4753 13.1894L73.2576 13.1621ZM77.1026 11.3353C77.1299 8.98987 76.3117 7.73578 75.3031 7.73578C73.9662 7.73578 73.3662 9.67214 73.2849 11.3353H77.1026Z" fill="#9C9C9C"/>
<path fill-rule="evenodd" clip-rule="evenodd" d="M13.0641 0.938477H20.7218V19.2703L13.0641 0.938477ZM7.66953 0.938477H0.00634766V19.2703L7.66953 0.938477ZM10.3673 7.69439L15.2463 19.2703H12.0491L10.59 15.5835H7.01862L10.3673 7.69439Z" fill="#9C9C9C"/>
<path d="M79.3122 5.76439C79.4674 5.7651 79.6159 5.82778 79.7246 5.93849C79.8334 6.0492 79.8934 6.19876 79.8913 6.35393C79.8913 6.68666 79.6345 6.9462 79.3095 6.9462C78.9872 6.9462 78.725 6.68711 78.725 6.35393C78.7241 6.19818 78.7853 6.0485 78.8949 5.93789C79.0046 5.82729 79.1538 5.76487 79.3095 5.76439H79.3122ZM79.3095 5.85575C79.0504 5.85575 78.8377 6.07893 78.8377 6.35393C78.8377 6.63439 79.0504 6.85439 79.3122 6.85439C79.5741 6.85711 79.7836 6.63439 79.7836 6.35666C79.7836 6.07893 79.5741 5.85575 79.3122 5.85575H79.3095ZM79.1995 6.69757H79.095V6.03939C79.15 6.03166 79.2027 6.02348 79.2813 6.02348C79.3809 6.02348 79.4459 6.04484 79.4854 6.07348C79.525 6.10211 79.5459 6.14666 79.5459 6.20984C79.5459 6.2962 79.4881 6.34893 79.4172 6.36984V6.37484C79.475 6.38529 79.5145 6.43802 79.5272 6.53484C79.5431 6.63711 79.5586 6.6762 79.5695 6.69757H79.4595C79.4436 6.6762 79.4281 6.6162 79.415 6.52984C79.3991 6.44575 79.3572 6.41439 79.2731 6.41439H79.2V6.69757H79.1995ZM79.1995 6.33302H79.2754C79.3618 6.33302 79.4359 6.30166 79.4359 6.22029C79.4359 6.16257 79.3936 6.10484 79.2754 6.10484C79.2418 6.10484 79.2177 6.10757 79.1995 6.11029V6.33302ZM21.7313 0.938477C21.8865 0.93919 22.035 1.00187 22.1437 1.11258C22.2525 1.22329 22.3125 1.37285 22.3104 1.52802C22.3104 1.86075 22.0536 2.12029 21.7286 2.12029C21.4063 2.12029 21.1441 1.8612 21.1441 1.52802C21.1432 1.37227 21.2044 1.22259 21.314 1.11199C21.4237 1.00138 21.5728 0.938957 21.7286 0.938477H21.7313ZM21.7286 1.02984C21.4691 1.02984 21.2568 1.25302 21.2568 1.52802C21.2568 1.80848 21.4691 2.02848 21.7313 2.02848C21.9931 2.0312 22.2031 1.80848 22.2031 1.53075C22.2031 1.25302 21.9931 1.02984 21.7313 1.02984H21.7286ZM21.6186 1.87166H21.5136V1.21348C21.5752 1.20325 21.6375 1.19809 21.7 1.19802C21.7995 1.19802 21.865 1.21848 21.9041 1.24757C21.9436 1.2762 21.9645 1.3212 21.9645 1.38393C21.9645 1.47029 21.9068 1.52302 21.8359 1.54393V1.54893C21.8936 1.55939 21.9331 1.61211 21.9463 1.70939C21.9618 1.81166 21.9777 1.85075 21.9881 1.87211H21.8781C21.8622 1.85075 21.8463 1.79075 21.8336 1.70439C21.8177 1.62029 21.7759 1.58893 21.6918 1.58893H21.6186V1.87166ZM21.6186 1.50711H21.6945C21.7809 1.50711 21.8545 1.47575 21.8545 1.39439C21.8545 1.33666 21.8127 1.27893 21.6945 1.27893C21.6604 1.27893 21.6368 1.28166 21.6186 1.28439V1.50711Z" fill="#9C9C9C"/>
</g>
<defs>
<clipPath id="clip0_99_7533">
<rect width="80" height="20" fill="white"/>
</clipPath>
</defs>
</svg>
