<svg width="20" height="24" viewBox="0 0 20 24" fill="none" xmlns="http://www.w3.org/2000/svg">
<g clip-path="url(#clip0_99_7529)">
<path d="M16.2695 12.725C16.3032 16.3455 19.4457 17.5504 19.4805 17.5657C19.4539 17.6507 18.9784 19.2827 17.8249 20.9685C16.8277 22.4259 15.7928 23.878 14.1625 23.9081C12.5605 23.9376 12.0454 22.9581 10.2139 22.9581C8.38301 22.9581 7.81069 23.878 6.29427 23.9376C4.7206 23.9971 3.52227 22.3616 2.51682 20.9095C0.462304 17.9392 -1.10777 12.5161 1.00044 8.85549C2.04776 7.0376 3.9194 5.88643 5.95089 5.85691C7.49619 5.82743 8.95477 6.89654 9.89943 6.89654C10.8435 6.89654 12.616 5.61085 14.4793 5.79967C15.2594 5.83213 17.449 6.11477 18.8551 8.17283C18.7418 8.24306 16.2424 9.69809 16.2695 12.725ZM13.2589 3.83456C14.0943 2.82325 14.6567 1.41543 14.5032 0.0146484C13.299 0.0630492 11.8427 0.817139 10.979 1.82789C10.2048 2.72295 9.52687 4.15555 9.7098 5.52861C11.0521 5.63246 12.4234 4.8465 13.2589 3.83456Z" fill="#9C9C9C"/>
</g>
<defs>
<clipPath id="clip0_99_7529">
<rect width="19.4805" height="24" fill="white"/>
</clipPath>
</defs>
</svg>
