<svg width="122" height="24" viewBox="0 0 122 24" fill="none" xmlns="http://www.w3.org/2000/svg">
<path fill-rule="evenodd" clip-rule="evenodd" d="M15.3334 7.01118C14.3467 6.3519 13.1867 6 12 6V0C14.3734 0 16.6934 0.703788 18.6668 2.02237C20.6402 3.34094 22.1783 5.21509 23.0866 7.40778C23.9948 9.60048 24.2324 12.0133 23.7694 14.3411C23.3064 16.6688 22.1635 18.8071 20.4853 20.4853C18.8071 22.1635 16.6688 23.3064 14.3411 23.7694C12.0133 24.2324 9.60048 23.9948 7.40778 23.0866C5.21508 22.1783 3.34094 20.6402 2.02237 18.6668C0.703788 16.6934 0 14.3734 0 12H6C6 13.1867 6.3519 14.3467 7.01118 15.3334C7.67046 16.3201 8.60754 17.0891 9.70392 17.5433C10.8002 17.9974 12.0067 18.1162 13.1705 17.8847C14.3344 17.6532 15.4035 17.0818 16.2427 16.2427C17.0818 15.4035 17.6532 14.3344 17.8847 13.1705C18.1162 12.0067 17.9974 10.8002 17.5433 9.70392C17.0891 8.60754 16.3201 7.67046 15.3334 7.01118Z" fill="white"/>
<path fill-rule="evenodd" clip-rule="evenodd" d="M6 3.17096e-06C6 0.787934 5.84481 1.56815 5.54328 2.29611C5.24175 3.02406 4.79979 3.68549 4.24264 4.24264C3.68549 4.7998 3.02406 5.24175 2.2961 5.54328C1.56814 5.84481 0.787929 6 2.62266e-07 6L0 12C1.57586 12 3.13629 11.6896 4.5922 11.0866C6.04812 10.4835 7.371 9.59958 8.48526 8.48526C9.59958 7.371 10.4835 6.04812 11.0866 4.5922C11.6896 3.13629 12 1.57586 12 0L6 3.17096e-06Z" fill="white"/>
<path d="M75.3714 8.67188H72.4602V17.9193H75.3714V8.67188Z" fill="white"/>
<path d="M72.7842 6.94016C73.0884 7.2446 73.4688 7.39681 73.9254 7.39681C74.382 7.39681 74.7564 7.2446 75.048 6.94016C75.3402 6.62305 75.486 6.24248 75.486 5.79851C75.486 5.34186 75.3402 4.96129 75.048 4.65686C74.7564 4.35241 74.382 4.2002 73.9254 4.2002C73.4688 4.2002 73.0884 4.35241 72.7842 4.65686C72.492 4.96129 72.3462 5.34186 72.3462 5.79851C72.3462 6.24248 72.492 6.62305 72.7842 6.94016Z" fill="white"/>
<path d="M30.6936 17.9188V4.48535H33.6809V15.293H39.6366V17.9188H30.6936Z" fill="white"/>
<path fill-rule="evenodd" clip-rule="evenodd" d="M45.0164 18.1279C44.065 18.1279 43.2025 17.9186 42.4286 17.5C41.6675 17.0687 41.065 16.4852 40.621 15.7495C40.1771 15.0137 39.9551 14.1892 39.9551 13.2759C39.9551 12.3626 40.1771 11.5444 40.621 10.8214C41.065 10.0983 41.6675 9.52745 42.4286 9.10889C43.1897 8.67755 44.0524 8.46191 45.0164 8.46191C45.9805 8.46191 46.843 8.67125 47.6041 9.08981C48.3652 9.50843 48.9678 10.0856 49.4117 10.8214C49.8557 11.5444 50.0777 12.3626 50.0777 13.2759C50.0777 14.1892 49.8557 15.0137 49.4117 15.7495C48.9678 16.4852 48.3652 17.0687 47.6041 17.5C46.843 17.9186 45.9805 18.1279 45.0164 18.1279ZM45.0164 15.4831C45.435 15.4831 45.8029 15.3943 46.12 15.2167C46.4371 15.0265 46.6781 14.7664 46.843 14.4366C47.0206 14.0941 47.1094 13.7072 47.1094 13.2759C47.1094 12.8446 47.0206 12.4704 46.843 12.1533C46.6654 11.8235 46.4181 11.5698 46.1009 11.3922C45.7965 11.2019 45.435 11.1068 45.0164 11.1068C44.6105 11.1068 44.249 11.2019 43.9318 11.3922C43.6147 11.5698 43.3673 11.8235 43.1897 12.1533C43.0121 12.4831 42.9234 12.8636 42.9234 13.2949C42.9234 13.7135 43.0121 14.0941 43.1897 14.4366C43.3673 14.7664 43.6147 15.0265 43.9318 15.2167C44.249 15.3943 44.6105 15.4831 45.0164 15.4831Z" fill="white"/>
<path fill-rule="evenodd" clip-rule="evenodd" d="M52.3834 21.5344C53.1571 21.8895 54.0514 22.0671 55.0663 22.0671C56.0557 22.0671 56.9373 21.8705 57.7111 21.4773C58.4849 21.084 59.0937 20.5386 59.5377 19.8409C59.9817 19.1433 60.204 18.3187 60.204 17.3673V8.67177H57.3495V9.29307C57.1372 9.11439 56.8962 8.96439 56.6265 8.84301C56.1318 8.60199 55.5673 8.48145 54.9331 8.48145C54.0832 8.48145 53.3284 8.68443 52.6688 9.09033C52.0091 9.48357 51.4891 10.029 51.1085 10.7267C50.7279 11.4117 50.5377 12.1855 50.5377 13.0481C50.5377 13.898 50.7279 14.6718 51.1085 15.3694C51.4891 16.0671 52.0091 16.6189 52.6688 17.0248C53.3284 17.4307 54.0832 17.6337 54.9331 17.6337C55.5546 17.6337 56.1191 17.5132 56.6265 17.2722C56.8723 17.1555 57.0943 17.0179 57.2925 16.8594V17.4435C57.2925 18.0904 57.0832 18.5914 56.6646 18.9466C56.2587 19.3018 55.6942 19.4794 54.9711 19.4794C54.3876 19.4794 53.8866 19.3779 53.4679 19.1749C53.062 18.972 52.6941 18.6739 52.3643 18.2806L50.5758 20.0692C51.0197 20.7035 51.6223 21.1919 52.3834 21.5344ZM56.5314 14.7796C56.2396 14.9572 55.8908 15.046 55.4848 15.046C55.0789 15.046 54.7237 14.9572 54.4193 14.7796C54.1275 14.602 53.8992 14.361 53.7343 14.0565C53.5694 13.7394 53.487 13.4032 53.487 13.0481C53.487 12.6675 53.5694 12.325 53.7343 12.0206C53.8992 11.7162 54.1339 11.4751 54.4383 11.2975C54.7428 11.1199 55.0916 11.0311 55.4848 11.0311C55.8908 11.0311 56.2396 11.1199 56.5314 11.2975C56.8358 11.4751 57.0641 11.7162 57.2164 12.0206C57.3813 12.325 57.4637 12.6675 57.4637 13.0481C57.4637 13.4286 57.3813 13.7711 57.2164 14.0755C57.0641 14.3673 56.8358 14.602 56.5314 14.7796Z" fill="white"/>
<path fill-rule="evenodd" clip-rule="evenodd" d="M66.3306 18.1279C65.379 18.1279 64.5162 17.9186 63.7428 17.5C62.9814 17.0687 62.379 16.4852 61.935 15.7495C61.491 15.0137 61.269 14.1892 61.269 13.2759C61.269 12.3626 61.491 11.5444 61.935 10.8214C62.379 10.0983 62.9814 9.52745 63.7428 9.10889C64.5036 8.67755 65.3664 8.46191 66.3306 8.46191C67.2942 8.46191 68.157 8.67125 68.9178 9.08981C69.6792 9.50843 70.2816 10.0856 70.7256 10.8214C71.1696 11.5444 71.3916 12.3626 71.3916 13.2759C71.3916 14.1892 71.1696 15.0137 70.7256 15.7495C70.2816 16.4852 69.6792 17.0687 68.9178 17.5C68.157 17.9186 67.2942 18.1279 66.3306 18.1279ZM66.3306 15.4831C66.7488 15.4831 67.1166 15.3943 67.434 15.2167C67.7508 15.0265 67.992 14.7664 68.157 14.4366C68.3346 14.0941 68.4234 13.7072 68.4234 13.2759C68.4234 12.8446 68.3346 12.4704 68.157 12.1533C67.9794 11.8235 67.7322 11.5698 67.4148 11.3922C67.1106 11.2019 66.7488 11.1068 66.3306 11.1068C65.9244 11.1068 65.5626 11.2019 65.2458 11.3922C64.9284 11.5698 64.6812 11.8235 64.5036 12.1533C64.326 12.4831 64.2372 12.8636 64.2372 13.2949C64.2372 13.7135 64.326 14.0941 64.5036 14.4366C64.6812 14.7664 64.9284 15.0265 65.2458 15.2167C65.5626 15.3943 65.9244 15.4831 66.3306 15.4831Z" fill="white"/>
<path fill-rule="evenodd" clip-rule="evenodd" d="M82.3685 18.1094C81.7475 18.1094 81.1763 17.9889 80.6561 17.7479C80.3825 17.6211 80.1353 17.4696 79.9145 17.2936V21.8198H77.0411V8.67177H79.9523V9.30999C80.1635 9.13725 80.3981 8.98791 80.6561 8.86203C81.1763 8.60829 81.7475 8.48145 82.3685 8.48145C83.2439 8.48145 84.0179 8.69079 84.6899 9.10941C85.3751 9.52797 85.9079 10.0988 86.2883 10.8219C86.6819 11.5449 86.8781 12.3694 86.8781 13.2954C86.8781 14.2215 86.6819 15.046 86.2883 15.769C85.9079 16.4921 85.3751 17.0629 84.6899 17.4815C84.0179 17.9001 83.2439 18.1094 82.3685 18.1094ZM81.8363 15.4836C82.2545 15.4836 82.6163 15.3885 82.9205 15.1982C83.2379 15.0079 83.4851 14.7478 83.6627 14.4181C83.8403 14.0883 83.9291 13.714 83.9291 13.2954C83.9291 12.8641 83.8403 12.4836 83.6627 12.1538C83.4851 11.824 83.2379 11.5703 82.9205 11.3927C82.6163 11.2024 82.2611 11.1073 81.8549 11.1073C81.4493 11.1073 81.0875 11.2024 80.7707 11.3927C80.4659 11.5703 80.2253 11.824 80.0477 12.1538C79.8701 12.4836 79.7813 12.8641 79.7813 13.2954C79.7813 13.714 79.8635 14.0883 80.0285 14.4181C80.2061 14.7478 80.4533 15.0079 80.7707 15.1982C81.0875 15.3885 81.4427 15.4836 81.8363 15.4836Z" fill="white"/>
<path d="M89.7276 17.9381C90.2604 18.0776 90.7992 18.1474 91.3446 18.1474C92.499 18.1474 93.4122 17.881 94.0848 17.3482C94.7694 16.8155 95.112 16.0988 95.112 15.1981C95.112 14.6146 95.0046 14.1452 94.7886 13.7901C94.5732 13.4222 94.2942 13.1305 93.9516 12.9148C93.609 12.6992 93.2472 12.5279 92.8668 12.401C92.4864 12.2742 92.1246 12.1664 91.7826 12.0776C91.44 11.9888 91.161 11.8873 90.945 11.7731C90.7296 11.659 90.6216 11.5067 90.6216 11.3165C90.6216 11.1389 90.7044 11.0057 90.8688 10.9169C91.0338 10.8154 91.281 10.7647 91.611 10.7647C91.9536 10.7647 92.3022 10.8344 92.6574 10.974C93.0252 11.1135 93.3552 11.3546 93.6468 11.6971L95.3022 10.0226C94.884 9.48983 94.3386 9.09023 93.666 8.82389C93.0066 8.54483 92.2836 8.40527 91.497 8.40527C90.7488 8.40527 90.0954 8.53211 89.5374 8.78579C88.9788 9.03953 88.5474 9.38837 88.2432 9.83231C87.939 10.2636 87.7866 10.7774 87.7866 11.3736C87.7866 11.9317 87.8946 12.3947 88.11 12.7626C88.3254 13.1177 88.605 13.3969 88.947 13.5998C89.2896 13.8028 89.6514 13.9613 90.0318 14.0755C90.4122 14.1896 90.774 14.2975 91.1166 14.399C91.4586 14.4878 91.7382 14.5956 91.9536 14.7224C92.1822 14.8366 92.2962 15.0079 92.2962 15.2362C92.2962 15.4138 92.2008 15.5533 92.0106 15.6548C91.833 15.7562 91.5732 15.807 91.2306 15.807C90.7356 15.807 90.279 15.7182 89.8608 15.5406C89.442 15.3503 89.0802 15.0903 88.776 14.7605L87.1206 16.4349C87.438 16.7774 87.8184 17.0819 88.2624 17.3482C88.719 17.6019 89.2074 17.7985 89.7276 17.9381Z" fill="white"/>
<path d="M100.421 18.1285C99.5712 18.1285 98.8164 17.9573 98.157 17.6148C97.5096 17.2596 97.0026 16.7776 96.6348 16.1687C96.2664 15.5472 96.0828 14.8368 96.0828 14.0376V8.67188H98.994V13.9996C98.994 14.3167 99.0444 14.5894 99.1464 14.8177C99.2604 15.0461 99.4254 15.2237 99.6408 15.3505C99.8568 15.4774 100.117 15.5408 100.421 15.5408C100.852 15.5408 101.195 15.4076 101.449 15.1412C101.702 14.8621 101.829 14.4816 101.829 13.9996V8.67188H104.74V14.0186C104.74 14.8305 104.557 15.5472 104.188 16.1687C103.82 16.7776 103.313 17.2596 102.666 17.6148C102.019 17.9573 101.271 18.1285 100.421 18.1285Z" fill="white"/>
<path d="M109.099 8.67177H106.187V17.9191H109.099V12.5153C109.099 12.1982 109.162 11.9318 109.289 11.7162C109.429 11.5005 109.613 11.3356 109.841 11.2215C110.069 11.0946 110.329 11.0311 110.621 11.0311C111.04 11.0311 111.388 11.1643 111.667 11.4307C111.959 11.6844 112.105 12.046 112.105 12.5153V17.9191H115.016V12.5153C115.016 12.1982 115.08 11.9318 115.207 11.7162C115.346 11.5005 115.53 11.3356 115.759 11.2215C115.987 11.0946 116.247 11.0311 116.539 11.0311C116.957 11.0311 117.306 11.1643 117.585 11.4307C117.877 11.6844 118.022 12.046 118.022 12.5153V17.9191H120.934V12.1918C120.934 11.4181 120.769 10.7584 120.439 10.213C120.122 9.65481 119.684 9.22989 119.126 8.93817C118.581 8.63367 117.953 8.48145 117.242 8.48145C116.519 8.48145 115.866 8.64003 115.283 8.95719C114.904 9.15921 114.572 9.41997 114.289 9.73941C114.024 9.40527 113.702 9.13185 113.323 8.91909C112.816 8.62737 112.238 8.48145 111.592 8.48145C110.906 8.48145 110.291 8.62737 109.746 8.91909C109.508 9.04047 109.293 9.18585 109.099 9.35523V8.67177Z" fill="white"/>
</svg>
