<svg width="80" height="24" viewBox="0 0 80 24" fill="none" xmlns="http://www.w3.org/2000/svg">
<g clip-path="url(#clip0_99_7540)">
<path fill-rule="evenodd" clip-rule="evenodd" d="M49.2918 18.7518C44.6927 22.1523 38.0031 23.9641 32.2334 23.9641C24.1502 23.9641 16.9032 20.9816 11.3843 16.0202C10.9662 15.63 11.3286 15.1004 11.8581 15.407C17.7951 18.8633 25.1258 20.9259 32.7072 20.9259C37.808 20.9259 43.4384 19.8667 48.6228 17.6647C49.4033 17.3581 50.0443 18.1943 49.2918 18.7518Z" fill="#9C9C9C"/>
<path fill-rule="evenodd" clip-rule="evenodd" d="M51.2148 16.5501C50.6295 15.7975 47.3126 16.1878 45.8353 16.3829C45.3893 16.4386 45.3057 16.0484 45.7238 15.7697C48.3717 13.9022 52.6921 14.4596 53.1938 15.0728C53.6955 15.686 53.0544 20.0342 50.5737 22.0969C50.1835 22.4035 49.8212 22.2362 49.9884 21.8181C50.5459 20.4245 51.8001 17.3305 51.2148 16.5501Z" fill="#9C9C9C"/>
<path d="M45.919 2.6689V0.857149C45.919 0.578418 46.1141 0.411179 46.365 0.411179H54.4482C54.699 0.411179 54.922 0.606291 54.922 0.857149V2.39017C54.922 2.64103 54.699 2.97551 54.3088 3.53297L50.1279 9.49782C51.6887 9.46995 53.3333 9.69293 54.7269 10.4734C55.0335 10.6406 55.1171 10.9193 55.145 11.1702V13.0935C55.145 13.3722 54.8663 13.6788 54.5597 13.5116C52.079 12.2015 48.7621 12.0621 46.0305 13.5394C45.7518 13.6788 45.4452 13.4001 45.4452 13.1213V11.2817C45.4452 11.003 45.4452 10.5013 45.7518 10.0553L50.6017 3.11487H46.3929C46.142 3.11487 45.919 2.91976 45.919 2.6689ZM16.4571 13.9018H14.0043C13.7813 13.8739 13.5862 13.7067 13.5583 13.4837V0.885022C13.5583 0.634164 13.7813 0.439052 14.0321 0.439052H16.3177C16.5686 0.439052 16.7358 0.634164 16.7637 0.857149V2.50166H16.8195C17.4048 0.912895 18.5476 0.160321 20.0527 0.160321C21.5858 0.160321 22.5613 0.912895 23.2303 2.50166C23.8156 0.912895 25.1814 0.160321 26.6308 0.160321C27.6621 0.160321 28.777 0.578418 29.4739 1.55398C30.2543 2.61316 30.0871 4.14618 30.0871 5.51196V13.4837C30.0871 13.7345 29.8641 13.9296 29.6132 13.9296H27.1883C26.9374 13.9018 26.7423 13.7067 26.7423 13.4837V6.79413C26.7423 6.26454 26.798 4.92663 26.6865 4.42491C26.4914 3.58872 25.9618 3.33786 25.2371 3.33786C24.6518 3.33786 24.0107 3.72808 23.7599 4.36916C23.509 5.01025 23.5369 6.06942 23.5369 6.79413V13.4837C23.5369 13.7345 23.3139 13.9296 23.063 13.9296H20.6102C20.3593 13.9018 20.1642 13.7067 20.1642 13.4837V6.79413C20.1642 5.40047 20.3872 3.30998 18.6591 3.30998C16.9031 3.30998 16.9588 5.31685 16.9588 6.79413V13.4837C16.931 13.7067 16.7358 13.9018 16.4571 13.9018ZM61.8903 0.160321C65.5417 0.160321 67.5207 3.28211 67.5207 7.26797C67.5207 11.1145 65.3466 14.1805 61.8903 14.1805C58.3226 14.1805 56.3714 11.0587 56.3714 7.15648C56.3436 3.22636 58.3226 0.160321 61.8903 0.160321ZM61.8903 2.75252C60.0786 2.75252 59.9671 5.23323 59.9671 6.76625C59.9671 8.29928 59.9392 11.5883 61.8624 11.5883C63.7578 11.5883 63.8693 8.94036 63.8693 7.32372C63.8693 6.26454 63.8136 4.98237 63.507 3.97894C63.2282 3.087 62.6708 2.75252 61.8903 2.75252ZM72.2312 13.9018H69.7784C69.5275 13.8739 69.3324 13.6788 69.3324 13.4558V0.829276C69.3603 0.606291 69.5554 0.411179 69.8063 0.411179H72.0919C72.3149 0.411179 72.4821 0.578418 72.5378 0.77353V2.69678H72.5936C73.2904 0.968642 74.2381 0.160321 75.9384 0.160321C77.0254 0.160321 78.1125 0.550545 78.8093 1.6376C79.4504 2.64103 79.4504 4.34129 79.4504 5.56771V13.5116C79.4225 13.7345 79.2274 13.9018 78.9765 13.9018H76.5237C76.3007 13.8739 76.1056 13.7067 76.0777 13.5116V6.65476C76.0777 5.2611 76.245 3.25424 74.5447 3.25424C73.9594 3.25424 73.4019 3.64446 73.1232 4.25767C72.7887 5.03812 72.733 5.79069 72.733 6.65476V13.4558C72.7051 13.7067 72.4821 13.9018 72.2312 13.9018ZM41.961 13.8739C41.7938 14.0133 41.5708 14.0411 41.3757 13.9296C40.5674 13.2607 40.4001 12.9262 39.9542 12.2851C38.6163 13.6509 37.6407 14.069 35.9126 14.069C33.8499 14.069 32.2333 12.7868 32.2333 10.2504C32.2333 8.24353 33.3204 6.90562 34.8534 6.23666C36.1913 5.65133 38.0588 5.53983 39.4803 5.3726V5.06599C39.4803 4.48066 39.5361 3.78383 39.1737 3.28211C38.8671 2.83614 38.3096 2.64103 37.8079 2.64103C36.8602 2.64103 36.024 3.11487 35.8289 4.11831C35.7732 4.34129 35.6338 4.56428 35.4108 4.56428L33.0416 4.31342C32.8465 4.25767 32.6235 4.11831 32.6793 3.8117C33.2367 0.912895 35.8289 0.0488281 38.1703 0.0488281C39.3688 0.0488281 40.9297 0.355433 41.8774 1.27525C43.076 2.39017 42.9645 3.89532 42.9645 5.51196V9.33058C42.9645 10.4734 43.4383 10.9751 43.8843 11.6162C44.0515 11.8392 44.0794 12.1179 43.8843 12.2573C43.3547 12.6754 42.4627 13.4558 41.961 13.8739ZM39.4803 7.88118V7.35159C37.6964 7.35159 35.8289 7.74181 35.8289 9.8323C35.8289 10.8915 36.3864 11.6162 37.3341 11.6162C38.0309 11.6162 38.6441 11.1981 39.0343 10.5013C39.5082 9.63719 39.4803 8.82886 39.4803 7.88118ZM9.15435 13.9296C8.34603 13.2607 8.17879 12.9262 7.73282 12.2851C6.39491 13.6509 5.41935 14.069 3.69122 14.069C1.6286 14.069 0.0119629 12.7868 0.0119629 10.2504C0.0119629 8.24353 1.09901 6.90562 2.63204 6.23666C3.96995 5.65133 5.83745 5.53983 7.25898 5.3726V5.06599C7.25898 4.48066 7.31472 3.78383 6.95237 3.28211C6.64577 2.83614 6.0883 2.64103 5.58659 2.64103C4.6389 2.64103 3.80271 3.11487 3.6076 4.11831C3.55185 4.34129 3.41248 4.56428 3.1895 4.56428L0.820284 4.31342C0.625172 4.25767 0.402187 4.11831 0.457933 3.8117C1.0154 0.912895 3.6076 0.0488281 5.94894 0.0488281C7.14748 0.0488281 8.70838 0.355433 9.65607 1.27525C10.8546 2.39017 10.7431 3.89532 10.7431 5.51196V9.33058C10.7431 10.4734 11.217 10.9751 11.6629 11.6162C11.8302 11.8392 11.858 12.1179 11.6629 12.2573C11.1333 12.6754 10.2414 13.4558 9.73969 13.8739C9.57245 14.0133 9.34946 14.0411 9.15435 13.9296ZM7.28685 7.88118V7.35159C5.50297 7.35159 3.63547 7.74181 3.63547 9.8323C3.63547 10.8915 4.19293 11.6162 5.14062 11.6162C5.83745 11.6162 6.45066 11.1981 6.84088 10.5013C7.31472 9.63719 7.28685 8.82886 7.28685 7.88118Z" fill="#9C9C9C"/>
</g>
<defs>
<clipPath id="clip0_99_7540">
<rect width="79.4702" height="24" fill="white" transform="translate(-0.000244141)"/>
</clipPath>
</defs>
</svg>
