<svg width="74" height="24" viewBox="0 0 74 24" fill="none" xmlns="http://www.w3.org/2000/svg">
<g clip-path="url(#clip0_99_7504)">
<path fill-rule="evenodd" clip-rule="evenodd" d="M9.04097 0.0117188H9.69337C11.9583 0.0609571 14.1864 0.971867 15.7866 2.58442C15.1958 3.18759 14.5926 3.76614 14.014 4.36931C13.1154 3.55688 12.0322 2.92909 10.8505 2.70752C9.10251 2.33823 7.21915 2.67059 5.75431 3.66767C4.15406 4.71398 3.07082 6.48656 2.83693 8.38224C2.57843 10.2533 3.10775 12.2228 4.3264 13.6754C5.49581 15.091 7.2807 15.9773 9.12713 16.0388C10.8505 16.1373 12.6477 15.608 13.9033 14.4016C14.888 13.5523 15.3435 12.2598 15.4912 11.0042C13.4478 11.0042 11.4044 11.0165 9.36102 11.0042V8.46841H17.9654C18.4086 11.1888 17.7685 14.2539 15.7005 16.1988C14.3218 17.5775 12.4138 18.3899 10.4689 18.55C8.58551 18.7346 6.6406 18.3776 4.96649 17.4667C2.96003 16.3958 1.35978 14.5863 0.57197 12.4567C-0.166605 10.4995 -0.178915 8.28376 0.510422 6.31423C1.13821 4.51703 2.34455 2.92909 3.89556 1.82123C5.38502 0.725675 7.19453 0.122505 9.04097 0.0117188Z" fill="#9C9C9C"/>
<path fill-rule="evenodd" clip-rule="evenodd" d="M58.4023 0.651367H61.0366V18.2295C60.1626 18.2295 59.2763 18.2418 58.4023 18.2171C58.4147 12.3701 58.4023 6.51073 58.4023 0.651367Z" fill="#9C9C9C"/>
<path d="M23.8247 6.74494C25.4496 6.4372 27.2099 6.78187 28.5516 7.75432C29.7703 8.616 30.6196 9.97005 30.8781 11.4472C31.2105 13.1582 30.7919 15.0293 29.6841 16.3833C28.4901 17.8974 26.5328 18.7099 24.6248 18.5868C22.8769 18.4883 21.1782 17.6143 20.1442 16.1864C18.9747 14.6108 18.6916 12.4443 19.3317 10.5978C19.9718 8.61599 21.7813 7.10192 23.8247 6.74494ZM24.194 9.08376C23.5293 9.25609 22.9138 9.63769 22.4707 10.1793C21.2766 11.6072 21.3505 13.9337 22.6676 15.2632C23.4185 16.0264 24.551 16.3833 25.5973 16.1741C26.5698 16.0017 27.4191 15.3493 27.8869 14.4877C28.6993 13.0228 28.4654 11.0041 27.2222 9.85926C26.422 9.12069 25.2526 8.81295 24.194 9.08376Z" fill="#9C9C9C"/>
<path d="M36.8729 6.74487C38.7316 6.38789 40.7627 6.90489 42.1537 8.20971C44.4186 10.2408 44.6648 14.0445 42.7322 16.3833C41.5628 17.8604 39.6671 18.6729 37.7961 18.5867C36.0112 18.5375 34.2509 17.6512 33.1923 16.1863C31.9983 14.5738 31.7398 12.358 32.4168 10.4747C33.0938 8.55438 34.8664 7.08954 36.8729 6.74487ZM37.2421 9.08369C36.5774 9.25602 35.9619 9.63762 35.5188 10.1669C34.3371 11.5702 34.3863 13.8598 35.6542 15.2016C36.4051 16.0017 37.5745 16.3956 38.6577 16.174C39.6179 15.9894 40.4796 15.3493 40.9473 14.4876C41.7474 13.0104 41.5136 10.9917 40.258 9.84688C39.4579 9.10831 38.2885 8.81288 37.2421 9.08369Z" fill="#9C9C9C"/>
<path d="M47.9392 7.45921C49.3548 6.57292 51.2381 6.32672 52.7645 7.08992C53.2446 7.29918 53.6385 7.65616 54.0201 8.01314C54.0324 7.68078 54.0201 7.33611 54.0324 6.99144C54.8572 7.00375 55.6819 6.99144 56.519 7.00375V17.8608C56.5066 19.498 56.0881 21.2336 54.9064 22.4277C53.6139 23.7448 51.632 24.151 49.8472 23.8802C47.9392 23.5971 46.2774 22.2061 45.5388 20.4458C46.2774 20.0888 47.0529 19.8057 47.8161 19.4734C48.2469 20.4828 49.1209 21.3444 50.2164 21.5414C51.312 21.7383 52.5799 21.4675 53.2938 20.5566C54.057 19.6211 54.057 18.3409 54.0201 17.1961C53.4539 17.75 52.8015 18.2424 52.0136 18.4271C50.3026 18.9071 48.4192 18.3163 47.1021 17.1592C45.7727 16.0021 44.9849 14.2172 45.0587 12.4446C45.0957 10.4381 46.2281 8.50552 47.9392 7.45921ZM50.4873 9.03483C49.7364 9.15793 49.0347 9.57645 48.5546 10.155C47.3975 11.5337 47.3976 13.7371 48.567 15.0912C49.2317 15.8913 50.3026 16.3344 51.3366 16.2236C52.3091 16.1252 53.2077 15.5097 53.6877 14.6603C54.5002 13.2201 54.3648 11.2629 53.2692 10.0073C52.5922 9.23179 51.509 8.85019 50.4873 9.03483Z" fill="#9C9C9C"/>
<path d="M64.2001 8.08687C65.6773 6.70819 67.9546 6.24043 69.8502 6.96669C71.6474 7.64372 72.7922 9.35475 73.3708 11.115C70.6996 12.2229 68.0407 13.3184 65.3695 14.4263C65.7388 15.128 66.3051 15.7681 67.0683 16.0266C68.1392 16.4081 69.4194 16.2727 70.318 15.5588C70.675 15.288 70.9581 14.931 71.2289 14.5863C71.9059 15.0418 72.583 15.4849 73.26 15.9404C72.2998 17.3806 70.6873 18.39 68.9516 18.55C67.0313 18.7839 64.9879 18.0453 63.7447 16.5436C61.7013 14.1801 61.8982 10.2164 64.2001 8.08687ZM65.5173 10.3641C65.0987 10.9673 64.9264 11.7059 64.9387 12.4322C66.7236 11.6936 68.5085 10.955 70.2934 10.2041C69.9979 9.51478 69.284 9.09625 68.5577 8.98547C67.3883 8.7762 66.1697 9.40399 65.5173 10.3641Z" fill="#9C9C9C"/>
</g>
<defs>
<clipPath id="clip0_99_7504">
<rect width="73.3945" height="24" fill="white"/>
</clipPath>
</defs>
</svg>
