<svg width="89" height="24" viewBox="0 0 89 24" fill="none" xmlns="http://www.w3.org/2000/svg">
<g clip-path="url(#clip0_99_7526)">
<path d="M12.1774 22.4246C10.8452 22.6585 9.48951 22.7287 8.08715 22.9155L3.80976 10.3876V23.4531C2.47754 23.5933 1.26217 23.7803 0 23.9673V0.0332031H3.55281L8.41432 13.6132V0.0332031H12.1774V22.4246ZM19.54 8.79814C20.9892 8.79814 23.2096 8.728 24.5418 8.728V12.4676C22.8823 12.4676 20.9424 12.4676 19.54 12.5378V18.1007C21.7371 17.9605 23.9342 17.7733 26.1545 17.7032V21.3024L15.8002 22.1207V0.0332031H26.1545V3.77291H19.54V8.79814ZM40.0615 3.773H36.1816V20.9756C34.9195 20.9756 33.6573 20.9756 32.4421 21.0222V3.773H28.5622V0.0332031H40.0617L40.0615 3.773ZM46.1385 8.5411H51.2573V12.2807H46.1385V20.7653H42.4687V0.0332031H52.9168V3.77291H46.1385V8.5411ZM58.9937 17.4929C61.1208 17.5395 63.271 17.7034 65.3513 17.8201V21.5131C62.009 21.3026 58.6666 21.0925 55.2541 21.0222V0.0332031H58.9937V17.4929ZM68.5066 21.7702C69.6986 21.8405 70.9608 21.9106 72.1762 22.0506V0.0332031H68.5066V21.7702ZM88.5609 0.0332031L83.816 11.416L88.5609 23.9673C87.1583 23.7803 85.756 23.5232 84.3535 23.2894L81.6658 16.3711L78.9314 22.7287C77.5754 22.4947 76.2666 22.4246 74.9112 22.2376L79.726 11.2756L75.3785 0.0332031H79.3985L81.8527 6.32059L84.4706 0.0332031H88.5609Z" fill="#9C9C9C"/>
</g>
<defs>
<clipPath id="clip0_99_7526">
<rect width="88.5609" height="24" fill="white"/>
</clipPath>
</defs>
</svg>
