<svg width="100" height="13" viewBox="0 0 100 13" fill="none" xmlns="http://www.w3.org/2000/svg">
<g clip-path="url(#clip0_99_7554)">
<path d="M69.753 0.275978H71.7931V10.728H80.6378L79.3389 12.7698H69.753V0.275978ZM53.7338 12.7698L46.1881 0.863548C45.7242 0.0906669 44.4875 0.0906669 43.9615 0.894622L36.4779 12.7698H38.9519L41.2095 9.18219H46.0338L47.3022 7.14095H42.4779L45.1067 3.02852L51.2609 12.7698H53.7338ZM58.3253 0.279932C54.8779 0.279932 52.6084 3.07485 52.6084 6.52287C52.6084 9.97033 54.8785 12.7664 58.3253 12.7664L66.7084 12.7562L68.0203 10.7325H58.3869C56.0632 10.7325 54.7033 8.84773 54.7033 6.52287C54.7033 4.19801 56.0626 2.31327 58.3869 2.31327H66.9683L68.235 0.273718L58.3253 0.279932ZM6.00218 2.31327H14.8462C17.1711 2.31327 18.5304 4.19801 18.5304 6.52287C18.5304 8.84773 17.1717 10.7325 14.8462 10.7325H6.00218C3.67732 10.7325 2.31857 8.84773 2.31857 6.52287C2.31857 4.19801 3.67732 2.31327 6.00218 2.31327ZM6.00218 0.279932C2.55416 0.279932 0.284668 3.07485 0.284668 6.52287C0.284668 9.97033 2.55416 12.7664 6.00218 12.7664H14.8462C18.2943 12.7664 20.5638 9.97033 20.5638 6.52287C20.5638 3.07485 18.2943 0.279932 14.8462 0.279932H6.00218ZM82.818 7.5127C83.1502 9.36016 84.4214 10.7325 86.4056 10.7325H96.0389L94.7259 12.7562L86.344 12.7664C82.8954 12.7664 80.627 9.97033 80.627 6.52287C80.627 3.07485 82.896 0.279932 86.344 0.279932L96.253 0.274283L94.9875 2.31383H86.4061C84.4496 2.31383 83.1728 3.66298 82.8186 5.47202H94.9259L93.627 7.51327L82.818 7.5127ZM32.1022 7.69349C34.1241 7.65819 35.7448 6.00899 35.7448 3.98671C35.7448 1.96443 34.1241 0.315236 32.1022 0.279932L21.696 0.275413V12.7692H23.9847V2.31383H32.1022C33.0261 2.31383 33.7751 3.06281 33.7751 3.98671C33.7751 4.91062 33.0261 5.65959 32.1022 5.65959H25.5926L32.9361 12.7551H35.8903L30.6333 7.69801L32.1022 7.69349ZM98.3909 0.287277C98.9214 0.287277 99.3412 0.706486 99.3412 1.26242C99.3412 1.82739 98.922 2.24321 98.3909 2.24321C97.8536 2.24321 97.4355 1.82739 97.4355 1.26242C97.4355 0.706486 97.8536 0.287277 98.3909 0.287277V0.0917969C97.7451 0.0917969 97.1994 0.588407 97.1994 1.26185C97.1994 1.94208 97.7457 2.43869 98.3909 2.43869C99.031 2.43869 99.5773 1.94208 99.5773 1.26185C99.5773 0.588407 99.031 0.0917969 98.3909 0.0917969V0.287277Z" fill="#9C9C9C"/>
<path fill-rule="evenodd" clip-rule="evenodd" d="M98.143 0.762725H98.4232C98.5656 0.762725 98.7176 0.793799 98.7176 0.961595C98.7176 1.1695 98.5622 1.1825 98.3876 1.1825H98.1424V1.35651H98.3786L98.7362 1.94352H98.9656L98.5803 1.34747C98.7791 1.32261 98.9311 1.21753 98.9311 0.975154C98.9311 0.707923 98.7724 0.589844 98.4531 0.589844H97.9368V1.94352H98.1418V0.762725H98.143Z" fill="#9C9C9C"/>
</g>
<defs>
<clipPath id="clip0_99_7554">
<rect width="100" height="13" fill="white"/>
</clipPath>
</defs>
</svg>
