<svg width="81" height="24" viewBox="0 0 81 24" fill="none" xmlns="http://www.w3.org/2000/svg">
<path d="M11.9999 0C5.37269 0 0 5.37254 0 11.9998C0 18.6277 5.37269 24 11.9999 24C18.6275 24 23.9998 18.6277 23.9998 11.9998C23.9998 5.37297 18.6277 0.00057274 11.9998 0.00057274L11.9999 0ZM17.503 17.3071C17.2875 17.6606 16.8269 17.7714 16.4746 17.556C13.6567 15.8338 10.1099 15.4447 5.93282 16.3989C5.53031 16.4912 5.12908 16.2389 5.03738 15.8365C4.94524 15.434 5.19643 15.0328 5.59995 14.9411C10.171 13.896 14.092 14.3458 17.255 16.2786C17.6075 16.4949 17.7192 16.9549 17.5029 17.3074L17.503 17.3071ZM18.9718 14.0402C18.7004 14.4805 18.1246 14.6186 17.6849 14.3482C14.46 12.3659 9.54256 11.7917 5.72734 12.9498C5.23254 13.0993 4.70995 12.8204 4.55977 12.3265C4.41075 11.8317 4.68975 11.3101 5.18368 11.1596C9.54171 9.83733 14.9594 10.4778 18.6635 12.7541C19.1035 13.0249 19.2425 13.601 18.9716 14.0403L18.9718 14.0402ZM19.0979 10.6378C15.2298 8.34061 8.84943 8.12939 5.15687 9.2501C4.56393 9.42993 3.93687 9.09519 3.75718 8.50224C3.57748 7.909 3.91193 7.28237 4.50531 7.10211C8.74412 5.81533 15.7906 6.06394 20.2434 8.7073C20.7767 9.02383 20.9517 9.71264 20.6356 10.2453C20.3203 10.7786 19.6296 10.9544 19.098 10.6378H19.0979ZM32.6478 11.078C30.5759 10.5839 30.2071 10.2371 30.2071 9.50845C30.2071 8.82007 30.8552 8.3568 31.819 8.3568C32.7533 8.3568 33.6797 8.70859 34.6509 9.4328C34.6803 9.45473 34.7171 9.46346 34.7534 9.45774C34.7896 9.45229 34.8217 9.43237 34.843 9.40242L35.8546 7.97635C35.8962 7.9176 35.8848 7.83664 35.8288 7.79179C34.6729 6.86424 33.3712 6.41329 31.8497 6.41329C29.6126 6.41329 28.0499 7.75582 28.0499 9.67669C28.0499 11.7365 29.3979 12.4659 31.7273 13.0289C33.7099 13.4856 34.0445 13.8682 34.0445 14.5521C34.0445 15.31 33.3679 15.7812 32.279 15.7812C31.0696 15.7812 30.0832 15.3738 28.9796 14.4182C28.9523 14.3945 28.9147 14.3838 28.88 14.3858C28.8435 14.3888 28.8101 14.4057 28.7869 14.4336L27.6526 15.7836C27.605 15.8396 27.611 15.9233 27.6661 15.9718C28.95 17.118 30.5291 17.7234 32.2332 17.7234C34.6438 17.7234 36.2015 16.4062 36.2015 14.3676C36.2058 12.6466 35.1756 11.6937 32.6521 11.0798L32.6478 11.078ZM41.6553 9.03458C40.6104 9.03458 39.7534 9.44612 39.0466 10.2894V9.34022C39.0466 9.26528 38.9859 9.20424 38.9111 9.20424H37.0559C36.9809 9.20424 36.9203 9.26528 36.9203 9.34022V19.887C36.9203 19.9619 36.9809 20.023 37.0559 20.023H38.9111C38.9859 20.023 39.0466 19.962 39.0466 19.887V16.5578C39.7535 17.3511 40.6107 17.7387 41.6553 17.7387C43.5968 17.7387 45.5623 16.2442 45.5623 13.3872C45.5651 10.5294 43.5991 9.03444 41.6575 9.03444L41.6553 9.03458ZM43.405 13.3872C43.405 14.842 42.5088 15.8573 41.2256 15.8573C39.957 15.8573 39.0001 14.7959 39.0001 13.3872C39.0001 11.9786 39.957 10.9171 41.2256 10.9171C42.488 10.9169 43.4051 11.9555 43.4051 13.387L43.405 13.3872ZM50.5998 9.03458C48.0994 9.03458 46.1406 10.9599 46.1406 13.4183C46.1406 15.8498 48.086 17.7549 50.5691 17.7549C53.0784 17.7549 55.0432 15.8361 55.0432 13.3872C55.0432 10.9467 53.0915 9.03487 50.5996 9.03487L50.5998 9.03458ZM50.5998 15.8717C49.2699 15.8717 48.2672 14.8032 48.2672 13.3864C48.2672 11.9637 49.2352 10.9312 50.5691 10.9312C51.9076 10.9312 52.917 11.9998 52.917 13.4175C52.917 14.84 51.9426 15.8717 50.5999 15.8717H50.5998ZM60.3825 9.20425H58.341V7.11702C58.341 7.04222 58.2805 6.98117 58.2056 6.98117H56.3506C56.2755 6.98117 56.2146 7.04222 56.2146 7.11702V9.20425H55.3226C55.248 9.20425 55.1875 9.26528 55.1875 9.34023V10.9347C55.1875 11.0095 55.248 11.0707 55.3226 11.0707H56.2146V15.1963C56.2146 16.8635 57.0445 17.7088 58.681 17.7088C59.3465 17.7088 59.8986 17.5714 60.4189 17.2763C60.4612 17.2527 60.4874 17.2071 60.4874 17.1587V15.6403C60.4874 15.5935 60.463 15.5492 60.4229 15.5247C60.3825 15.4993 60.3322 15.498 60.2908 15.5185C59.9334 15.6984 59.5879 15.7813 59.2018 15.7813C58.6065 15.7813 58.341 15.5111 58.341 14.9054V11.0714H60.3825C60.4574 11.0714 60.5178 11.0103 60.5178 10.9354V9.3411C60.5206 9.26616 60.4605 9.20512 60.3845 9.20512L60.3825 9.20425ZM67.4957 9.21241V8.95605C67.4957 8.20189 67.7848 7.86558 68.4334 7.86558C68.8201 7.86558 69.1308 7.94239 69.4787 8.05846C69.5216 8.07193 69.5663 8.0652 69.6011 8.03954C69.6369 8.01389 69.6571 7.97276 69.6571 7.9292V6.36586C69.6571 6.3061 69.6187 6.25323 69.5611 6.2356C69.1936 6.12626 68.7233 6.01406 68.0191 6.01406C66.3056 6.01406 65.3998 6.97901 65.3998 8.80358V9.19621H64.5085C64.4337 9.19621 64.3724 9.25725 64.3724 9.33205V10.9347C64.3724 11.0095 64.4337 11.0706 64.5085 11.0706H65.3998V17.4342C65.3998 17.5092 65.4603 17.5702 65.5351 17.5702H67.3904C67.4653 17.5702 67.5263 17.5092 67.5263 17.4342V11.0711H69.2585L71.9119 17.4331C71.6107 18.1016 71.3145 18.2345 70.9101 18.2345C70.5832 18.2345 70.2391 18.1369 69.8871 17.9444C69.854 17.9262 69.8147 17.9231 69.7791 17.9342C69.7437 17.9466 69.7139 17.973 69.6988 18.0074L69.07 19.3869C69.0401 19.4521 69.0657 19.5286 69.1285 19.5624C69.7849 19.918 70.3775 20.0697 71.1099 20.0697C72.4797 20.0697 73.2369 19.4316 73.9044 17.7149L77.1229 9.39812C77.1391 9.35627 77.1342 9.30899 77.1086 9.27188C77.0831 9.23505 77.042 9.21284 76.997 9.21284H75.0656C75.0078 9.21284 74.956 9.24966 74.9371 9.30397L72.9586 14.9552L70.7916 9.30025C70.7718 9.24766 70.7211 9.21283 70.6649 9.21283H67.4952L67.4957 9.21241ZM63.3716 9.20425H61.5164C61.4415 9.20425 61.3804 9.26528 61.3804 9.34023V17.4342C61.3804 17.5092 61.4415 17.5702 61.5164 17.5702H63.3716C63.4464 17.5702 63.5076 17.5092 63.5076 17.4342V9.3408C63.5077 9.32292 63.5042 9.3052 63.4973 9.28868C63.4905 9.27215 63.4805 9.25714 63.4678 9.2445C63.4552 9.23186 63.4402 9.22185 63.4236 9.21504C63.4071 9.20823 63.3894 9.20475 63.3715 9.20482L63.3716 9.20425ZM62.4545 5.51885C61.7196 5.51885 61.1232 6.1138 61.1232 6.84877C61.1232 7.58416 61.7197 8.17984 62.4546 8.17984C63.1892 8.17984 63.785 7.58416 63.785 6.84877C63.785 6.11395 63.1889 5.51885 62.4553 5.51885H62.4545ZM78.707 11.8066C77.9728 11.8066 77.4015 11.217 77.4015 10.5009C77.4015 9.78487 77.9803 9.18848 78.7139 9.18848C79.4482 9.18848 80.0195 9.778 80.0195 10.4935C80.0195 11.2095 79.4406 11.8066 78.7069 11.8066H78.707ZM78.7142 9.3183C78.0454 9.3183 77.5395 9.84993 77.5395 10.5009C77.5395 11.1516 78.0419 11.6761 78.7075 11.6761C79.3761 11.6761 79.8826 11.1449 79.8826 10.4935C79.8826 9.84276 79.3797 9.3183 78.7148 9.3183H78.7142ZM79.0037 10.6277L79.3729 11.1447H79.0616L78.7291 10.6704H78.4433V11.1447H78.1826V9.77427H78.7938C79.1122 9.77427 79.3215 9.93719 79.3215 10.2115C79.3229 10.4362 79.1926 10.5734 79.0048 10.6277L79.0037 10.6277ZM78.783 10.0094H78.4431V10.4429H78.783C78.9527 10.4429 79.054 10.3599 79.054 10.2259C79.054 10.0849 78.9522 10.0094 78.7831 10.0094L78.783 10.0094Z" fill="#9C9C9C"/>
</svg>
