<svg width="72" height="24" viewBox="0 0 72 24" fill="none" xmlns="http://www.w3.org/2000/svg">
<g clip-path="url(#clip0_99_7514)">
<path fill-rule="evenodd" clip-rule="evenodd" d="M10.7158 10.7406H6.30353V12.0006H10.7158V17.0437H3.78226L1.26099 14.5225V1.28516H6.30353V5.69738H10.7158V10.7406Z" fill="white"/>
<path fill-rule="evenodd" clip-rule="evenodd" d="M29.6252 17.0436H14.4976L11.9763 14.5224V5.69727H17.0189V12.0004H18.2795V5.69727H23.322V12.0004H24.5827V5.69727H29.6252V17.0436Z" fill="white"/>
<path d="M35.9283 5.69727H30.8857V17.043H35.9283V5.69727Z" fill="white"/>
<path d="M35.9283 1.28516H30.8857V4.43675H35.9283V1.28516Z" fill="white"/>
<path fill-rule="evenodd" clip-rule="evenodd" d="M46.6437 10.7406H42.2315V12.0006H46.6437V17.0437H39.7102L37.189 14.5225V1.28516H42.2315V5.69738H46.6437V10.7406Z" fill="white"/>
<path fill-rule="evenodd" clip-rule="evenodd" d="M57.9896 10.7404H52.9471V12.0004H57.9896V17.0436H50.4258L47.9045 14.5224V8.21917L50.4258 5.69727H57.9896V10.7404Z" fill="white"/>
<path fill-rule="evenodd" clip-rule="evenodd" d="M70.596 17.0437H65.5534V10.7406H64.2928V17.0437H59.2502V1.28516H64.2928V5.69738H68.0747L70.596 8.21929V17.0437Z" fill="white"/>
<path d="M68.7049 4.43664H65.5534V0.0244141H58.6331L55.4506 4.43664H49.7954L47.9044 6.3276V4.43664H43.4922V0.0244141H29.6252V4.43664H10.1169L6.93375 0.0244141H0.000244141V15.1521L8.8247 23.9765H17.6492V21.4552L20.1704 23.9765H37.189V21.4552L39.7103 23.9765H47.9044V21.4552L50.4257 23.9765H66.1837L71.8565 18.3036V7.58823L68.7049 4.43664ZM10.7157 10.7398H6.30343V12.0005H10.7157V17.043H3.78215L1.26088 14.5217V1.28505H6.30343V5.69728H10.7157V10.7398ZM29.6252 17.043H14.4976L11.9763 14.5217V5.69728H17.0188V12.0005H18.2795V5.69728H23.322V12.0005H24.5827V5.69728H29.6252V17.043ZM35.9284 17.043H30.8858V5.69728H35.9284V17.043ZM35.9284 4.43664H30.8858V1.28505H35.9284V4.43664ZM46.6438 10.7398H42.2316V12.0005H46.6438V17.043H39.7103L37.189 14.5217V1.28505H42.2316V5.69728H46.6438V10.7398ZM57.9895 10.7398H52.947V12.0005H57.9895V17.043H50.4257L47.9044 14.5217V8.21855L50.4257 5.69728H57.9895V10.7398ZM70.5959 17.043H65.5534V10.7398H64.2927V17.043H59.2502V1.28505H64.2927V5.69728H68.0746L70.5959 8.21855V17.043Z" fill="#9C9C9C"/>
</g>
<defs>
<clipPath id="clip0_99_7514">
<rect width="71.8563" height="24" fill="white" transform="translate(0.000244141)"/>
</clipPath>
</defs>
</svg>
