<svg width="58" height="20" viewBox="0 0 58 20" fill="none" xmlns="http://www.w3.org/2000/svg">
<g clip-path="url(#clip0_99_7547)">
<path d="M3.30651 14.2733C3.54938 14.9179 3.88563 15.4689 4.31531 15.9266C4.74499 16.3843 5.25404 16.7346 5.84245 16.9774C6.43092 17.2203 7.07074 17.3417 7.76195 17.3417C8.4345 17.3417 9.06495 17.2156 9.65342 16.9634C10.2419 16.7111 10.7556 16.3562 11.1946 15.8986C11.6336 15.4409 11.9745 14.8945 12.2174 14.2593C12.4603 13.6242 12.5817 12.9143 12.5817 12.1297V0.0244141H15.5239V19.6394H12.6097V17.818C11.9559 18.5092 11.1852 19.0416 10.2979 19.4153C9.41049 19.7888 8.45316 19.9757 7.42571 19.9757C6.37952 19.9757 5.40347 19.7935 4.49741 19.4292C3.59142 19.065 2.80677 18.5466 2.14364 17.8741C1.48052 17.2015 0.957394 16.3937 0.574461 15.4502C0.191466 14.5068 0 13.4561 0 12.2978V0.0244141H2.94224V12.1297C2.94224 12.9143 3.06365 13.6288 3.30651 14.2733Z" fill="#9C9C9C"/>
<path d="M20.5958 0.0244141V7.16986C21.2496 6.51604 22.0062 5.99769 22.8655 5.6147C23.7248 5.2317 24.6589 5.04024 25.6676 5.04024C26.7138 5.04024 27.6945 5.23635 28.6099 5.62865C29.5252 6.02094 30.3191 6.55336 30.9917 7.22591C31.6642 7.89847 32.1967 8.69236 32.5889 9.60771C32.9812 10.5231 33.1774 11.4945 33.1774 12.522C33.1774 13.5494 32.9812 14.5161 32.5889 15.4221C32.1967 16.3282 31.6642 17.1175 30.9917 17.7899C30.3191 18.4625 29.5252 18.9949 28.6099 19.3872C27.6945 19.7795 26.7138 19.9756 25.6676 19.9756C24.6588 19.9756 23.7202 19.7841 22.8515 19.4011C21.9828 19.0182 21.2216 18.4998 20.5677 17.846V19.6394H17.7656V0.0244141H20.5958ZM20.918 14.4554C21.1702 15.0533 21.5205 15.5763 21.9688 16.0247C22.4172 16.473 22.9402 16.828 23.538 17.0895C24.1358 17.3511 24.7803 17.4818 25.4715 17.4818C26.1441 17.4818 26.7792 17.3511 27.3769 17.0895C27.9747 16.828 28.4931 16.4731 28.9322 16.0247C29.3712 15.5764 29.7214 15.0533 29.9829 14.4554C30.2445 13.8577 30.3752 13.2132 30.3752 12.522C30.3752 11.8308 30.2445 11.1816 29.9829 10.5745C29.7214 9.96733 29.3712 9.43962 28.9322 8.99127C28.4931 8.54299 27.9748 8.19267 27.3769 7.9405C26.7791 7.68834 26.144 7.56216 25.4715 7.56216C24.799 7.56216 24.1639 7.68827 23.5661 7.9405C22.9683 8.19273 22.4453 8.54299 21.9969 8.99127C21.5486 9.43962 21.1936 9.96733 20.9321 10.5745C20.6705 11.1816 20.5398 11.8308 20.5398 12.522C20.5397 13.2132 20.6658 13.8577 20.918 14.4554Z" fill="#9C9C9C"/>
<path d="M34.7742 9.63577C35.1478 8.73908 35.6616 7.94984 36.3153 7.26799C36.9691 6.58614 37.7445 6.04907 38.6412 5.65677C39.5378 5.26448 40.5093 5.06836 41.5554 5.06836C42.5828 5.06836 43.5356 5.25518 44.4136 5.62875C45.2916 6.00238 46.0481 6.52079 46.6833 7.18398C47.3185 7.8471 47.8136 8.63175 48.1684 9.53775C48.5234 10.4438 48.7008 11.4292 48.7008 12.4941V13.4188H37.072C37.1654 13.9979 37.3522 14.535 37.6324 15.0299C37.9127 15.525 38.2629 15.9547 38.6832 16.3189C39.1035 16.6833 39.5799 16.9682 40.1123 17.1736C40.6447 17.3791 41.2098 17.4819 41.8076 17.4819C43.5076 17.4819 44.8807 16.7813 45.9268 15.3802L47.9723 16.8933C47.2625 17.8461 46.3845 18.5933 45.3384 19.1351C44.2922 19.6768 43.1153 19.9477 41.8077 19.9477C40.7428 19.9477 39.7481 19.7608 38.8234 19.3872C37.8987 19.0137 37.0954 18.4905 36.4136 17.818C35.7317 17.1454 35.1946 16.3562 34.8023 15.4502C34.41 14.5442 34.2139 13.5587 34.2139 12.4939C34.2137 11.4852 34.4006 10.5325 34.7742 9.63577ZM38.7112 8.52889C37.9173 9.19208 37.3896 10.0748 37.128 11.1769H45.8427C45.5998 10.0748 45.0814 9.19208 44.2875 8.52889C43.4935 7.86576 42.5642 7.53417 41.4994 7.53417C40.4345 7.53417 39.5052 7.86576 38.7112 8.52889Z" fill="#9C9C9C"/>
<path d="M53.9967 8.85112C53.3989 9.50495 53.1 10.3923 53.1 11.5132V19.6395H50.2698V5.34849H53.0719V7.11385C53.4269 6.53474 53.8892 6.07703 54.459 5.74079C55.0287 5.40448 55.7059 5.23633 56.4906 5.23633H57.4713V7.87035H56.2944C55.3604 7.87042 54.5944 8.1973 53.9967 8.85112Z" fill="#9C9C9C"/>
</g>
<defs>
<clipPath id="clip0_99_7547">
<rect width="57.4713" height="20" fill="white"/>
</clipPath>
</defs>
</svg>
