<svg width="484" height="384" viewBox="0 0 484 384" fill="none" xmlns="http://www.w3.org/2000/svg">
<g clip-path="url(#clip0_17_2114)">
<path d="M346.298 271.508C346.298 272.259 345.593 272.869 344.725 272.869C343.858 272.869 343.153 272.259 343.153 271.508C343.153 270.757 343.858 270.147 344.725 270.147C345.593 270.156 346.298 270.757 346.298 271.508Z" fill="white"/>
<g opacity="0.7">
<path opacity="0.7" d="M227.532 165.384L453.036 -37.4189" stroke="#E9E9E9" stroke-width="2" stroke-miterlimit="10" stroke-linecap="round" stroke-linejoin="round" stroke-dasharray="0.3 0.3"/>
<path opacity="0.7" d="M229.339 181.926L469.014 -33.9727" stroke="#E9E9E9" stroke-width="2" stroke-miterlimit="10" stroke-linecap="round" stroke-linejoin="round" stroke-dasharray="0.3 0.3"/>
<path opacity="0.7" d="M236.578 193.439L483.041 -28.7241" stroke="#E9E9E9" stroke-width="2" stroke-miterlimit="10" stroke-linecap="round" stroke-linejoin="round" stroke-dasharray="0.3 0.3"/>
<path opacity="0.7" d="M246.767 202.24L498.743 -25.0127" stroke="#E9E9E9" stroke-width="2" stroke-miterlimit="10" stroke-linecap="round" stroke-linejoin="round" stroke-dasharray="0.3 0.3"/>
<path opacity="0.7" d="M254.699 213.118L514.578 -21.4341" stroke="#E9E9E9" stroke-width="2" stroke-miterlimit="10" stroke-linecap="round" stroke-linejoin="round" stroke-dasharray="0.3 0.3"/>
<path opacity="0.7" d="M264.031 222.705L531.383 -18.7476" stroke="#E9E9E9" stroke-width="2" stroke-miterlimit="10" stroke-linecap="round" stroke-linejoin="round" stroke-dasharray="0.3 0.3"/>
<path opacity="0.7" d="M273.29 232.363L544.246 -12.4297" stroke="#E9E9E9" stroke-width="2" stroke-miterlimit="10" stroke-linecap="round" stroke-linejoin="round" stroke-dasharray="0.3 0.3"/>
<path opacity="0.7" d="M282.561 242.004L559.989 -8.7627" stroke="#E9E9E9" stroke-width="2" stroke-miterlimit="10" stroke-linecap="round" stroke-linejoin="round" stroke-dasharray="0.3 0.3"/>
<path opacity="0.7" d="M292.116 251.379L572.791 -2.38281" stroke="#E9E9E9" stroke-width="2" stroke-miterlimit="10" stroke-linecap="round" stroke-linejoin="round" stroke-dasharray="0.3 0.3"/>
<path opacity="0.7" d="M300.56 261.797L583.45 5.97607" stroke="#E9E9E9" stroke-width="2" stroke-miterlimit="10" stroke-linecap="round" stroke-linejoin="round" stroke-dasharray="0.3 0.3"/>
<path opacity="0.7" d="M310.136 271.155L595.477 13.0718" stroke="#E9E9E9" stroke-width="2" stroke-miterlimit="10" stroke-linecap="round" stroke-linejoin="round" stroke-dasharray="0.3 0.3"/>
<path opacity="0.7" d="M320.294 279.973L607.33 20.3354" stroke="#E9E9E9" stroke-width="2" stroke-miterlimit="10" stroke-linecap="round" stroke-linejoin="round" stroke-dasharray="0.3 0.3"/>
<path opacity="0.7" d="M328.86 290.268L605.748 39.9961" stroke="#E9E9E9" stroke-width="2" stroke-miterlimit="10" stroke-linecap="round" stroke-linejoin="round" stroke-dasharray="0.3 0.3"/>
</g>
<g opacity="0.7">
<g opacity="0.7">
<path opacity="0.7" d="M360.438 280.424L585.952 77.6216" stroke="#969696" stroke-width="2" stroke-miterlimit="10" stroke-linecap="round" stroke-linejoin="round" stroke-dasharray="0.3 0.3"/>
<path opacity="0.7" d="M362.245 296.966L601.93 81.0679" stroke="#969696" stroke-width="2" stroke-miterlimit="10" stroke-linecap="round" stroke-linejoin="round" stroke-dasharray="0.3 0.3"/>
<path opacity="0.7" d="M369.494 308.479L615.957 86.3164" stroke="#969696" stroke-width="2" stroke-miterlimit="10" stroke-linecap="round" stroke-linejoin="round" stroke-dasharray="0.3 0.3"/>
<path opacity="0.7" d="M379.672 317.281L631.649 90.019" stroke="#969696" stroke-width="2" stroke-miterlimit="10" stroke-linecap="round" stroke-linejoin="round" stroke-dasharray="0.3 0.3"/>
<path opacity="0.7" d="M387.615 328.149L647.484 93.5977" stroke="#969696" stroke-width="2" stroke-miterlimit="10" stroke-linecap="round" stroke-linejoin="round" stroke-dasharray="0.3 0.3"/>
<path opacity="0.7" d="M396.947 337.746L664.288 96.2842" stroke="#969696" stroke-width="2" stroke-miterlimit="10" stroke-linecap="round" stroke-linejoin="round" stroke-dasharray="0.3 0.3"/>
<path opacity="0.7" d="M406.196 347.404L677.152 102.611" stroke="#969696" stroke-width="2" stroke-miterlimit="10" stroke-linecap="round" stroke-linejoin="round" stroke-dasharray="0.3 0.3"/>
<path opacity="0.7" d="M415.466 357.044L692.895 106.278" stroke="#969696" stroke-width="2" stroke-miterlimit="10" stroke-linecap="round" stroke-linejoin="round" stroke-dasharray="0.3 0.3"/>
<path opacity="0.7" d="M425.032 366.42L705.697 112.658" stroke="#969696" stroke-width="2" stroke-miterlimit="10" stroke-linecap="round" stroke-linejoin="round" stroke-dasharray="0.3 0.3"/>
<path opacity="0.7" d="M433.465 376.829L716.366 121.008" stroke="#969696" stroke-width="2" stroke-miterlimit="10" stroke-linecap="round" stroke-linejoin="round" stroke-dasharray="0.3 0.3"/>
<path opacity="0.7" d="M443.042 386.195L728.393 128.112" stroke="#969696" stroke-width="2" stroke-miterlimit="10" stroke-linecap="round" stroke-linejoin="round" stroke-dasharray="0.3 0.3"/>
<path opacity="0.7" d="M453.21 395.005L740.236 135.376" stroke="#969696" stroke-width="2" stroke-miterlimit="10" stroke-linecap="round" stroke-linejoin="round" stroke-dasharray="0.3 0.3"/>
<path opacity="0.7" d="M461.776 405.308L738.664 155.037" stroke="#969696" stroke-width="2" stroke-miterlimit="10" stroke-linecap="round" stroke-linejoin="round" stroke-dasharray="0.3 0.3"/>
</g>
</g>
<path d="M443.756 261.205C443.756 264.166 440.979 266.569 437.559 266.569C434.139 266.569 431.362 264.166 431.362 261.205C431.362 258.245 434.139 255.842 437.559 255.842C440.979 255.842 443.756 258.236 443.756 261.205Z" stroke="url(#paint0_linear_17_2114)" stroke-miterlimit="10"/>
<path d="M234.975 170.907C234.975 173.611 232.443 175.802 229.319 175.802C226.195 175.802 223.663 173.611 223.663 170.907C223.663 168.203 226.195 166.012 229.319 166.012C232.443 166.012 234.975 168.203 234.975 170.907Z" fill="url(#paint1_linear_17_2114)"/>
<path d="M240.396 140.209L249.493 130.816" stroke="url(#paint2_linear_17_2114)" stroke-miterlimit="10"/>
<path d="M243.183 142.242L257.487 127.485" stroke="url(#paint3_linear_17_2114)" stroke-miterlimit="10"/>
<path d="M240.396 150.035L255.077 134.872" stroke="url(#paint4_linear_17_2114)" stroke-miterlimit="10"/>
<path d="M234.975 187.068L252.28 169.21" stroke="url(#paint5_linear_17_2114)" stroke-miterlimit="10"/>
<path d="M240.284 190.921L267.471 162.875" stroke="url(#paint6_linear_17_2114)" stroke-miterlimit="10"/>
<path d="M234.975 205.748L262.898 176.924" stroke="url(#paint7_linear_17_2114)" stroke-miterlimit="10"/>
<path d="M267.471 148.339C269.349 148.339 270.871 147.021 270.871 145.396C270.871 143.771 269.349 142.454 267.471 142.454C265.594 142.454 264.072 143.771 264.072 145.396C264.072 147.021 265.594 148.339 267.471 148.339Z" fill="white"/>
<path d="M269.707 207.18C269.707 208.806 268.186 210.122 266.307 210.122C264.429 210.122 262.908 208.806 262.908 207.18C262.908 205.554 264.429 204.237 266.307 204.237C268.186 204.237 269.707 205.554 269.707 207.18Z" fill="white"/>
<path d="M251.902 64.4731C251.902 65.2242 251.198 65.8339 250.33 65.8339C249.462 65.8339 248.758 65.2242 248.758 64.4731C248.758 63.722 249.462 63.1123 250.33 63.1123C251.198 63.1211 251.902 63.722 251.902 64.4731Z" fill="white"/>
<path d="M234.975 45.9788C236.853 45.9788 238.375 44.6614 238.375 43.0363C238.375 41.4112 236.853 40.0938 234.975 40.0938C233.097 40.0938 231.575 41.4112 231.575 43.0363C231.575 44.6614 233.097 45.9788 234.975 45.9788Z" fill="white"/>
<path d="M327.543 238.699C327.543 240.325 326.022 241.642 324.143 241.642C322.265 241.642 320.743 240.325 320.743 238.699C320.743 237.073 322.265 235.757 324.143 235.757C326.022 235.757 327.543 237.073 327.543 238.699Z" fill="white"/>
<path d="M196.945 109.689C198.823 109.689 200.345 108.371 200.345 106.746C200.345 105.121 198.823 103.804 196.945 103.804C195.068 103.804 193.545 105.121 193.545 106.746C193.545 108.371 195.068 109.689 196.945 109.689Z" fill="white"/>
<path d="M293.096 241.704L302.489 245.009L306.716 232.373L293.096 241.704Z" fill="#FF7E3D"/>
<path d="M267.471 231.153L275.108 248.03L304.419 225.816L267.471 231.153Z" fill="url(#paint8_linear_17_2114)"/>
<path d="M261.407 24.5947L248.982 32.1321L263.928 38.8212L261.407 24.5947Z" fill="#F59328"/>
<path d="M436.507 -6.74782C422.776 -13.3574 405.767 -17.7049 390.167 -13.8345C378.059 -10.8302 368.922 -3.00121 362.02 5.81745C354.251 15.7407 348.779 26.8656 342.98 37.7078C339.427 44.3439 335.557 50.7237 330.371 56.538C324.797 62.7942 318.161 68.3434 310.759 72.9559C303.102 77.7187 294.669 81.4388 285.726 84.0102C275.527 86.9438 264.929 88.5697 254.465 90.6197C237.262 94.0041 219.018 99.2617 207.757 111.792C202.775 117.332 199.814 124.048 199.681 131.09C199.538 138.318 202.213 145.44 206.43 151.626C215.996 165.684 232.627 173.725 249.983 178.877C268.564 184.391 288.176 187.015 306.369 193.554C315.455 196.824 324.154 201.109 331.361 206.968C338.508 212.782 344.031 219.86 348.942 227.159C358.202 240.943 365.655 255.974 378.998 267.311C385.154 272.542 392.515 276.775 400.826 278.931C409.177 281.087 418.1 281.087 426.584 279.523C466.451 272.162 484.195 237.391 500.265 208.841C509.249 192.883 519.213 177.348 534.354 165.11C548.974 153.296 566.421 144.283 580.051 131.523C592.159 120.195 601.266 105.686 599.132 89.8068C597.1 74.7144 586.248 61.3627 572.935 51.9166C557.6 41.0391 538.631 34.6769 520.214 28.8273C510.331 25.6904 500.326 22.7655 490.729 19.0013C481.255 15.2812 472.148 10.9249 463.154 6.41834C458.856 4.26227 454.588 2.07086 450.3 -0.102879C445.747 -2.40916 441.02 -4.40618 436.416 -6.6241C436.058 -6.80082 435.732 -6.32365 436.089 -6.14693C440.683 -3.93784 445.053 -1.36648 449.586 0.939802C453.874 3.11354 458.141 5.30495 462.439 7.46102C471.229 11.8704 480.132 16.1295 489.371 19.7877C507.697 27.0512 527.279 31.6019 545.553 38.989C562.593 45.8726 578.621 55.1154 588.851 69.0944C593.547 75.5096 596.896 82.7554 597.815 90.337C598.775 98.2455 596.937 106.154 593.037 113.32C584.87 128.333 569.647 139.043 554.834 149.001C546.973 154.286 539.03 159.525 531.852 165.508C524.91 171.287 518.938 177.817 513.751 184.833C503.174 199.139 495.773 214.938 486.697 229.951C477.835 244.602 466.993 259.27 451.046 268.866C436.313 277.729 416.906 282.483 399.437 277.287C382.245 272.171 370.882 258.625 362.224 245.512C353.036 231.586 345.399 216.308 331.382 205.368C317.538 194.57 299.335 189.463 281.673 185.381C263.01 181.068 243.52 177.534 227.063 168.326C212.545 160.206 200.478 146.156 201.049 130.613C201.621 114.867 216.323 103.795 231.882 97.8567C250.555 90.7258 271.504 90.0984 290.493 83.7716C306.4 78.4698 320.499 69.333 330.984 57.7221C340.295 47.4189 345.542 35.1453 352.086 23.4813C357.732 13.4167 364.133 3.09587 373.822 -4.52105C383.827 -12.3942 396.671 -15.3632 409.984 -13.755C419.162 -12.6505 427.891 -9.82286 436.007 -5.99673C436.559 -5.75814 437.049 -6.48273 436.507 -6.74782Z" fill="url(#paint9_linear_17_2114)"/>
<g opacity="0.4248">
<path opacity="0.4248" d="M441.816 -32.3379C426.114 -39.893 406.655 -44.859 388.82 -40.4232C374.986 -36.9859 364.542 -28.0346 356.66 -17.9612C347.768 -6.59769 341.51 6.13547 334.863 18.5417C330.79 26.1498 326.359 33.4486 320.427 40.1112C314.046 47.2774 306.44 53.6484 297.946 58.9237C289.176 64.3846 279.508 68.6437 269.268 71.5862C257.599 74.944 245.46 76.7996 233.485 79.1589C213.811 83.0292 192.933 89.0379 180.049 103.37C174.362 109.697 170.993 117.367 170.83 125.408C170.666 133.67 173.729 141.8 178.538 148.869C189.472 164.942 208.492 174.141 228.339 180.026C249.615 186.335 272.066 189.339 292.893 196.824C303.316 200.57 313.291 205.483 321.55 212.199C329.738 218.853 336.068 226.964 341.693 235.332C352.28 251.105 360.815 268.31 376.089 281.281C383.123 287.263 391.525 292.097 401.03 294.562C410.576 297.028 420.765 297.028 430.464 295.243C476.069 286.822 496.365 247.032 514.752 214.364C525.043 196.09 536.447 178.294 553.803 164.279C570.546 150.76 590.515 140.439 606.115 125.832C619.959 112.878 630.373 96.2926 627.922 78.1339C625.595 60.8854 613.18 45.6162 597.958 34.8182C580.418 22.3766 558.713 15.0955 537.651 8.4064C526.329 4.81002 514.864 1.46103 503.869 -2.8511C493.026 -7.11022 482.592 -12.0939 472.301 -17.2632C467.381 -19.7285 462.49 -22.238 457.59 -24.7298C452.383 -27.3719 446.992 -29.6959 441.724 -32.2319C441.367 -32.4086 441.04 -31.9315 441.398 -31.7547C446.656 -29.2276 451.689 -26.3204 456.885 -23.6872C461.786 -21.1953 466.686 -18.6946 471.597 -16.2205C481.653 -11.1749 491.842 -6.29728 502.419 -2.10886C523.399 6.20613 545.819 11.4108 566.738 19.8671C586.258 27.758 604.614 38.3439 616.345 54.3553C621.725 61.7072 625.564 70.0221 626.616 78.7171C627.718 87.792 625.605 96.8493 621.123 105.076C611.761 122.271 594.334 134.536 577.376 145.944C568.371 151.997 559.285 157.988 551.066 164.836C543.124 171.446 536.294 178.921 530.362 186.945C518.254 203.327 509.78 221.415 499.387 238.602C489.229 255.391 476.814 272.189 458.539 283.181C441.653 293.334 419.397 298.786 399.376 292.821C379.672 286.954 366.635 271.438 356.711 256.398C346.196 240.466 337.456 222.979 321.418 210.458C305.583 198.105 284.756 192.264 264.552 187.598C243.183 182.659 220.856 178.603 202.019 168.07C185.378 158.765 171.544 142.648 172.188 124.825C172.841 106.772 189.697 94.0658 207.532 87.253C228.911 79.0882 252.913 78.3725 274.659 71.1179C292.842 65.0561 308.972 54.5939 320.968 41.3217C331.627 29.5252 337.63 15.4843 345.113 2.14145C351.586 -9.38997 358.917 -21.2042 370.014 -29.9345C381.5 -38.9652 396.221 -42.3672 411.505 -40.5116C422.02 -39.2391 432.015 -36.005 441.306 -31.6134C441.878 -31.3571 442.368 -32.0817 441.816 -32.3379Z" fill="url(#paint10_linear_17_2114)"/>
</g>
<path d="M515.711 167.478C527.738 156.23 542.95 148.153 556.079 137.974C567.524 129.102 578.039 117.827 580.612 104.351C583.083 91.3443 577.243 78.5493 567.82 68.5554C557.325 57.4216 542.715 50.1935 527.667 44.5736C511.219 38.4324 493.853 34.2528 477.722 27.4665C461.653 20.6978 446.89 11.9322 431.056 4.81897C419.06 -0.571193 404.328 -3.86714 390.984 -0.535845C380.713 2.02669 372.75 8.42418 366.645 15.7937C359.672 24.2059 354.761 33.7668 349.789 43.1245C346.941 48.4969 344.154 53.8871 340.407 58.8531C336.211 64.4024 331.137 69.4479 325.389 73.8307C319.498 78.3284 312.882 82.1104 305.797 85.0352C297.64 88.4018 288.87 90.3723 280.08 92.0601C264.092 95.1263 247.43 97.6005 234.005 106.313C228.359 109.98 223.479 114.646 220.631 120.292C217.782 125.93 217.211 132.177 218.65 138.186C221.744 151.069 232.668 161.443 245.562 167.84C274.7 182.306 313.393 179.823 338.426 200.941C350.575 211.192 357.16 224.994 365.634 237.444C373.158 248.507 382.847 259.509 397.007 264.483C411.454 269.564 427.911 266.913 441.214 260.534C455.599 253.641 466.135 242.26 474.404 230.207C476.487 227.168 478.447 224.075 480.326 220.938C482.266 217.713 483.756 214.337 485.584 211.068C485.757 210.75 485.216 210.467 485.032 210.785C483.225 214.028 481.04 217.13 479.121 220.319C477.192 223.527 475.191 226.708 473.047 229.819C468.83 235.942 464.103 241.818 458.508 247.058C447.717 257.167 433.169 264.766 417.048 265.844C409.299 266.366 401.479 265.226 394.506 262.204C387.697 259.252 381.959 254.79 377.099 249.762C366.859 239.167 360.734 226.284 352.403 214.611C348.258 208.806 343.521 203.257 337.65 198.67C331.749 194.058 324.838 190.523 317.589 187.758C302.694 182.067 286.614 179.504 271.075 175.502C255.598 171.516 239.865 165.817 229.482 154.648C220.08 144.53 215.618 130.427 223.214 118.49C230.585 106.905 245.562 100.737 259.692 97.3707C276.221 93.4297 293.546 91.9364 308.962 85.0175C321.969 79.1855 333.209 70.4287 341.295 59.8605C348.197 50.8474 352.454 40.4382 358.049 30.8066C362.99 22.3149 368.697 13.7083 377.109 7.41685C385.828 0.895641 396.844 -1.56971 408.207 -0.332627C425.165 1.50533 439.499 10.2621 453.904 17.5433C461.49 21.3783 469.136 25.1425 477.049 28.465C484.675 31.6726 492.536 34.2793 500.5 36.78C530.127 46.12 566.268 56.9092 577.417 85.4505C579.877 91.742 580.602 98.4753 579.162 105.014C577.692 111.677 574.191 117.862 569.688 123.376C560.071 135.181 546.35 143.541 533.445 152.412C526.942 156.883 520.612 161.549 515.027 166.877C514.609 167.284 515.293 167.876 515.711 167.478Z" fill="url(#paint11_linear_17_2114)"/>
<g clip-path="url(#clip1_17_2114)">
<path d="M512.596 206.32H139.779V382.942H512.596V206.32Z" fill="#E6E6E6"/>
<path d="M497.936 221.466H154.44C152.231 221.466 150.44 223.257 150.44 225.466V364.826C150.44 367.036 152.231 368.826 154.44 368.826H497.936C500.145 368.826 501.936 367.036 501.936 364.826V225.466C501.936 223.257 500.145 221.466 497.936 221.466Z" fill="white"/>
<path d="M442.154 248.895H435.053C434.5 248.895 434.053 249.342 434.053 249.895V256.982C434.053 257.534 434.5 257.982 435.053 257.982H442.154C442.707 257.982 443.154 257.534 443.154 256.982V249.895C443.154 249.342 442.707 248.895 442.154 248.895Z" fill="#E6E6E6"/>
<path d="M199.376 248.895H192.274C191.721 248.895 191.274 249.342 191.274 249.895V256.982C191.274 257.534 191.721 257.982 192.274 257.982H199.376C199.928 257.982 200.376 257.534 200.376 256.982V249.895C200.376 249.342 199.928 248.895 199.376 248.895Z" fill="#3B82F6"/>
<path d="M219.351 274.924H193.01C191.906 274.924 191.01 275.819 191.01 276.924V303.215C191.01 304.32 191.906 305.215 193.01 305.215H219.351C220.455 305.215 221.351 304.32 221.351 303.215V276.924C221.351 275.819 220.455 274.924 219.351 274.924Z" fill="#E6E6E6"/>
<path d="M512.437 196.116H139.62V211.928H512.437V196.116Z" fill="#3B82F6"/>
<path d="M151.39 210.461C153.011 210.461 154.326 209.149 154.326 207.53C154.326 205.911 153.011 204.599 151.39 204.599C149.769 204.599 148.454 205.911 148.454 207.53C148.454 209.149 149.769 210.461 151.39 210.461Z" fill="white"/>
<path d="M162.532 210.461C164.154 210.461 165.468 209.149 165.468 207.53C165.468 205.911 164.154 204.599 162.532 204.599C160.911 204.599 159.597 205.911 159.597 207.53C159.597 209.149 160.911 210.461 162.532 210.461Z" fill="white"/>
<path d="M173.676 210.461C175.297 210.461 176.611 209.149 176.611 207.53C176.611 205.911 175.297 204.599 173.676 204.599C172.054 204.599 170.74 205.911 170.74 207.53C170.74 209.149 172.054 210.461 173.676 210.461Z" fill="white"/>
<path d="M569.327 382.942H76V384H569.327V382.942Z" fill="#E6E6E6"/>
<path d="M325.021 277.954H254.948C253.771 277.954 252.818 278.907 252.818 280.084C252.818 281.26 253.771 282.214 254.948 282.214H325.021C326.197 282.214 327.151 281.26 327.151 280.084C327.151 278.907 326.197 277.954 325.021 277.954Z" fill="#E6E6E6"/>
<path d="M365.475 293.493H254.948C253.771 293.493 252.818 294.447 252.818 295.623C252.818 296.8 253.771 297.753 254.948 297.753H365.475C366.651 297.753 367.605 296.8 367.605 295.623C367.605 294.447 366.651 293.493 365.475 293.493Z" fill="#3B82F6"/>
<path d="M344.236 308.133H254.948C253.771 308.133 252.818 309.087 252.818 310.263C252.818 311.439 253.771 312.393 254.948 312.393H344.236C345.413 312.393 346.366 311.439 346.366 310.263C346.366 309.087 345.413 308.133 344.236 308.133Z" fill="#E6E6E6"/>
<path d="M305.3 322.719H254.948C253.771 322.719 252.818 323.672 252.818 324.849C252.818 326.025 253.771 326.979 254.948 326.979H305.3C306.476 326.979 307.43 326.025 307.43 324.849C307.43 323.672 306.476 322.719 305.3 322.719Z" fill="#E6E6E6"/>
<path d="M333.112 337.304H254.948C253.771 337.304 252.818 338.257 252.818 339.434C252.818 340.61 253.771 341.564 254.948 341.564H333.112C334.288 341.564 335.242 340.61 335.242 339.434C335.242 338.257 334.288 337.304 333.112 337.304Z" fill="#E6E6E6"/>
<path d="M457.831 248.895H450.729C450.177 248.895 449.729 249.342 449.729 249.895V256.982C449.729 257.534 450.177 257.982 450.729 257.982H457.831C458.383 257.982 458.831 257.534 458.831 256.982V249.895C458.831 249.342 458.383 248.895 457.831 248.895Z" fill="#E6E6E6"/>
<path d="M473.506 248.895H466.404C465.852 248.895 465.404 249.342 465.404 249.895V256.982C465.404 257.534 465.852 257.982 466.404 257.982H473.506C474.058 257.982 474.506 257.534 474.506 256.982V249.895C474.506 249.342 474.058 248.895 473.506 248.895Z" fill="#E6E6E6"/>
<path opacity="0.997" d="M456.021 326.979C466.23 326.979 474.506 318.716 474.506 308.524C474.506 298.332 466.23 290.069 456.021 290.069C445.812 290.069 437.537 298.332 437.537 308.524C437.537 318.716 445.812 326.979 456.021 326.979Z" fill="#3B82F6"/>
<path d="M175.878 98.9706C187.372 98.9706 196.689 89.6686 196.689 78.1941C196.689 66.7195 187.372 57.4175 175.878 57.4175C164.385 57.4175 155.068 66.7195 155.068 78.1941C155.068 89.6686 164.385 98.9706 175.878 98.9706Z" fill="#2F2E41"/>
<path d="M124.089 255.961H114.975L110.64 220.873H124.088L124.089 255.961Z" fill="#FEB8B8"/>
<path d="M108.469 253.361H126.042V264.408H97.4043C97.4043 261.478 98.57 258.668 100.645 256.597C102.72 254.525 105.534 253.361 108.469 253.361Z" fill="#2F2E41"/>
<path d="M109.865 250.884L101.172 248.16L107.558 213.384L120.389 217.405L109.865 250.884Z" fill="#FEB8B8"/>
<path d="M95.7363 243.736L112.503 248.989L109.19 259.529L81.8668 250.968C82.3019 249.584 83.0058 248.299 83.9383 247.186C84.8707 246.074 86.0136 245.156 87.3015 244.484C88.5895 243.812 89.9973 243.401 91.4446 243.272C92.892 243.144 94.3505 243.301 95.7368 243.736L95.7363 243.736Z" fill="#2F2E41"/>
<path d="M112.83 236.882C112.432 236.882 112.037 236.81 111.664 236.671L104.958 234.161C104.206 233.877 103.581 233.332 103.197 232.626C102.813 231.92 102.696 231.1 102.867 230.315C104.555 222.739 110.307 196.945 113.456 183.111C117.191 166.701 171.683 163.651 174.001 163.53L174.192 163.52L180.321 171.207C182.536 178.315 181.834 183.859 178.235 187.686C167.731 198.851 136.37 191.923 132.631 191.047L115.963 234.732C115.72 235.365 115.291 235.909 114.732 236.293C114.173 236.677 113.51 236.882 112.832 236.882H112.83Z" fill="#2F2E41"/>
<path d="M122.492 242.077C122.094 242.076 121.699 242.005 121.326 241.865L114.623 239.355C113.87 239.071 113.245 238.526 112.861 237.82C112.477 237.114 112.36 236.294 112.531 235.509C114.219 227.932 119.971 202.139 123.12 188.304C126.856 171.894 181.347 168.845 183.665 168.723L183.856 168.713L189.983 176.403C192.198 183.511 191.496 189.055 187.897 192.882C177.393 204.045 146.032 197.119 142.293 196.242L125.623 239.926C125.38 240.559 124.951 241.103 124.392 241.487C123.833 241.87 123.17 242.076 122.491 242.076L122.492 242.077Z" fill="#2F2E41"/>
<path d="M103.097 135.208C103.344 135.537 103.564 135.885 103.755 136.248L140.412 140.103L145.689 132.88L157.649 139.406L147.284 156.933L102.328 145.49C101.194 146.594 99.7498 147.327 98.1881 147.591C96.6263 147.856 95.0208 147.64 93.5852 146.971C92.1495 146.303 90.9517 145.214 90.1511 143.849C89.3504 142.485 88.9849 140.909 89.103 139.332C89.2212 137.755 89.8175 136.251 90.8126 135.02C91.8077 133.79 93.1545 132.891 94.6738 132.443C96.1931 131.995 97.8129 132.02 99.3178 132.514C100.823 133.008 102.141 133.947 103.099 135.207L103.097 135.208Z" fill="#FEB8B8"/>
<path d="M188.282 179.346C187.752 179.345 187.23 179.218 186.759 178.976C179.429 175.255 165.156 168.811 151.92 167.462C151.467 167.418 151.028 167.28 150.632 167.056C150.236 166.832 149.891 166.529 149.619 166.164C149.342 165.796 149.144 165.374 149.038 164.926C148.931 164.478 148.918 164.012 149 163.559C150.194 156.958 152.934 140.15 152.581 126.679C152.477 122.537 153.788 118.483 156.297 115.184C158.807 111.884 162.367 109.536 166.391 108.524C168.813 107.886 171.273 107.401 173.757 107.074C176.612 106.713 179.512 107.024 182.225 107.983C184.937 108.943 187.388 110.523 189.379 112.597C191.37 114.672 192.846 117.183 193.691 119.93C194.535 122.677 194.723 125.583 194.24 128.416C191.879 142.376 189.5 161.874 191.568 175.484C191.663 176.095 191.587 176.719 191.348 177.288C191.11 177.858 190.718 178.351 190.216 178.712C189.655 179.122 188.978 179.344 188.282 179.346Z" fill="#CCCCCC"/>
<path d="M153.259 143.839C152.803 143.839 152.351 143.744 151.932 143.563L142.382 139.436C141.569 139.084 140.929 138.423 140.603 137.6C140.276 136.777 140.29 135.858 140.642 135.045L148.023 118.022C148.462 116.99 149.099 116.055 149.9 115.269C150.7 114.484 151.648 113.863 152.688 113.443C153.729 113.024 154.842 112.812 155.965 112.822C157.087 112.832 158.197 113.062 159.23 113.5C160.263 113.938 161.2 114.574 161.987 115.373C162.774 116.173 163.395 117.119 163.816 118.158C164.236 119.197 164.448 120.308 164.438 121.429C164.428 122.549 164.198 123.657 163.759 124.688C163.743 124.726 163.727 124.763 163.71 124.801L156.329 141.825C156.069 142.422 155.64 142.931 155.095 143.289C154.55 143.647 153.912 143.838 153.259 143.839Z" fill="#CCCCCC"/>
<path d="M175.118 101.283C185.2 101.283 193.373 93.123 193.373 83.0576C193.373 72.9922 185.2 64.8325 175.118 64.8325C165.036 64.8325 156.863 72.9922 156.863 83.0576C156.863 93.123 165.036 101.283 175.118 101.283Z" fill="#FEB8B8"/>
<path d="M156.535 74.1016C165.181 79.3714 174.929 82.5782 185.02 83.4723L182.017 79.8808C184.203 80.6878 186.504 81.1438 188.833 81.2319C189.999 81.2657 191.157 81.026 192.214 80.5322C193.271 80.0384 194.197 79.3041 194.918 78.3884C195.506 77.4378 195.856 76.3593 195.937 75.2447C196.018 74.1301 195.828 73.0124 195.382 71.9871C194.468 69.9412 193.043 68.1632 191.246 66.8222C188.059 64.3054 184.298 62.6148 180.298 61.9011C176.298 61.1874 172.184 61.4728 168.321 62.7317C165.671 63.5223 163.298 65.042 161.474 67.1169C159.743 69.2483 156.412 71.1475 157.298 73.7445L156.535 74.1016Z" fill="#2F2E41"/>
<path d="M176.75 58.7485C180.389 55.0637 184.792 52.2201 189.65 50.4178C192.734 49.1227 196.116 48.7037 199.423 49.2069C202.683 49.8618 205.766 52.1134 206.676 55.3071C207.418 57.9184 206.652 60.7302 205.498 63.1896C204.343 65.6491 202.803 67.9276 201.869 70.4776C200.916 73.0795 200.63 75.8776 201.035 78.6181C201.441 81.3586 202.526 83.9546 204.191 86.1703C205.856 88.3861 208.05 90.1515 210.572 91.3063C213.094 92.4611 215.865 92.9687 218.634 92.783C215.43 93.2121 212.478 94.715 209.347 95.5144C206.216 96.3138 202.52 96.2603 200.193 94.0204C197.731 91.6509 197.682 87.7985 197.801 84.3868L198.331 69.1709C198.421 66.5844 198.499 63.9149 197.564 61.4999C196.629 59.0849 194.409 56.9714 191.817 56.9937C189.852 57.0101 188.113 58.1988 186.538 59.3706C184.962 60.5424 183.294 61.7925 181.337 61.9671C179.38 62.1416 177.146 60.6974 177.292 58.74" fill="#2F2E41"/>
<path d="M144.427 174.665C143.218 174.663 142.024 174.394 140.931 173.876C139.838 173.358 138.874 172.605 138.108 171.671C137.342 170.736 136.793 169.644 136.501 168.472C136.209 167.3 136.18 166.078 136.418 164.894C136.656 163.71 137.154 162.594 137.876 161.625C138.598 160.656 139.526 159.859 140.593 159.292C141.661 158.724 142.841 158.4 144.049 158.343C145.258 158.285 146.463 158.496 147.58 158.96C147.916 159.102 148.242 159.267 148.555 159.453L181.808 144.55L182.742 135.546L197.076 135.163L196.981 150.153C196.964 151.89 196.386 153.575 195.333 154.957C194.281 156.34 192.809 157.347 191.138 157.829L152.252 168.878C152.177 169.134 152.089 169.386 151.987 169.634C151.363 171.121 150.314 172.392 148.969 173.287C147.625 174.182 146.047 174.661 144.431 174.664L144.427 174.665Z" fill="#FEB8B8"/>
<path d="M195.862 142.508C195.454 142.714 195.009 142.834 194.553 142.861L184.167 143.499C183.282 143.552 182.412 143.253 181.747 142.666C181.083 142.08 180.679 141.255 180.623 140.371L179.484 121.855C179.347 119.598 180.114 117.378 181.615 115.685C183.116 113.991 185.23 112.962 187.491 112.823C189.752 112.684 191.975 113.447 193.673 114.944C195.371 116.441 196.405 118.55 196.546 120.807L197.686 139.323C197.726 139.974 197.575 140.621 197.251 141.187C196.927 141.753 196.445 142.212 195.863 142.508H195.862Z" fill="#CCCCCC"/>
<path d="M174.949 171.342H112.915C112.395 171.342 111.973 171.763 111.973 172.283V175.596C111.973 176.115 112.395 176.536 112.915 176.536H174.949C175.469 176.536 175.891 176.115 175.891 175.596V172.283C175.891 171.763 175.469 171.342 174.949 171.342Z" fill="#3F3D56"/>
<path d="M88.1371 171.714V135.354C88.1386 134.075 88.6481 132.849 89.5538 131.945C90.4594 131.041 91.6873 130.532 92.9681 130.531H159.116C160.397 130.532 161.625 131.041 162.53 131.945C163.436 132.849 163.945 134.075 163.947 135.354V171.714C163.945 172.992 163.436 174.218 162.53 175.123C161.625 176.027 160.397 176.535 159.116 176.537H92.9681C91.6873 176.535 90.4594 176.027 89.5538 175.122C88.6481 174.218 88.1386 172.992 88.1371 171.714Z" fill="#082F49"/>
<path d="M126.838 157.988C129.301 157.988 131.297 155.995 131.297 153.536C131.297 151.077 129.301 149.083 126.838 149.083C124.375 149.083 122.378 151.077 122.378 153.536C122.378 155.995 124.375 157.988 126.838 157.988Z" fill="white"/>
</g>
</g>
<defs>
<linearGradient id="paint0_linear_17_2114" x1="430.848" y1="261.202" x2="444.261" y2="261.202" gradientUnits="userSpaceOnUse">
<stop offset="0.0277" stop-color="#FFD24D"/>
<stop offset="0.7154" stop-color="#F6BE56"/>
<stop offset="1" stop-color="#F2B45A"/>
</linearGradient>
<linearGradient id="paint1_linear_17_2114" x1="223.671" y1="170.904" x2="234.974" y2="170.904" gradientUnits="userSpaceOnUse">
<stop offset="0.0277" stop-color="#FFD24D"/>
<stop offset="0.7154" stop-color="#F6BE56"/>
<stop offset="1" stop-color="#F2B45A"/>
</linearGradient>
<linearGradient id="paint2_linear_17_2114" x1="240.001" y1="135.513" x2="249.884" y2="135.513" gradientUnits="userSpaceOnUse">
<stop offset="0.0277" stop-color="#FFD24D"/>
<stop offset="0.1674" stop-color="#EBC34D"/>
<stop offset="0.4544" stop-color="#B69D4D"/>
<stop offset="0.8604" stop-color="#625F4E"/>
<stop offset="1" stop-color="#44494E"/>
</linearGradient>
<linearGradient id="paint3_linear_17_2114" x1="242.795" y1="134.86" x2="257.876" y2="134.86" gradientUnits="userSpaceOnUse">
<stop offset="0.0277" stop-color="#FFD24D"/>
<stop offset="0.1674" stop-color="#EBC34D"/>
<stop offset="0.4544" stop-color="#B69D4D"/>
<stop offset="0.8604" stop-color="#625F4E"/>
<stop offset="1" stop-color="#44494E"/>
</linearGradient>
<linearGradient id="paint4_linear_17_2114" x1="240.001" y1="142.454" x2="255.473" y2="142.454" gradientUnits="userSpaceOnUse">
<stop offset="0.0277" stop-color="#FFD24D"/>
<stop offset="0.1674" stop-color="#EBC34D"/>
<stop offset="0.4544" stop-color="#B69D4D"/>
<stop offset="0.8604" stop-color="#625F4E"/>
<stop offset="1" stop-color="#44494E"/>
</linearGradient>
<linearGradient id="paint5_linear_17_2114" x1="233.784" y1="178.886" x2="253.417" y2="176.898" gradientUnits="userSpaceOnUse">
<stop offset="0.0277" stop-color="#FFD24D"/>
<stop offset="0.1674" stop-color="#EBC34D"/>
<stop offset="0.4544" stop-color="#B69D4D"/>
<stop offset="0.8604" stop-color="#625F4E"/>
<stop offset="1" stop-color="#44494E"/>
</linearGradient>
<linearGradient id="paint6_linear_17_2114" x1="238.622" y1="178.056" x2="269.057" y2="174.975" gradientUnits="userSpaceOnUse">
<stop offset="0.0277" stop-color="#FFD24D"/>
<stop offset="0.1674" stop-color="#EBC34D"/>
<stop offset="0.4544" stop-color="#B69D4D"/>
<stop offset="0.8604" stop-color="#625F4E"/>
<stop offset="1" stop-color="#44494E"/>
</linearGradient>
<linearGradient id="paint7_linear_17_2114" x1="233.274" y1="192.524" x2="264.523" y2="189.36" gradientUnits="userSpaceOnUse">
<stop offset="0.0277" stop-color="#FFD24D"/>
<stop offset="0.1674" stop-color="#EBC34D"/>
<stop offset="0.4544" stop-color="#B69D4D"/>
<stop offset="0.8604" stop-color="#625F4E"/>
<stop offset="1" stop-color="#44494E"/>
</linearGradient>
<linearGradient id="paint8_linear_17_2114" x1="267.47" y1="236.924" x2="304.419" y2="236.924" gradientUnits="userSpaceOnUse">
<stop offset="0.0277" stop-color="#FFD24D"/>
<stop offset="0.7154" stop-color="#FFBE56"/>
<stop offset="1" stop-color="#FFB45A"/>
</linearGradient>
<linearGradient id="paint9_linear_17_2114" x1="222.334" y1="191.719" x2="580.225" y2="41.2175" gradientUnits="userSpaceOnUse">
<stop offset="0.0277" stop-color="#FFD24D"/>
<stop offset="0.0356" stop-color="#F7CC4C"/>
<stop offset="0.0797" stop-color="#CEAE4A"/>
<stop offset="0.1292" stop-color="#A89348"/>
<stop offset="0.1831" stop-color="#887B45"/>
<stop offset="0.2427" stop-color="#6C6744"/>
<stop offset="0.3099" stop-color="#565742"/>
<stop offset="0.3884" stop-color="#454B41"/>
<stop offset="0.4856" stop-color="#3A4241"/>
<stop offset="0.6218" stop-color="#333D40"/>
<stop offset="1" stop-color="#313C40"/>
</linearGradient>
<linearGradient id="paint10_linear_17_2114" x1="170.829" y1="127.209" x2="628.287" y2="127.209" gradientUnits="userSpaceOnUse">
<stop stop-color="#5C5A44"/>
<stop offset="0.6103" stop-color="#3F4541"/>
<stop offset="1" stop-color="#313C40"/>
</linearGradient>
<linearGradient id="paint11_linear_17_2114" x1="312.443" y1="37.7849" x2="479.207" y2="230.461" gradientUnits="userSpaceOnUse">
<stop stop-color="#313C40"/>
<stop offset="0.251" stop-color="#333E40"/>
<stop offset="0.397" stop-color="#3C4441"/>
<stop offset="0.5161" stop-color="#4A4E42"/>
<stop offset="0.6208" stop-color="#5E5D43"/>
<stop offset="0.716" stop-color="#786F44"/>
<stop offset="0.8042" stop-color="#988746"/>
<stop offset="0.8873" stop-color="#BDA249"/>
<stop offset="0.964" stop-color="#E8C14C"/>
<stop offset="1" stop-color="#FFD24D"/>
</linearGradient>
<clipPath id="clip0_17_2114">
<rect width="484" height="384" fill="white"/>
</clipPath>
<clipPath id="clip1_17_2114">
<rect width="408" height="335" fill="white" transform="translate(76 49)"/>
</clipPath>
</defs>
</svg>
