<svg width="122" height="24" viewBox="0 0 122 24" fill="none" xmlns="http://www.w3.org/2000/svg">
<path fill-rule="evenodd" clip-rule="evenodd" d="M15.3334 7.01118C14.3467 6.3519 13.1867 6 12 6V0C14.3734 0 16.6934 0.703788 18.6668 2.02237C20.6402 3.34094 22.1783 5.21509 23.0866 7.40778C23.9948 9.60048 24.2324 12.0133 23.7694 14.3411C23.3064 16.6688 22.1635 18.8071 20.4853 20.4853C18.8071 22.1635 16.6688 23.3064 14.3411 23.7694C12.0133 24.2324 9.60048 23.9948 7.40778 23.0866C5.21508 22.1783 3.34094 20.6402 2.02237 18.6668C0.703788 16.6934 0 14.3734 0 12H6C6 13.1867 6.3519 14.3467 7.01118 15.3334C7.67046 16.3201 8.60754 17.0891 9.70392 17.5433C10.8002 17.9974 12.0067 18.1162 13.1705 17.8847C14.3344 17.6532 15.4035 17.0818 16.2427 16.2427C17.0818 15.4035 17.6532 14.3344 17.8847 13.1705C18.1162 12.0067 17.9974 10.8002 17.5433 9.70392C17.0891 8.60754 16.3201 7.67046 15.3334 7.01118Z" fill="#3B82F6"/>
<path fill-rule="evenodd" clip-rule="evenodd" d="M6 3.17096e-06C6 0.787934 5.84481 1.56815 5.54328 2.29611C5.24175 3.02406 4.79979 3.68549 4.24264 4.24264C3.68549 4.7998 3.02406 5.24175 2.2961 5.54328C1.56814 5.84481 0.787929 6 2.62266e-07 6L0 12C1.57586 12 3.13629 11.6896 4.5922 11.0866C6.04812 10.4835 7.371 9.59958 8.48526 8.48526C9.59958 7.371 10.4835 6.04812 11.0866 4.5922C11.6896 3.13629 12 1.57586 12 0L6 3.17096e-06Z" fill="#3B82F6"/>
<path d="M75.3714 8.67139H72.4602V17.9188H75.3714V8.67139Z" fill="#3B82F6"/>
<path d="M72.7842 6.94016C73.0884 7.2446 73.4688 7.39681 73.9254 7.39681C74.382 7.39681 74.7564 7.2446 75.048 6.94016C75.3402 6.62305 75.486 6.24248 75.486 5.79851C75.486 5.34186 75.3402 4.96129 75.048 4.65686C74.7564 4.35241 74.382 4.2002 73.9254 4.2002C73.4688 4.2002 73.0884 4.35241 72.7842 4.65686C72.492 4.96129 72.3462 5.34186 72.3462 5.79851C72.3462 6.24248 72.492 6.62305 72.7842 6.94016Z" fill="#3B82F6"/>
<path d="M30.6936 17.9188V4.48535H33.6809V15.293H39.6366V17.9188H30.6936Z" fill="#3B82F6"/>
<path fill-rule="evenodd" clip-rule="evenodd" d="M45.0164 18.1284C44.065 18.1284 43.2025 17.9191 42.4286 17.5005C41.6675 17.0692 41.065 16.4857 40.621 15.7499C40.1771 15.0142 39.9551 14.1897 39.9551 13.2764C39.9551 12.3631 40.1771 11.5449 40.621 10.8218C41.065 10.0988 41.6675 9.52794 42.4286 9.10938C43.1897 8.67804 44.0524 8.4624 45.0164 8.4624C45.9805 8.4624 46.843 8.67174 47.6041 9.0903C48.3652 9.50892 48.9678 10.0861 49.4117 10.8218C49.8557 11.5449 50.0777 12.3631 50.0777 13.2764C50.0777 14.1897 49.8557 15.0142 49.4117 15.7499C48.9678 16.4857 48.3652 17.0692 47.6041 17.5005C46.843 17.9191 45.9805 18.1284 45.0164 18.1284ZM45.0164 15.4836C45.435 15.4836 45.8029 15.3948 46.12 15.2172C46.4371 15.0269 46.6781 14.7669 46.843 14.4371C47.0206 14.0946 47.1094 13.7077 47.1094 13.2764C47.1094 12.8451 47.0206 12.4709 46.843 12.1538C46.6654 11.824 46.4181 11.5703 46.1009 11.3927C45.7965 11.2024 45.435 11.1073 45.0164 11.1073C44.6105 11.1073 44.249 11.2024 43.9318 11.3927C43.6147 11.5703 43.3673 11.824 43.1897 12.1538C43.0121 12.4836 42.9234 12.8641 42.9234 13.2954C42.9234 13.714 43.0121 14.0946 43.1897 14.4371C43.3673 14.7669 43.6147 15.0269 43.9318 15.2172C44.249 15.3948 44.6105 15.4836 45.0164 15.4836Z" fill="#3B82F6"/>
<path fill-rule="evenodd" clip-rule="evenodd" d="M52.3835 21.5339C53.1573 21.889 54.0516 22.0666 55.0664 22.0666C56.0558 22.0666 56.9374 21.87 57.7112 21.4768C58.485 21.0835 59.0938 20.5381 59.5378 19.8405C59.9818 19.1428 60.2041 18.3183 60.2041 17.3668V8.67128H57.3496V9.29258C57.1374 9.1139 56.8963 8.9639 56.6266 8.84252C56.1319 8.6015 55.5674 8.48096 54.9332 8.48096C54.0833 8.48096 53.3285 8.68394 52.6689 9.08984C52.0092 9.48308 51.4892 10.0285 51.1086 10.7262C50.728 11.4112 50.5378 12.185 50.5378 13.0476C50.5378 13.8975 50.728 14.6713 51.1086 15.369C51.4892 16.0666 52.0092 16.6185 52.6689 17.0244C53.3285 17.4303 54.0833 17.6332 54.9332 17.6332C55.5547 17.6332 56.1192 17.5128 56.6266 17.2717C56.8724 17.155 57.0944 17.0174 57.2926 16.8589V17.443C57.2926 18.0899 57.0833 18.591 56.6647 18.9462C56.2588 19.3014 55.6943 19.4789 54.9712 19.4789C54.3877 19.4789 53.8867 19.3774 53.4681 19.1745C53.0622 18.9715 52.6942 18.6734 52.3644 18.2802L50.5759 20.0688C51.0198 20.703 51.6224 21.1914 52.3835 21.5339ZM56.5315 14.7791C56.2397 14.9567 55.8909 15.0455 55.485 15.0455C55.0791 15.0455 54.7239 14.9567 54.4194 14.7791C54.1276 14.6015 53.8993 14.3605 53.7345 14.056C53.5695 13.7389 53.4871 13.4028 53.4871 13.0476C53.4871 12.667 53.5695 12.3246 53.7345 12.0201C53.8993 11.7157 54.134 11.4747 54.4384 11.2971C54.7429 11.1195 55.0917 11.0307 55.485 11.0307C55.8909 11.0307 56.2397 11.1195 56.5315 11.2971C56.8359 11.4747 57.0642 11.7157 57.2165 12.0201C57.3814 12.3246 57.4638 12.667 57.4638 13.0476C57.4638 13.4281 57.3814 13.7706 57.2165 14.0751C57.0642 14.3668 56.8359 14.6015 56.5315 14.7791Z" fill="#3B82F6"/>
<path fill-rule="evenodd" clip-rule="evenodd" d="M66.3306 18.1284C65.379 18.1284 64.5162 17.9191 63.7428 17.5005C62.9814 17.0692 62.379 16.4857 61.935 15.7499C61.491 15.0142 61.269 14.1897 61.269 13.2764C61.269 12.3631 61.491 11.5449 61.935 10.8218C62.379 10.0988 62.9814 9.52794 63.7428 9.10938C64.5036 8.67804 65.3664 8.4624 66.3306 8.4624C67.2942 8.4624 68.157 8.67174 68.9178 9.0903C69.6792 9.50892 70.2816 10.0861 70.7256 10.8218C71.1696 11.5449 71.3916 12.3631 71.3916 13.2764C71.3916 14.1897 71.1696 15.0142 70.7256 15.7499C70.2816 16.4857 69.6792 17.0692 68.9178 17.5005C68.157 17.9191 67.2942 18.1284 66.3306 18.1284ZM66.3306 15.4836C66.7488 15.4836 67.1166 15.3948 67.434 15.2172C67.7508 15.0269 67.992 14.7669 68.157 14.4371C68.3346 14.0946 68.4234 13.7077 68.4234 13.2764C68.4234 12.8451 68.3346 12.4709 68.157 12.1538C67.9794 11.824 67.7322 11.5703 67.4148 11.3927C67.1106 11.2024 66.7488 11.1073 66.3306 11.1073C65.9244 11.1073 65.5626 11.2024 65.2458 11.3927C64.9284 11.5703 64.6812 11.824 64.5036 12.1538C64.326 12.4836 64.2372 12.8641 64.2372 13.2954C64.2372 13.714 64.326 14.0946 64.5036 14.4371C64.6812 14.7669 64.9284 15.0269 65.2458 15.2172C65.5626 15.3948 65.9244 15.4836 66.3306 15.4836Z" fill="#3B82F6"/>
<path fill-rule="evenodd" clip-rule="evenodd" d="M82.3685 18.1089C81.7475 18.1089 81.1763 17.9884 80.6561 17.7474C80.3825 17.6206 80.1353 17.4691 79.9145 17.2931V21.8193H77.0411V8.67128H79.9523V9.3095C80.1635 9.13676 80.3981 8.98742 80.6561 8.86154C81.1763 8.6078 81.7475 8.48096 82.3685 8.48096C83.2439 8.48096 84.0179 8.6903 84.6899 9.10892C85.3751 9.52748 85.9079 10.0983 86.2883 10.8214C86.6819 11.5444 86.8781 12.369 86.8781 13.2949C86.8781 14.221 86.6819 15.0455 86.2883 15.7686C85.9079 16.4916 85.3751 17.0624 84.6899 17.481C84.0179 17.8996 83.2439 18.1089 82.3685 18.1089ZM81.8363 15.4831C82.2545 15.4831 82.6163 15.388 82.9205 15.1977C83.2379 15.0075 83.4851 14.7474 83.6627 14.4176C83.8403 14.0878 83.9291 13.7136 83.9291 13.2949C83.9291 12.8637 83.8403 12.4831 83.6627 12.1533C83.4851 11.8235 83.2379 11.5698 82.9205 11.3922C82.6163 11.2019 82.2611 11.1068 81.8549 11.1068C81.4493 11.1068 81.0875 11.2019 80.7707 11.3922C80.4659 11.5698 80.2253 11.8235 80.0477 12.1533C79.8701 12.4831 79.7813 12.8637 79.7813 13.2949C79.7813 13.7136 79.8635 14.0878 80.0285 14.4176C80.2061 14.7474 80.4533 15.0075 80.7707 15.1977C81.0875 15.388 81.4427 15.4831 81.8363 15.4831Z" fill="#3B82F6"/>
<path d="M89.7276 17.9381C90.2604 18.0776 90.7992 18.1474 91.3446 18.1474C92.499 18.1474 93.4122 17.881 94.0848 17.3482C94.7694 16.8155 95.112 16.0988 95.112 15.1981C95.112 14.6146 95.0046 14.1452 94.7886 13.7901C94.5732 13.4222 94.2942 13.1305 93.9516 12.9148C93.609 12.6992 93.2472 12.5279 92.8668 12.401C92.4864 12.2742 92.1246 12.1664 91.7826 12.0776C91.44 11.9888 91.161 11.8873 90.945 11.7731C90.7296 11.659 90.6216 11.5067 90.6216 11.3165C90.6216 11.1389 90.7044 11.0057 90.8688 10.9169C91.0338 10.8154 91.281 10.7647 91.611 10.7647C91.9536 10.7647 92.3022 10.8344 92.6574 10.974C93.0252 11.1135 93.3552 11.3546 93.6468 11.6971L95.3022 10.0226C94.884 9.48983 94.3386 9.09023 93.666 8.82389C93.0066 8.54483 92.2836 8.40527 91.497 8.40527C90.7488 8.40527 90.0954 8.53211 89.5374 8.78579C88.9788 9.03953 88.5474 9.38837 88.2432 9.83231C87.939 10.2636 87.7866 10.7774 87.7866 11.3736C87.7866 11.9317 87.8946 12.3947 88.11 12.7626C88.3254 13.1177 88.605 13.3969 88.947 13.5998C89.2896 13.8028 89.6514 13.9613 90.0318 14.0755C90.4122 14.1896 90.774 14.2975 91.1166 14.399C91.4586 14.4878 91.7382 14.5956 91.9536 14.7224C92.1822 14.8366 92.2962 15.0079 92.2962 15.2362C92.2962 15.4138 92.2008 15.5533 92.0106 15.6548C91.833 15.7562 91.5732 15.807 91.2306 15.807C90.7356 15.807 90.279 15.7182 89.8608 15.5406C89.442 15.3503 89.0802 15.0903 88.776 14.7605L87.1206 16.4349C87.438 16.7774 87.8184 17.0819 88.2624 17.3482C88.719 17.6019 89.2074 17.7985 89.7276 17.9381Z" fill="#3B82F6"/>
<path d="M100.421 18.128C99.5712 18.128 98.8164 17.9568 98.157 17.6143C97.5096 17.2591 97.0026 16.7771 96.6348 16.1682C96.2664 15.5467 96.0828 14.8363 96.0828 14.0371V8.67139H98.994V13.9991C98.994 14.3162 99.0444 14.5889 99.1464 14.8172C99.2604 15.0456 99.4254 15.2232 99.6408 15.35C99.8568 15.4769 100.117 15.5403 100.421 15.5403C100.852 15.5403 101.195 15.4071 101.449 15.1407C101.702 14.8616 101.829 14.4811 101.829 13.9991V8.67139H104.74V14.0181C104.74 14.83 104.557 15.5467 104.188 16.1682C103.82 16.7771 103.313 17.2591 102.666 17.6143C102.019 17.9568 101.271 18.128 100.421 18.128Z" fill="#3B82F6"/>
<path d="M109.099 8.67128H106.187V17.9187H109.099V12.5148C109.099 12.1977 109.162 11.9313 109.289 11.7157C109.429 11.5 109.613 11.3351 109.841 11.221C110.069 11.0941 110.329 11.0307 110.621 11.0307C111.04 11.0307 111.388 11.1639 111.667 11.4303C111.959 11.6839 112.105 12.0455 112.105 12.5148V17.9187H115.016V12.5148C115.016 12.1977 115.08 11.9313 115.207 11.7157C115.346 11.5 115.53 11.3351 115.759 11.221C115.987 11.0941 116.247 11.0307 116.539 11.0307C116.957 11.0307 117.306 11.1639 117.585 11.4303C117.877 11.6839 118.022 12.0455 118.022 12.5148V17.9187H120.934V12.1914C120.934 11.4176 120.769 10.758 120.439 10.2125C120.122 9.65432 119.684 9.2294 119.126 8.93768C118.581 8.63318 117.953 8.48096 117.242 8.48096C116.519 8.48096 115.866 8.63954 115.283 8.9567C114.904 9.15872 114.572 9.41948 114.289 9.73892C114.024 9.40478 113.702 9.13136 113.323 8.9186C112.816 8.62688 112.238 8.48096 111.592 8.48096C110.906 8.48096 110.291 8.62688 109.746 8.9186C109.508 9.03998 109.293 9.18536 109.099 9.35474V8.67128Z" fill="#3B82F6"/>
</svg>
