<svg width="392" height="344" viewBox="0 0 392 344" fill="none" xmlns="http://www.w3.org/2000/svg">
<path d="M133.617 90.7352C133.617 90.7352 161.31 89.6262 167.295 44.104C172.609 3.67584 219.308 22.0772 232.806 38.1928C250.293 59.0693 240.971 94.9811 263.592 99.5178C286.213 104.054 271.441 154.495 237.104 149.667C194.39 143.661 204.724 168.621 191.902 179.185C182.699 186.767 144.965 179.469 143.708 151.945C142.649 128.784 132.88 128.857 125.955 126.231C115.967 122.443 109.674 95.0122 133.617 90.7352Z" fill="#DEEEFF"/>
<path d="M227.759 141.29L200.551 114.405L195.163 119.858L222.371 146.743L227.759 141.29Z" fill="#699CFF"/>
<path d="M238.152 148.515L216.984 127.598C216.867 127.481 216.677 127.483 216.56 127.6L208.548 135.708C208.432 135.826 208.433 136.016 208.551 136.133L229.719 157.049C229.837 157.166 230.027 157.165 230.143 157.047L238.155 148.939C238.271 148.821 238.27 148.631 238.152 148.515Z" fill="#3B82F6"/>
<path d="M176.436 127.927C195.155 127.927 210.329 112.752 210.329 94.0341C210.329 75.3158 195.155 60.1416 176.436 60.1416C157.718 60.1416 142.544 75.3158 142.544 94.0341C142.544 112.752 157.718 127.927 176.436 127.927Z" fill="#0E84E5"/>
<path d="M176.436 122.396C192.1 122.396 204.799 109.698 204.799 94.0342C204.799 78.3701 192.1 65.6719 176.436 65.6719C160.772 65.6719 148.074 78.3701 148.074 94.0342C148.074 109.698 160.772 122.396 176.436 122.396Z" fill="#D4E5FF"/>
<path d="M233.736 63.395C225.785 60.8181 217.194 65.1764 214.607 73.1591C212.03 81.1091 216.388 89.7006 224.371 92.2879C232.354 94.8752 240.923 90.4742 243.5 82.5238C246.078 74.5734 241.686 65.9718 233.736 63.395ZM231.337 70.796C232.227 71.0844 233.011 71.6306 233.59 72.3654C234.169 73.1001 234.516 73.9903 234.589 74.9229C234.661 75.8555 234.455 76.7887 233.996 77.6039C233.537 78.4192 232.847 79.0798 232.012 79.5021C231.178 79.9244 230.236 80.0892 229.308 79.9758C228.379 79.8623 227.505 79.4756 226.797 78.8648C226.088 78.2539 225.577 77.4464 225.328 76.5447C225.079 75.643 225.104 74.6876 225.399 73.7999C226.195 71.3437 228.88 69.9999 231.337 70.796ZM225.334 89.3146C222.693 88.4628 220.43 86.7193 218.933 84.3827C221.735 82.7908 224.664 82.3474 227.314 83.2064C229.964 84.0654 232.12 86.1209 233.412 89.0755C230.829 90.0896 227.973 90.1742 225.334 89.3146Z" fill="#3B82F6"/>
<path d="M167.565 135.84C166.184 136.545 165.043 137.644 164.287 138.997C163.53 140.35 163.192 141.897 163.315 143.443C163.437 144.988 164.016 146.463 164.976 147.679C165.937 148.896 167.237 149.801 168.712 150.279C170.187 150.757 171.77 150.787 173.262 150.365C174.754 149.943 176.087 149.088 177.093 147.909C178.099 146.729 178.733 145.277 178.914 143.738C179.095 142.198 178.816 140.639 178.111 139.258C177.164 137.408 175.522 136.009 173.545 135.368C171.568 134.728 169.417 134.897 167.565 135.84ZM169.391 139.417C169.821 139.197 170.307 139.111 170.786 139.167C171.266 139.224 171.717 139.422 172.084 139.736C172.451 140.05 172.716 140.466 172.847 140.931C172.977 141.396 172.966 141.889 172.815 142.348C172.665 142.807 172.381 143.211 172.001 143.508C171.62 143.806 171.16 143.983 170.679 144.019C170.197 144.055 169.716 143.946 169.296 143.708C168.876 143.47 168.536 143.112 168.32 142.68C168.033 142.105 167.985 141.439 168.185 140.829C168.386 140.218 168.819 139.71 169.391 139.417V139.417ZM173.959 148.367C172.684 149.02 171.222 149.21 169.823 148.903C170.264 147.3 171.172 146.069 172.453 145.415C173.734 144.761 175.27 144.725 176.82 145.331C176.248 146.644 175.236 147.717 173.959 148.367V148.367Z" fill="#3B82F6"/>
<path d="M18.5547 256.316C17.2188 256.316 16.043 256.188 15.0273 255.93C14.0195 255.672 13.082 255.352 12.2148 254.969V250.82H12.6133C13.4883 251.562 14.4531 252.133 15.5078 252.531C16.5625 252.93 17.5859 253.129 18.5781 253.129C18.8281 253.129 19.1562 253.102 19.5625 253.047C19.9766 252.992 20.3086 252.906 20.5586 252.789C20.8633 252.656 21.1211 252.473 21.332 252.238C21.543 251.996 21.6484 251.68 21.6484 251.289C21.6484 250.852 21.4766 250.496 21.1328 250.223C20.7891 249.949 20.3789 249.75 19.9023 249.625C19.3086 249.469 18.6719 249.32 17.9922 249.18C17.3203 249.039 16.6914 248.867 16.1055 248.664C14.7539 248.188 13.7852 247.547 13.1992 246.742C12.6133 245.938 12.3203 244.93 12.3203 243.719C12.3203 242.086 13.0117 240.766 14.3945 239.758C15.7773 238.742 17.5039 238.234 19.5742 238.234C20.6133 238.234 21.6445 238.34 22.668 238.551C23.6992 238.762 24.6211 239.047 25.4336 239.406V243.391H25.0469C24.3984 242.836 23.6055 242.367 22.668 241.984C21.7383 241.602 20.7812 241.41 19.7969 241.41C19.4141 241.41 19.0703 241.438 18.7656 241.492C18.4609 241.547 18.1406 241.652 17.8047 241.809C17.5312 241.934 17.293 242.121 17.0898 242.371C16.8945 242.613 16.7969 242.887 16.7969 243.191C16.7969 243.637 16.9531 243.992 17.2656 244.258C17.5859 244.516 18.1992 244.75 19.1055 244.961C19.6914 245.094 20.2539 245.223 20.793 245.348C21.3398 245.473 21.9219 245.645 22.5391 245.863C23.75 246.301 24.6484 246.891 25.2344 247.633C25.8281 248.367 26.125 249.34 26.125 250.551C26.125 252.285 25.4414 253.68 24.0742 254.734C22.7148 255.789 20.875 256.316 18.5547 256.316ZM40.7734 249.426C40.7734 251.59 40.1797 253.297 38.9922 254.547C37.8125 255.789 36.1406 256.41 33.9766 256.41C31.8281 256.41 30.1562 255.789 28.9609 254.547C27.7734 253.297 27.1797 251.59 27.1797 249.426C27.1797 247.238 27.7734 245.527 28.9609 244.293C30.1562 243.051 31.8281 242.43 33.9766 242.43C36.1328 242.43 37.8047 243.055 38.9922 244.305C40.1797 245.547 40.7734 247.254 40.7734 249.426ZM36.5664 249.449C36.5664 248.668 36.5 248.02 36.3672 247.504C36.2422 246.98 36.0664 246.562 35.8398 246.25C35.5977 245.922 35.3242 245.695 35.0195 245.57C34.7148 245.438 34.3672 245.371 33.9766 245.371C33.6094 245.371 33.2773 245.43 32.9805 245.547C32.6836 245.656 32.4102 245.871 32.1602 246.191C31.9258 246.496 31.7383 246.914 31.5977 247.445C31.457 247.977 31.3867 248.645 31.3867 249.449C31.3867 250.254 31.4531 250.906 31.5859 251.406C31.7188 251.898 31.8906 252.293 32.1016 252.59C32.3203 252.895 32.5938 253.117 32.9219 253.258C33.25 253.398 33.6133 253.469 34.0117 253.469C34.3398 253.469 34.6719 253.398 35.0078 253.258C35.3516 253.117 35.625 252.906 35.8281 252.625C36.0703 252.289 36.2539 251.887 36.3789 251.418C36.5039 250.941 36.5664 250.285 36.5664 249.449ZM51.7891 246.719H51.4492C51.293 246.664 51.0664 246.625 50.7695 246.602C50.4727 246.57 50.1445 246.555 49.7852 246.555C49.3555 246.555 48.9023 246.617 48.4258 246.742C47.957 246.867 47.5 247.016 47.0547 247.188V256H42.9531V242.84H47.0547V244.727C47.2422 244.555 47.5 244.34 47.8281 244.082C48.1641 243.816 48.4688 243.605 48.7422 243.449C49.0391 243.27 49.3828 243.117 49.7734 242.992C50.1719 242.859 50.5469 242.793 50.8984 242.793C51.0312 242.793 51.1797 242.797 51.3438 242.805C51.5078 242.812 51.6562 242.824 51.7891 242.84V246.719ZM62.1953 246.719H61.8555C61.6992 246.664 61.4727 246.625 61.1758 246.602C60.8789 246.57 60.5508 246.555 60.1914 246.555C59.7617 246.555 59.3086 246.617 58.832 246.742C58.3633 246.867 57.9062 247.016 57.4609 247.188V256H53.3594V242.84H57.4609V244.727C57.6484 244.555 57.9062 244.34 58.2344 244.082C58.5703 243.816 58.875 243.605 59.1484 243.449C59.4453 243.27 59.7891 243.117 60.1797 242.992C60.5781 242.859 60.9531 242.793 61.3047 242.793C61.4375 242.793 61.5859 242.797 61.75 242.805C61.9141 242.812 62.0625 242.824 62.1953 242.84V246.719ZM76.0469 242.84L69.4023 260.828H64.9961L66.9883 255.684L62.1602 242.84H66.4727L69.2383 251.09L71.8281 242.84H76.0469ZM82.5625 251.395L78.4609 260.336H75.9648L78.2734 251.395H82.5625ZM111.73 242.84L107.887 256H103.527L101.219 247.492L98.8984 256H94.5391L90.7305 242.84H95.043L97.0586 251.547L99.5547 242.84H103.176L105.531 251.547L107.512 242.84H111.73ZM120.215 256.352C117.73 256.352 115.824 255.758 114.496 254.57C113.176 253.383 112.516 251.691 112.516 249.496C112.516 247.348 113.133 245.633 114.367 244.352C115.602 243.07 117.328 242.43 119.547 242.43C121.562 242.43 123.078 242.973 124.094 244.059C125.109 245.145 125.617 246.699 125.617 248.723V250.199H116.629C116.668 250.809 116.797 251.32 117.016 251.734C117.234 252.141 117.523 252.465 117.883 252.707C118.234 252.949 118.645 253.125 119.113 253.234C119.582 253.336 120.094 253.387 120.648 253.387C121.125 253.387 121.594 253.336 122.055 253.234C122.516 253.125 122.938 252.984 123.32 252.812C123.656 252.664 123.965 252.504 124.246 252.332C124.535 252.16 124.77 252.008 124.949 251.875H125.383V255.262C125.047 255.395 124.738 255.52 124.457 255.637C124.184 255.746 123.805 255.859 123.32 255.977C122.875 256.094 122.414 256.184 121.938 256.246C121.469 256.316 120.895 256.352 120.215 256.352ZM121.574 247.727C121.551 246.859 121.348 246.199 120.965 245.746C120.59 245.293 120.012 245.066 119.23 245.066C118.434 245.066 117.809 245.305 117.355 245.781C116.91 246.258 116.664 246.906 116.617 247.727H121.574ZM141.215 256.352C140.129 256.352 139.133 256.215 138.227 255.941C137.328 255.668 136.547 255.246 135.883 254.676C135.227 254.105 134.715 253.391 134.348 252.531C133.98 251.664 133.797 250.645 133.797 249.473C133.797 248.215 133.996 247.145 134.395 246.262C134.793 245.379 135.332 244.652 136.012 244.082C136.668 243.535 137.438 243.133 138.32 242.875C139.211 242.609 140.137 242.477 141.098 242.477C141.824 242.477 142.551 242.562 143.277 242.734C144.004 242.898 144.734 243.164 145.469 243.531V247.047H144.941C144.777 246.891 144.574 246.719 144.332 246.531C144.098 246.344 143.84 246.172 143.559 246.016C143.262 245.852 142.926 245.715 142.551 245.605C142.176 245.488 141.758 245.43 141.297 245.43C140.25 245.43 139.438 245.797 138.859 246.531C138.289 247.258 138.004 248.238 138.004 249.473C138.004 250.793 138.309 251.777 138.918 252.426C139.535 253.074 140.352 253.398 141.367 253.398C141.883 253.398 142.336 253.34 142.727 253.223C143.117 253.105 143.453 252.965 143.734 252.801C144.008 252.637 144.242 252.469 144.438 252.297C144.633 252.117 144.801 251.957 144.941 251.816H145.469V255.332C145.234 255.434 144.961 255.551 144.648 255.684C144.344 255.816 144.031 255.926 143.711 256.012C143.312 256.121 142.938 256.203 142.586 256.258C142.242 256.32 141.785 256.352 141.215 256.352ZM160.047 249.426C160.047 251.59 159.453 253.297 158.266 254.547C157.086 255.789 155.414 256.41 153.25 256.41C151.102 256.41 149.43 255.789 148.234 254.547C147.047 253.297 146.453 251.59 146.453 249.426C146.453 247.238 147.047 245.527 148.234 244.293C149.43 243.051 151.102 242.43 153.25 242.43C155.406 242.43 157.078 243.055 158.266 244.305C159.453 245.547 160.047 247.254 160.047 249.426ZM155.84 249.449C155.84 248.668 155.773 248.02 155.641 247.504C155.516 246.98 155.34 246.562 155.113 246.25C154.871 245.922 154.598 245.695 154.293 245.57C153.988 245.438 153.641 245.371 153.25 245.371C152.883 245.371 152.551 245.43 152.254 245.547C151.957 245.656 151.684 245.871 151.434 246.191C151.199 246.496 151.012 246.914 150.871 247.445C150.73 247.977 150.66 248.645 150.66 249.449C150.66 250.254 150.727 250.906 150.859 251.406C150.992 251.898 151.164 252.293 151.375 252.59C151.594 252.895 151.867 253.117 152.195 253.258C152.523 253.398 152.887 253.469 153.285 253.469C153.613 253.469 153.945 253.398 154.281 253.258C154.625 253.117 154.898 252.906 155.102 252.625C155.344 252.289 155.527 251.887 155.652 251.418C155.777 250.941 155.84 250.285 155.84 249.449ZM174.449 256H170.348V254.547C169.637 255.141 168.984 255.594 168.391 255.906C167.797 256.211 167.09 256.363 166.27 256.363C164.965 256.363 163.945 255.953 163.211 255.133C162.484 254.305 162.121 253.062 162.121 251.406V242.84H166.246V249.367C166.246 250.047 166.262 250.602 166.293 251.031C166.332 251.461 166.418 251.824 166.551 252.121C166.676 252.395 166.867 252.602 167.125 252.742C167.391 252.883 167.758 252.953 168.227 252.953C168.516 252.953 168.855 252.883 169.246 252.742C169.645 252.602 170.012 252.41 170.348 252.168V242.84H174.449V256ZM181.703 256H177.602V237.766H181.703V256ZM196.809 256H192.707V254.629C192.441 254.848 192.137 255.082 191.793 255.332C191.457 255.582 191.16 255.77 190.902 255.895C190.574 256.051 190.25 256.168 189.93 256.246C189.609 256.324 189.227 256.363 188.781 256.363C187.281 256.363 186.094 255.742 185.219 254.5C184.344 253.258 183.906 251.598 183.906 249.52C183.906 248.371 184.055 247.375 184.352 246.531C184.648 245.688 185.059 244.953 185.582 244.328C186.059 243.758 186.637 243.309 187.316 242.98C187.996 242.645 188.715 242.477 189.473 242.477C190.16 242.477 190.723 242.551 191.16 242.699C191.605 242.84 192.121 243.062 192.707 243.367V237.766H196.809V256ZM192.707 252.367V245.91C192.504 245.809 192.238 245.727 191.91 245.664C191.582 245.594 191.301 245.559 191.066 245.559C190.082 245.559 189.34 245.902 188.84 246.59C188.348 247.277 188.102 248.238 188.102 249.473C188.102 250.77 188.297 251.707 188.688 252.285C189.086 252.863 189.727 253.152 190.609 253.152C190.969 253.152 191.332 253.082 191.699 252.941C192.066 252.801 192.402 252.609 192.707 252.367ZM212.289 256H208.164V249.473C208.164 248.941 208.141 248.414 208.094 247.891C208.055 247.359 207.977 246.969 207.859 246.719C207.719 246.422 207.516 246.211 207.25 246.086C206.984 245.953 206.629 245.887 206.184 245.887C205.848 245.887 205.508 245.949 205.164 246.074C204.82 246.199 204.453 246.398 204.062 246.672V256H199.961V242.84H204.062V244.293C204.734 243.723 205.387 243.277 206.02 242.957C206.66 242.637 207.367 242.477 208.141 242.477C209.484 242.477 210.512 242.902 211.223 243.754C211.934 244.598 212.289 245.824 212.289 247.434V256ZM218.98 237.766L218.277 244.668H215.863L215.16 237.766H218.98ZM226.984 256.258C225.312 256.258 224.094 255.914 223.328 255.227C222.57 254.539 222.191 253.414 222.191 251.852V245.699H220.621V242.84H222.191V239.078H226.293V242.84H230.242V245.699H226.293V250.363C226.293 250.824 226.297 251.227 226.305 251.57C226.312 251.914 226.375 252.223 226.492 252.496C226.602 252.77 226.793 252.988 227.066 253.152C227.348 253.309 227.754 253.387 228.285 253.387C228.504 253.387 228.789 253.34 229.141 253.246C229.5 253.152 229.75 253.066 229.891 252.988H230.242V255.883C229.797 256 229.324 256.09 228.824 256.152C228.324 256.223 227.711 256.258 226.984 256.258ZM247.375 240.859H247.059C246.902 240.812 246.656 240.754 246.32 240.684C245.992 240.605 245.68 240.566 245.383 240.566C244.555 240.566 243.988 240.719 243.684 241.023C243.387 241.328 243.238 241.898 243.238 242.734V242.84H246.496V245.699H243.379V256H239.277V245.699H237.637V242.84H239.277V242.477C239.277 240.867 239.699 239.66 240.543 238.855C241.387 238.051 242.664 237.648 244.375 237.648C244.969 237.648 245.523 237.672 246.039 237.719C246.555 237.758 247 237.812 247.375 237.883V240.859ZM252.25 256H248.148V242.84H252.25V256ZM252.367 240.965H248.031V237.766H252.367V240.965ZM267.719 256H263.594V249.473C263.594 248.941 263.57 248.414 263.523 247.891C263.484 247.359 263.406 246.969 263.289 246.719C263.148 246.422 262.945 246.211 262.68 246.086C262.414 245.953 262.059 245.887 261.613 245.887C261.277 245.887 260.938 245.949 260.594 246.074C260.25 246.199 259.883 246.398 259.492 246.672V256H255.391V242.84H259.492V244.293C260.164 243.723 260.816 243.277 261.449 242.957C262.09 242.637 262.797 242.477 263.57 242.477C264.914 242.477 265.941 242.902 266.652 243.754C267.363 244.598 267.719 245.824 267.719 247.434V256ZM282.73 256H278.629V254.629C278.363 254.848 278.059 255.082 277.715 255.332C277.379 255.582 277.082 255.77 276.824 255.895C276.496 256.051 276.172 256.168 275.852 256.246C275.531 256.324 275.148 256.363 274.703 256.363C273.203 256.363 272.016 255.742 271.141 254.5C270.266 253.258 269.828 251.598 269.828 249.52C269.828 248.371 269.977 247.375 270.273 246.531C270.57 245.688 270.98 244.953 271.504 244.328C271.98 243.758 272.559 243.309 273.238 242.98C273.918 242.645 274.637 242.477 275.395 242.477C276.082 242.477 276.645 242.551 277.082 242.699C277.527 242.84 278.043 243.062 278.629 243.367V237.766H282.73V256ZM278.629 252.367V245.91C278.426 245.809 278.16 245.727 277.832 245.664C277.504 245.594 277.223 245.559 276.988 245.559C276.004 245.559 275.262 245.902 274.762 246.59C274.27 247.277 274.023 248.238 274.023 249.473C274.023 250.77 274.219 251.707 274.609 252.285C275.008 252.863 275.648 253.152 276.531 253.152C276.891 253.152 277.254 253.082 277.621 252.941C277.988 252.801 278.324 252.609 278.629 252.367ZM300.168 252.566V249.824C299.473 249.895 298.91 249.957 298.48 250.012C298.051 250.059 297.629 250.156 297.215 250.305C296.855 250.43 296.574 250.621 296.371 250.879C296.176 251.129 296.078 251.465 296.078 251.887C296.078 252.504 296.242 252.93 296.57 253.164C296.906 253.391 297.398 253.504 298.047 253.504C298.406 253.504 298.773 253.422 299.148 253.258C299.523 253.094 299.863 252.863 300.168 252.566ZM300.168 254.605C299.887 254.84 299.633 255.051 299.406 255.238C299.188 255.426 298.891 255.613 298.516 255.801C298.148 255.98 297.789 256.117 297.438 256.211C297.094 256.305 296.609 256.352 295.984 256.352C294.82 256.352 293.852 255.961 293.078 255.18C292.312 254.398 291.93 253.414 291.93 252.227C291.93 251.25 292.125 250.461 292.516 249.859C292.906 249.258 293.469 248.781 294.203 248.43C294.945 248.07 295.832 247.82 296.863 247.68C297.895 247.539 299.004 247.43 300.191 247.352V247.281C300.191 246.555 299.922 246.055 299.383 245.781C298.852 245.5 298.051 245.359 296.98 245.359C296.496 245.359 295.93 245.449 295.281 245.629C294.633 245.801 294 246.023 293.383 246.297H293.031V243.121C293.438 243.004 294.094 242.867 295 242.711C295.906 242.547 296.82 242.465 297.742 242.465C300.008 242.465 301.656 242.844 302.688 243.602C303.727 244.352 304.246 245.5 304.246 247.047V256H300.168V254.605ZM319.609 256H315.484V249.473C315.484 248.941 315.461 248.414 315.414 247.891C315.375 247.359 315.297 246.969 315.18 246.719C315.039 246.422 314.836 246.211 314.57 246.086C314.305 245.953 313.949 245.887 313.504 245.887C313.168 245.887 312.828 245.949 312.484 246.074C312.141 246.199 311.773 246.398 311.383 246.672V256H307.281V242.84H311.383V244.293C312.055 243.723 312.707 243.277 313.34 242.957C313.98 242.637 314.688 242.477 315.461 242.477C316.805 242.477 317.832 242.902 318.543 243.754C319.254 244.598 319.609 245.824 319.609 247.434V256ZM334.938 242.84L328.293 260.828H323.887L325.879 255.684L321.051 242.84H325.363L328.129 251.09L330.719 242.84H334.938ZM349.082 256.234C349.082 257.719 348.641 258.875 347.758 259.703C346.875 260.539 345.734 260.957 344.336 260.957C343.586 260.957 342.906 260.922 342.297 260.852C341.688 260.789 341.242 260.723 340.961 260.652V257.629H341.277C341.543 257.715 341.836 257.781 342.156 257.828C342.484 257.883 342.746 257.91 342.941 257.91C343.73 257.91 344.266 257.668 344.547 257.184C344.836 256.699 344.98 255.902 344.98 254.793V245.699H342.613V242.84H349.082V256.234ZM349.082 240.965H344.711V237.766H349.082V240.965ZM364.867 249.426C364.867 251.59 364.273 253.297 363.086 254.547C361.906 255.789 360.234 256.41 358.07 256.41C355.922 256.41 354.25 255.789 353.055 254.547C351.867 253.297 351.273 251.59 351.273 249.426C351.273 247.238 351.867 245.527 353.055 244.293C354.25 243.051 355.922 242.43 358.07 242.43C360.227 242.43 361.898 243.055 363.086 244.305C364.273 245.547 364.867 247.254 364.867 249.426ZM360.66 249.449C360.66 248.668 360.594 248.02 360.461 247.504C360.336 246.98 360.16 246.562 359.934 246.25C359.691 245.922 359.418 245.695 359.113 245.57C358.809 245.438 358.461 245.371 358.07 245.371C357.703 245.371 357.371 245.43 357.074 245.547C356.777 245.656 356.504 245.871 356.254 246.191C356.02 246.496 355.832 246.914 355.691 247.445C355.551 247.977 355.48 248.645 355.48 249.449C355.48 250.254 355.547 250.906 355.68 251.406C355.812 251.898 355.984 252.293 356.195 252.59C356.414 252.895 356.688 253.117 357.016 253.258C357.344 253.398 357.707 253.469 358.105 253.469C358.434 253.469 358.766 253.398 359.102 253.258C359.445 253.117 359.719 252.906 359.922 252.625C360.164 252.289 360.348 251.887 360.473 251.418C360.598 250.941 360.66 250.285 360.66 249.449ZM375.754 249.32C375.754 248.008 375.555 247.07 375.156 246.508C374.758 245.945 374.145 245.664 373.316 245.664C372.949 245.664 372.582 245.723 372.215 245.84C371.855 245.957 371.5 246.133 371.148 246.367V252.977C371.422 253.086 371.695 253.16 371.969 253.199C372.25 253.238 372.527 253.258 372.801 253.258C373.793 253.258 374.531 252.93 375.016 252.273C375.508 251.617 375.754 250.633 375.754 249.32ZM379.949 249.238C379.949 251.332 379.418 253.027 378.355 254.324C377.293 255.613 375.977 256.258 374.406 256.258C373.75 256.258 373.18 256.184 372.695 256.035C372.211 255.887 371.695 255.656 371.148 255.344L370.973 256H367.047V237.766H371.148V244.211C371.75 243.695 372.363 243.277 372.988 242.957C373.613 242.637 374.336 242.477 375.156 242.477C376.688 242.477 377.867 243.074 378.695 244.27C379.531 245.465 379.949 247.121 379.949 249.238ZM97.668 271.84L93.8242 285H89.4648L87.1562 276.492L84.8359 285H80.4766L76.668 271.84H80.9805L82.9961 280.547L85.4922 271.84H89.1133L91.4688 280.547L93.4492 271.84H97.668ZM103.516 285H99.4141V271.84H103.516V285ZM103.633 269.965H99.2969V266.766H103.633V269.965ZM111.695 285.258C110.023 285.258 108.805 284.914 108.039 284.227C107.281 283.539 106.902 282.414 106.902 280.852V274.699H105.332V271.84H106.902V268.078H111.004V271.84H114.953V274.699H111.004V279.363C111.004 279.824 111.008 280.227 111.016 280.57C111.023 280.914 111.086 281.223 111.203 281.496C111.312 281.77 111.504 281.988 111.777 282.152C112.059 282.309 112.465 282.387 112.996 282.387C113.215 282.387 113.5 282.34 113.852 282.246C114.211 282.152 114.461 282.066 114.602 281.988H114.953V284.883C114.508 285 114.035 285.09 113.535 285.152C113.035 285.223 112.422 285.258 111.695 285.258ZM128.969 285H124.844V278.473C124.844 277.941 124.82 277.414 124.773 276.891C124.734 276.359 124.656 275.969 124.539 275.719C124.398 275.422 124.195 275.211 123.93 275.086C123.664 274.953 123.309 274.887 122.863 274.887C122.527 274.887 122.188 274.949 121.844 275.074C121.5 275.199 121.133 275.398 120.742 275.672V285H116.641V266.766H120.742V273.293C121.414 272.723 122.066 272.277 122.699 271.957C123.34 271.637 124.047 271.477 124.82 271.477C126.164 271.477 127.191 271.902 127.902 272.754C128.613 273.598 128.969 274.824 128.969 276.434V285ZM151.328 271.84L144.684 289.828H140.277L142.27 284.684L137.441 271.84H141.754L144.52 280.09L147.109 271.84H151.328ZM165.508 278.426C165.508 280.59 164.914 282.297 163.727 283.547C162.547 284.789 160.875 285.41 158.711 285.41C156.562 285.41 154.891 284.789 153.695 283.547C152.508 282.297 151.914 280.59 151.914 278.426C151.914 276.238 152.508 274.527 153.695 273.293C154.891 272.051 156.562 271.43 158.711 271.43C160.867 271.43 162.539 272.055 163.727 273.305C164.914 274.547 165.508 276.254 165.508 278.426ZM161.301 278.449C161.301 277.668 161.234 277.02 161.102 276.504C160.977 275.98 160.801 275.562 160.574 275.25C160.332 274.922 160.059 274.695 159.754 274.57C159.449 274.438 159.102 274.371 158.711 274.371C158.344 274.371 158.012 274.43 157.715 274.547C157.418 274.656 157.145 274.871 156.895 275.191C156.66 275.496 156.473 275.914 156.332 276.445C156.191 276.977 156.121 277.645 156.121 278.449C156.121 279.254 156.188 279.906 156.32 280.406C156.453 280.898 156.625 281.293 156.836 281.59C157.055 281.895 157.328 282.117 157.656 282.258C157.984 282.398 158.348 282.469 158.746 282.469C159.074 282.469 159.406 282.398 159.742 282.258C160.086 282.117 160.359 281.906 160.562 281.625C160.805 281.289 160.988 280.887 161.113 280.418C161.238 279.941 161.301 279.285 161.301 278.449ZM179.91 285H175.809V283.547C175.098 284.141 174.445 284.594 173.852 284.906C173.258 285.211 172.551 285.363 171.73 285.363C170.426 285.363 169.406 284.953 168.672 284.133C167.945 283.305 167.582 282.062 167.582 280.406V271.84H171.707V278.367C171.707 279.047 171.723 279.602 171.754 280.031C171.793 280.461 171.879 280.824 172.012 281.121C172.137 281.395 172.328 281.602 172.586 281.742C172.852 281.883 173.219 281.953 173.688 281.953C173.977 281.953 174.316 281.883 174.707 281.742C175.105 281.602 175.473 281.41 175.809 281.168V271.84H179.91V285ZM191.898 275.719H191.559C191.402 275.664 191.176 275.625 190.879 275.602C190.582 275.57 190.254 275.555 189.895 275.555C189.465 275.555 189.012 275.617 188.535 275.742C188.066 275.867 187.609 276.016 187.164 276.188V285H183.062V271.84H187.164V273.727C187.352 273.555 187.609 273.34 187.938 273.082C188.273 272.816 188.578 272.605 188.852 272.449C189.148 272.27 189.492 272.117 189.883 271.992C190.281 271.859 190.656 271.793 191.008 271.793C191.141 271.793 191.289 271.797 191.453 271.805C191.617 271.812 191.766 271.824 191.898 271.84V275.719ZM213.672 285H208.797L205.234 279.27L204.602 280.125V285H200.5V266.766H204.602V276.984L208.492 271.84H213.332L208.727 277.512L213.672 285ZM221.699 285.352C219.215 285.352 217.309 284.758 215.98 283.57C214.66 282.383 214 280.691 214 278.496C214 276.348 214.617 274.633 215.852 273.352C217.086 272.07 218.812 271.43 221.031 271.43C223.047 271.43 224.562 271.973 225.578 273.059C226.594 274.145 227.102 275.699 227.102 277.723V279.199H218.113C218.152 279.809 218.281 280.32 218.5 280.734C218.719 281.141 219.008 281.465 219.367 281.707C219.719 281.949 220.129 282.125 220.598 282.234C221.066 282.336 221.578 282.387 222.133 282.387C222.609 282.387 223.078 282.336 223.539 282.234C224 282.125 224.422 281.984 224.805 281.812C225.141 281.664 225.449 281.504 225.73 281.332C226.02 281.16 226.254 281.008 226.434 280.875H226.867V284.262C226.531 284.395 226.223 284.52 225.941 284.637C225.668 284.746 225.289 284.859 224.805 284.977C224.359 285.094 223.898 285.184 223.422 285.246C222.953 285.316 222.379 285.352 221.699 285.352ZM223.059 276.727C223.035 275.859 222.832 275.199 222.449 274.746C222.074 274.293 221.496 274.066 220.715 274.066C219.918 274.066 219.293 274.305 218.84 274.781C218.395 275.258 218.148 275.906 218.102 276.727H223.059ZM241.492 271.84L234.848 289.828H230.441L232.434 284.684L227.605 271.84H231.918L234.684 280.09L237.273 271.84H241.492ZM262.645 271.84L258.801 285H254.441L252.133 276.492L249.812 285H245.453L241.645 271.84H245.957L247.973 280.547L250.469 271.84H254.09L256.445 280.547L258.426 271.84H262.645ZM277.023 278.426C277.023 280.59 276.43 282.297 275.242 283.547C274.062 284.789 272.391 285.41 270.227 285.41C268.078 285.41 266.406 284.789 265.211 283.547C264.023 282.297 263.43 280.59 263.43 278.426C263.43 276.238 264.023 274.527 265.211 273.293C266.406 272.051 268.078 271.43 270.227 271.43C272.383 271.43 274.055 272.055 275.242 273.305C276.43 274.547 277.023 276.254 277.023 278.426ZM272.816 278.449C272.816 277.668 272.75 277.02 272.617 276.504C272.492 275.98 272.316 275.562 272.09 275.25C271.848 274.922 271.574 274.695 271.27 274.57C270.965 274.438 270.617 274.371 270.227 274.371C269.859 274.371 269.527 274.43 269.23 274.547C268.934 274.656 268.66 274.871 268.41 275.191C268.176 275.496 267.988 275.914 267.848 276.445C267.707 276.977 267.637 277.645 267.637 278.449C267.637 279.254 267.703 279.906 267.836 280.406C267.969 280.898 268.141 281.293 268.352 281.59C268.57 281.895 268.844 282.117 269.172 282.258C269.5 282.398 269.863 282.469 270.262 282.469C270.59 282.469 270.922 282.398 271.258 282.258C271.602 282.117 271.875 281.906 272.078 281.625C272.32 281.289 272.504 280.887 272.629 280.418C272.754 279.941 272.816 279.285 272.816 278.449ZM288.039 275.719H287.699C287.543 275.664 287.316 275.625 287.02 275.602C286.723 275.57 286.395 275.555 286.035 275.555C285.605 275.555 285.152 275.617 284.676 275.742C284.207 275.867 283.75 276.016 283.305 276.188V285H279.203V271.84H283.305V273.727C283.492 273.555 283.75 273.34 284.078 273.082C284.414 272.816 284.719 272.605 284.992 272.449C285.289 272.27 285.633 272.117 286.023 271.992C286.422 271.859 286.797 271.793 287.148 271.793C287.281 271.793 287.43 271.797 287.594 271.805C287.758 271.812 287.906 271.824 288.039 271.84V275.719ZM301.574 285H297.473V283.629C297.207 283.848 296.902 284.082 296.559 284.332C296.223 284.582 295.926 284.77 295.668 284.895C295.34 285.051 295.016 285.168 294.695 285.246C294.375 285.324 293.992 285.363 293.547 285.363C292.047 285.363 290.859 284.742 289.984 283.5C289.109 282.258 288.672 280.598 288.672 278.52C288.672 277.371 288.82 276.375 289.117 275.531C289.414 274.688 289.824 273.953 290.348 273.328C290.824 272.758 291.402 272.309 292.082 271.98C292.762 271.645 293.48 271.477 294.238 271.477C294.926 271.477 295.488 271.551 295.926 271.699C296.371 271.84 296.887 272.062 297.473 272.367V266.766H301.574V285ZM297.473 281.367V274.91C297.27 274.809 297.004 274.727 296.676 274.664C296.348 274.594 296.066 274.559 295.832 274.559C294.848 274.559 294.105 274.902 293.605 275.59C293.113 276.277 292.867 277.238 292.867 278.473C292.867 279.77 293.062 280.707 293.453 281.285C293.852 281.863 294.492 282.152 295.375 282.152C295.734 282.152 296.098 282.082 296.465 281.941C296.832 281.801 297.168 281.609 297.473 281.367ZM308.734 285.363C307.766 285.363 306.848 285.258 305.98 285.047C305.121 284.836 304.41 284.59 303.848 284.309V280.84H304.188C304.383 280.988 304.605 281.152 304.855 281.332C305.105 281.512 305.453 281.699 305.898 281.895C306.281 282.074 306.711 282.23 307.188 282.363C307.672 282.488 308.195 282.551 308.758 282.551C309.336 282.551 309.844 282.461 310.281 282.281C310.727 282.102 310.949 281.816 310.949 281.426C310.949 281.121 310.848 280.891 310.645 280.734C310.441 280.578 310.047 280.43 309.461 280.289C309.148 280.211 308.754 280.129 308.277 280.043C307.801 279.949 307.379 279.844 307.012 279.727C305.98 279.406 305.203 278.934 304.68 278.309C304.164 277.676 303.906 276.848 303.906 275.824C303.906 275.238 304.039 274.688 304.305 274.172C304.578 273.648 304.977 273.184 305.5 272.777C306.023 272.379 306.668 272.062 307.434 271.828C308.207 271.594 309.078 271.477 310.047 271.477C310.969 271.477 311.816 271.57 312.59 271.758C313.363 271.938 314.016 272.156 314.547 272.414V275.742H314.219C314.078 275.633 313.855 275.488 313.551 275.309C313.246 275.121 312.949 274.961 312.66 274.828C312.316 274.672 311.93 274.543 311.5 274.441C311.078 274.34 310.645 274.289 310.199 274.289C309.605 274.289 309.102 274.391 308.688 274.594C308.281 274.797 308.078 275.066 308.078 275.402C308.078 275.699 308.18 275.934 308.383 276.105C308.586 276.277 309.027 276.445 309.707 276.609C310.059 276.695 310.461 276.781 310.914 276.867C311.375 276.945 311.816 277.055 312.238 277.195C313.184 277.5 313.898 277.949 314.383 278.543C314.875 279.129 315.121 279.91 315.121 280.887C315.121 281.504 314.977 282.094 314.688 282.656C314.398 283.211 313.988 283.68 313.457 284.062C312.895 284.477 312.23 284.797 311.465 285.023C310.707 285.25 309.797 285.363 308.734 285.363Z" fill="black"/>
<path d="M4.18679 310.614V309.364H12.9141V310.614H9.25497V321H7.84588V310.614H4.18679ZM14.0007 321V312.273H15.2962V313.591H15.3871C15.5462 313.159 15.834 312.809 16.2507 312.54C16.6674 312.271 17.1371 312.136 17.6598 312.136C17.7583 312.136 17.8814 312.138 18.0291 312.142C18.1768 312.146 18.2886 312.152 18.3643 312.159V313.523C18.3189 313.511 18.2147 313.494 18.0518 313.472C17.8928 313.445 17.7242 313.432 17.5462 313.432C17.1219 313.432 16.7431 313.521 16.4098 313.699C16.0803 313.873 15.8189 314.116 15.6257 314.426C15.4363 314.733 15.3416 315.083 15.3416 315.477V321H14.0007ZM21.0831 324.273C20.8558 324.273 20.6532 324.254 20.4751 324.216C20.2971 324.182 20.174 324.148 20.1058 324.114L20.4467 322.932C20.7725 323.015 21.0604 323.045 21.3104 323.023C21.5604 323 21.782 322.888 21.9751 322.688C22.1721 322.491 22.352 322.17 22.5149 321.727L22.7649 321.045L19.5376 312.273H20.9922L23.4013 319.227H23.4922L25.9013 312.273H27.3558L23.6513 322.273C23.4846 322.723 23.2782 323.097 23.032 323.392C22.7857 323.691 22.4998 323.913 22.174 324.057C21.852 324.201 21.4884 324.273 21.0831 324.273ZM36.1939 321.205C35.6409 321.205 35.139 321.1 34.6882 320.892C34.2375 320.68 33.8795 320.375 33.6143 319.977C33.3492 319.576 33.2166 319.091 33.2166 318.523C33.2166 318.023 33.3151 317.617 33.5121 317.307C33.709 316.992 33.9723 316.746 34.3018 316.568C34.6314 316.39 34.995 316.258 35.3928 316.17C35.7943 316.08 36.1977 316.008 36.603 315.955C37.1333 315.886 37.5632 315.835 37.8928 315.801C38.2261 315.763 38.4685 315.701 38.62 315.614C38.7753 315.527 38.853 315.375 38.853 315.159V315.114C38.853 314.553 38.6996 314.117 38.3928 313.807C38.0897 313.496 37.6295 313.341 37.0121 313.341C36.3719 313.341 35.87 313.481 35.5064 313.761C35.1428 314.042 34.8871 314.341 34.7393 314.659L33.4666 314.205C33.6939 313.674 33.9969 313.261 34.3757 312.966C34.7583 312.667 35.175 312.458 35.6257 312.341C36.0803 312.22 36.5272 312.159 36.9666 312.159C37.2469 312.159 37.5689 312.193 37.9325 312.261C38.3 312.326 38.6541 312.46 38.995 312.665C39.3397 312.869 39.6257 313.178 39.853 313.591C40.0803 314.004 40.1939 314.557 40.1939 315.25V321H38.853V319.818H38.7848C38.6939 320.008 38.5424 320.21 38.3303 320.426C38.1181 320.642 37.8359 320.826 37.4837 320.977C37.1314 321.129 36.7015 321.205 36.1939 321.205ZM36.3984 320C36.9287 320 37.3757 319.896 37.7393 319.688C38.1068 319.479 38.3833 319.21 38.5689 318.881C38.7583 318.551 38.853 318.205 38.853 317.841V316.614C38.7962 316.682 38.6712 316.744 38.478 316.801C38.2886 316.854 38.0689 316.902 37.8189 316.943C37.5727 316.981 37.3321 317.015 37.0973 317.045C36.8662 317.072 36.6787 317.095 36.5348 317.114C36.1863 317.159 35.8606 317.233 35.5575 317.335C35.2583 317.434 35.0159 317.583 34.8303 317.784C34.6484 317.981 34.5575 318.25 34.5575 318.591C34.5575 319.057 34.7299 319.409 35.0746 319.648C35.4231 319.883 35.8643 320 36.3984 320ZM45.9368 321.182C45.2095 321.182 44.5675 320.998 44.0107 320.631C43.4538 320.259 43.0182 319.737 42.7038 319.062C42.3894 318.384 42.2322 317.583 42.2322 316.659C42.2322 315.742 42.3894 314.947 42.7038 314.273C43.0182 313.598 43.4557 313.078 44.0163 312.71C44.5769 312.343 45.2247 312.159 45.9595 312.159C46.5277 312.159 46.9766 312.254 47.3061 312.443C47.6394 312.629 47.8932 312.841 48.0675 313.08C48.2455 313.314 48.3838 313.508 48.4822 313.659H48.5959V309.364H49.9368V321H48.6413V319.659H48.4822C48.3838 319.818 48.2436 320.019 48.0618 320.261C47.88 320.5 47.6205 320.714 47.2834 320.903C46.9463 321.089 46.4974 321.182 45.9368 321.182ZM46.1186 319.977C46.6565 319.977 47.111 319.837 47.4822 319.557C47.8535 319.273 48.1357 318.881 48.3288 318.381C48.522 317.877 48.6186 317.295 48.6186 316.636C48.6186 315.985 48.5239 315.415 48.3345 314.926C48.1451 314.434 47.8648 314.051 47.4936 313.778C47.1224 313.502 46.6641 313.364 46.1186 313.364C45.5504 313.364 45.0769 313.509 44.6982 313.801C44.3232 314.089 44.041 314.481 43.8516 314.977C43.666 315.47 43.5732 316.023 43.5732 316.636C43.5732 317.258 43.6679 317.822 43.8572 318.33C44.0504 318.833 44.3345 319.235 44.7095 319.534C45.0883 319.83 45.558 319.977 46.1186 319.977ZM52.5788 312.273H53.9197V321.636C53.9197 322.174 53.8269 322.64 53.6413 323.034C53.4595 323.428 53.183 323.733 52.8118 323.949C52.4444 324.165 51.9804 324.273 51.4197 324.273C51.3743 324.273 51.3288 324.273 51.2834 324.273C51.2379 324.273 51.1925 324.273 51.147 324.273V323.023C51.1925 323.023 51.2341 323.023 51.272 323.023C51.3099 323.023 51.3516 323.023 51.397 323.023C51.8061 323.023 52.1054 322.902 52.2947 322.659C52.4841 322.42 52.5788 322.08 52.5788 321.636V312.273ZM53.2379 310.818C52.9766 310.818 52.7512 310.729 52.5618 310.551C52.3762 310.373 52.2834 310.159 52.2834 309.909C52.2834 309.659 52.3762 309.445 52.5618 309.267C52.7512 309.089 52.9766 309 53.2379 309C53.4993 309 53.7228 309.089 53.9084 309.267C54.0978 309.445 54.1925 309.659 54.1925 309.909C54.1925 310.159 54.0978 310.373 53.9084 310.551C53.7228 310.729 53.4993 310.818 53.2379 310.818ZM61.8757 317.432V312.273H63.2166V321H61.8757V319.523H61.7848C61.5803 319.966 61.2621 320.343 60.8303 320.653C60.3984 320.96 59.853 321.114 59.1939 321.114C58.6484 321.114 58.1636 320.994 57.7393 320.756C57.3151 320.513 56.9818 320.15 56.7393 319.665C56.4969 319.176 56.3757 318.561 56.3757 317.818V312.273H57.7166V317.727C57.7166 318.364 57.8946 318.871 58.2507 319.25C58.6106 319.629 59.0689 319.818 59.6257 319.818C59.959 319.818 60.2981 319.733 60.6428 319.562C60.9912 319.392 61.2829 319.131 61.5178 318.778C61.7564 318.426 61.8757 317.977 61.8757 317.432ZM71.8544 314.227L70.6499 314.568C70.5741 314.367 70.4624 314.172 70.3146 313.983C70.1707 313.79 69.9737 313.631 69.7237 313.506C69.4737 313.381 69.1536 313.318 68.7635 313.318C68.2294 313.318 67.7843 313.441 67.4283 313.688C67.076 313.93 66.8999 314.239 66.8999 314.614C66.8999 314.947 67.0211 315.21 67.2635 315.403C67.5059 315.597 67.8847 315.758 68.3999 315.886L69.6953 316.205C70.4756 316.394 71.0571 316.684 71.4396 317.074C71.8222 317.46 72.0135 317.958 72.0135 318.568C72.0135 319.068 71.8696 319.515 71.5817 319.909C71.2976 320.303 70.8999 320.614 70.3885 320.841C69.8771 321.068 69.2824 321.182 68.6044 321.182C67.7143 321.182 66.9775 320.989 66.3942 320.602C65.8108 320.216 65.4415 319.652 65.2862 318.909L66.5589 318.591C66.6802 319.061 66.9093 319.413 67.2464 319.648C67.5874 319.883 68.0324 320 68.5817 320C69.2067 320 69.7029 319.867 70.0703 319.602C70.4415 319.333 70.6271 319.011 70.6271 318.636C70.6271 318.333 70.5211 318.08 70.3089 317.875C70.0968 317.667 69.7711 317.511 69.3317 317.409L67.8771 317.068C67.0779 316.879 66.4908 316.585 66.1158 316.188C65.7446 315.786 65.5589 315.284 65.5589 314.682C65.5589 314.189 65.6972 313.754 65.9737 313.375C66.254 312.996 66.6347 312.699 67.1158 312.483C67.6006 312.267 68.1499 312.159 68.7635 312.159C69.6271 312.159 70.3052 312.348 70.7976 312.727C71.2938 313.106 71.6461 313.606 71.8544 314.227ZM77.8274 312.273V313.409H73.3047V312.273H77.8274ZM74.6229 310.182H75.9638V318.5C75.9638 318.879 76.0187 319.163 76.1286 319.352C76.2422 319.538 76.3861 319.663 76.5604 319.727C76.7384 319.788 76.9259 319.818 77.1229 319.818C77.2706 319.818 77.3918 319.811 77.4865 319.795C77.5812 319.777 77.657 319.761 77.7138 319.75L77.9865 320.955C77.8956 320.989 77.7687 321.023 77.6058 321.057C77.4429 321.095 77.2365 321.114 76.9865 321.114C76.6077 321.114 76.2365 321.032 75.8729 320.869C75.513 320.706 75.2138 320.458 74.9751 320.125C74.7403 319.792 74.6229 319.371 74.6229 318.864V310.182ZM79.8445 321V312.273H81.1854V321H79.8445ZM80.5263 310.818C80.2649 310.818 80.0395 310.729 79.8501 310.551C79.6645 310.373 79.5717 310.159 79.5717 309.909C79.5717 309.659 79.6645 309.445 79.8501 309.267C80.0395 309.089 80.2649 309 80.5263 309C80.7876 309 81.0111 309.089 81.1967 309.267C81.3861 309.445 81.4808 309.659 81.4808 309.909C81.4808 310.159 81.3861 310.373 81.1967 310.551C81.0111 310.729 80.7876 310.818 80.5263 310.818ZM84.9822 315.75V321H83.6413V312.273H84.9368V313.636H85.0504C85.255 313.193 85.5656 312.837 85.9822 312.568C86.3989 312.295 86.9368 312.159 87.5959 312.159C88.1868 312.159 88.7038 312.28 89.147 312.523C89.5902 312.761 89.9349 313.125 90.1811 313.614C90.4273 314.098 90.5504 314.712 90.5504 315.455V321H89.2095V315.545C89.2095 314.86 89.0315 314.326 88.6754 313.943C88.3194 313.557 87.8307 313.364 87.2095 313.364C86.7815 313.364 86.3989 313.456 86.0618 313.642C85.7285 313.828 85.4652 314.098 85.272 314.455C85.0788 314.811 84.9822 315.242 84.9822 315.75ZM96.5234 324.455C95.8757 324.455 95.3189 324.371 94.853 324.205C94.3871 324.042 93.9988 323.826 93.6882 323.557C93.3814 323.292 93.1371 323.008 92.9553 322.705L94.0234 321.955C94.1446 322.114 94.2981 322.295 94.4837 322.5C94.6693 322.708 94.9231 322.888 95.245 323.04C95.5708 323.195 95.9969 323.273 96.5234 323.273C97.228 323.273 97.8094 323.102 98.2678 322.761C98.7261 322.42 98.9553 321.886 98.9553 321.159V319.386H98.8416C98.7431 319.545 98.603 319.742 98.4212 319.977C98.2431 320.208 97.9856 320.415 97.6484 320.597C97.3151 320.775 96.8643 320.864 96.2962 320.864C95.5916 320.864 94.959 320.697 94.3984 320.364C93.8416 320.03 93.4003 319.545 93.0746 318.909C92.7526 318.273 92.5916 317.5 92.5916 316.591C92.5916 315.697 92.7488 314.919 93.0632 314.256C93.3776 313.589 93.8151 313.074 94.3757 312.71C94.9363 312.343 95.584 312.159 96.3189 312.159C96.8871 312.159 97.3378 312.254 97.6712 312.443C98.0083 312.629 98.2659 312.841 98.4439 313.08C98.6257 313.314 98.7659 313.508 98.8643 313.659H99.0007V312.273H100.296V321.25C100.296 322 100.126 322.61 99.7848 323.08C99.4477 323.553 98.9931 323.9 98.4212 324.119C97.853 324.343 97.2204 324.455 96.5234 324.455ZM96.478 319.659C97.0159 319.659 97.4704 319.536 97.8416 319.29C98.2128 319.044 98.495 318.689 98.6882 318.227C98.8814 317.765 98.978 317.212 98.978 316.568C98.978 315.939 98.8833 315.384 98.6939 314.903C98.5045 314.422 98.2242 314.045 97.853 313.773C97.4818 313.5 97.0234 313.364 96.478 313.364C95.9098 313.364 95.4363 313.508 95.0575 313.795C94.6825 314.083 94.4003 314.47 94.2109 314.955C94.0253 315.439 93.9325 315.977 93.9325 316.568C93.9325 317.174 94.0272 317.71 94.2166 318.176C94.4098 318.638 94.6939 319.002 95.0689 319.267C95.4477 319.528 95.9174 319.659 96.478 319.659ZM111.046 312.273V313.409H106.523V312.273H111.046ZM107.842 310.182H109.183V318.5C109.183 318.879 109.237 319.163 109.347 319.352C109.461 319.538 109.605 319.663 109.779 319.727C109.957 319.788 110.145 319.818 110.342 319.818C110.489 319.818 110.611 319.811 110.705 319.795C110.8 319.777 110.876 319.761 110.933 319.75L111.205 320.955C111.114 320.989 110.987 321.023 110.825 321.057C110.662 321.095 110.455 321.114 110.205 321.114C109.826 321.114 109.455 321.032 109.092 320.869C108.732 320.706 108.433 320.458 108.194 320.125C107.959 319.792 107.842 319.371 107.842 318.864V310.182ZM114.592 315.75V321H113.251V309.364H114.592V313.636H114.705C114.91 313.186 115.217 312.828 115.626 312.562C116.039 312.294 116.588 312.159 117.273 312.159C117.868 312.159 118.389 312.278 118.836 312.517C119.283 312.752 119.629 313.114 119.876 313.602C120.126 314.087 120.251 314.705 120.251 315.455V321H118.91V315.545C118.91 314.852 118.73 314.316 118.37 313.938C118.014 313.555 117.52 313.364 116.887 313.364C116.448 313.364 116.054 313.456 115.705 313.642C115.361 313.828 115.088 314.098 114.887 314.455C114.69 314.811 114.592 315.242 114.592 315.75ZM126.363 321.182C125.522 321.182 124.797 320.996 124.187 320.625C123.581 320.25 123.113 319.727 122.783 319.057C122.458 318.383 122.295 317.598 122.295 316.705C122.295 315.811 122.458 315.023 122.783 314.341C123.113 313.655 123.571 313.121 124.158 312.739C124.749 312.352 125.439 312.159 126.227 312.159C126.681 312.159 127.13 312.235 127.573 312.386C128.016 312.538 128.42 312.784 128.783 313.125C129.147 313.462 129.437 313.909 129.653 314.466C129.869 315.023 129.977 315.708 129.977 316.523V317.091H123.249V315.932H128.613C128.613 315.439 128.514 315 128.317 314.614C128.124 314.227 127.848 313.922 127.488 313.699C127.132 313.475 126.711 313.364 126.227 313.364C125.692 313.364 125.23 313.496 124.84 313.761C124.454 314.023 124.156 314.364 123.948 314.784C123.74 315.205 123.636 315.655 123.636 316.136V316.909C123.636 317.568 123.749 318.127 123.977 318.585C124.208 319.04 124.528 319.386 124.937 319.625C125.346 319.86 125.821 319.977 126.363 319.977C126.715 319.977 127.033 319.928 127.317 319.83C127.605 319.727 127.853 319.576 128.062 319.375C128.27 319.17 128.431 318.917 128.545 318.614L129.84 318.977C129.704 319.417 129.475 319.803 129.153 320.136C128.831 320.466 128.433 320.723 127.96 320.909C127.486 321.091 126.954 321.182 126.363 321.182ZM140.403 312.273V313.409H135.698V312.273H140.403ZM137.107 321V311.068C137.107 310.568 137.225 310.152 137.46 309.818C137.694 309.485 137.999 309.235 138.374 309.068C138.749 308.902 139.145 308.818 139.562 308.818C139.891 308.818 140.16 308.845 140.369 308.898C140.577 308.951 140.732 309 140.835 309.045L140.448 310.205C140.38 310.182 140.285 310.153 140.164 310.119C140.047 310.085 139.891 310.068 139.698 310.068C139.255 310.068 138.935 310.18 138.738 310.403C138.545 310.627 138.448 310.955 138.448 311.386V321H137.107ZM142.282 321V312.273H143.623V321H142.282ZM142.964 310.818C142.702 310.818 142.477 310.729 142.288 310.551C142.102 310.373 142.009 310.159 142.009 309.909C142.009 309.659 142.102 309.445 142.288 309.267C142.477 309.089 142.702 309 142.964 309C143.225 309 143.449 309.089 143.634 309.267C143.824 309.445 143.918 309.659 143.918 309.909C143.918 310.159 143.824 310.373 143.634 310.551C143.449 310.729 143.225 310.818 142.964 310.818ZM147.42 309.364V321H146.079V309.364H147.42ZM153.671 312.273V313.409H149.148V312.273H153.671ZM150.467 310.182H151.808V318.5C151.808 318.879 151.862 319.163 151.972 319.352C152.086 319.538 152.23 319.663 152.404 319.727C152.582 319.788 152.77 319.818 152.967 319.818C153.114 319.818 153.236 319.811 153.33 319.795C153.425 319.777 153.501 319.761 153.558 319.75L153.83 320.955C153.739 320.989 153.612 321.023 153.45 321.057C153.287 321.095 153.08 321.114 152.83 321.114C152.451 321.114 152.08 321.032 151.717 320.869C151.357 320.706 151.058 320.458 150.819 320.125C150.584 319.792 150.467 319.371 150.467 318.864V310.182ZM159.254 321.182C158.413 321.182 157.687 320.996 157.077 320.625C156.471 320.25 156.004 319.727 155.674 319.057C155.348 318.383 155.185 317.598 155.185 316.705C155.185 315.811 155.348 315.023 155.674 314.341C156.004 313.655 156.462 313.121 157.049 312.739C157.64 312.352 158.329 312.159 159.117 312.159C159.572 312.159 160.021 312.235 160.464 312.386C160.907 312.538 161.31 312.784 161.674 313.125C162.038 313.462 162.327 313.909 162.543 314.466C162.759 315.023 162.867 315.708 162.867 316.523V317.091H156.14V315.932H161.504C161.504 315.439 161.405 315 161.208 314.614C161.015 314.227 160.738 313.922 160.379 313.699C160.022 313.475 159.602 313.364 159.117 313.364C158.583 313.364 158.121 313.496 157.731 313.761C157.344 314.023 157.047 314.364 156.839 314.784C156.63 315.205 156.526 315.655 156.526 316.136V316.909C156.526 317.568 156.64 318.127 156.867 318.585C157.098 319.04 157.418 319.386 157.827 319.625C158.237 319.86 158.712 319.977 159.254 319.977C159.606 319.977 159.924 319.928 160.208 319.83C160.496 319.727 160.744 319.576 160.952 319.375C161.161 319.17 161.322 318.917 161.435 318.614L162.731 318.977C162.594 319.417 162.365 319.803 162.043 320.136C161.721 320.466 161.324 320.723 160.85 320.909C160.377 321.091 159.844 321.182 159.254 321.182ZM164.907 321V312.273H166.202V313.591H166.293C166.452 313.159 166.74 312.809 167.157 312.54C167.574 312.271 168.043 312.136 168.566 312.136C168.665 312.136 168.788 312.138 168.935 312.142C169.083 312.146 169.195 312.152 169.271 312.159V313.523C169.225 313.511 169.121 313.494 168.958 313.472C168.799 313.445 168.63 313.432 168.452 313.432C168.028 313.432 167.649 313.521 167.316 313.699C166.987 313.873 166.725 314.116 166.532 314.426C166.343 314.733 166.248 315.083 166.248 315.477V321H164.907ZM177.042 314.227L175.837 314.568C175.762 314.367 175.65 314.172 175.502 313.983C175.358 313.79 175.161 313.631 174.911 313.506C174.661 313.381 174.341 313.318 173.951 313.318C173.417 313.318 172.972 313.441 172.616 313.688C172.263 313.93 172.087 314.239 172.087 314.614C172.087 314.947 172.209 315.21 172.451 315.403C172.693 315.597 173.072 315.758 173.587 315.886L174.883 316.205C175.663 316.394 176.245 316.684 176.627 317.074C177.01 317.46 177.201 317.958 177.201 318.568C177.201 319.068 177.057 319.515 176.769 319.909C176.485 320.303 176.087 320.614 175.576 320.841C175.065 321.068 174.47 321.182 173.792 321.182C172.902 321.182 172.165 320.989 171.582 320.602C170.998 320.216 170.629 319.652 170.474 318.909L171.746 318.591C171.868 319.061 172.097 319.413 172.434 319.648C172.775 319.883 173.22 320 173.769 320C174.394 320 174.89 319.867 175.258 319.602C175.629 319.333 175.815 319.011 175.815 318.636C175.815 318.333 175.709 318.08 175.496 317.875C175.284 317.667 174.959 317.511 174.519 317.409L173.065 317.068C172.265 316.879 171.678 316.585 171.303 316.188C170.932 315.786 170.746 315.284 170.746 314.682C170.746 314.189 170.885 313.754 171.161 313.375C171.442 312.996 171.822 312.699 172.303 312.483C172.788 312.267 173.337 312.159 173.951 312.159C174.815 312.159 175.493 312.348 175.985 312.727C176.481 313.106 176.834 313.606 177.042 314.227ZM187.015 321.159C186.25 321.159 185.591 321.019 185.038 320.739C184.485 320.458 184.058 320.074 183.759 319.585C183.46 319.097 183.31 318.538 183.31 317.909C183.31 317.424 183.413 316.994 183.617 316.619C183.826 316.241 184.112 315.89 184.475 315.568C184.843 315.242 185.265 314.917 185.742 314.591L187.424 313.341C187.754 313.125 188.017 312.894 188.214 312.648C188.415 312.402 188.515 312.08 188.515 311.682C188.515 311.386 188.384 311.1 188.123 310.824C187.865 310.547 187.526 310.409 187.106 310.409C186.81 310.409 186.549 310.485 186.322 310.636C186.098 310.784 185.922 310.973 185.793 311.205C185.668 311.432 185.606 311.667 185.606 311.909C185.606 312.182 185.68 312.458 185.827 312.739C185.979 313.015 186.17 313.299 186.401 313.591C186.636 313.879 186.879 314.174 187.129 314.477L192.469 321H190.856L186.447 315.682C186.038 315.189 185.666 314.742 185.333 314.341C185 313.939 184.735 313.544 184.538 313.153C184.341 312.763 184.242 312.341 184.242 311.886C184.242 311.364 184.358 310.905 184.589 310.511C184.824 310.114 185.151 309.805 185.572 309.585C185.996 309.362 186.492 309.25 187.06 309.25C187.644 309.25 188.146 309.364 188.566 309.591C188.987 309.814 189.31 310.112 189.538 310.483C189.765 310.85 189.879 311.25 189.879 311.682C189.879 312.239 189.74 312.722 189.464 313.131C189.187 313.54 188.81 313.92 188.333 314.273L186.015 316C185.492 316.386 185.138 316.761 184.952 317.125C184.767 317.489 184.674 317.75 184.674 317.909C184.674 318.273 184.769 318.612 184.958 318.926C185.147 319.241 185.415 319.494 185.759 319.688C186.104 319.881 186.507 319.977 186.969 319.977C187.409 319.977 187.837 319.884 188.254 319.699C188.67 319.509 189.047 319.237 189.384 318.881C189.725 318.525 189.994 318.097 190.191 317.597C190.392 317.097 190.492 316.534 190.492 315.909H191.788C191.788 316.682 191.699 317.312 191.521 317.801C191.343 318.29 191.142 318.672 190.918 318.949C190.695 319.225 190.515 319.432 190.379 319.568C190.333 319.625 190.291 319.682 190.254 319.739C190.216 319.795 190.174 319.852 190.129 319.909C189.754 320.33 189.28 320.644 188.708 320.852C188.136 321.057 187.572 321.159 187.015 321.159ZM199.317 324.273C199.09 324.273 198.888 324.254 198.71 324.216C198.531 324.182 198.408 324.148 198.34 324.114L198.681 322.932C199.007 323.015 199.295 323.045 199.545 323.023C199.795 323 200.016 322.888 200.21 322.688C200.406 322.491 200.586 322.17 200.749 321.727L200.999 321.045L197.772 312.273H199.227L201.636 319.227H201.727L204.136 312.273H205.59L201.886 322.273C201.719 322.723 201.513 323.097 201.266 323.392C201.02 323.691 200.734 323.913 200.408 324.057C200.086 324.201 199.723 324.273 199.317 324.273ZM210.593 321.182C209.805 321.182 209.114 320.994 208.519 320.619C207.928 320.244 207.466 319.72 207.133 319.045C206.803 318.371 206.638 317.583 206.638 316.682C206.638 315.773 206.803 314.979 207.133 314.301C207.466 313.623 207.928 313.097 208.519 312.722C209.114 312.347 209.805 312.159 210.593 312.159C211.381 312.159 212.07 312.347 212.661 312.722C213.256 313.097 213.718 313.623 214.048 314.301C214.381 314.979 214.548 315.773 214.548 316.682C214.548 317.583 214.381 318.371 214.048 319.045C213.718 319.72 213.256 320.244 212.661 320.619C212.07 320.994 211.381 321.182 210.593 321.182ZM210.593 319.977C211.192 319.977 211.684 319.824 212.07 319.517C212.457 319.21 212.743 318.807 212.928 318.307C213.114 317.807 213.207 317.265 213.207 316.682C213.207 316.098 213.114 315.555 212.928 315.051C212.743 314.547 212.457 314.14 212.07 313.83C211.684 313.519 211.192 313.364 210.593 313.364C209.995 313.364 209.502 313.519 209.116 313.83C208.729 314.14 208.443 314.547 208.258 315.051C208.072 315.555 207.979 316.098 207.979 316.682C207.979 317.265 208.072 317.807 208.258 318.307C208.443 318.807 208.729 319.21 209.116 319.517C209.502 319.824 209.995 319.977 210.593 319.977ZM222.094 317.432V312.273H223.435V321H222.094V319.523H222.004C221.799 319.966 221.481 320.343 221.049 320.653C220.617 320.96 220.072 321.114 219.413 321.114C218.867 321.114 218.382 320.994 217.958 320.756C217.534 320.513 217.201 320.15 216.958 319.665C216.716 319.176 216.594 318.561 216.594 317.818V312.273H217.935V317.727C217.935 318.364 218.113 318.871 218.469 319.25C218.829 319.629 219.288 319.818 219.844 319.818C220.178 319.818 220.517 319.733 220.862 319.562C221.21 319.392 221.502 319.131 221.737 318.778C221.975 318.426 222.094 317.977 222.094 317.432ZM231.641 317.818L231.619 316.159H231.891L235.71 312.273H237.369L233.3 316.386H233.187L231.641 317.818ZM230.391 321V309.364H231.732V321H230.391ZM235.937 321L232.528 316.682L233.482 315.75L237.641 321H235.937ZM242.394 321.182C241.553 321.182 240.828 320.996 240.218 320.625C239.612 320.25 239.144 319.727 238.815 319.057C238.489 318.383 238.326 317.598 238.326 316.705C238.326 315.811 238.489 315.023 238.815 314.341C239.144 313.655 239.603 313.121 240.19 312.739C240.781 312.352 241.47 312.159 242.258 312.159C242.712 312.159 243.161 312.235 243.604 312.386C244.048 312.538 244.451 312.784 244.815 313.125C245.178 313.462 245.468 313.909 245.684 314.466C245.9 315.023 246.008 315.708 246.008 316.523V317.091H239.281V315.932H244.644C244.644 315.439 244.546 315 244.349 314.614C244.156 314.227 243.879 313.922 243.519 313.699C243.163 313.475 242.743 313.364 242.258 313.364C241.724 313.364 241.262 313.496 240.871 313.761C240.485 314.023 240.188 314.364 239.979 314.784C239.771 315.205 239.667 315.655 239.667 316.136V316.909C239.667 317.568 239.781 318.127 240.008 318.585C240.239 319.04 240.559 319.386 240.968 319.625C241.377 319.86 241.853 319.977 242.394 319.977C242.746 319.977 243.065 319.928 243.349 319.83C243.637 319.727 243.885 319.576 244.093 319.375C244.301 319.17 244.462 318.917 244.576 318.614L245.871 318.977C245.735 319.417 245.506 319.803 245.184 320.136C244.862 320.466 244.464 320.723 243.991 320.909C243.517 321.091 242.985 321.182 242.394 321.182ZM248.646 324.273C248.418 324.273 248.216 324.254 248.038 324.216C247.86 324.182 247.737 324.148 247.668 324.114L248.009 322.932C248.335 323.015 248.623 323.045 248.873 323.023C249.123 323 249.344 322.888 249.538 322.688C249.735 322.491 249.915 322.17 250.077 321.727L250.327 321.045L247.1 312.273H248.555L250.964 319.227H251.055L253.464 312.273H254.918L251.214 322.273C251.047 322.723 250.841 323.097 250.594 323.392C250.348 323.691 250.062 323.913 249.737 324.057C249.415 324.201 249.051 324.273 248.646 324.273ZM258.665 321L256.006 312.273H257.415L259.302 318.955H259.393L261.256 312.273H262.688L264.529 318.932H264.62L266.506 312.273H267.915L265.256 321H263.938L262.029 314.295H261.893L259.984 321H258.665ZM272.937 321.182C272.149 321.182 271.458 320.994 270.863 320.619C270.272 320.244 269.81 319.72 269.477 319.045C269.147 318.371 268.982 317.583 268.982 316.682C268.982 315.773 269.147 314.979 269.477 314.301C269.81 313.623 270.272 313.097 270.863 312.722C271.458 312.347 272.149 312.159 272.937 312.159C273.725 312.159 274.414 312.347 275.005 312.722C275.6 313.097 276.062 313.623 276.391 314.301C276.725 314.979 276.891 315.773 276.891 316.682C276.891 317.583 276.725 318.371 276.391 319.045C276.062 319.72 275.6 320.244 275.005 320.619C274.414 320.994 273.725 321.182 272.937 321.182ZM272.937 319.977C273.535 319.977 274.028 319.824 274.414 319.517C274.8 319.21 275.086 318.807 275.272 318.307C275.458 317.807 275.55 317.265 275.55 316.682C275.55 316.098 275.458 315.555 275.272 315.051C275.086 314.547 274.8 314.14 274.414 313.83C274.028 313.519 273.535 313.364 272.937 313.364C272.338 313.364 271.846 313.519 271.46 313.83C271.073 314.14 270.787 314.547 270.602 315.051C270.416 315.555 270.323 316.098 270.323 316.682C270.323 317.265 270.416 317.807 270.602 318.307C270.787 318.807 271.073 319.21 271.46 319.517C271.846 319.824 272.338 319.977 272.937 319.977ZM278.938 321V312.273H280.234V313.591H280.325C280.484 313.159 280.772 312.809 281.188 312.54C281.605 312.271 282.075 312.136 282.597 312.136C282.696 312.136 282.819 312.138 282.967 312.142C283.114 312.146 283.226 312.152 283.302 312.159V313.523C283.256 313.511 283.152 313.494 282.989 313.472C282.83 313.445 282.662 313.432 282.484 313.432C282.059 313.432 281.681 313.521 281.347 313.699C281.018 313.873 280.756 314.116 280.563 314.426C280.374 314.733 280.279 315.083 280.279 315.477V321H278.938ZM287.921 321.182C287.194 321.182 286.552 320.998 285.995 320.631C285.438 320.259 285.003 319.737 284.688 319.062C284.374 318.384 284.217 317.583 284.217 316.659C284.217 315.742 284.374 314.947 284.688 314.273C285.003 313.598 285.44 313.078 286.001 312.71C286.561 312.343 287.209 312.159 287.944 312.159C288.512 312.159 288.961 312.254 289.29 312.443C289.624 312.629 289.878 312.841 290.052 313.08C290.23 313.314 290.368 313.508 290.467 313.659H290.58V309.364H291.921V321H290.626V319.659H290.467C290.368 319.818 290.228 320.019 290.046 320.261C289.864 320.5 289.605 320.714 289.268 320.903C288.931 321.089 288.482 321.182 287.921 321.182ZM288.103 319.977C288.641 319.977 289.095 319.837 289.467 319.557C289.838 319.273 290.12 318.881 290.313 318.381C290.506 317.877 290.603 317.295 290.603 316.636C290.603 315.985 290.508 315.415 290.319 314.926C290.129 314.434 289.849 314.051 289.478 313.778C289.107 313.502 288.648 313.364 288.103 313.364C287.535 313.364 287.061 313.509 286.683 313.801C286.308 314.089 286.025 314.481 285.836 314.977C285.65 315.47 285.558 316.023 285.558 316.636C285.558 317.258 285.652 317.822 285.842 318.33C286.035 318.833 286.319 319.235 286.694 319.534C287.073 319.83 287.542 319.977 288.103 319.977ZM302.609 321.182C301.821 321.182 301.129 320.994 300.535 320.619C299.944 320.244 299.482 319.72 299.148 319.045C298.819 318.371 298.654 317.583 298.654 316.682C298.654 315.773 298.819 314.979 299.148 314.301C299.482 313.623 299.944 313.097 300.535 312.722C301.129 312.347 301.821 312.159 302.609 312.159C303.397 312.159 304.086 312.347 304.677 312.722C305.272 313.097 305.734 313.623 306.063 314.301C306.397 314.979 306.563 315.773 306.563 316.682C306.563 317.583 306.397 318.371 306.063 319.045C305.734 319.72 305.272 320.244 304.677 320.619C304.086 320.994 303.397 321.182 302.609 321.182ZM302.609 319.977C303.207 319.977 303.7 319.824 304.086 319.517C304.472 319.21 304.758 318.807 304.944 318.307C305.129 317.807 305.222 317.265 305.222 316.682C305.222 316.098 305.129 315.555 304.944 315.051C304.758 314.547 304.472 314.14 304.086 313.83C303.7 313.519 303.207 313.364 302.609 313.364C302.01 313.364 301.518 313.519 301.131 313.83C300.745 314.14 300.459 314.547 300.273 315.051C300.088 315.555 299.995 316.098 299.995 316.682C299.995 317.265 300.088 317.807 300.273 318.307C300.459 318.807 300.745 319.21 301.131 319.517C301.518 319.824 302.01 319.977 302.609 319.977ZM308.61 321V312.273H309.906V313.591H309.996C310.156 313.159 310.443 312.809 310.86 312.54C311.277 312.271 311.746 312.136 312.269 312.136C312.368 312.136 312.491 312.138 312.638 312.142C312.786 312.146 312.898 312.152 312.974 312.159V313.523C312.928 313.511 312.824 313.494 312.661 313.472C312.502 313.445 312.334 313.432 312.156 313.432C311.731 313.432 311.353 313.521 311.019 313.699C310.69 313.873 310.428 314.116 310.235 314.426C310.046 314.733 309.951 315.083 309.951 315.477V321H308.61ZM322.609 321.182C321.79 321.182 321.086 320.989 320.495 320.602C319.904 320.216 319.45 319.684 319.131 319.006C318.813 318.328 318.654 317.553 318.654 316.682C318.654 315.795 318.817 315.013 319.143 314.335C319.472 313.653 319.931 313.121 320.518 312.739C321.109 312.352 321.798 312.159 322.586 312.159C323.2 312.159 323.753 312.273 324.245 312.5C324.737 312.727 325.141 313.045 325.455 313.455C325.77 313.864 325.965 314.341 326.04 314.886H324.7C324.597 314.489 324.37 314.136 324.018 313.83C323.669 313.519 323.2 313.364 322.609 313.364C322.086 313.364 321.628 313.5 321.234 313.773C320.844 314.042 320.539 314.422 320.319 314.915C320.103 315.403 319.995 315.977 319.995 316.636C319.995 317.311 320.101 317.898 320.313 318.398C320.529 318.898 320.832 319.286 321.222 319.562C321.616 319.839 322.078 319.977 322.609 319.977C322.957 319.977 323.273 319.917 323.558 319.795C323.842 319.674 324.082 319.5 324.279 319.273C324.476 319.045 324.616 318.773 324.7 318.455H326.04C325.965 318.97 325.777 319.434 325.478 319.847C325.183 320.256 324.79 320.581 324.302 320.824C323.817 321.062 323.253 321.182 322.609 321.182ZM329.342 315.75V321H328.001V309.364H329.342V313.636H329.455C329.66 313.186 329.967 312.828 330.376 312.562C330.789 312.294 331.338 312.159 332.023 312.159C332.618 312.159 333.139 312.278 333.586 312.517C334.033 312.752 334.379 313.114 334.626 313.602C334.876 314.087 335.001 314.705 335.001 315.455V321H333.66V315.545C333.66 314.852 333.48 314.316 333.12 313.938C332.764 313.555 332.27 313.364 331.637 313.364C331.198 313.364 330.804 313.456 330.455 313.642C330.111 313.828 329.838 314.098 329.637 314.455C329.44 314.811 329.342 315.242 329.342 315.75ZM341.113 321.182C340.272 321.182 339.547 320.996 338.937 320.625C338.331 320.25 337.863 319.727 337.533 319.057C337.208 318.383 337.045 317.598 337.045 316.705C337.045 315.811 337.208 315.023 337.533 314.341C337.863 313.655 338.321 313.121 338.908 312.739C339.499 312.352 340.189 312.159 340.977 312.159C341.431 312.159 341.88 312.235 342.323 312.386C342.766 312.538 343.17 312.784 343.533 313.125C343.897 313.462 344.187 313.909 344.403 314.466C344.619 315.023 344.727 315.708 344.727 316.523V317.091H337.999V315.932H343.363C343.363 315.439 343.264 315 343.067 314.614C342.874 314.227 342.598 313.922 342.238 313.699C341.882 313.475 341.461 313.364 340.977 313.364C340.442 313.364 339.98 313.496 339.59 313.761C339.204 314.023 338.906 314.364 338.698 314.784C338.49 315.205 338.386 315.655 338.386 316.136V316.909C338.386 317.568 338.499 318.127 338.727 318.585C338.958 319.04 339.278 319.386 339.687 319.625C340.096 319.86 340.571 319.977 341.113 319.977C341.465 319.977 341.783 319.928 342.067 319.83C342.355 319.727 342.603 319.576 342.812 319.375C343.02 319.17 343.181 318.917 343.295 318.614L344.59 318.977C344.454 319.417 344.225 319.803 343.903 320.136C343.581 320.466 343.183 320.723 342.71 320.909C342.236 321.091 341.704 321.182 341.113 321.182ZM350.312 321.182C349.494 321.182 348.789 320.989 348.198 320.602C347.607 320.216 347.153 319.684 346.835 319.006C346.516 318.328 346.357 317.553 346.357 316.682C346.357 315.795 346.52 315.013 346.846 314.335C347.175 313.653 347.634 313.121 348.221 312.739C348.812 312.352 349.501 312.159 350.289 312.159C350.903 312.159 351.456 312.273 351.948 312.5C352.441 312.727 352.844 313.045 353.158 313.455C353.473 313.864 353.668 314.341 353.744 314.886H352.403C352.3 314.489 352.073 314.136 351.721 313.83C351.372 313.519 350.903 313.364 350.312 313.364C349.789 313.364 349.331 313.5 348.937 313.773C348.547 314.042 348.242 314.422 348.022 314.915C347.806 315.403 347.698 315.977 347.698 316.636C347.698 317.311 347.804 317.898 348.016 318.398C348.232 318.898 348.535 319.286 348.925 319.562C349.319 319.839 349.781 319.977 350.312 319.977C350.66 319.977 350.977 319.917 351.261 319.795C351.545 319.674 351.785 319.5 351.982 319.273C352.179 319.045 352.319 318.773 352.403 318.455H353.744C353.668 318.97 353.48 319.434 353.181 319.847C352.886 320.256 352.494 320.581 352.005 320.824C351.52 321.062 350.956 321.182 350.312 321.182ZM356.954 317.818L356.931 316.159H357.204L361.022 312.273H362.681L358.613 316.386H358.499L356.954 317.818ZM355.704 321V309.364H357.045V321H355.704ZM361.249 321L357.84 316.682L358.795 315.75L362.954 321H361.249ZM372.793 312.273V313.409H368.089V312.273H372.793ZM369.498 321V311.068C369.498 310.568 369.615 310.152 369.85 309.818C370.085 309.485 370.39 309.235 370.765 309.068C371.14 308.902 371.536 308.818 371.952 308.818C372.282 308.818 372.551 308.845 372.759 308.898C372.968 308.951 373.123 309 373.225 309.045L372.839 310.205C372.771 310.182 372.676 310.153 372.555 310.119C372.437 310.085 372.282 310.068 372.089 310.068C371.646 310.068 371.326 310.18 371.129 310.403C370.935 310.627 370.839 310.955 370.839 311.386V321H369.498ZM377.859 321.182C377.071 321.182 376.379 320.994 375.785 320.619C375.194 320.244 374.732 319.72 374.398 319.045C374.069 318.371 373.904 317.583 373.904 316.682C373.904 315.773 374.069 314.979 374.398 314.301C374.732 313.623 375.194 313.097 375.785 312.722C376.379 312.347 377.071 312.159 377.859 312.159C378.647 312.159 379.336 312.347 379.927 312.722C380.522 313.097 380.984 313.623 381.313 314.301C381.647 314.979 381.813 315.773 381.813 316.682C381.813 317.583 381.647 318.371 381.313 319.045C380.984 319.72 380.522 320.244 379.927 320.619C379.336 320.994 378.647 321.182 377.859 321.182ZM377.859 319.977C378.457 319.977 378.95 319.824 379.336 319.517C379.722 319.21 380.008 318.807 380.194 318.307C380.379 317.807 380.472 317.265 380.472 316.682C380.472 316.098 380.379 315.555 380.194 315.051C380.008 314.547 379.722 314.14 379.336 313.83C378.95 313.519 378.457 313.364 377.859 313.364C377.26 313.364 376.768 313.519 376.381 313.83C375.995 314.14 375.709 314.547 375.523 315.051C375.338 315.555 375.245 316.098 375.245 316.682C375.245 317.265 375.338 317.807 375.523 318.307C375.709 318.807 375.995 319.21 376.381 319.517C376.768 319.824 377.26 319.977 377.859 319.977ZM383.86 321V312.273H385.156V313.591H385.246C385.406 313.159 385.693 312.809 386.11 312.54C386.527 312.271 386.996 312.136 387.519 312.136C387.618 312.136 387.741 312.138 387.888 312.142C388.036 312.146 388.148 312.152 388.224 312.159V313.523C388.178 313.511 388.074 313.494 387.911 313.472C387.752 313.445 387.584 313.432 387.406 313.432C386.981 313.432 386.603 313.521 386.269 313.699C385.94 313.873 385.678 314.116 385.485 314.426C385.296 314.733 385.201 315.083 385.201 315.477V321H383.86ZM147.589 333.227L146.384 333.568C146.308 333.367 146.197 333.172 146.049 332.983C145.905 332.79 145.708 332.631 145.458 332.506C145.208 332.381 144.888 332.318 144.498 332.318C143.964 332.318 143.519 332.441 143.163 332.688C142.81 332.93 142.634 333.239 142.634 333.614C142.634 333.947 142.755 334.21 142.998 334.403C143.24 334.597 143.619 334.758 144.134 334.886L145.43 335.205C146.21 335.394 146.791 335.684 147.174 336.074C147.557 336.46 147.748 336.958 147.748 337.568C147.748 338.068 147.604 338.515 147.316 338.909C147.032 339.303 146.634 339.614 146.123 339.841C145.612 340.068 145.017 340.182 144.339 340.182C143.449 340.182 142.712 339.989 142.129 339.602C141.545 339.216 141.176 338.652 141.021 337.909L142.293 337.591C142.415 338.061 142.644 338.413 142.981 338.648C143.322 338.883 143.767 339 144.316 339C144.941 339 145.437 338.867 145.805 338.602C146.176 338.333 146.362 338.011 146.362 337.636C146.362 337.333 146.255 337.08 146.043 336.875C145.831 336.667 145.505 336.511 145.066 336.409L143.612 336.068C142.812 335.879 142.225 335.585 141.85 335.188C141.479 334.786 141.293 334.284 141.293 333.682C141.293 333.189 141.432 332.754 141.708 332.375C141.988 331.996 142.369 331.699 142.85 331.483C143.335 331.267 143.884 331.159 144.498 331.159C145.362 331.159 146.04 331.348 146.532 331.727C147.028 332.106 147.38 332.606 147.589 333.227ZM149.766 343.273V331.273H151.062V332.659H151.221C151.319 332.508 151.456 332.314 151.63 332.08C151.808 331.841 152.062 331.629 152.391 331.443C152.725 331.254 153.175 331.159 153.744 331.159C154.478 331.159 155.126 331.343 155.687 331.71C156.247 332.078 156.685 332.598 156.999 333.273C157.314 333.947 157.471 334.742 157.471 335.659C157.471 336.583 157.314 337.384 156.999 338.062C156.685 338.737 156.249 339.259 155.692 339.631C155.136 339.998 154.494 340.182 153.766 340.182C153.206 340.182 152.757 340.089 152.42 339.903C152.083 339.714 151.823 339.5 151.641 339.261C151.46 339.019 151.319 338.818 151.221 338.659H151.107V343.273H149.766ZM151.085 335.636C151.085 336.295 151.181 336.877 151.374 337.381C151.567 337.881 151.85 338.273 152.221 338.557C152.592 338.837 153.047 338.977 153.585 338.977C154.145 338.977 154.613 338.83 154.988 338.534C155.367 338.235 155.651 337.833 155.84 337.33C156.033 336.822 156.13 336.258 156.13 335.636C156.13 335.023 156.035 334.47 155.846 333.977C155.66 333.481 155.378 333.089 154.999 332.801C154.624 332.509 154.153 332.364 153.585 332.364C153.039 332.364 152.581 332.502 152.21 332.778C151.838 333.051 151.558 333.434 151.369 333.926C151.179 334.415 151.085 334.985 151.085 335.636ZM163.175 340.182C162.335 340.182 161.609 339.996 160.999 339.625C160.393 339.25 159.925 338.727 159.596 338.057C159.27 337.383 159.107 336.598 159.107 335.705C159.107 334.811 159.27 334.023 159.596 333.341C159.925 332.655 160.384 332.121 160.971 331.739C161.562 331.352 162.251 331.159 163.039 331.159C163.494 331.159 163.942 331.235 164.386 331.386C164.829 331.538 165.232 331.784 165.596 332.125C165.96 332.462 166.249 332.909 166.465 333.466C166.681 334.023 166.789 334.708 166.789 335.523V336.091H160.062V334.932H165.425C165.425 334.439 165.327 334 165.13 333.614C164.937 333.227 164.66 332.922 164.3 332.699C163.944 332.475 163.524 332.364 163.039 332.364C162.505 332.364 162.043 332.496 161.653 332.761C161.266 333.023 160.969 333.364 160.761 333.784C160.552 334.205 160.448 334.655 160.448 335.136V335.909C160.448 336.568 160.562 337.127 160.789 337.585C161.02 338.04 161.34 338.386 161.749 338.625C162.158 338.86 162.634 338.977 163.175 338.977C163.528 338.977 163.846 338.928 164.13 338.83C164.418 338.727 164.666 338.576 164.874 338.375C165.083 338.17 165.244 337.917 165.357 337.614L166.653 337.977C166.516 338.417 166.287 338.803 165.965 339.136C165.643 339.466 165.246 339.723 164.772 339.909C164.299 340.091 163.766 340.182 163.175 340.182ZM170.17 328.364V340H168.829V328.364H170.17ZM173.967 328.364V340H172.626V328.364H173.967ZM176.423 340V331.273H177.763V340H176.423ZM177.104 329.818C176.843 329.818 176.618 329.729 176.428 329.551C176.243 329.373 176.15 329.159 176.15 328.909C176.15 328.659 176.243 328.445 176.428 328.267C176.618 328.089 176.843 328 177.104 328C177.366 328 177.589 328.089 177.775 328.267C177.964 328.445 178.059 328.659 178.059 328.909C178.059 329.159 177.964 329.373 177.775 329.551C177.589 329.729 177.366 329.818 177.104 329.818ZM181.56 334.75V340H180.219V331.273H181.515V332.636H181.629C181.833 332.193 182.144 331.837 182.56 331.568C182.977 331.295 183.515 331.159 184.174 331.159C184.765 331.159 185.282 331.28 185.725 331.523C186.168 331.761 186.513 332.125 186.759 332.614C187.005 333.098 187.129 333.712 187.129 334.455V340H185.788V334.545C185.788 333.86 185.61 333.326 185.254 332.943C184.897 332.557 184.409 332.364 183.788 332.364C183.36 332.364 182.977 332.456 182.64 332.642C182.307 332.828 182.043 333.098 181.85 333.455C181.657 333.811 181.56 334.242 181.56 334.75ZM193.102 343.455C192.454 343.455 191.897 343.371 191.431 343.205C190.965 343.042 190.577 342.826 190.266 342.557C189.96 342.292 189.715 342.008 189.533 341.705L190.602 340.955C190.723 341.114 190.876 341.295 191.062 341.5C191.247 341.708 191.501 341.888 191.823 342.04C192.149 342.195 192.575 342.273 193.102 342.273C193.806 342.273 194.388 342.102 194.846 341.761C195.304 341.42 195.533 340.886 195.533 340.159V338.386H195.42C195.321 338.545 195.181 338.742 194.999 338.977C194.821 339.208 194.564 339.415 194.227 339.597C193.893 339.775 193.442 339.864 192.874 339.864C192.17 339.864 191.537 339.697 190.977 339.364C190.42 339.03 189.978 338.545 189.653 337.909C189.331 337.273 189.17 336.5 189.17 335.591C189.17 334.697 189.327 333.919 189.641 333.256C189.956 332.589 190.393 332.074 190.954 331.71C191.514 331.343 192.162 331.159 192.897 331.159C193.465 331.159 193.916 331.254 194.249 331.443C194.586 331.629 194.844 331.841 195.022 332.08C195.204 332.314 195.344 332.508 195.442 332.659H195.579V331.273H196.874V340.25C196.874 341 196.704 341.61 196.363 342.08C196.026 342.553 195.571 342.9 194.999 343.119C194.431 343.343 193.799 343.455 193.102 343.455ZM193.056 338.659C193.594 338.659 194.049 338.536 194.42 338.29C194.791 338.044 195.073 337.689 195.266 337.227C195.46 336.765 195.556 336.212 195.556 335.568C195.556 334.939 195.461 334.384 195.272 333.903C195.083 333.422 194.802 333.045 194.431 332.773C194.06 332.5 193.602 332.364 193.056 332.364C192.488 332.364 192.014 332.508 191.636 332.795C191.261 333.083 190.978 333.47 190.789 333.955C190.603 334.439 190.511 334.977 190.511 335.568C190.511 336.174 190.605 336.71 190.795 337.176C190.988 337.638 191.272 338.002 191.647 338.267C192.026 338.528 192.496 338.659 193.056 338.659ZM207.488 340.182C206.647 340.182 205.922 339.996 205.312 339.625C204.706 339.25 204.238 338.727 203.908 338.057C203.583 337.383 203.42 336.598 203.42 335.705C203.42 334.811 203.583 334.023 203.908 333.341C204.238 332.655 204.696 332.121 205.283 331.739C205.874 331.352 206.564 331.159 207.352 331.159C207.806 331.159 208.255 331.235 208.698 331.386C209.141 331.538 209.545 331.784 209.908 332.125C210.272 332.462 210.562 332.909 210.778 333.466C210.994 334.023 211.102 334.708 211.102 335.523V336.091H204.374V334.932H209.738C209.738 334.439 209.639 334 209.442 333.614C209.249 333.227 208.973 332.922 208.613 332.699C208.257 332.475 207.836 332.364 207.352 332.364C206.817 332.364 206.355 332.496 205.965 332.761C205.579 333.023 205.281 333.364 205.073 333.784C204.865 334.205 204.761 334.655 204.761 335.136V335.909C204.761 336.568 204.874 337.127 205.102 337.585C205.333 338.04 205.653 338.386 206.062 338.625C206.471 338.86 206.946 338.977 207.488 338.977C207.84 338.977 208.158 338.928 208.442 338.83C208.73 338.727 208.978 338.576 209.187 338.375C209.395 338.17 209.556 337.917 209.67 337.614L210.965 337.977C210.829 338.417 210.6 338.803 210.278 339.136C209.956 339.466 209.558 339.723 209.085 339.909C208.611 340.091 208.079 340.182 207.488 340.182ZM213.141 340V331.273H214.437V332.591H214.528C214.687 332.159 214.975 331.809 215.391 331.54C215.808 331.271 216.278 331.136 216.8 331.136C216.899 331.136 217.022 331.138 217.17 331.142C217.317 331.146 217.429 331.152 217.505 331.159V332.523C217.46 332.511 217.355 332.494 217.192 332.472C217.033 332.445 216.865 332.432 216.687 332.432C216.263 332.432 215.884 332.521 215.55 332.699C215.221 332.873 214.96 333.116 214.766 333.426C214.577 333.733 214.482 334.083 214.482 334.477V340H213.141ZM219.094 340V331.273H220.39V332.591H220.481C220.64 332.159 220.928 331.809 221.344 331.54C221.761 331.271 222.231 331.136 222.754 331.136C222.852 331.136 222.975 331.138 223.123 331.142C223.271 331.146 223.382 331.152 223.458 331.159V332.523C223.413 332.511 223.308 332.494 223.146 332.472C222.987 332.445 222.818 332.432 222.64 332.432C222.216 332.432 221.837 332.521 221.504 332.699C221.174 332.873 220.913 333.116 220.719 333.426C220.53 333.733 220.435 334.083 220.435 334.477V340H219.094ZM228.327 340.182C227.54 340.182 226.848 339.994 226.254 339.619C225.663 339.244 225.201 338.72 224.867 338.045C224.538 337.371 224.373 336.583 224.373 335.682C224.373 334.773 224.538 333.979 224.867 333.301C225.201 332.623 225.663 332.097 226.254 331.722C226.848 331.347 227.54 331.159 228.327 331.159C229.115 331.159 229.805 331.347 230.396 331.722C230.99 332.097 231.452 332.623 231.782 333.301C232.115 333.979 232.282 334.773 232.282 335.682C232.282 336.583 232.115 337.371 231.782 338.045C231.452 338.72 230.99 339.244 230.396 339.619C229.805 339.994 229.115 340.182 228.327 340.182ZM228.327 338.977C228.926 338.977 229.418 338.824 229.805 338.517C230.191 338.21 230.477 337.807 230.663 337.307C230.848 336.807 230.941 336.265 230.941 335.682C230.941 335.098 230.848 334.555 230.663 334.051C230.477 333.547 230.191 333.14 229.805 332.83C229.418 332.519 228.926 332.364 228.327 332.364C227.729 332.364 227.237 332.519 226.85 332.83C226.464 333.14 226.178 333.547 225.992 334.051C225.807 334.555 225.714 335.098 225.714 335.682C225.714 336.265 225.807 336.807 225.992 337.307C226.178 337.807 226.464 338.21 226.85 338.517C227.237 338.824 227.729 338.977 228.327 338.977ZM234.329 340V331.273H235.624V332.591H235.715C235.874 332.159 236.162 331.809 236.579 331.54C236.996 331.271 237.465 331.136 237.988 331.136C238.086 331.136 238.21 331.138 238.357 331.142C238.505 331.146 238.617 331.152 238.692 331.159V332.523C238.647 332.511 238.543 332.494 238.38 332.472C238.221 332.445 238.052 332.432 237.874 332.432C237.45 332.432 237.071 332.521 236.738 332.699C236.408 332.873 236.147 333.116 235.954 333.426C235.764 333.733 235.67 334.083 235.67 334.477V340H234.329ZM246.464 333.227L245.259 333.568C245.183 333.367 245.072 333.172 244.924 332.983C244.78 332.79 244.583 332.631 244.333 332.506C244.083 332.381 243.763 332.318 243.373 332.318C242.839 332.318 242.394 332.441 242.038 332.688C241.685 332.93 241.509 333.239 241.509 333.614C241.509 333.947 241.63 334.21 241.873 334.403C242.115 334.597 242.494 334.758 243.009 334.886L244.305 335.205C245.085 335.394 245.666 335.684 246.049 336.074C246.432 336.46 246.623 336.958 246.623 337.568C246.623 338.068 246.479 338.515 246.191 338.909C245.907 339.303 245.509 339.614 244.998 339.841C244.487 340.068 243.892 340.182 243.214 340.182C242.324 340.182 241.587 339.989 241.004 339.602C240.42 339.216 240.051 338.652 239.896 337.909L241.168 337.591C241.29 338.061 241.519 338.413 241.856 338.648C242.197 338.883 242.642 339 243.191 339C243.816 339 244.312 338.867 244.68 338.602C245.051 338.333 245.237 338.011 245.237 337.636C245.237 337.333 245.13 337.08 244.918 336.875C244.706 336.667 244.38 336.511 243.941 336.409L242.487 336.068C241.687 335.879 241.1 335.585 240.725 335.188C240.354 334.786 240.168 334.284 240.168 333.682C240.168 333.189 240.307 332.754 240.583 332.375C240.863 331.996 241.244 331.699 241.725 331.483C242.21 331.267 242.759 331.159 243.373 331.159C244.237 331.159 244.915 331.348 245.407 331.727C245.903 332.106 246.255 332.606 246.464 333.227ZM249.619 340.091C249.338 340.091 249.098 339.991 248.897 339.79C248.696 339.589 248.596 339.348 248.596 339.068C248.596 338.788 248.696 338.547 248.897 338.347C249.098 338.146 249.338 338.045 249.619 338.045C249.899 338.045 250.139 338.146 250.34 338.347C250.541 338.547 250.641 338.788 250.641 339.068C250.641 339.254 250.594 339.424 250.499 339.58C250.408 339.735 250.285 339.86 250.13 339.955C249.978 340.045 249.808 340.091 249.619 340.091Z" fill="black"/>
</svg>
