<svg width="136" height="40" viewBox="0 0 136 40" fill="none" xmlns="http://www.w3.org/2000/svg">
<path d="M8.29248 28.6054H4.16309V9.46357H8.06408L8.24222 12.4464L7.45198 12.2157C7.554 11.6722 7.83873 11.175 8.30618 10.7243C8.77363 10.2751 9.35526 9.91047 10.0511 9.6303C10.7485 9.34861 11.4877 9.20777 12.2688 9.20777C13.4245 9.20777 14.4523 9.50545 15.3522 10.1008C16.2536 10.6961 16.9631 11.5245 17.4808 12.5857C17.9985 13.647 18.2574 14.8659 18.2574 16.2423C18.2574 17.5853 17.9985 18.7836 17.4808 19.8373C16.9631 20.8909 16.2498 21.7193 15.3408 22.3222C14.4317 22.9252 13.3994 23.2267 12.2437 23.2267C11.4626 23.2267 10.7234 23.0782 10.026 22.7813C9.32862 22.4829 8.7424 22.0961 8.26734 21.6211C7.79228 21.1445 7.48624 20.626 7.3492 20.0657L8.29248 19.6843V28.6054ZM11.2502 19.7596C11.8608 19.7596 12.3914 19.6157 12.8421 19.328C13.2928 19.0387 13.6415 18.626 13.8882 18.0901C14.1333 17.5556 14.2559 16.9397 14.2559 16.2423C14.2559 15.5297 14.1333 14.9055 13.8882 14.3695C13.6415 13.8351 13.2928 13.4186 12.8421 13.1202C12.3914 12.8233 11.8608 12.6748 11.2502 12.6748C10.6213 12.6748 10.077 12.8233 9.61717 13.1202C9.15885 13.4186 8.80256 13.8313 8.54828 14.3581C8.29248 14.8849 8.16458 15.513 8.16458 16.2423C8.16458 16.9397 8.29248 17.5556 8.54828 18.0901C8.80256 18.626 9.15885 19.0387 9.61717 19.328C10.077 19.6157 10.6213 19.7596 11.2502 19.7596ZM31.333 22.996H27.3817V14.687C27.3817 13.9896 27.1907 13.4757 26.8085 13.1453C26.4263 12.8134 25.8957 12.6474 25.2166 12.6474C24.5542 12.6474 23.9634 12.7707 23.4442 13.0174C22.9265 13.2641 22.4294 13.6676 21.9528 14.2279L19.5067 11.8572C20.3228 11.0243 21.2577 10.3703 22.3114 9.89524C23.365 9.41866 24.5116 9.18036 25.751 9.18036C26.8899 9.18036 27.8758 9.35014 28.7087 9.68968C29.5401 10.0308 30.1857 10.5492 30.6455 11.2451C31.1038 11.9424 31.333 12.8263 31.333 13.8967V22.996ZM23.8645 23.2495C23.0148 23.2495 22.2467 23.0797 21.5599 22.7402C20.8717 22.4006 20.3274 21.9294 19.9269 21.3264C19.528 20.7219 19.3285 20.0124 19.3285 19.1978C19.3285 18.5004 19.4557 17.8883 19.71 17.3615C19.9658 16.8346 20.3441 16.3977 20.8451 16.0505C21.346 15.7018 21.9749 15.4384 22.7316 15.2602C23.4868 15.0821 24.3662 14.993 25.3696 14.993H29.4716L29.2432 17.567H25.4701C25.1138 17.567 24.8001 17.5967 24.5291 17.6561C24.2565 17.7155 24.0266 17.8084 23.8393 17.9348C23.6536 18.0627 23.5135 18.2119 23.4191 18.3824C23.3262 18.5514 23.2798 18.7555 23.2798 18.9945C23.2798 19.2488 23.3475 19.4696 23.483 19.6569C23.6186 19.8426 23.8013 19.9865 24.0312 20.0885C24.2611 20.1905 24.5283 20.2415 24.8329 20.2415C25.2759 20.2415 25.6969 20.17 26.0959 20.0269C26.4948 19.8822 26.8519 19.6736 27.1671 19.401C27.4807 19.13 27.7312 18.8156 27.9185 18.4578L28.6311 20.2941C28.2748 20.8712 27.8462 21.3805 27.3452 21.822C26.8427 22.2636 26.2984 22.6123 25.7122 22.8681C25.126 23.1224 24.5101 23.2495 23.8645 23.2495ZM39.055 22.996H34.9531V6.04678H39.055V22.996ZM41.6564 13.0539H32.5572V9.46129H41.6564V13.0539ZM43.237 22.996V4.13511H47.291V12.2135L46.4482 12.5195C46.6355 11.9074 46.9712 11.3509 47.4554 10.8499C47.9396 10.349 48.522 9.94549 49.2026 9.63944C49.8817 9.33339 50.5951 9.18036 51.3427 9.18036C52.3629 9.18036 53.2209 9.38896 53.9167 9.80617C54.6141 10.2218 55.1363 10.8416 55.4835 11.6653C55.8322 12.4906 56.0065 13.5062 56.0065 14.7121V22.996H51.9045V15.0181C51.9045 14.4746 51.8277 14.0239 51.6739 13.666C51.5216 13.3097 51.2924 13.0463 50.9864 12.8758C50.6804 12.7068 50.2982 12.6307 49.8399 12.6474C49.482 12.6474 49.1501 12.7022 48.8441 12.8118C48.5395 12.923 48.2723 13.0844 48.0424 13.296C47.8125 13.5092 47.6381 13.7521 47.5194 14.0246C47.4006 14.2957 47.3412 14.6009 47.3412 14.9405V22.996H43.237ZM64.6718 22.996H61.6388L57.2056 9.46129H61.5131L64.0095 18.2043L63.4499 18.1015L66.2523 11.3227H68.6482L71.6311 18.1266L71.0189 18.1769L73.5176 9.46129H77.8228L73.2115 22.996H70.2036L67.2458 15.7559L67.577 15.8084L64.6718 22.996ZM90.3366 22.996H86.3854V14.687C86.3854 13.9896 86.1943 13.4757 85.8121 13.1453C85.4299 12.8134 84.8985 12.6474 84.2179 12.6474C83.5556 12.6474 82.9655 12.7707 82.4479 13.0174C81.9286 13.2641 81.4315 13.6676 80.9564 14.2279L78.5103 11.8572C79.3249 11.0243 80.2591 10.3703 81.3127 9.89524C82.3664 9.41866 83.5137 9.18036 84.7546 9.18036C85.892 9.18036 86.8772 9.35014 87.7101 9.68968C88.543 10.0308 89.1886 10.5492 89.6469 11.2451C90.1067 11.9424 90.3366 12.8263 90.3366 13.8967V22.996ZM82.8681 23.2495C82.0185 23.2495 81.2495 23.0797 80.5613 22.7402C79.8731 22.4006 79.3295 21.9294 78.9306 21.3264C78.5316 20.7219 78.3322 20.0124 78.3322 19.1978C78.3322 18.5004 78.4593 17.8883 78.7136 17.3615C78.9679 16.8346 79.3462 16.3977 79.8487 16.0505C80.3497 15.7018 80.9777 15.4384 81.733 15.2602C82.4897 15.0821 83.3691 14.993 84.3709 14.993H88.4752L88.2468 17.567H84.4737C84.1174 17.567 83.803 17.5967 83.5304 17.6561C83.2594 17.7155 83.0303 17.8084 82.843 17.9348C82.6557 18.0627 82.5156 18.2119 82.4227 18.3824C82.3283 18.5514 82.2811 18.7555 82.2811 18.9945C82.2811 19.2488 82.3496 19.4696 82.4867 19.6569C82.6222 19.8426 82.8041 19.9865 83.0325 20.0885C83.2624 20.1905 83.5304 20.2415 83.8365 20.2415C84.278 20.2415 84.6983 20.17 85.0972 20.0269C85.4977 19.8822 85.8548 19.6736 86.1684 19.401C86.4836 19.13 86.7341 18.8156 86.9198 18.4578L87.6347 20.2941C87.2769 20.8712 86.8475 21.3805 86.3465 21.822C85.8456 22.2636 85.302 22.6123 84.7158 22.8681C84.1296 23.1224 83.5137 23.2495 82.8681 23.2495ZM98.6708 28.8566H94.5665L97.6498 21.6188L97.7024 23.7588L91.152 9.46129H95.7907L98.6434 16.2926C98.7971 16.6154 98.9418 16.9808 99.0773 17.3889C99.2128 17.7954 99.3148 18.1776 99.3834 18.5354L98.7964 18.8666C98.8984 18.6108 99.0134 18.288 99.1413 17.8982C99.2692 17.5069 99.4092 17.0905 99.5615 16.6489L102.06 9.46129H106.724L100.989 22.996L98.6708 28.8566ZM130.476 23.0924C130.171 23.0924 129.869 23.1303 129.587 23.2041C129.305 23.2778 129.049 23.3859 128.834 23.5221C128.618 23.6584 128.447 23.8201 128.33 23.9981C128.213 24.1761 128.153 24.3669 128.153 24.5596C128.153 24.7523 128.213 24.9431 128.33 25.1211C128.447 25.2991 128.618 25.4608 128.834 25.5971C129.049 25.7333 129.305 25.8414 129.587 25.9151C129.869 25.9888 130.171 26.0268 130.476 26.0268C131.092 26.0268 131.683 25.8722 132.119 25.597C132.554 25.3218 132.799 24.9486 132.799 24.5595C132.799 24.1703 132.554 23.7971 132.119 23.5219C131.683 23.2467 131.092 23.0924 130.476 23.0924ZM108.47 23.2858C108.165 23.2858 107.863 23.3238 107.581 23.3975C107.299 23.4712 107.043 23.5793 106.827 23.7156C106.612 23.8518 106.441 24.0135 106.324 24.1916C106.207 24.3696 106.147 24.5604 106.147 24.753C106.147 24.9457 106.207 25.1365 106.324 25.3145C106.441 25.4925 106.612 25.6543 106.827 25.7905C107.043 25.9268 107.299 26.0348 107.581 26.1086C107.863 26.1823 108.165 26.2202 108.47 26.2202C109.086 26.2202 109.677 26.0657 110.112 25.7905C110.548 25.5153 110.793 25.1421 110.793 24.7529C110.793 24.3638 110.548 23.9905 110.112 23.7154C109.677 23.4402 109.086 23.2858 108.47 23.2858ZM125.203 23.189C124.898 23.189 124.596 23.2269 124.314 23.3007C124.032 23.3744 123.776 23.4825 123.561 23.6187C123.345 23.755 123.174 23.9167 123.057 24.0947C122.94 24.2727 122.88 24.4635 122.88 24.6562C122.88 24.8489 122.94 25.0397 123.057 25.2177C123.174 25.3957 123.345 25.5574 123.561 25.6937C123.776 25.8299 124.032 25.938 124.314 26.0117C124.596 26.0855 124.898 26.1234 125.203 26.1234C125.508 26.1234 125.81 26.0855 126.092 26.0117C126.374 25.938 126.63 25.8299 126.845 25.6937C127.061 25.5574 127.232 25.3957 127.349 25.2177C127.466 25.0397 127.526 24.8489 127.526 24.6562C127.526 24.4635 127.466 24.2727 127.349 24.0947C127.232 23.9167 127.061 23.755 126.845 23.6187C126.63 23.4825 126.374 23.3744 126.092 23.3007C125.81 23.2269 125.508 23.189 125.203 23.189ZM113.888 23.189C113.583 23.189 113.281 23.2269 112.999 23.3007C112.717 23.3744 112.461 23.4825 112.245 23.6187C112.03 23.755 111.859 23.9167 111.742 24.0947C111.625 24.2727 111.565 24.4635 111.565 24.6562C111.565 24.8489 111.625 25.0397 111.742 25.2177C111.859 25.3957 112.03 25.5574 112.245 25.6937C112.461 25.8299 112.717 25.938 112.999 26.0117C113.281 26.0855 113.583 26.1234 113.888 26.1234C114.193 26.1234 114.495 26.0855 114.777 26.0117C115.059 25.938 115.315 25.8299 115.53 25.6937C115.746 25.5574 115.917 25.3957 116.034 25.2177C116.151 25.0397 116.211 24.8489 116.211 24.6562C116.211 24.4635 116.151 24.2727 116.034 24.0947C115.917 23.9167 115.746 23.755 115.53 23.6187C115.315 23.4825 115.059 23.3744 114.777 23.3007C114.495 23.2269 114.193 23.189 113.888 23.189ZM119.498 23.189C119.193 23.189 118.891 23.2269 118.609 23.3007C118.327 23.3744 118.071 23.4825 117.856 23.6187C117.64 23.755 117.469 23.9167 117.352 24.0947C117.235 24.2727 117.175 24.4635 117.175 24.6562C117.175 24.8489 117.235 25.0397 117.352 25.2177C117.469 25.3957 117.64 25.5574 117.856 25.6937C118.071 25.8299 118.327 25.938 118.609 26.0117C118.891 26.0855 119.193 26.1234 119.498 26.1234C119.803 26.1234 120.105 26.0855 120.387 26.0117C120.669 25.938 120.925 25.8299 121.141 25.6937C121.356 25.5574 121.527 25.3957 121.644 25.2177C121.761 25.0397 121.821 24.8489 121.821 24.6562C121.821 24.4635 121.761 24.2727 121.644 24.0947C121.527 23.9167 121.356 23.755 121.141 23.6187C120.925 23.4825 120.669 23.3744 120.387 23.3007C120.105 23.2269 119.803 23.189 119.498 23.189ZM129.71 19.1738C129.175 19.1738 128.662 19.3128 128.284 19.5603C127.905 19.8077 127.693 20.1433 127.693 20.4932C127.693 20.8432 127.905 21.1788 128.284 21.4262C128.662 21.6737 129.175 21.8127 129.71 21.8127C129.977 21.815 130.242 21.7825 130.49 21.7173C130.738 21.652 130.963 21.5552 131.154 21.4325C131.344 21.3097 131.495 21.1635 131.598 21.0023C131.701 20.8411 131.754 20.6681 131.754 20.4933C131.754 20.3186 131.701 20.1456 131.598 19.9844C131.495 19.8232 131.344 19.677 131.154 19.5542C130.963 19.4315 130.738 19.3347 130.49 19.2694C130.242 19.2042 129.977 19.1715 129.71 19.1738ZM110.585 19.3501C110.05 19.3501 109.537 19.4891 109.158 19.7366C108.78 19.984 108.568 20.3196 108.568 20.6696C108.568 21.0195 108.78 21.3551 109.158 21.6025C109.537 21.85 110.05 21.989 110.585 21.989C111.12 21.989 111.633 21.85 112.011 21.6025C112.389 21.3551 112.602 21.0195 112.602 20.6696C112.602 20.3196 112.389 19.984 112.011 19.7366C111.633 19.4891 111.12 19.3501 110.585 19.3501ZM125.127 19.2649C124.86 19.2626 124.595 19.2951 124.347 19.3603C124.1 19.4256 123.874 19.5224 123.684 19.6451C123.494 19.7679 123.343 19.9141 123.24 20.0753C123.137 20.2365 123.084 20.4095 123.084 20.5843C123.084 20.759 123.137 20.932 123.24 21.0932C123.343 21.2544 123.494 21.4006 123.684 21.5234C123.874 21.6461 124.1 21.7429 124.347 21.8082C124.595 21.8734 124.86 21.9059 125.127 21.9036C125.394 21.9059 125.66 21.8734 125.907 21.8082C126.155 21.7429 126.381 21.6461 126.571 21.5234C126.761 21.4006 126.912 21.2544 127.015 21.0932C127.118 20.932 127.171 20.759 127.171 20.5843C127.171 20.4095 127.118 20.2365 127.015 20.0753C126.912 19.9141 126.761 19.7679 126.571 19.6451C126.381 19.5224 126.155 19.4256 125.907 19.3603C125.66 19.2951 125.394 19.2626 125.127 19.2649ZM115.29 19.2649C115.023 19.2626 114.758 19.2951 114.51 19.3603C114.263 19.4256 114.037 19.5224 113.847 19.6451C113.657 19.7679 113.506 19.9141 113.403 20.0753C113.3 20.2365 113.247 20.4095 113.247 20.5843C113.247 20.759 113.3 20.932 113.403 21.0932C113.506 21.2544 113.657 21.4006 113.847 21.5234C114.037 21.6461 114.263 21.7429 114.51 21.8082C114.758 21.8734 115.023 21.9059 115.29 21.9036C115.558 21.9059 115.823 21.8734 116.07 21.8082C116.318 21.7429 116.544 21.6461 116.734 21.5234C116.924 21.4006 117.075 21.2544 117.178 21.0932C117.281 20.932 117.334 20.759 117.334 20.5843C117.334 20.4095 117.281 20.2365 117.178 20.0753C117.075 19.9141 116.924 19.7679 116.734 19.6451C116.544 19.5224 116.318 19.4256 116.07 19.3603C115.823 19.2951 115.558 19.2626 115.29 19.2649ZM120.17 19.2649C119.903 19.2626 119.637 19.2951 119.39 19.3603C119.142 19.4256 118.916 19.5224 118.726 19.6451C118.536 19.7679 118.385 19.9141 118.282 20.0753C118.179 20.2365 118.126 20.4095 118.126 20.5843C118.126 20.759 118.179 20.932 118.282 21.0932C118.385 21.2544 118.536 21.4006 118.726 21.5234C118.916 21.6461 119.142 21.7429 119.39 21.8082C119.637 21.8734 119.903 21.9059 120.17 21.9036C120.437 21.9059 120.702 21.8734 120.95 21.8082C121.197 21.7429 121.423 21.6461 121.613 21.5234C121.803 21.4006 121.954 21.2544 122.057 21.0932C122.16 20.932 122.213 20.759 122.213 20.5843C122.213 20.4095 122.16 20.2365 122.057 20.0753C121.954 19.9141 121.803 19.7679 121.613 19.6451C121.423 19.5224 121.197 19.4256 120.95 19.3603C120.702 19.2951 120.437 19.2626 120.17 19.2649ZM128.758 16.3814C128.305 16.3814 127.869 16.4731 127.548 16.6363C127.227 16.7995 127.047 17.0208 127.047 17.2516C127.047 17.4824 127.227 17.7037 127.548 17.8669C127.869 18.0301 128.305 18.1218 128.758 18.1218C129.212 18.1218 129.648 18.0301 129.969 17.8669C130.289 17.7037 130.47 17.4824 130.47 17.2516C130.47 17.0208 130.289 16.7995 129.969 16.6363C129.648 16.4731 129.212 16.3814 128.758 16.3814ZM112.535 16.5011C112.082 16.5011 111.646 16.5928 111.325 16.756C111.004 16.9192 110.824 17.1405 110.824 17.3713C110.824 17.6021 111.004 17.8234 111.325 17.9866C111.646 18.1498 112.082 18.2415 112.535 18.2415C112.989 18.2415 113.425 18.1498 113.746 17.9866C114.067 17.8234 114.247 17.6021 114.247 17.3713C114.247 17.1405 114.067 16.9192 113.746 16.756C113.425 16.5928 112.989 16.5011 112.535 16.5011ZM124.872 16.4388C124.644 16.4361 124.418 16.4566 124.205 16.4992C123.993 16.5417 123.8 16.6054 123.637 16.6864C123.474 16.7674 123.344 16.8642 123.256 16.9711C123.167 17.078 123.122 17.1928 123.122 17.3087C123.122 17.4247 123.167 17.5395 123.256 17.6463C123.344 17.7532 123.474 17.85 123.637 17.931C123.8 18.0121 123.993 18.0757 124.205 18.1183C124.418 18.1608 124.644 18.1813 124.872 18.1787C125.326 18.1787 125.761 18.087 126.082 17.9238C126.403 17.7606 126.584 17.5393 126.584 17.3085C126.584 17.0777 126.403 16.8564 126.082 16.6932C125.761 16.53 125.326 16.4383 124.872 16.4383M116.529 16.4385C116.075 16.4385 115.64 16.5302 115.319 16.6934C114.998 16.8566 114.818 17.0779 114.818 17.3087C114.818 17.5395 114.998 17.7608 115.319 17.924C115.64 18.0872 116.075 18.1789 116.529 18.1789C116.983 18.1789 117.418 18.0872 117.739 17.924C118.06 17.7608 118.24 17.5395 118.24 17.3087C118.24 17.0779 118.06 16.8566 117.739 16.6934C117.418 16.5302 116.983 16.4385 116.529 16.4385ZM120.664 16.4385C120.21 16.4385 119.775 16.5302 119.454 16.6934C119.133 16.8566 118.953 17.0779 118.953 17.3087C118.953 17.5395 119.133 17.7608 119.454 17.924C119.775 18.0872 120.21 18.1789 120.664 18.1789C121.118 18.1789 121.553 18.0872 121.874 17.924C122.195 17.7608 122.376 17.5395 122.376 17.3087C122.376 17.0779 122.195 16.8566 121.874 16.6934C121.553 16.5302 121.118 16.4385 120.664 16.4385ZM128.156 14.3058C127.761 14.3058 127.382 14.3753 127.102 14.499C126.822 14.6227 126.665 14.7905 126.665 14.9655C126.665 15.1405 126.822 15.3083 127.102 15.432C127.382 15.5557 127.761 15.6252 128.156 15.6252C128.552 15.6252 128.931 15.5557 129.211 15.432C129.49 15.3083 129.647 15.1405 129.647 14.9655C129.647 14.7905 129.49 14.6227 129.211 14.499C128.931 14.3753 128.552 14.3058 128.156 14.3058ZM114.023 14.3912C113.628 14.3912 113.249 14.4607 112.969 14.5844C112.689 14.7081 112.532 14.876 112.532 15.0509C112.532 15.2259 112.689 15.3937 112.969 15.5174C113.249 15.6411 113.628 15.7106 114.023 15.7106C114.419 15.7106 114.798 15.6411 115.077 15.5174C115.357 15.3937 115.514 15.226 115.514 15.051C115.514 14.8761 115.357 14.7083 115.077 14.5846C114.798 14.4609 114.419 14.3912 114.023 14.3912ZM124.771 14.3457C124.576 14.3457 124.382 14.3628 124.201 14.396C124.02 14.4291 123.856 14.4777 123.717 14.5389C123.579 14.6002 123.469 14.6729 123.394 14.7529C123.319 14.833 123.281 14.9187 123.281 15.0054C123.281 15.092 123.319 15.1777 123.394 15.2578C123.469 15.3378 123.579 15.4105 123.717 15.4718C123.856 15.533 124.02 15.5816 124.201 15.6148C124.382 15.6479 124.576 15.665 124.771 15.665C124.967 15.665 125.161 15.6479 125.342 15.6148C125.523 15.5816 125.687 15.533 125.825 15.4718C125.964 15.4105 126.074 15.3378 126.149 15.2578C126.223 15.1777 126.262 15.092 126.262 15.0054C126.262 14.9187 126.223 14.833 126.149 14.7529C126.074 14.6729 125.964 14.6002 125.825 14.5389C125.687 14.4777 125.523 14.4291 125.342 14.396C125.161 14.3628 124.967 14.3457 124.771 14.3457ZM117.503 14.3457C117.307 14.3457 117.113 14.3628 116.933 14.396C116.752 14.4291 116.587 14.4777 116.449 14.5389C116.311 14.6002 116.201 14.6729 116.126 14.7529C116.051 14.833 116.012 14.9187 116.012 15.0054C116.012 15.092 116.051 15.1777 116.126 15.2578C116.201 15.3378 116.311 15.4105 116.449 15.4718C116.587 15.533 116.752 15.5816 116.933 15.6148C117.113 15.6479 117.307 15.665 117.503 15.665C117.699 15.665 117.893 15.6479 118.074 15.6148C118.254 15.5816 118.419 15.533 118.557 15.4718C118.696 15.4105 118.805 15.3378 118.88 15.2578C118.955 15.1777 118.994 15.092 118.994 15.0054C118.994 14.9187 118.955 14.833 118.88 14.7529C118.805 14.6729 118.696 14.6002 118.557 14.5389C118.419 14.4777 118.254 14.4291 118.074 14.396C117.893 14.3628 117.699 14.3457 117.503 14.3457ZM121.106 14.3457C120.91 14.3457 120.716 14.3628 120.535 14.396C120.354 14.4291 120.19 14.4777 120.051 14.5389C119.913 14.6002 119.803 14.6729 119.728 14.7529C119.653 14.833 119.615 14.9187 119.615 15.0054C119.615 15.092 119.653 15.1777 119.728 15.2578C119.803 15.3378 119.913 15.4105 120.051 15.4718C120.19 15.533 120.354 15.5816 120.535 15.6148C120.716 15.6479 120.91 15.665 121.106 15.665C121.301 15.665 121.495 15.6479 121.676 15.6148C121.857 15.5816 122.021 15.533 122.16 15.4718C122.298 15.4105 122.408 15.3378 122.483 15.2578C122.558 15.1777 122.596 15.092 122.596 15.0054C122.596 14.9187 122.558 14.833 122.483 14.7529C122.408 14.6729 122.298 14.6002 122.16 14.5389C122.021 14.4777 121.857 14.4291 121.676 14.396C121.495 14.3628 121.301 14.3457 121.106 14.3457ZM127.359 12.2984C127.033 12.2984 126.72 12.3679 126.49 12.4916C126.259 12.6153 126.13 12.7831 126.13 12.958C126.13 13.133 126.259 13.3007 126.49 13.4244C126.72 13.5481 127.033 13.6176 127.359 13.6176C127.685 13.6176 127.998 13.5481 128.228 13.4244C128.459 13.3007 128.588 13.133 128.588 12.958C128.588 12.7831 128.459 12.6153 128.228 12.4916C127.998 12.3679 127.685 12.2984 127.359 12.2984ZM115.697 12.3838C115.371 12.3838 115.058 12.4533 114.828 12.5771C114.597 12.7008 114.468 12.8686 114.468 13.0436C114.468 13.2185 114.597 13.3863 114.828 13.51C115.058 13.6338 115.371 13.7033 115.697 13.7033C116.023 13.7033 116.336 13.6338 116.567 13.51C116.797 13.3863 116.927 13.2185 116.927 13.0436C116.927 12.8686 116.797 12.7008 116.567 12.5771C116.336 12.4533 116.023 12.3838 115.697 12.3838ZM124.566 12.3441C124.405 12.3441 124.245 12.3612 124.096 12.3943C123.947 12.4275 123.811 12.476 123.697 12.5373C123.583 12.5985 123.492 12.6713 123.431 12.7513C123.369 12.8313 123.337 12.9171 123.337 13.0037C123.337 13.0903 123.369 13.1761 123.431 13.2561C123.492 13.3361 123.583 13.4089 123.697 13.4701C123.811 13.5314 123.947 13.5799 124.096 13.6131C124.245 13.6462 124.405 13.6633 124.566 13.6633C124.728 13.6633 124.887 13.6462 125.037 13.6131C125.186 13.5799 125.321 13.5314 125.435 13.4701C125.55 13.4089 125.64 13.3361 125.702 13.2561C125.764 13.1761 125.795 13.0903 125.795 13.0037C125.795 12.9171 125.764 12.8313 125.702 12.7513C125.64 12.6713 125.55 12.5985 125.435 12.5373C125.321 12.476 125.186 12.4275 125.037 12.3943C124.887 12.3612 124.728 12.3441 124.566 12.3441ZM118.569 12.3441C118.407 12.3441 118.247 12.3612 118.098 12.3943C117.949 12.4275 117.814 12.476 117.699 12.5373C117.585 12.5985 117.495 12.6713 117.433 12.7513C117.371 12.8313 117.339 12.9171 117.339 13.0037C117.339 13.0903 117.371 13.1761 117.433 13.2561C117.495 13.3361 117.585 13.4089 117.699 13.4701C117.814 13.5314 117.949 13.5799 118.098 13.6131C118.247 13.6462 118.407 13.6633 118.569 13.6633C118.73 13.6633 118.89 13.6462 119.039 13.6131C119.188 13.5799 119.324 13.5314 119.438 13.4701C119.552 13.4089 119.642 13.3361 119.704 13.2561C119.766 13.1761 119.798 13.0903 119.798 13.0037C119.798 12.9171 119.766 12.8313 119.704 12.7513C119.642 12.6713 119.552 12.5985 119.438 12.5373C119.324 12.476 119.188 12.4275 119.039 12.3943C118.89 12.3612 118.73 12.3441 118.569 12.3441ZM121.541 12.3441C121.379 12.3441 121.219 12.3612 121.07 12.3943C120.921 12.4275 120.786 12.476 120.671 12.5373C120.557 12.5985 120.467 12.6713 120.405 12.7513C120.343 12.8313 120.311 12.9171 120.311 13.0037C120.311 13.0903 120.343 13.1761 120.405 13.2561C120.467 13.3361 120.557 13.4089 120.671 13.4701C120.786 13.5314 120.921 13.5799 121.07 13.6131C121.219 13.6462 121.379 13.6633 121.541 13.6633C121.702 13.6633 121.862 13.6462 122.011 13.6131C122.16 13.5799 122.296 13.5314 122.41 13.4701C122.524 13.4089 122.615 13.3361 122.676 13.2561C122.738 13.1761 122.77 13.0903 122.77 13.0037C122.77 12.9171 122.738 12.8313 122.676 12.7513C122.615 12.6713 122.524 12.5985 122.41 12.5373C122.296 12.476 122.16 12.4275 122.011 12.3943C121.862 12.3612 121.702 12.3441 121.541 12.3441ZM126.568 10.5866C126.427 10.5852 126.287 10.5967 126.157 10.6203C126.026 10.644 125.907 10.6794 125.806 10.7244C125.706 10.7694 125.626 10.8232 125.571 10.8825C125.517 10.9419 125.489 11.0056 125.489 11.07C125.489 11.1344 125.517 11.1981 125.571 11.2574C125.626 11.3168 125.706 11.3706 125.806 11.4156C125.907 11.4606 126.026 11.496 126.157 11.5197C126.287 11.5433 126.427 11.5548 126.568 11.5534C126.708 11.5548 126.848 11.5433 126.979 11.5197C127.109 11.496 127.229 11.4606 127.329 11.4156C127.43 11.3706 127.509 11.3168 127.564 11.2574C127.618 11.1981 127.646 11.1344 127.646 11.07C127.646 11.0056 127.618 10.9419 127.564 10.8825C127.509 10.8232 127.43 10.7694 127.329 10.7244C127.229 10.6794 127.109 10.644 126.979 10.6203C126.848 10.5967 126.708 10.5852 126.568 10.5866ZM116.576 10.6492C116.436 10.6478 116.296 10.6592 116.165 10.6829C116.035 10.7066 115.916 10.742 115.815 10.787C115.715 10.832 115.635 10.8858 115.58 10.9451C115.526 11.0045 115.498 11.0682 115.498 11.1326C115.498 11.197 115.526 11.2607 115.58 11.32C115.635 11.3794 115.715 11.4331 115.815 11.4782C115.916 11.5232 116.035 11.5586 116.165 11.5822C116.296 11.6059 116.436 11.6174 116.576 11.616C116.717 11.6174 116.857 11.6059 116.988 11.5822C117.118 11.5586 117.237 11.5232 117.338 11.4782C117.438 11.4331 117.518 11.3794 117.573 11.32C117.627 11.2607 117.655 11.197 117.655 11.1326C117.655 11.0682 117.627 11.0045 117.573 10.9451C117.518 10.8858 117.438 10.832 117.338 10.787C117.237 10.742 117.118 10.7066 116.988 10.6829C116.857 10.6592 116.717 10.6478 116.576 10.6492ZM124.176 10.6149C123.896 10.6149 123.627 10.6659 123.429 10.7565C123.231 10.8472 123.12 10.9702 123.12 11.0984C123.12 11.2267 123.231 11.3496 123.429 11.4403C123.627 11.531 123.896 11.5819 124.176 11.5819C124.316 11.5833 124.456 11.5719 124.587 11.5482C124.717 11.5245 124.837 11.4892 124.937 11.4441C125.038 11.3991 125.117 11.3453 125.172 11.286C125.226 11.2267 125.254 11.1629 125.254 11.0985C125.254 11.0342 125.226 10.9704 125.172 10.9111C125.117 10.8517 125.038 10.798 124.937 10.7529C124.837 10.7079 124.717 10.6725 124.587 10.6489C124.456 10.6252 124.316 10.6137 124.176 10.6151M119.035 10.6151C118.894 10.6137 118.755 10.6252 118.624 10.6489C118.493 10.6725 118.374 10.7079 118.274 10.7529C118.173 10.798 118.093 10.8517 118.039 10.9111C117.984 10.9704 117.956 11.0342 117.956 11.0985C117.956 11.1629 117.984 11.2267 118.039 11.286C118.093 11.3453 118.173 11.3991 118.274 11.4441C118.374 11.4892 118.493 11.5245 118.624 11.5482C118.755 11.5719 118.894 11.5833 119.035 11.5819C119.176 11.5833 119.315 11.5719 119.446 11.5482C119.577 11.5245 119.696 11.4892 119.796 11.4441C119.897 11.3991 119.977 11.3453 120.031 11.286C120.086 11.2267 120.114 11.1629 120.114 11.0985C120.114 11.0342 120.086 10.9704 120.031 10.9111C119.977 10.8517 119.897 10.798 119.796 10.7529C119.696 10.7079 119.577 10.6725 119.446 10.6489C119.315 10.6252 119.176 10.6137 119.035 10.6151ZM121.585 10.6151C121.444 10.6137 121.304 10.6252 121.174 10.6489C121.043 10.6725 120.924 10.7079 120.823 10.7529C120.723 10.798 120.643 10.8517 120.589 10.9111C120.534 10.9704 120.506 11.0342 120.506 11.0985C120.506 11.1629 120.534 11.2267 120.589 11.286C120.643 11.3453 120.723 11.3991 120.823 11.4441C120.924 11.4892 121.043 11.5245 121.174 11.5482C121.304 11.5719 121.444 11.5833 121.585 11.5819C121.725 11.5833 121.865 11.5719 121.996 11.5482C122.127 11.5245 122.246 11.4892 122.346 11.4441C122.447 11.3991 122.526 11.3453 122.581 11.286C122.635 11.2267 122.664 11.1629 122.664 11.0985C122.664 11.0342 122.635 10.9704 122.581 10.9111C122.526 10.8517 122.447 10.798 122.346 10.7529C122.246 10.7079 122.127 10.6725 121.996 10.6489C121.865 10.6252 121.725 10.6137 121.585 10.6151ZM125.635 9.11915C125.514 9.11915 125.395 9.13019 125.284 9.15163C125.173 9.17307 125.071 9.2045 124.986 9.24411C124.901 9.28373 124.834 9.33076 124.787 9.38253C124.741 9.43429 124.718 9.48977 124.718 9.54579C124.718 9.60182 124.741 9.6573 124.787 9.70906C124.834 9.76083 124.901 9.80786 124.986 9.84748C125.071 9.88709 125.173 9.91852 125.284 9.93996C125.395 9.9614 125.514 9.97244 125.635 9.97244C125.757 9.97375 125.879 9.96369 125.992 9.94285C126.106 9.92201 126.21 9.8908 126.297 9.85106C126.385 9.81132 126.454 9.76386 126.501 9.71146C126.549 9.65905 126.573 9.60277 126.573 9.54591C126.573 9.48905 126.549 9.43277 126.501 9.38036C126.454 9.32796 126.385 9.28049 126.297 9.24076C126.21 9.20102 126.106 9.16981 125.992 9.14897C125.879 9.12813 125.757 9.11807 125.635 9.11938M116.942 9.17625C116.82 9.17494 116.698 9.185 116.585 9.20584C116.471 9.22668 116.367 9.25789 116.28 9.29763C116.192 9.33737 116.123 9.38483 116.076 9.43723C116.028 9.48964 116.004 9.54592 116.004 9.60278C116.004 9.65964 116.028 9.71592 116.076 9.76833C116.123 9.82073 116.192 9.86819 116.28 9.90793C116.367 9.94767 116.471 9.97888 116.585 9.99972C116.698 10.0206 116.82 10.0306 116.942 10.0293C117.064 10.0306 117.186 10.0206 117.3 9.99972C117.413 9.97888 117.517 9.94767 117.604 9.90793C117.692 9.86819 117.761 9.82073 117.809 9.76833C117.856 9.71592 117.881 9.65964 117.881 9.60278C117.881 9.54592 117.856 9.48964 117.809 9.43723C117.761 9.38483 117.692 9.33737 117.604 9.29763C117.517 9.25789 117.413 9.22668 117.3 9.20584C117.186 9.185 117.064 9.17494 116.942 9.17625ZM123.551 9.14793C123.429 9.14662 123.308 9.15667 123.194 9.17752C123.08 9.19836 122.977 9.22957 122.889 9.26931C122.802 9.30904 122.732 9.35651 122.685 9.40891C122.637 9.46132 122.613 9.5176 122.613 9.57446C122.613 9.63132 122.637 9.6876 122.685 9.74001C122.732 9.79241 122.802 9.83987 122.889 9.87961C122.977 9.91935 123.08 9.95055 123.194 9.9714C123.308 9.99224 123.429 10.0023 123.551 10.001C123.674 10.0023 123.795 9.99224 123.909 9.9714C124.023 9.95055 124.126 9.91935 124.214 9.87961C124.301 9.83987 124.371 9.79241 124.418 9.74001C124.465 9.6876 124.49 9.63132 124.49 9.57446C124.49 9.5176 124.465 9.46132 124.418 9.40891C124.371 9.35651 124.301 9.30904 124.214 9.26931C124.126 9.22957 124.023 9.19836 123.909 9.17752C123.795 9.15667 123.674 9.14662 123.551 9.14793ZM119.082 9.14793C118.96 9.14662 118.838 9.15667 118.725 9.17752C118.611 9.19836 118.507 9.22957 118.42 9.26931C118.333 9.30904 118.263 9.35651 118.216 9.40891C118.168 9.46132 118.144 9.5176 118.144 9.57446C118.144 9.63132 118.168 9.6876 118.216 9.74001C118.263 9.79241 118.333 9.83987 118.42 9.87961C118.507 9.91935 118.611 9.95055 118.725 9.9714C118.838 9.99224 118.96 10.0023 119.082 10.001C119.204 10.0023 119.326 9.99224 119.44 9.9714C119.553 9.95055 119.657 9.91935 119.744 9.87961C119.832 9.83987 119.901 9.79241 119.949 9.74001C119.996 9.6876 120.021 9.63132 120.021 9.57446C120.021 9.5176 119.996 9.46132 119.949 9.40891C119.901 9.35651 119.832 9.30904 119.744 9.26931C119.657 9.22957 119.553 9.19836 119.44 9.17752C119.326 9.15667 119.204 9.14662 119.082 9.14793ZM121.298 9.14793C121.175 9.14662 121.054 9.15667 120.94 9.17752C120.826 9.19836 120.723 9.22957 120.635 9.26931C120.548 9.30904 120.478 9.35651 120.431 9.40891C120.384 9.46132 120.359 9.5176 120.359 9.57446C120.359 9.63132 120.384 9.6876 120.431 9.74001C120.478 9.79241 120.548 9.83987 120.635 9.87961C120.723 9.91935 120.826 9.95055 120.94 9.9714C121.054 9.99224 121.175 10.0023 121.298 10.001C121.42 10.0023 121.541 9.99224 121.655 9.9714C121.769 9.95055 121.872 9.91935 121.96 9.87961C122.047 9.83987 122.117 9.79241 122.164 9.74001C122.212 9.6876 122.236 9.63132 122.236 9.57446C122.236 9.5176 122.212 9.46132 122.164 9.40891C122.117 9.35651 122.047 9.30904 121.96 9.26931C121.872 9.22957 121.769 9.19836 121.655 9.17752C121.541 9.15667 121.42 9.14662 121.298 9.14793ZM124.408 8.04455C124.199 8.04455 123.999 8.07811 123.851 8.13784C123.703 8.19757 123.62 8.27858 123.62 8.36305C123.62 8.44752 123.703 8.52853 123.851 8.58826C123.999 8.64799 124.199 8.68155 124.408 8.68155C124.618 8.68155 124.818 8.64798 124.966 8.58823C125.114 8.52848 125.197 8.44744 125.197 8.36294C125.197 8.27844 125.114 8.19739 124.966 8.13764C124.818 8.07789 124.618 8.04455 124.408 8.04455ZM116.923 8.08429C116.714 8.08429 116.514 8.11786 116.366 8.17761C116.218 8.23736 116.135 8.3184 116.135 8.40291C116.135 8.48741 116.218 8.56845 116.366 8.6282C116.514 8.68795 116.714 8.72152 116.923 8.72152C117.132 8.72152 117.333 8.68795 117.481 8.6282C117.629 8.56845 117.712 8.48741 117.712 8.40291C117.712 8.3184 117.629 8.23736 117.481 8.17761C117.333 8.11786 117.132 8.08429 116.923 8.08429ZM122.616 8.06739C122.512 8.06739 122.41 8.07563 122.314 8.09163C122.218 8.10763 122.131 8.13108 122.058 8.16065C121.985 8.19021 121.927 8.22531 121.888 8.26394C121.848 8.30256 121.828 8.34397 121.828 8.38578C121.828 8.42759 121.848 8.46899 121.888 8.50762C121.927 8.54624 121.985 8.58134 122.058 8.61091C122.131 8.64047 122.218 8.66392 122.314 8.67992C122.41 8.69592 122.512 8.70416 122.616 8.70416C122.719 8.70416 122.821 8.69592 122.917 8.67992C123.013 8.66392 123.099 8.64047 123.173 8.61091C123.246 8.58134 123.304 8.54624 123.343 8.50762C123.383 8.46899 123.403 8.42759 123.403 8.38578C123.403 8.34397 123.383 8.30256 123.343 8.26394C123.304 8.22531 123.246 8.19021 123.173 8.16065C123.099 8.13108 123.013 8.10763 122.917 8.09163C122.821 8.07563 122.719 8.06739 122.616 8.06739ZM118.767 8.06739C118.663 8.06739 118.56 8.07563 118.464 8.09163C118.368 8.10763 118.281 8.13108 118.208 8.16065C118.134 8.19021 118.076 8.22531 118.036 8.26394C117.996 8.30256 117.976 8.34397 117.976 8.38578C117.976 8.42759 117.996 8.46899 118.036 8.50762C118.076 8.54624 118.134 8.58134 118.208 8.61091C118.281 8.64047 118.368 8.66392 118.464 8.67992C118.56 8.69592 118.663 8.70416 118.767 8.70416C118.871 8.70416 118.974 8.69592 119.07 8.67992C119.166 8.66392 119.253 8.64047 119.326 8.61091C119.4 8.58134 119.458 8.54624 119.498 8.50762C119.538 8.46899 119.558 8.42759 119.558 8.38578C119.558 8.34397 119.538 8.30256 119.498 8.26394C119.458 8.22531 119.4 8.19021 119.326 8.16065C119.253 8.13108 119.166 8.10763 119.07 8.09163C118.974 8.07563 118.871 8.06739 118.767 8.06739ZM120.674 8.06739C120.57 8.06739 120.467 8.07563 120.371 8.09163C120.275 8.10763 120.188 8.13108 120.114 8.16065C120.041 8.19021 119.983 8.22531 119.943 8.26394C119.903 8.30256 119.883 8.34397 119.883 8.38578C119.883 8.42759 119.903 8.46899 119.943 8.50762C119.983 8.54624 120.041 8.58134 120.114 8.61091C120.188 8.64047 120.275 8.66392 120.371 8.67992C120.467 8.69592 120.57 8.70416 120.674 8.70416C120.778 8.70416 120.881 8.69592 120.977 8.67992C121.073 8.66392 121.16 8.64047 121.233 8.61091C121.307 8.58134 121.365 8.54624 121.405 8.50762C121.445 8.46899 121.465 8.42759 121.465 8.38578C121.465 8.34397 121.445 8.30256 121.405 8.26394C121.365 8.22531 121.307 8.19021 121.233 8.16065C121.16 8.13108 121.073 8.10763 120.977 8.09163C120.881 8.07563 120.778 8.06739 120.674 8.06739ZM122.681 7.00947C122.501 7.00947 122.328 7.04303 122.2 7.10278C122.072 7.16254 122 7.24358 122 7.32808C122 7.41258 122.072 7.49362 122.2 7.55337C122.328 7.61312 122.501 7.64669 122.681 7.64669C122.862 7.64669 123.035 7.61312 123.163 7.55337C123.291 7.49362 123.363 7.41258 123.363 7.32808C123.363 7.24358 123.291 7.16254 123.163 7.10278C123.035 7.04303 122.862 7.00947 122.681 7.00947ZM116.22 7.04944C116.04 7.04944 115.867 7.08298 115.739 7.14269C115.611 7.2024 115.54 7.28338 115.54 7.36782C115.54 7.45226 115.611 7.53324 115.739 7.59295C115.867 7.65266 116.04 7.6862 116.22 7.6862C116.401 7.6862 116.574 7.65266 116.701 7.59295C116.829 7.53324 116.901 7.45226 116.901 7.36782C116.901 7.28338 116.829 7.2024 116.701 7.14269C116.574 7.08298 116.401 7.04944 116.22 7.04944ZM121.134 7.03231C120.954 7.03231 120.78 7.06586 120.653 7.12559C120.525 7.18532 120.453 7.26633 120.453 7.3508C120.453 7.43527 120.525 7.51628 120.653 7.57601C120.78 7.63574 120.954 7.6693 121.134 7.6693C121.315 7.6693 121.488 7.63573 121.616 7.57598C121.743 7.51623 121.815 7.43519 121.815 7.35069C121.815 7.26619 121.743 7.18515 121.616 7.1254C121.488 7.06564 121.315 7.03231 121.134 7.03231ZM117.809 7.03208C117.628 7.03208 117.455 7.06564 117.327 7.1254C117.199 7.18515 117.128 7.26619 117.128 7.35069C117.128 7.43519 117.199 7.51623 117.327 7.57598C117.455 7.63573 117.628 7.6693 117.809 7.6693C117.989 7.6693 118.163 7.63573 118.29 7.57598C118.418 7.51623 118.49 7.43519 118.49 7.35069C118.49 7.26619 118.418 7.18515 118.29 7.1254C118.163 7.06564 117.989 7.03208 117.809 7.03208ZM119.457 7.03208C119.277 7.03208 119.103 7.06564 118.976 7.1254C118.848 7.18515 118.776 7.26619 118.776 7.35069C118.776 7.43519 118.848 7.51623 118.976 7.57598C119.103 7.63573 119.277 7.6693 119.457 7.6693C119.638 7.6693 119.811 7.63573 119.939 7.57598C120.067 7.51623 120.138 7.43519 120.138 7.35069C120.138 7.26619 120.067 7.18515 119.939 7.1254C119.811 7.06564 119.638 7.03208 119.457 7.03208ZM121.493 6.20757C121.335 6.20757 121.182 6.23033 121.07 6.27085C120.958 6.31137 120.895 6.36633 120.895 6.42363C120.895 6.48094 120.958 6.53589 121.07 6.57641C121.182 6.61693 121.335 6.63969 121.493 6.63969C121.652 6.63969 121.805 6.61692 121.917 6.57638C122.029 6.53584 122.093 6.48085 122.093 6.42352C122.093 6.36618 122.029 6.3112 121.917 6.27066C121.805 6.23012 121.652 6.20757 121.493 6.20757ZM115.823 6.23589C115.664 6.23589 115.512 6.25865 115.4 6.29917C115.287 6.33969 115.224 6.39465 115.224 6.45195C115.224 6.50926 115.287 6.56421 115.4 6.60473C115.512 6.64525 115.664 6.66802 115.823 6.66802C115.982 6.66802 116.134 6.64525 116.247 6.60473C116.359 6.56421 116.422 6.50926 116.422 6.45195C116.422 6.39465 116.359 6.33969 116.247 6.29917C116.134 6.25865 115.982 6.23589 115.823 6.23589ZM120.135 6.2247C120.055 6.22376 119.975 6.22865 119.9 6.23908C119.825 6.2495 119.757 6.26526 119.699 6.28541C119.641 6.30555 119.595 6.32968 119.564 6.35634C119.533 6.38301 119.517 6.41168 119.517 6.44065C119.517 6.46961 119.533 6.49828 119.564 6.52495C119.595 6.55162 119.641 6.57574 119.699 6.59589C119.757 6.61604 119.825 6.63179 119.9 6.64222C119.975 6.65265 120.055 6.65754 120.135 6.6566C120.294 6.6566 120.446 6.63383 120.558 6.59331C120.671 6.55279 120.734 6.49784 120.734 6.44053C120.734 6.38323 120.671 6.32827 120.558 6.28775C120.446 6.24724 120.294 6.2247 120.135 6.2247ZM117.219 6.2247C117.139 6.22376 117.059 6.22865 116.984 6.23908C116.909 6.2495 116.841 6.26526 116.783 6.28541C116.726 6.30555 116.68 6.32968 116.649 6.35634C116.617 6.38301 116.601 6.41168 116.601 6.44065C116.601 6.46961 116.617 6.49828 116.649 6.52495C116.68 6.55162 116.726 6.57574 116.783 6.59589C116.841 6.61604 116.909 6.63179 116.984 6.64222C117.059 6.65265 117.139 6.65754 117.219 6.6566C117.378 6.6566 117.531 6.63383 117.643 6.59331C117.755 6.55279 117.818 6.49784 117.818 6.44053C117.818 6.38323 117.755 6.32827 117.643 6.28775C117.531 6.24724 117.378 6.2247 117.219 6.2247ZM118.663 6.2247C118.583 6.22376 118.503 6.22865 118.428 6.23908C118.353 6.2495 118.285 6.26526 118.227 6.28541C118.169 6.30555 118.123 6.32968 118.092 6.35634C118.061 6.38301 118.045 6.41168 118.045 6.44065C118.045 6.46961 118.061 6.49828 118.092 6.52495C118.123 6.55162 118.169 6.57574 118.227 6.59589C118.285 6.61604 118.353 6.63179 118.428 6.64222C118.503 6.65265 118.583 6.65754 118.663 6.6566C118.822 6.6566 118.974 6.63383 119.086 6.59331C119.199 6.55279 119.262 6.49784 119.262 6.44053C119.262 6.38323 119.199 6.32827 119.086 6.28775C118.974 6.24724 118.822 6.2247 118.663 6.2247ZM120.308 5.66719C120.238 5.66642 120.168 5.66953 120.102 5.67633C120.036 5.68313 119.976 5.69348 119.925 5.70675C119.874 5.72003 119.834 5.73596 119.806 5.7536C119.779 5.77123 119.764 5.7902 119.764 5.80936C119.764 5.82853 119.779 5.8475 119.806 5.86513C119.834 5.88276 119.874 5.89869 119.925 5.91197C119.976 5.92525 120.036 5.9356 120.102 5.9424C120.168 5.9492 120.238 5.95231 120.308 5.95154C120.379 5.95231 120.449 5.9492 120.515 5.9424C120.581 5.9356 120.641 5.92525 120.692 5.91197C120.742 5.89869 120.783 5.88276 120.81 5.86513C120.838 5.8475 120.852 5.82853 120.852 5.80936C120.852 5.7902 120.838 5.77123 120.81 5.7536C120.783 5.73596 120.742 5.72003 120.692 5.70675C120.641 5.69348 120.581 5.68313 120.515 5.67633C120.449 5.66953 120.379 5.66642 120.308 5.66719ZM115.341 5.68432C115.27 5.68355 115.2 5.68666 115.134 5.69346C115.068 5.70026 115.008 5.71061 114.957 5.72388C114.907 5.73716 114.866 5.75309 114.839 5.77073C114.811 5.78836 114.797 5.80733 114.797 5.82649C114.797 5.84566 114.811 5.86463 114.839 5.88226C114.866 5.89989 114.907 5.91582 114.957 5.9291C115.008 5.94238 115.068 5.95273 115.134 5.95953C115.2 5.96633 115.27 5.96944 115.341 5.96867C115.411 5.96944 115.481 5.96633 115.547 5.95953C115.613 5.95273 115.673 5.94238 115.724 5.9291C115.775 5.91582 115.815 5.89989 115.843 5.88226C115.87 5.86463 115.885 5.84566 115.885 5.82649C115.885 5.80733 115.87 5.78836 115.843 5.77073C115.815 5.75309 115.775 5.73716 115.724 5.72388C115.673 5.71061 115.613 5.70026 115.547 5.69346C115.481 5.68666 115.411 5.68355 115.341 5.68432ZM119.12 5.6729C119.05 5.67213 118.979 5.67524 118.913 5.68204C118.848 5.68884 118.787 5.69919 118.737 5.71246C118.686 5.72574 118.645 5.74167 118.618 5.75931C118.59 5.77694 118.576 5.79591 118.576 5.81507C118.576 5.83424 118.59 5.85321 118.618 5.87084C118.645 5.88847 118.686 5.9044 118.737 5.91768C118.787 5.93096 118.848 5.94131 118.913 5.94811C118.979 5.95491 119.05 5.95802 119.12 5.95725C119.19 5.95802 119.261 5.95491 119.326 5.94811C119.392 5.94131 119.452 5.93096 119.503 5.91768C119.554 5.9044 119.594 5.88847 119.622 5.87084C119.65 5.85321 119.664 5.83424 119.664 5.81507C119.664 5.79591 119.65 5.77694 119.622 5.75931C119.594 5.74167 119.554 5.72574 119.503 5.71246C119.452 5.69919 119.392 5.68884 119.326 5.68204C119.261 5.67524 119.19 5.67213 119.12 5.6729ZM116.564 5.6729C116.494 5.67213 116.423 5.67524 116.357 5.68204C116.292 5.68884 116.231 5.69919 116.181 5.71246C116.13 5.72574 116.089 5.74167 116.062 5.75931C116.034 5.77694 116.02 5.79591 116.02 5.81507C116.02 5.83424 116.034 5.85321 116.062 5.87084C116.089 5.88847 116.13 5.9044 116.181 5.91768C116.231 5.93096 116.292 5.94131 116.357 5.94811C116.423 5.95491 116.494 5.95802 116.564 5.95725C116.634 5.95802 116.705 5.95491 116.77 5.94811C116.836 5.94131 116.896 5.93096 116.947 5.91768C116.998 5.9044 117.038 5.88847 117.066 5.87084C117.094 5.85321 117.108 5.83424 117.108 5.81507C117.108 5.79591 117.094 5.77694 117.066 5.75931C117.038 5.74167 116.998 5.72574 116.947 5.71246C116.896 5.69919 116.836 5.68884 116.77 5.68204C116.705 5.67524 116.634 5.67213 116.564 5.6729ZM117.831 5.6729C117.76 5.67213 117.69 5.67524 117.624 5.68204C117.558 5.68884 117.498 5.69919 117.448 5.71246C117.397 5.72574 117.356 5.74167 117.329 5.75931C117.301 5.77694 117.287 5.79591 117.287 5.81507C117.287 5.83424 117.301 5.85321 117.329 5.87084C117.356 5.88847 117.397 5.9044 117.448 5.91768C117.498 5.93096 117.558 5.94131 117.624 5.94811C117.69 5.95491 117.76 5.95802 117.831 5.95725C117.901 5.95802 117.971 5.95491 118.037 5.94811C118.103 5.94131 118.163 5.93096 118.214 5.91768C118.265 5.9044 118.305 5.88847 118.333 5.87084C118.361 5.85321 118.375 5.83424 118.375 5.81507C118.375 5.79591 118.361 5.77694 118.333 5.75931C118.305 5.74167 118.265 5.72574 118.214 5.71246C118.163 5.69919 118.103 5.68884 118.037 5.68204C117.971 5.67524 117.901 5.67213 117.831 5.6729ZM119.161 5.15535C119.101 5.15459 119.041 5.15769 118.984 5.16449C118.928 5.17129 118.876 5.18164 118.833 5.19492C118.789 5.2082 118.755 5.22413 118.731 5.24176C118.708 5.2594 118.695 5.27836 118.695 5.29753C118.695 5.3167 118.708 5.33566 118.731 5.3533C118.755 5.37093 118.789 5.38686 118.833 5.40014C118.876 5.41342 118.928 5.42377 118.984 5.43057C119.041 5.43736 119.101 5.44047 119.161 5.43971C119.221 5.44047 119.281 5.43736 119.338 5.43057C119.394 5.42377 119.446 5.41342 119.489 5.40014C119.533 5.38686 119.567 5.37093 119.591 5.3533C119.614 5.33566 119.627 5.3167 119.627 5.29753C119.627 5.27836 119.614 5.2594 119.591 5.24176C119.567 5.22413 119.533 5.2082 119.489 5.19492C119.446 5.18164 119.394 5.17129 119.338 5.16449C119.281 5.15769 119.221 5.15459 119.161 5.15535ZM114.906 5.17248C114.846 5.17172 114.786 5.17482 114.729 5.18162C114.673 5.18842 114.621 5.19877 114.578 5.21205C114.534 5.22533 114.5 5.24126 114.476 5.25889C114.453 5.27653 114.44 5.29549 114.44 5.31466C114.44 5.33382 114.453 5.35279 114.476 5.37043C114.5 5.38806 114.534 5.40399 114.578 5.41727C114.621 5.43055 114.673 5.4409 114.729 5.4477C114.786 5.45449 114.846 5.4576 114.906 5.45684C114.966 5.4576 115.026 5.45449 115.083 5.4477C115.139 5.4409 115.191 5.43055 115.234 5.41727C115.278 5.40399 115.312 5.38806 115.336 5.37043C115.359 5.35279 115.372 5.33382 115.372 5.31466C115.372 5.29549 115.359 5.27653 115.336 5.25889C115.312 5.24126 115.278 5.22533 115.234 5.21205C115.191 5.19877 115.139 5.18842 115.083 5.18162C115.026 5.17482 114.966 5.17172 114.906 5.17248ZM118.143 5.16677C118.083 5.16601 118.022 5.16911 117.966 5.17591C117.91 5.18271 117.858 5.19306 117.815 5.20634C117.771 5.21962 117.737 5.23555 117.713 5.25318C117.689 5.27082 117.677 5.28978 117.677 5.30895C117.677 5.32811 117.689 5.34708 117.713 5.36472C117.737 5.38235 117.771 5.39828 117.815 5.41156C117.858 5.42484 117.91 5.43519 117.966 5.44199C118.022 5.44878 118.083 5.45189 118.143 5.45113C118.203 5.45189 118.263 5.44878 118.32 5.44199C118.376 5.43519 118.427 5.42484 118.471 5.41156C118.514 5.39828 118.549 5.38235 118.573 5.36472C118.596 5.34708 118.608 5.32811 118.608 5.30895C118.608 5.28978 118.596 5.27082 118.573 5.25318C118.549 5.23555 118.514 5.21962 118.471 5.20634C118.427 5.19306 118.376 5.18271 118.32 5.17591C118.263 5.16911 118.203 5.16601 118.143 5.16677ZM115.952 5.16677C115.833 5.16677 115.718 5.18175 115.633 5.20842C115.549 5.23508 115.501 5.27124 115.501 5.30895C115.501 5.34666 115.549 5.38282 115.633 5.40948C115.718 5.43615 115.833 5.45113 115.952 5.45113C116.072 5.45113 116.187 5.43615 116.271 5.40948C116.356 5.38282 116.403 5.34666 116.403 5.30895C116.403 5.27124 116.356 5.23508 116.271 5.20842C116.187 5.18175 116.072 5.16677 115.952 5.16677ZM117.037 5.16677C116.976 5.16601 116.916 5.16911 116.86 5.17591C116.804 5.18271 116.752 5.19306 116.709 5.20634C116.665 5.21962 116.631 5.23555 116.607 5.25318C116.583 5.27082 116.571 5.28978 116.571 5.30895C116.571 5.32811 116.583 5.34708 116.607 5.36472C116.631 5.38235 116.665 5.39828 116.709 5.41156C116.752 5.42484 116.804 5.43519 116.86 5.44199C116.916 5.44878 116.976 5.45189 117.037 5.45113C117.097 5.45189 117.157 5.44878 117.213 5.44199C117.27 5.43519 117.321 5.42484 117.365 5.41156C117.408 5.39828 117.443 5.38235 117.466 5.36472C117.49 5.34708 117.502 5.32811 117.502 5.30895C117.502 5.28978 117.49 5.27082 117.466 5.25318C117.443 5.23555 117.408 5.21962 117.365 5.20634C117.321 5.19306 117.27 5.18271 117.213 5.17591C117.157 5.16911 117.097 5.16601 117.037 5.16677ZM118.011 4.70039C117.915 4.70039 117.824 4.71177 117.757 4.73203C117.689 4.75229 117.651 4.77977 117.651 4.80842C117.651 4.83707 117.689 4.86455 117.757 4.88481C117.824 4.90507 117.915 4.91645 118.011 4.91645C118.106 4.91645 118.197 4.90507 118.265 4.88481C118.332 4.86455 118.37 4.83707 118.37 4.80842C118.37 4.77977 118.332 4.75229 118.265 4.73203C118.197 4.71177 118.106 4.70039 118.011 4.70039ZM114.619 4.71181C114.524 4.71181 114.432 4.72319 114.365 4.74345C114.298 4.76371 114.26 4.79119 114.26 4.81984C114.26 4.84849 114.298 4.87597 114.365 4.89623C114.432 4.91649 114.524 4.92787 114.619 4.92787C114.714 4.92787 114.806 4.91649 114.873 4.89623C114.94 4.87597 114.978 4.84849 114.978 4.81984C114.978 4.79119 114.94 4.76371 114.873 4.74345C114.806 4.72319 114.714 4.71181 114.619 4.71181ZM117.197 4.70587C117.102 4.70587 117.01 4.71727 116.943 4.73755C116.876 4.75783 116.838 4.78533 116.838 4.81402C116.838 4.8427 116.876 4.87021 116.943 4.89049C117.01 4.91077 117.102 4.92216 117.197 4.92216C117.293 4.92216 117.384 4.91078 117.451 4.89052C117.519 4.87026 117.557 4.84278 117.557 4.81413C117.557 4.78548 117.519 4.758 117.451 4.73774C117.384 4.71748 117.293 4.70587 117.197 4.70587ZM115.454 4.7061C115.359 4.7061 115.268 4.71748 115.2 4.73774C115.133 4.758 115.095 4.78548 115.095 4.81413C115.095 4.84278 115.133 4.87026 115.2 4.89052C115.268 4.91078 115.359 4.92216 115.454 4.92216C115.55 4.92216 115.641 4.91078 115.708 4.89052C115.776 4.87026 115.814 4.84278 115.814 4.81413C115.814 4.78548 115.776 4.758 115.708 4.73774C115.641 4.71748 115.55 4.7061 115.454 4.7061ZM116.318 4.7061C116.222 4.7061 116.131 4.71748 116.064 4.73774C115.996 4.758 115.958 4.78548 115.958 4.81413C115.958 4.84278 115.996 4.87026 116.064 4.89052C116.131 4.91078 116.222 4.92216 116.318 4.92216C116.413 4.92216 116.504 4.91078 116.572 4.89052C116.639 4.87026 116.677 4.84278 116.677 4.81413C116.677 4.78548 116.639 4.758 116.572 4.73774C116.504 4.71748 116.413 4.7061 116.318 4.7061ZM117.068 4.29659C116.986 4.29659 116.908 4.30797 116.85 4.32823C116.792 4.34849 116.759 4.37597 116.759 4.40462C116.759 4.43327 116.792 4.46075 116.85 4.48101C116.908 4.50127 116.986 4.51265 117.068 4.51265C117.15 4.51265 117.228 4.50127 117.286 4.48101C117.344 4.46075 117.377 4.43327 117.377 4.40462C117.377 4.37597 117.344 4.34849 117.286 4.32823C117.228 4.30797 117.15 4.29659 117.068 4.29659ZM114.131 4.31372C114.049 4.31372 113.97 4.3251 113.912 4.34536C113.854 4.36562 113.822 4.3931 113.822 4.42175C113.822 4.4504 113.854 4.47788 113.912 4.49814C113.97 4.5184 114.049 4.52978 114.131 4.52978C114.213 4.52978 114.291 4.5184 114.349 4.49814C114.407 4.47788 114.439 4.4504 114.439 4.42175C114.439 4.3931 114.407 4.36562 114.349 4.34536C114.291 4.3251 114.213 4.31372 114.131 4.31372ZM116.365 4.3023C116.325 4.3023 116.285 4.30509 116.247 4.31052C116.21 4.31595 116.176 4.32391 116.147 4.33394C116.118 4.34397 116.095 4.35588 116.08 4.36899C116.064 4.38209 116.056 4.39614 116.056 4.41033C116.056 4.42452 116.064 4.43856 116.08 4.45167C116.095 4.46478 116.118 4.47669 116.147 4.48672C116.176 4.49675 116.21 4.50471 116.247 4.51014C116.285 4.51556 116.325 4.51836 116.365 4.51836C116.406 4.51836 116.446 4.51556 116.483 4.51014C116.521 4.50471 116.555 4.49675 116.584 4.48672C116.612 4.47669 116.635 4.46478 116.651 4.45167C116.666 4.43856 116.674 4.42452 116.674 4.41033C116.674 4.39614 116.666 4.38209 116.651 4.36899C116.635 4.35588 116.612 4.34397 116.584 4.33394C116.555 4.32391 116.521 4.31595 116.483 4.31052C116.446 4.30509 116.406 4.3023 116.365 4.3023ZM114.856 4.3023C114.815 4.3023 114.775 4.30509 114.737 4.31052C114.7 4.31595 114.666 4.32391 114.637 4.33394C114.609 4.34397 114.586 4.35588 114.57 4.36899C114.555 4.38209 114.547 4.39614 114.547 4.41033C114.547 4.42452 114.555 4.43856 114.57 4.45167C114.586 4.46478 114.609 4.47669 114.637 4.48672C114.666 4.49675 114.7 4.50471 114.737 4.51014C114.775 4.51556 114.815 4.51836 114.856 4.51836C114.896 4.51836 114.936 4.51556 114.974 4.51014C115.011 4.50471 115.045 4.49675 115.074 4.48672C115.103 4.47669 115.125 4.46478 115.141 4.45167C115.156 4.43856 115.164 4.42452 115.164 4.41033C115.164 4.39614 115.156 4.38209 115.141 4.36899C115.125 4.35588 115.103 4.34397 115.074 4.33394C115.045 4.32391 115.011 4.31595 114.974 4.31052C114.936 4.30509 114.896 4.3023 114.856 4.3023ZM115.602 4.3023C115.562 4.3023 115.522 4.30509 115.484 4.31052C115.447 4.31595 115.413 4.32391 115.384 4.33394C115.355 4.34397 115.333 4.35588 115.317 4.36899C115.302 4.38209 115.294 4.39614 115.294 4.41033C115.294 4.42452 115.302 4.43856 115.317 4.45167C115.333 4.46478 115.355 4.47669 115.384 4.48672C115.413 4.49675 115.447 4.50471 115.484 4.51014C115.522 4.51556 115.562 4.51836 115.602 4.51836C115.643 4.51836 115.683 4.51556 115.721 4.51014C115.758 4.50471 115.792 4.49675 115.821 4.48672C115.849 4.47669 115.872 4.46478 115.888 4.45167C115.903 4.43856 115.911 4.42452 115.911 4.41033C115.911 4.39614 115.903 4.38209 115.888 4.36899C115.872 4.35588 115.849 4.34397 115.821 4.33394C115.792 4.32391 115.758 4.31595 115.721 4.31052C115.683 4.30509 115.643 4.3023 115.602 4.3023ZM115.804 4.00082C115.768 4.00082 115.732 4.00229 115.698 4.00514C115.665 4.008 115.634 4.01219 115.608 4.01747C115.582 4.02275 115.562 4.02902 115.548 4.03592C115.534 4.04282 115.527 4.05022 115.527 4.05769C115.527 4.06515 115.534 4.07255 115.548 4.07945C115.562 4.08635 115.582 4.09262 115.608 4.0979C115.634 4.10318 115.665 4.10737 115.698 4.11023C115.732 4.11309 115.768 4.11456 115.804 4.11456C115.841 4.11456 115.877 4.11309 115.91 4.11023C115.944 4.10737 115.975 4.10318 116 4.0979C116.026 4.09262 116.047 4.08635 116.06 4.07945C116.074 4.07255 116.082 4.06515 116.082 4.05769C116.082 4.05022 116.074 4.04282 116.06 4.03592C116.047 4.02902 116.026 4.02275 116 4.01747C115.975 4.01219 115.944 4.008 115.91 4.00514C115.877 4.00229 115.841 4.00082 115.804 4.00082ZM115.174 4.00082C115.138 4.00082 115.101 4.00229 115.068 4.00514C115.034 4.008 115.004 4.01219 114.978 4.01747C114.952 4.02275 114.932 4.02902 114.918 4.03592C114.904 4.04282 114.897 4.05022 114.897 4.05769C114.897 4.06515 114.904 4.07255 114.918 4.07945C114.932 4.08635 114.952 4.09262 114.978 4.0979C115.004 4.10318 115.034 4.10737 115.068 4.11023C115.101 4.11309 115.138 4.11456 115.174 4.11456C115.21 4.11456 115.246 4.11309 115.28 4.11023C115.314 4.10737 115.344 4.10318 115.37 4.0979C115.396 4.09262 115.416 4.08635 115.43 4.07945C115.444 4.07255 115.451 4.06515 115.451 4.05769C115.451 4.05022 115.444 4.04282 115.43 4.03592C115.416 4.02902 115.396 4.02275 115.37 4.01747C115.344 4.01219 115.314 4.008 115.28 4.00514C115.246 4.00229 115.21 4.00082 115.174 4.00082ZM113.825 4.00082C113.788 4.00082 113.752 4.00229 113.719 4.00514C113.685 4.008 113.654 4.01219 113.629 4.01747C113.603 4.02275 113.583 4.02902 113.569 4.03592C113.555 4.04282 113.548 4.05022 113.548 4.05769C113.548 4.06515 113.555 4.07255 113.569 4.07945C113.583 4.08635 113.603 4.09262 113.629 4.0979C113.654 4.10318 113.685 4.10737 113.719 4.11023C113.752 4.11309 113.788 4.11456 113.825 4.11456C113.861 4.11456 113.897 4.11309 113.931 4.11023C113.965 4.10737 113.995 4.10318 114.021 4.0979C114.047 4.09262 114.067 4.08635 114.081 4.07945C114.095 4.07255 114.102 4.06515 114.102 4.05769C114.102 4.05022 114.095 4.04282 114.081 4.03592C114.067 4.02902 114.047 4.02275 114.021 4.01747C113.995 4.01219 113.965 4.008 113.931 4.00514C113.897 4.00229 113.861 4.00082 113.825 4.00082ZM114.496 4.00082C114.46 4.00082 114.424 4.00229 114.39 4.00514C114.357 4.008 114.326 4.01219 114.3 4.01747C114.274 4.02275 114.254 4.02902 114.24 4.03592C114.226 4.04282 114.219 4.05022 114.219 4.05769C114.219 4.06515 114.226 4.07255 114.24 4.07945C114.254 4.08635 114.274 4.09262 114.3 4.0979C114.326 4.10318 114.357 4.10737 114.39 4.11023C114.424 4.11309 114.46 4.11456 114.496 4.11456C114.533 4.11456 114.569 4.11309 114.602 4.11023C114.636 4.10737 114.667 4.10318 114.692 4.0979C114.718 4.09262 114.738 4.08635 114.752 4.07945C114.766 4.07255 114.774 4.06515 114.774 4.05769C114.774 4.05022 114.766 4.04282 114.752 4.03592C114.738 4.02902 114.718 4.02275 114.692 4.01747C114.667 4.01219 114.636 4.008 114.602 4.00514C114.569 4.00229 114.533 4.00082 114.496 4.00082ZM115.196 3.70504C115.164 3.70504 115.133 3.70651 115.104 3.70937C115.075 3.71223 115.049 3.71642 115.026 3.7217C115.004 3.72698 114.987 3.73325 114.974 3.74015C114.962 3.74705 114.956 3.75445 114.956 3.76191C114.956 3.76938 114.962 3.77678 114.974 3.78368C114.987 3.79058 115.004 3.79685 115.026 3.80213C115.049 3.80741 115.075 3.8116 115.104 3.81446C115.133 3.81731 115.164 3.81878 115.196 3.81878C115.227 3.81878 115.258 3.81731 115.288 3.81446C115.317 3.8116 115.343 3.80741 115.365 3.80213C115.388 3.79685 115.405 3.79058 115.417 3.78368C115.429 3.77678 115.435 3.76938 115.435 3.76191C115.435 3.75445 115.429 3.74705 115.417 3.74015C115.405 3.73325 115.388 3.72698 115.365 3.7217C115.343 3.71642 115.317 3.71223 115.288 3.70937C115.258 3.70651 115.227 3.70504 115.196 3.70504ZM114.647 3.71075C114.584 3.71075 114.523 3.71675 114.478 3.72741C114.433 3.73808 114.408 3.75254 114.408 3.76762C114.408 3.78271 114.433 3.79717 114.478 3.80784C114.523 3.8185 114.584 3.82449 114.647 3.82449C114.711 3.82449 114.772 3.8185 114.817 3.80784C114.862 3.79717 114.887 3.78271 114.887 3.76762C114.887 3.75254 114.862 3.73808 114.817 3.72741C114.772 3.71675 114.711 3.71075 114.647 3.71075ZM113.478 3.71075C113.415 3.71075 113.354 3.71675 113.309 3.72741C113.264 3.73808 113.239 3.75254 113.239 3.76762C113.239 3.78271 113.264 3.79717 113.309 3.80784C113.354 3.8185 113.415 3.82449 113.478 3.82449C113.542 3.82449 113.603 3.8185 113.647 3.80784C113.692 3.79717 113.718 3.78271 113.718 3.76762C113.718 3.75254 113.692 3.73808 113.647 3.72741C113.603 3.71675 113.542 3.71075 113.478 3.71075ZM114.058 3.71075C113.995 3.71075 113.934 3.71675 113.889 3.72741C113.844 3.73808 113.819 3.75254 113.819 3.76762C113.819 3.78271 113.844 3.79717 113.889 3.80784C113.934 3.8185 113.995 3.82449 114.058 3.82449C114.122 3.82449 114.183 3.8185 114.228 3.80784C114.273 3.79717 114.298 3.78271 114.298 3.76762C114.298 3.75254 114.273 3.73808 114.228 3.72741C114.183 3.71675 114.122 3.71075 114.058 3.71075ZM114.682 3.4264C114.654 3.4264 114.627 3.42787 114.601 3.43073C114.576 3.43359 114.552 3.43778 114.533 3.44306C114.513 3.44834 114.498 3.45461 114.487 3.46151C114.476 3.46841 114.471 3.4758 114.471 3.48327C114.471 3.49074 114.476 3.49814 114.487 3.50504C114.498 3.51194 114.513 3.5182 114.533 3.52349C114.552 3.52877 114.576 3.53296 114.601 3.53581C114.627 3.53867 114.654 3.54014 114.682 3.54014C114.71 3.54014 114.737 3.53867 114.763 3.53581C114.789 3.53296 114.812 3.52877 114.832 3.52349C114.851 3.5182 114.867 3.51194 114.877 3.50504C114.888 3.49814 114.893 3.49074 114.893 3.48327C114.893 3.4758 114.888 3.46841 114.877 3.46151C114.867 3.45461 114.851 3.44834 114.832 3.44306C114.812 3.43778 114.789 3.43359 114.763 3.43073C114.737 3.42787 114.71 3.4264 114.682 3.4264ZM114.2 3.43211C114.172 3.43211 114.145 3.43358 114.119 3.43644C114.094 3.4393 114.07 3.44349 114.051 3.44877C114.031 3.45405 114.015 3.46032 114.005 3.46722C113.994 3.47412 113.989 3.48151 113.989 3.48898C113.989 3.49645 113.994 3.50385 114.005 3.51075C114.015 3.51765 114.031 3.52391 114.051 3.5292C114.07 3.53448 114.094 3.53867 114.119 3.54152C114.145 3.54438 114.172 3.54585 114.2 3.54585C114.228 3.54585 114.255 3.54438 114.281 3.54152C114.307 3.53867 114.33 3.53448 114.349 3.5292C114.369 3.52391 114.385 3.51765 114.395 3.51075C114.406 3.50385 114.411 3.49645 114.411 3.48898C114.411 3.48151 114.406 3.47412 114.395 3.46722C114.385 3.46032 114.369 3.45405 114.349 3.44877C114.33 3.44349 114.307 3.4393 114.281 3.43644C114.255 3.43358 114.228 3.43211 114.2 3.43211ZM113.166 3.43211C113.138 3.43211 113.111 3.43358 113.085 3.43644C113.06 3.4393 113.036 3.44349 113.017 3.44877C112.997 3.45405 112.982 3.46032 112.971 3.46722C112.96 3.47412 112.955 3.48151 112.955 3.48898C112.955 3.49645 112.96 3.50385 112.971 3.51075C112.982 3.51765 112.997 3.52391 113.017 3.5292C113.036 3.53448 113.06 3.53867 113.085 3.54152C113.111 3.54438 113.138 3.54585 113.166 3.54585C113.194 3.54585 113.221 3.54438 113.247 3.54152C113.273 3.53867 113.296 3.53448 113.315 3.5292C113.335 3.52391 113.351 3.51765 113.361 3.51075C113.372 3.50385 113.377 3.49645 113.377 3.48898C113.377 3.48151 113.372 3.47412 113.361 3.46722C113.351 3.46032 113.335 3.45405 113.315 3.44877C113.296 3.44349 113.273 3.4393 113.247 3.43644C113.221 3.43358 113.194 3.43211 113.166 3.43211ZM113.68 3.43211C113.652 3.43211 113.625 3.43358 113.599 3.43644C113.574 3.4393 113.55 3.44349 113.531 3.44877C113.511 3.45405 113.495 3.46032 113.485 3.46722C113.474 3.47412 113.469 3.48151 113.469 3.48898C113.469 3.49645 113.474 3.50385 113.485 3.51075C113.495 3.51765 113.511 3.52391 113.531 3.5292C113.55 3.53448 113.574 3.53867 113.599 3.54152C113.625 3.54438 113.652 3.54585 113.68 3.54585C113.708 3.54585 113.735 3.54438 113.761 3.54152C113.786 3.53867 113.81 3.53448 113.829 3.5292C113.849 3.52391 113.865 3.51765 113.875 3.51075C113.886 3.50385 113.891 3.49645 113.891 3.48898C113.891 3.48151 113.886 3.47412 113.875 3.46722C113.865 3.46032 113.849 3.45405 113.829 3.44877C113.81 3.44349 113.786 3.4393 113.761 3.43644C113.735 3.43358 113.708 3.43211 113.68 3.43211ZM113.916 3.18773C113.865 3.18773 113.816 3.19192 113.78 3.19937C113.744 3.20682 113.724 3.21693 113.724 3.22747C113.724 3.23801 113.744 3.24812 113.78 3.25557C113.816 3.26302 113.865 3.26721 113.916 3.26721C113.967 3.26721 114.016 3.26301 114.053 3.25554C114.089 3.24806 114.109 3.23793 114.109 3.22736C114.109 3.21678 114.089 3.20665 114.053 3.19917C114.016 3.1917 113.967 3.1875 113.916 3.1875M113.478 3.18773C113.427 3.18773 113.378 3.19192 113.342 3.19937C113.306 3.20682 113.286 3.21693 113.286 3.22747C113.286 3.23801 113.306 3.24812 113.342 3.25557C113.378 3.26302 113.427 3.26721 113.478 3.26721C113.529 3.26721 113.578 3.26301 113.614 3.25554C113.651 3.24806 113.671 3.23793 113.671 3.22736C113.671 3.21678 113.651 3.20665 113.614 3.19917C113.578 3.1917 113.529 3.1875 113.478 3.1875M113.002 3.18773C112.951 3.18773 112.902 3.19192 112.866 3.19937C112.83 3.20682 112.81 3.21693 112.81 3.22747C112.81 3.23801 112.83 3.24812 112.866 3.25557C112.902 3.26302 112.951 3.26721 113.002 3.26721C113.053 3.26721 113.103 3.26301 113.139 3.25554C113.175 3.24806 113.195 3.23793 113.195 3.22736C113.195 3.21678 113.175 3.20665 113.139 3.19917C113.103 3.1917 113.053 3.1875 113.002 3.1875" fill="white"/>
<path d="M27.9002 36.531C27.3368 36.531 26.8305 36.3993 26.3814 36.1359C25.9322 35.8724 25.5797 35.5123 25.3239 35.0556C25.0681 34.5988 24.9402 34.0856 24.9402 33.5162C24.9402 32.9315 25.0681 32.4107 25.3239 31.9539C25.5797 31.4972 25.9322 31.1371 26.3814 30.8736C26.8305 30.6102 27.3368 30.4785 27.9002 30.4785C28.4194 30.4785 28.896 30.5714 29.33 30.7572C29.7654 30.9444 30.1073 31.1987 30.3554 31.52L29.4008 32.6825C29.3063 32.5577 29.1899 32.4442 29.0513 32.3422C28.9127 32.2402 28.759 32.1595 28.59 32.1001C28.4225 32.0423 28.2474 32.0133 28.0646 32.0133C27.786 32.0133 27.5409 32.0773 27.3292 32.2052C27.1176 32.3331 26.9531 32.5105 26.8359 32.7373C26.7186 32.9642 26.66 33.22 26.66 33.5048C26.66 33.7819 26.7209 34.0323 26.8427 34.2562C26.963 34.4785 27.129 34.6551 27.3406 34.786C27.5523 34.9185 27.7898 34.9848 28.0532 34.9848C28.2435 34.9848 28.4187 34.9589 28.5785 34.9071C28.7399 34.8569 28.8884 34.7838 29.0239 34.6878C29.1594 34.5934 29.285 34.48 29.4008 34.3475L30.3554 35.5101C30.1073 35.8176 29.7601 36.0643 29.314 36.2501C28.8678 36.4373 28.3966 36.531 27.9002 36.531ZM35.805 36.531C35.205 36.531 34.6675 36.4008 34.1925 36.1404C33.7174 35.8816 33.3444 35.5238 33.0734 35.067C32.8038 34.6102 32.6691 34.0932 32.6691 33.5162C32.6691 32.9239 32.8038 32.3993 33.0734 31.9425C33.3444 31.4857 33.7174 31.1272 34.1925 30.8668C34.6675 30.6079 35.205 30.4785 35.805 30.4785C36.411 30.4785 36.95 30.6079 37.422 30.8668C37.8925 31.1272 38.2632 31.4857 38.5343 31.9425C38.8038 32.3993 38.9385 32.9239 38.9385 33.5162C38.9385 34.0932 38.8038 34.6102 38.5343 35.067C38.2632 35.5238 37.8925 35.8816 37.422 36.1404C36.95 36.4008 36.411 36.531 35.805 36.531ZM35.805 35.0167C36.0668 35.0167 36.2983 34.9513 36.4993 34.8203C36.7003 34.6878 36.8594 34.5089 36.9766 34.2836C37.0939 34.0567 37.1487 33.8009 37.1411 33.5162C37.1487 33.2162 37.0939 32.9513 36.9766 32.7214C36.8594 32.4899 36.7003 32.3102 36.4993 32.1823C36.2983 32.0544 36.0668 31.9905 35.805 31.9905C35.5491 31.9905 35.3185 32.0567 35.1129 32.1892C34.9089 32.3201 34.7483 32.4991 34.631 32.7259C34.5138 32.9528 34.4551 33.2162 34.4551 33.5162C34.4551 33.8009 34.5138 34.0567 34.631 34.2836C34.7483 34.5089 34.9089 34.6878 35.1129 34.8203C35.3185 34.9513 35.5491 35.0167 35.805 35.0167ZM43.6115 36.4214H41.8369V30.5996H43.5133L43.5681 31.6525L43.326 31.673C43.4067 31.4827 43.5163 31.3144 43.6549 31.1683C43.795 31.0221 43.9503 30.9003 44.1208 30.8028C44.2929 30.7039 44.4741 30.627 44.6644 30.5722C44.8547 30.5173 45.0451 30.4899 45.2354 30.4899C45.5277 30.4899 45.7889 30.5333 46.0188 30.6201C46.2487 30.7084 46.4497 30.8516 46.6218 31.0495C46.7938 31.2459 46.9309 31.5086 47.0329 31.8375L46.7702 31.7941L46.8456 31.641C46.9476 31.4659 47.074 31.3068 47.2247 31.1637C47.3739 31.0206 47.5399 30.898 47.7226 30.796C47.9053 30.694 48.0934 30.6171 48.2868 30.5653C48.4817 30.5151 48.6705 30.4899 48.8532 30.4899C49.313 30.4899 49.6967 30.5813 50.0043 30.764C50.3103 30.9467 50.5403 31.2155 50.694 31.5702C50.8478 31.9235 50.9247 32.3597 50.9247 32.8789V36.4214H49.1592V33.0114C49.1592 32.6673 49.0877 32.4092 48.9445 32.2372C48.8029 32.0666 48.5898 31.9814 48.305 31.9814C48.1512 31.9814 48.0104 32.005 47.8825 32.0522C47.7546 32.0994 47.645 32.1686 47.5536 32.26C47.4622 32.3514 47.3907 32.4557 47.3389 32.5729C47.2887 32.6901 47.2636 32.8218 47.2636 32.968V36.4214H45.498V33C45.498 32.6711 45.4227 32.4191 45.2719 32.244C45.1227 32.0689 44.9126 31.9814 44.6416 31.9814C44.4954 31.9814 44.3584 32.005 44.2305 32.0522C44.1026 32.0994 43.9929 32.1686 43.9016 32.26C43.8102 32.3514 43.7394 32.4557 43.6892 32.5729C43.6374 32.6901 43.6115 32.8218 43.6115 32.968V36.4214ZM55.922 38.8355H54.1451V30.6018H55.8215L55.8992 31.8831L55.5589 31.7849C55.603 31.552 55.7256 31.338 55.9266 31.1431C56.1276 30.9498 56.378 30.7929 56.678 30.6726C56.978 30.5524 57.2954 30.4922 57.6304 30.4922C58.1283 30.4922 58.5706 30.6201 58.9574 30.8759C59.3456 31.1317 59.6509 31.488 59.8732 31.9448C60.0956 32.4016 60.2067 32.9262 60.2067 33.5185C60.2067 34.0955 60.0956 34.6102 59.8732 35.0624C59.6509 35.5162 59.3441 35.8725 58.9528 36.1313C58.5615 36.3917 58.1177 36.5219 57.6213 36.5219C57.2848 36.5219 56.9665 36.4579 56.6666 36.33C56.3666 36.2021 56.1146 36.0354 55.9106 35.8298C55.705 35.6258 55.5733 35.4035 55.5155 35.1629L55.922 34.9985V38.8355ZM57.1919 35.0304C57.4553 35.0304 57.6837 34.968 57.8771 34.8431C58.072 34.7198 58.222 34.5432 58.327 34.3133C58.4336 34.0818 58.4869 33.8169 58.4869 33.5185C58.4869 33.2109 58.4336 32.9421 58.327 32.7122C58.222 32.4823 58.072 32.3034 57.8771 32.1755C57.6837 32.0476 57.4553 31.9836 57.1919 31.9836C56.9224 31.9836 56.6887 32.0476 56.4907 32.1755C56.2943 32.3034 56.1413 32.48 56.0316 32.7054C55.922 32.9322 55.8672 33.2033 55.8672 33.5185C55.8672 33.8169 55.922 34.0818 56.0316 34.3133C56.1413 34.5432 56.2943 34.7198 56.4907 34.8431C56.6887 34.968 56.9224 35.0304 57.1919 35.0304ZM67.9151 36.4214H66.2158V32.847C66.2158 32.547 66.1336 32.3255 65.9691 32.1823C65.8047 32.0407 65.5763 31.9699 65.2839 31.9699C64.9992 31.9699 64.7449 32.0225 64.5211 32.1275C64.2988 32.2341 64.0849 32.4077 63.8793 32.6483L62.8287 31.6296C63.1789 31.2718 63.5809 30.9901 64.0346 30.7846C64.4868 30.5805 64.9802 30.4785 65.5146 30.4785C66.0034 30.4785 66.4267 30.5516 66.7845 30.6978C67.1438 30.8439 67.4217 31.067 67.6181 31.367C67.8161 31.6669 67.9151 32.0468 67.9151 32.5067V36.4214ZM64.7015 36.531C64.3361 36.531 64.0057 36.4579 63.7103 36.3117C63.4149 36.1656 63.1812 35.9623 63.0091 35.7019C62.8371 35.4431 62.751 35.1378 62.751 34.786C62.751 34.4876 62.8058 34.225 62.9155 33.9981C63.0251 33.7712 63.188 33.5832 63.4042 33.4339C63.6189 33.2832 63.8892 33.1698 64.215 33.0936C64.5394 33.016 64.9177 32.9772 65.3502 32.9772H67.1134L67.0152 34.0849H65.3936C65.2398 34.0849 65.1043 34.0978 64.987 34.1237C64.8698 34.1496 64.7716 34.1899 64.6924 34.2448C64.6117 34.2996 64.5508 34.3635 64.5097 34.4366C64.4701 34.5097 64.4503 34.5972 64.4503 34.6993C64.4503 34.8089 64.4792 34.9041 64.5371 34.9848C64.5965 35.0655 64.6756 35.1271 64.7746 35.1698C64.8721 35.2139 64.987 35.236 65.1195 35.236C65.3098 35.236 65.4903 35.2048 65.6608 35.1423C65.8328 35.0814 65.9866 34.9924 66.1221 34.8751C66.2577 34.7579 66.3658 34.6224 66.4465 34.4686L66.7525 35.2588C66.5987 35.507 66.4145 35.7263 66.1998 35.9166C65.9836 36.1069 65.7491 36.2569 65.4963 36.3665C65.2451 36.4762 64.9802 36.531 64.7015 36.531ZM71.0737 36.4214V30.5996H72.7525L72.8164 31.7827L72.4555 31.9151C72.5362 31.6517 72.6809 31.4119 72.8895 31.1957C73.0966 30.981 73.3463 30.8074 73.6386 30.6749C73.931 30.544 74.2385 30.4785 74.5613 30.4785C74.9999 30.4785 75.3683 30.5683 75.6668 30.748C75.9667 30.9262 76.1921 31.1926 76.3428 31.5474C76.4921 31.9022 76.5667 32.3392 76.5667 32.8584V36.4214H74.8012V32.9886C74.8012 32.7556 74.7684 32.5622 74.7029 32.4085C74.6375 32.2547 74.5385 32.1412 74.4061 32.0681C74.2751 31.9951 74.1107 31.9623 73.9127 31.9699C73.7604 31.9699 73.6181 31.9935 73.4856 32.0407C73.3547 32.0879 73.2397 32.1572 73.1407 32.2486C73.0418 32.3399 72.9672 32.4442 72.9169 32.5615C72.8651 32.6787 72.8392 32.8104 72.8392 32.9566V36.4214H71.0737ZM82.3085 38.9428H80.543L81.87 35.8275L81.8928 36.7502L79.0744 30.5996H81.0706L82.2971 33.5367C82.3641 33.6753 82.4265 33.8329 82.4844 34.0095C82.5423 34.1846 82.5864 34.3491 82.6169 34.5028L82.3633 34.6444C82.4075 34.5348 82.457 34.3963 82.5118 34.2288C82.5666 34.0598 82.6267 33.8801 82.6922 33.6898L83.768 30.5996H85.7733L83.3066 36.4214L82.3085 38.9428Z" fill="white"/>
</svg>
