<svg width="123" height="28" viewBox="0 0 123 28" fill="none" xmlns="http://www.w3.org/2000/svg">
<path d="M5.5449 27.0991H1.64307V8.48908H5.32643L5.49728 11.3876L4.74942 11.1658C4.84652 10.6375 5.11541 10.1544 5.55611 9.7165C5.99867 9.27855 6.54862 8.92319 7.20593 8.65043C7.8651 8.37768 8.56349 8.2413 9.3011 8.2413C10.3935 8.2413 11.3654 8.53038 12.217 9.10855C13.0685 9.68672 13.7389 10.4925 14.2281 11.5259C14.7174 12.5574 14.962 13.7426 14.962 15.0814C14.962 16.3856 14.7174 17.5497 14.2281 18.5735C13.7389 19.5973 13.0647 20.4031 12.2058 20.9908C11.3468 21.5767 10.3711 21.8696 9.27869 21.8696C8.53921 21.8696 7.84082 21.7256 7.18352 21.4374C6.52434 21.1474 5.96973 20.7709 5.51969 20.308C5.06966 19.8451 4.78116 19.3418 4.65418 18.7982L5.5449 18.4265V27.0991ZM8.33753 18.4986C8.91641 18.4986 9.41873 18.3583 9.84449 18.0779C10.2702 17.7974 10.5989 17.397 10.8305 16.8764C11.0639 16.3559 11.1806 15.7575 11.1806 15.0814C11.1806 14.386 11.0639 13.7791 10.8305 13.2604C10.5989 12.7399 10.2702 12.3346 9.84449 12.0445C9.41873 11.7564 8.91641 11.6124 8.33753 11.6124C7.74371 11.6124 7.2302 11.7564 6.79697 12.0445C6.36375 12.3346 6.02669 12.7351 5.7858 13.246C5.54491 13.7589 5.42447 14.3707 5.42447 15.0814C5.42447 15.7575 5.54491 16.3559 5.7858 16.8764C6.02669 17.397 6.36375 17.7974 6.79697 18.0779C7.2302 18.3583 7.74371 18.4986 8.33753 18.4986ZM27.3201 21.6449H23.5864V13.5658C23.5864 12.8878 23.4061 12.3884 23.0457 12.0676C22.6835 11.7449 22.1812 11.5835 21.5388 11.5835C20.9132 11.5835 20.3549 11.7036 19.8638 11.9437C19.3745 12.1819 18.9049 12.5737 18.4549 13.1193L16.144 10.8143C16.9152 10.0056 17.7985 9.36979 18.7938 8.90687C19.7891 8.44394 20.8731 8.21248 22.0458 8.21248C23.1214 8.21248 24.0522 8.37768 24.8384 8.70806C25.6264 9.03844 26.2371 9.54266 26.6703 10.2207C27.1035 10.8988 27.3201 11.7574 27.3201 12.7966V21.6449ZM20.2615 21.8927C19.4586 21.8927 18.7322 21.7275 18.0823 21.3971C17.4325 21.0667 16.919 20.6076 16.5418 20.0199C16.1646 19.434 15.976 18.7444 15.976 17.9511C15.976 17.275 16.0964 16.6805 16.3373 16.1676C16.5782 15.6548 16.9348 15.2293 17.4073 14.8912C17.8816 14.5532 18.4763 14.2977 19.1915 14.1248C19.9049 13.95 20.7358 13.8626 21.6844 13.8626H25.5611L25.3454 16.3664H21.7797C21.4436 16.3664 21.1466 16.3952 20.8889 16.4529C20.6313 16.5105 20.4146 16.6017 20.2391 16.7266C20.0617 16.8495 19.9291 16.9936 19.8414 17.1588C19.7536 17.324 19.7097 17.5218 19.7097 17.7523C19.7097 18.0001 19.7732 18.2152 19.9002 18.3977C20.029 18.5802 20.2018 18.7204 20.4184 18.8184C20.635 18.9183 20.888 18.9682 21.1775 18.9682C21.5958 18.9682 21.9935 18.8981 22.3707 18.7579C22.7479 18.6176 23.085 18.415 23.3819 18.1499C23.6788 17.8848 23.9159 17.5794 24.0933 17.2337L24.7684 19.0172C24.4304 19.5781 24.0242 20.0736 23.5499 20.5039C23.0775 20.9342 22.564 21.2732 22.0094 21.521C21.4548 21.7688 20.8721 21.8927 20.2615 21.8927ZM34.6196 21.6478H30.7402V5.16988H34.6196V21.6478ZM37.0761 11.984H28.4769V8.48908H37.0761V11.984ZM38.5691 21.6449V3.30859H42.4009V11.1629L41.6054 11.4597C41.7828 10.8642 42.1002 10.3235 42.5577 9.83751C43.0152 9.34962 43.5652 8.95681 44.2075 8.65908C44.8499 8.36135 45.524 8.21248 46.2299 8.21248C47.1934 8.21248 48.0048 8.41513 48.664 8.82043C49.3213 9.22572 49.8152 9.82887 50.1457 10.6299C50.4744 11.4308 50.6387 12.4182 50.6387 13.5918V21.6449H46.7593V13.8885C46.7593 13.3603 46.6874 12.9224 46.5436 12.5747C46.3998 12.227 46.1832 11.9706 45.8938 11.8054C45.6043 11.6402 45.243 11.5663 44.8098 11.5835C44.4718 11.5835 44.1581 11.6373 43.8686 11.7449C43.581 11.8525 43.328 12.009 43.1095 12.2145C42.8929 12.422 42.7286 12.6573 42.6165 12.9204C42.5045 13.1855 42.4485 13.4833 42.4485 13.8136V21.6449H38.5691ZM58.8289 21.6449H55.9635L51.7703 8.4862H55.843L58.2015 16.9859L57.6721 16.8851L60.3219 10.2956H62.5879L65.4057 16.911L64.8259 16.96L67.1872 8.4862H71.2599L66.8987 21.6449H64.0557L61.263 14.606L61.5739 14.655L58.8289 21.6449ZM83.0858 21.6449H79.3521V13.5658C79.3521 12.8878 79.1719 12.3884 78.8115 12.0676C78.4492 11.7449 77.9469 11.5835 77.3045 11.5835C76.679 11.5835 76.1206 11.7036 75.6295 11.9437C75.1403 12.1819 74.6706 12.5737 74.2206 13.1193L71.9097 10.8143C72.6809 10.0056 73.5642 9.36979 74.5595 8.90687C75.5548 8.44394 76.6388 8.21248 77.8115 8.21248C78.8871 8.21248 79.818 8.37768 80.6041 8.70806C81.3922 9.03844 82.0028 9.54266 82.436 10.2207C82.8692 10.8988 83.0858 11.7574 83.0858 12.7966V21.6449ZM76.0273 21.8927C75.2243 21.8927 74.4979 21.7275 73.8481 21.3971C73.1982 21.0667 72.6847 20.6076 72.3075 20.0199C71.9303 19.434 71.7417 18.7444 71.7417 17.9511C71.7417 17.275 71.8621 16.6805 72.103 16.1676C72.3439 15.6548 72.7006 15.2293 73.173 14.8912C73.6473 14.5532 74.2421 14.2977 74.9573 14.1248C75.6706 13.95 76.5015 13.8626 77.4502 13.8626H81.3268L81.1111 16.3664H77.5454C77.2093 16.3664 76.9124 16.3952 76.6547 16.4529C76.397 16.5105 76.1804 16.6017 76.0048 16.7266C75.8275 16.8495 75.6949 16.9936 75.6071 17.1588C75.5193 17.324 75.4754 17.5218 75.4754 17.7523C75.4754 18.0001 75.5389 18.2152 75.6659 18.3977C75.7948 18.5802 75.9675 18.7204 76.1841 18.8184C76.4007 18.9183 76.6538 18.9682 76.9432 18.9682C77.3615 18.9682 77.7592 18.8981 78.1364 18.7579C78.5136 18.6176 78.8507 18.415 79.1476 18.1499C79.4445 17.8848 79.6817 17.5794 79.8591 17.2337L80.5341 19.0172C80.1961 19.5781 79.79 20.0736 79.3157 20.5039C78.8432 20.9342 78.3297 21.2732 77.7751 21.521C77.2205 21.7688 76.6379 21.8927 76.0273 21.8927ZM90.9623 27.3469H87.0857L89.9988 20.308L90.0492 22.3911L83.8561 8.48908H88.2426L90.9399 15.1304C91.0837 15.4435 91.22 15.7988 91.3489 16.1964C91.4777 16.5921 91.5739 16.9638 91.6374 17.3115L91.0828 17.6313C91.1799 17.3835 91.2882 17.0704 91.4077 16.692C91.5291 16.3117 91.6617 15.9064 91.8054 15.4761L94.1667 8.48908H98.5755L93.1556 21.6478L90.9623 27.3469Z" fill="white"/>
<path d="M120.791 21.737C120.205 21.737 119.643 21.8874 119.229 22.1551C118.815 22.4227 118.582 22.7858 118.582 23.1643C118.582 23.5429 118.815 23.9059 119.229 24.1736C119.643 24.4413 120.205 24.5917 120.791 24.5917C121.377 24.5917 121.939 24.4413 122.353 24.1736C122.767 23.9059 123 23.5429 123 23.1643C123 22.7858 122.767 22.4227 122.353 22.1551C121.939 21.8874 121.377 21.737 120.791 21.737ZM99.8654 21.9252C99.573 21.9228 99.2828 21.958 99.0116 22.0287C98.7404 22.0993 98.4937 22.2041 98.2857 22.3369C98.0776 22.4696 97.9124 22.6277 97.7997 22.8021C97.6869 22.9764 97.6289 23.1635 97.6289 23.3524C97.6289 23.5413 97.6869 23.7284 97.7997 23.9027C97.9124 24.077 98.0776 24.2352 98.2857 24.3679C98.4937 24.5007 98.7404 24.6054 99.0116 24.6761C99.2828 24.7468 99.573 24.782 99.8654 24.7796C100.451 24.7796 101.013 24.6292 101.427 24.3616C101.842 24.0939 102.074 23.7308 102.074 23.3523C102.074 22.9737 101.842 22.6107 101.427 22.343C101.013 22.0753 100.451 21.9252 99.8654 21.9252ZM115.777 21.831C115.487 21.831 115.2 21.8679 114.932 21.9396C114.664 22.0114 114.42 22.1165 114.215 22.249C114.01 22.3816 113.847 22.5389 113.736 22.7121C113.625 22.8853 113.568 23.0709 113.568 23.2583C113.568 23.4457 113.625 23.6314 113.736 23.8045C113.847 23.9777 114.01 24.135 114.215 24.2676C114.42 24.4001 114.664 24.5053 114.932 24.577C115.2 24.6487 115.487 24.6856 115.777 24.6856C116.067 24.6856 116.354 24.6487 116.622 24.577C116.89 24.5053 117.134 24.4001 117.339 24.2676C117.544 24.135 117.707 23.9777 117.818 23.8045C117.929 23.6314 117.986 23.4457 117.986 23.2583C117.986 23.0709 117.929 22.8853 117.818 22.7121C117.707 22.5389 117.544 22.3816 117.339 22.249C117.134 22.1165 116.89 22.0114 116.622 21.9396C116.354 21.8679 116.067 21.831 115.777 21.831ZM105.017 21.831C104.727 21.831 104.44 21.8679 104.172 21.9396C103.904 22.0114 103.66 22.1165 103.455 22.249C103.25 22.3816 103.088 22.5389 102.977 22.7121C102.866 22.8853 102.808 23.0709 102.808 23.2583C102.808 23.4457 102.866 23.6314 102.977 23.8045C103.088 23.9777 103.25 24.135 103.455 24.2676C103.66 24.4001 103.904 24.5053 104.172 24.577C104.44 24.6487 104.727 24.6856 105.017 24.6856C105.307 24.6856 105.595 24.6487 105.863 24.577C106.131 24.5053 106.374 24.4001 106.579 24.2676C106.784 24.135 106.947 23.9777 107.058 23.8045C107.169 23.6314 107.226 23.4457 107.226 23.2583C107.226 23.0709 107.169 22.8853 107.058 22.7121C106.947 22.5389 106.784 22.3816 106.579 22.249C106.374 22.1165 106.131 22.0114 105.863 21.9396C105.595 21.8679 105.307 21.831 105.017 21.831ZM110.352 21.831C110.062 21.831 109.775 21.8679 109.507 21.9396C109.239 22.0114 108.995 22.1165 108.79 22.249C108.585 22.3816 108.422 22.5389 108.311 22.7121C108.2 22.8853 108.143 23.0709 108.143 23.2583C108.143 23.4457 108.2 23.6314 108.311 23.8045C108.422 23.9777 108.585 24.135 108.79 24.2676C108.995 24.4001 109.239 24.5053 109.507 24.577C109.775 24.6487 110.062 24.6856 110.352 24.6856C110.642 24.6856 110.93 24.6487 111.198 24.577C111.466 24.5053 111.709 24.4001 111.914 24.2676C112.119 24.135 112.282 23.9777 112.393 23.8045C112.504 23.6314 112.561 23.4457 112.561 23.2583C112.561 23.0709 112.504 22.8853 112.393 22.7121C112.282 22.5389 112.119 22.3816 111.914 22.249C111.709 22.1165 111.466 22.0114 111.198 21.9396C110.93 21.8679 110.642 21.831 110.352 21.831ZM120.063 17.9253C119.554 17.9253 119.066 18.0606 118.706 18.3013C118.346 18.542 118.144 18.8684 118.144 19.2088C118.144 19.5492 118.346 19.8757 118.706 20.1164C119.066 20.3571 119.554 20.4923 120.063 20.4923C120.571 20.4923 121.059 20.3571 121.419 20.1164C121.779 19.8757 121.981 19.5493 121.981 19.2089C121.981 18.8686 121.779 18.5421 121.419 18.3014C121.059 18.0608 120.571 17.9253 120.063 17.9253ZM101.876 18.0969C101.624 18.0969 101.375 18.1301 101.142 18.1946C100.909 18.2591 100.698 18.3536 100.52 18.4728C100.342 18.592 100.2 18.7335 100.104 18.8892C100.008 19.0449 99.9579 19.2118 99.9579 19.3804C99.9579 19.5489 100.008 19.7158 100.104 19.8715C100.2 20.0273 100.342 20.1687 100.52 20.2879C100.698 20.4071 100.909 20.5017 101.142 20.5662C101.375 20.6307 101.624 20.6639 101.876 20.6639C102.128 20.6639 102.378 20.6307 102.61 20.5662C102.843 20.5017 103.055 20.4071 103.233 20.2879C103.411 20.1687 103.552 20.0273 103.649 19.8715C103.745 19.7158 103.795 19.5489 103.795 19.3804C103.795 19.2118 103.745 19.0449 103.649 18.8892C103.552 18.7335 103.411 18.592 103.233 18.4728C103.055 18.3536 102.843 18.2591 102.61 18.1946C102.378 18.1301 102.128 18.0969 101.876 18.0969ZM115.705 18.014C115.196 18.014 114.708 18.1492 114.349 18.3899C113.989 18.6306 113.787 18.957 113.787 19.2974C113.787 19.6377 113.989 19.9642 114.349 20.2048C114.708 20.4455 115.196 20.5807 115.705 20.5807C116.214 20.5807 116.702 20.4455 117.061 20.2048C117.421 19.9642 117.623 19.6377 117.623 19.2974C117.623 18.957 117.421 18.6306 117.061 18.3899C116.702 18.1492 116.214 18.014 115.705 18.014ZM106.351 18.014C105.842 18.014 105.354 18.1492 104.995 18.3899C104.635 18.6306 104.433 18.957 104.433 19.2974C104.433 19.6377 104.635 19.9642 104.995 20.2048C105.354 20.4455 105.842 20.5807 106.351 20.5807C106.86 20.5807 107.348 20.4455 107.707 20.2048C108.067 19.9642 108.269 19.6377 108.269 19.2974C108.269 18.957 108.067 18.6306 107.707 18.3899C107.348 18.1492 106.86 18.014 106.351 18.014ZM110.99 18.014C110.482 18.014 109.994 18.1492 109.634 18.3899C109.274 18.6306 109.072 18.957 109.072 19.2974C109.072 19.6377 109.274 19.9642 109.634 20.2048C109.994 20.4455 110.482 20.5807 110.99 20.5807C111.499 20.5807 111.987 20.4455 112.347 20.2048C112.707 19.9642 112.909 19.6377 112.909 19.2974C112.909 18.957 112.707 18.6306 112.347 18.3899C111.987 18.1492 111.499 18.014 110.99 18.014ZM119.158 15.2092C118.726 15.2092 118.312 15.2984 118.007 15.4571C117.702 15.6158 117.53 15.8311 117.53 16.0556C117.53 16.2801 117.702 16.4954 118.007 16.6541C118.312 16.8129 118.726 16.902 119.158 16.902C119.589 16.902 120.003 16.8129 120.308 16.6541C120.614 16.4954 120.785 16.2801 120.785 16.0556C120.785 15.8311 120.614 15.6158 120.308 15.4571C120.003 15.2984 119.589 15.2092 119.158 15.2092ZM103.731 15.3256C103.516 15.3237 103.301 15.3443 103.101 15.386C102.9 15.4277 102.718 15.4898 102.564 15.5685C102.41 15.6473 102.288 15.7412 102.204 15.8448C102.121 15.9484 102.078 16.0596 102.078 16.1719C102.078 16.2842 102.121 16.3954 102.204 16.4989C102.288 16.6025 102.41 16.6964 102.564 16.7752C102.718 16.854 102.9 16.916 103.101 16.9577C103.301 16.9995 103.516 17.02 103.731 17.0182C104.163 17.0182 104.577 16.929 104.882 16.7703C105.187 16.6115 105.359 16.3962 105.359 16.1718C105.359 15.9473 105.187 15.732 104.882 15.5732C104.577 15.4145 104.163 15.3256 103.731 15.3256ZM115.462 15.2646C115.031 15.2646 114.617 15.3538 114.311 15.5125C114.006 15.6713 113.835 15.8865 113.835 16.111C113.835 16.3355 114.006 16.5508 114.311 16.7095C114.617 16.8683 115.031 16.9575 115.462 16.9575C115.894 16.9575 116.308 16.8683 116.613 16.7095C116.918 16.5508 117.09 16.3355 117.09 16.111C117.09 15.8865 116.918 15.6713 116.613 15.5125C116.308 15.3538 115.894 15.2646 115.462 15.2646ZM107.529 15.2646C107.097 15.2646 106.683 15.3538 106.378 15.5125C106.073 15.6713 105.902 15.8865 105.902 16.111C105.902 16.3355 106.073 16.5508 106.378 16.7095C106.683 16.8683 107.097 16.9575 107.529 16.9575C107.961 16.9575 108.375 16.8683 108.68 16.7095C108.985 16.5508 109.156 16.3355 109.156 16.111C109.156 15.8865 108.985 15.6713 108.68 15.5125C108.375 15.3538 107.961 15.2646 107.529 15.2646ZM111.461 15.2646C111.029 15.2646 110.615 15.3538 110.31 15.5125C110.005 15.6713 109.834 15.8865 109.834 16.111C109.834 16.3355 110.005 16.5508 110.31 16.7095C110.615 16.8683 111.029 16.9575 111.461 16.9575C111.893 16.9575 112.307 16.8683 112.612 16.7095C112.917 16.5508 113.088 16.3355 113.088 16.111C113.088 15.8865 112.917 15.6713 112.612 15.5125C112.307 15.3538 111.893 15.2646 111.461 15.2646ZM118.585 13.1901C118.209 13.1901 117.849 13.2577 117.583 13.378C117.317 13.4984 117.168 13.6616 117.168 13.8317C117.168 14.0019 117.317 14.1651 117.583 14.2854C117.849 14.4058 118.209 14.4734 118.585 14.4734C118.961 14.4734 119.322 14.4058 119.588 14.2854C119.854 14.1651 120.003 14.0019 120.003 13.8317C120.003 13.6616 119.854 13.4984 119.588 13.378C119.322 13.2577 118.961 13.1901 118.585 13.1901ZM105.146 13.2732C104.77 13.2732 104.41 13.3408 104.144 13.4612C103.878 13.5815 103.728 13.7447 103.728 13.9149C103.728 14.085 103.878 14.2482 104.144 14.3686C104.41 14.4889 104.77 14.5565 105.146 14.5565C105.522 14.5565 105.883 14.4889 106.149 14.3686C106.415 14.2482 106.564 14.085 106.564 13.9149C106.564 13.7447 106.415 13.5815 106.149 13.4612C105.883 13.3408 105.522 13.2732 105.146 13.2732ZM115.366 13.2289C114.99 13.2289 114.63 13.2965 114.364 13.4168C114.098 13.5372 113.949 13.7004 113.949 13.8705C113.949 14.0407 114.098 14.2039 114.364 14.3242C114.63 14.4446 114.99 14.5122 115.366 14.5122C115.742 14.5122 116.103 14.4446 116.369 14.3242C116.635 14.2039 116.784 14.0407 116.784 13.8705C116.784 13.7004 116.635 13.5372 116.369 13.4168C116.103 13.2965 115.742 13.2289 115.366 13.2289ZM108.455 13.2289C108.079 13.2289 107.718 13.2965 107.453 13.4168C107.187 13.5372 107.037 13.7004 107.037 13.8705C107.037 14.0407 107.187 14.2039 107.453 14.3242C107.718 14.4446 108.079 14.5122 108.455 14.5122C108.831 14.5122 109.192 14.4446 109.458 14.3242C109.723 14.2039 109.873 14.0407 109.873 13.8705C109.873 13.7004 109.723 13.5372 109.458 13.4168C109.192 13.2965 108.831 13.2289 108.455 13.2289ZM111.881 13.2289C111.505 13.2289 111.144 13.2965 110.878 13.4168C110.612 13.5372 110.463 13.7004 110.463 13.8705C110.463 14.0407 110.612 14.2039 110.878 14.3242C111.144 14.4446 111.505 14.5122 111.881 14.5122C112.257 14.5122 112.617 14.4446 112.883 14.3242C113.149 14.2039 113.298 14.0407 113.298 13.8705C113.298 13.7004 113.149 13.5372 112.883 13.4168C112.617 13.2965 112.257 13.2289 111.881 13.2289ZM117.827 11.2373C117.517 11.2373 117.22 11.3049 117.001 11.4252C116.781 11.5455 116.658 11.7087 116.658 11.8789C116.658 12.0491 116.781 12.2123 117.001 12.3326C117.22 12.4529 117.517 12.5206 117.827 12.5206C118.137 12.5206 118.434 12.4529 118.654 12.3326C118.873 12.2123 118.996 12.0491 118.996 11.8789C118.996 11.7087 118.873 11.5455 118.654 11.4252C118.434 11.3049 118.137 11.2373 117.827 11.2373ZM106.738 11.3202C106.428 11.3202 106.13 11.3878 105.911 11.5081C105.692 11.6285 105.568 11.7917 105.568 11.9619C105.568 12.1321 105.692 12.2954 105.911 12.4157C106.13 12.5361 106.428 12.6037 106.738 12.6037C107.048 12.6037 107.345 12.5361 107.564 12.4157C107.783 12.2954 107.906 12.1322 107.906 11.962C107.906 11.7919 107.783 11.6287 107.564 11.5083C107.345 11.388 107.048 11.3202 106.738 11.3202ZM115.171 11.2816C114.861 11.2816 114.564 11.3492 114.345 11.4695C114.126 11.5899 114.003 11.7531 114.003 11.9232C114.003 12.0934 114.126 12.2566 114.345 12.3769C114.564 12.4973 114.861 12.5649 115.171 12.5649C115.481 12.5649 115.779 12.4973 115.998 12.3769C116.217 12.2566 116.34 12.0934 116.34 11.9232C116.34 11.7531 116.217 11.5899 115.998 11.4695C115.779 11.3492 115.481 11.2816 115.171 11.2816ZM109.468 11.2816C109.158 11.2816 108.861 11.3492 108.641 11.4695C108.422 11.5899 108.299 11.7531 108.299 11.9232C108.299 12.0934 108.422 12.2566 108.641 12.3769C108.861 12.4973 109.158 12.5649 109.468 12.5649C109.778 12.5649 110.075 12.4973 110.294 12.3769C110.514 12.2566 110.637 12.0934 110.637 11.9232C110.637 11.7531 110.514 11.5899 110.294 11.4695C110.075 11.3492 109.778 11.2816 109.468 11.2816ZM112.294 11.2816C111.984 11.2816 111.687 11.3492 111.468 11.4695C111.248 11.5899 111.125 11.7531 111.125 11.9232C111.125 12.0934 111.248 12.2566 111.468 12.3769C111.687 12.4973 111.984 12.5649 112.294 12.5649C112.604 12.5649 112.902 12.4973 113.121 12.3769C113.34 12.2566 113.463 12.0934 113.463 11.9232C113.463 11.7531 113.34 11.5899 113.121 11.4695C112.902 11.3492 112.604 11.2816 112.294 11.2816ZM117.075 9.57214C116.941 9.57078 116.808 9.58194 116.684 9.60496C116.559 9.62798 116.446 9.6624 116.351 9.70619C116.255 9.74999 116.179 9.80228 116.127 9.86001C116.076 9.91773 116.049 9.97972 116.049 10.0423C116.049 10.105 116.076 10.167 116.127 10.2247C116.179 10.2824 116.255 10.3347 116.351 10.3785C116.446 10.4223 116.559 10.4567 116.684 10.4797C116.808 10.5027 116.941 10.5139 117.075 10.5125C117.208 10.5139 117.341 10.5027 117.466 10.4797C117.59 10.4567 117.703 10.4223 117.799 10.3785C117.894 10.3347 117.97 10.2824 118.022 10.2247C118.074 10.167 118.101 10.105 118.101 10.0423C118.101 9.97972 118.074 9.91773 118.022 9.86001C117.97 9.80228 117.894 9.74999 117.799 9.70619C117.703 9.6624 117.59 9.62798 117.466 9.60496C117.341 9.58194 117.208 9.57078 117.075 9.57214ZM107.574 9.63309C107.44 9.63173 107.307 9.64289 107.183 9.66591C107.059 9.68893 106.945 9.72335 106.85 9.76714C106.754 9.81094 106.678 9.86323 106.626 9.92096C106.575 9.97868 106.548 10.0407 106.548 10.1033C106.548 10.1659 106.575 10.2279 106.626 10.2856C106.678 10.3433 106.754 10.3956 106.85 10.4394C106.945 10.4832 107.059 10.5177 107.183 10.5407C107.307 10.5637 107.44 10.5748 107.574 10.5735C107.707 10.5748 107.84 10.5637 107.965 10.5407C108.089 10.5177 108.202 10.4832 108.298 10.4394C108.393 10.3956 108.469 10.3433 108.521 10.2856C108.573 10.2279 108.6 10.1659 108.6 10.1033C108.6 10.0407 108.573 9.97868 108.521 9.92096C108.469 9.86323 108.393 9.81094 108.298 9.76714C108.202 9.72335 108.089 9.68893 107.965 9.66591C107.84 9.64289 107.707 9.63173 107.574 9.63309ZM114.8 9.59985C114.666 9.59849 114.533 9.60965 114.409 9.63266C114.285 9.65568 114.171 9.6901 114.076 9.7339C113.98 9.77769 113.904 9.82999 113.852 9.88771C113.801 9.94543 113.774 10.0074 113.774 10.07C113.774 10.1327 113.801 10.1947 113.852 10.2524C113.904 10.3101 113.98 10.3624 114.076 10.4062C114.171 10.45 114.285 10.4844 114.409 10.5074C114.533 10.5304 114.666 10.5416 114.8 10.5402C114.933 10.5416 115.066 10.5304 115.191 10.5074C115.315 10.4844 115.428 10.45 115.524 10.4062C115.619 10.3624 115.695 10.3101 115.747 10.2524C115.799 10.1947 115.826 10.1327 115.826 10.07C115.826 10.0074 115.799 9.94543 115.747 9.88771C115.695 9.82999 115.619 9.77769 115.524 9.7339C115.428 9.6901 115.315 9.65568 115.191 9.63266C115.066 9.60965 114.933 9.59849 114.8 9.59985ZM109.912 9.59985C109.778 9.59849 109.645 9.60965 109.521 9.63266C109.396 9.65568 109.283 9.6901 109.188 9.7339C109.092 9.77769 109.016 9.82999 108.964 9.88771C108.912 9.94543 108.886 10.0074 108.886 10.07C108.886 10.1327 108.912 10.1947 108.964 10.2524C109.016 10.3101 109.092 10.3624 109.188 10.4062C109.283 10.45 109.396 10.4844 109.521 10.5074C109.645 10.5304 109.778 10.5416 109.912 10.5402C110.045 10.5416 110.178 10.5304 110.302 10.5074C110.427 10.4844 110.54 10.45 110.636 10.4062C110.731 10.3624 110.807 10.3101 110.859 10.2524C110.911 10.1947 110.937 10.1327 110.937 10.07C110.937 10.0074 110.911 9.94543 110.859 9.88771C110.807 9.82999 110.731 9.77769 110.636 9.7339C110.54 9.6901 110.427 9.65568 110.302 9.63266C110.178 9.60965 110.045 9.59849 109.912 9.59985ZM112.336 9.59985C112.203 9.59849 112.07 9.60965 111.945 9.63266C111.821 9.65568 111.708 9.6901 111.612 9.7339C111.517 9.77769 111.441 9.82999 111.389 9.88771C111.337 9.94543 111.31 10.0074 111.31 10.07C111.31 10.1327 111.337 10.1947 111.389 10.2524C111.441 10.3101 111.517 10.3624 111.612 10.4062C111.708 10.45 111.821 10.4844 111.945 10.5074C112.07 10.5304 112.203 10.5416 112.336 10.5402C112.47 10.5416 112.603 10.5304 112.727 10.5074C112.851 10.4844 112.965 10.45 113.06 10.4062C113.156 10.3624 113.232 10.3101 113.284 10.2524C113.335 10.1947 113.362 10.1327 113.362 10.07C113.362 10.0074 113.335 9.94543 113.284 9.88771C113.232 9.82999 113.156 9.77769 113.06 9.7339C112.965 9.6901 112.851 9.65568 112.727 9.63266C112.603 9.60965 112.47 9.59849 112.336 9.59985ZM116.187 8.14482C115.956 8.14482 115.734 8.18853 115.571 8.26634C115.407 8.34415 115.315 8.44968 115.315 8.55972C115.315 8.66976 115.407 8.77529 115.571 8.8531C115.734 8.9309 115.956 8.97462 116.187 8.97462C116.419 8.97462 116.641 8.9309 116.804 8.8531C116.968 8.77529 117.06 8.66976 117.06 8.55972C117.06 8.44968 116.968 8.34415 116.804 8.26634C116.641 8.18853 116.419 8.14482 116.187 8.14482ZM107.922 8.2C107.69 8.2 107.468 8.24373 107.305 8.32156C107.141 8.39939 107.049 8.50495 107.049 8.61501C107.049 8.72508 107.141 8.83064 107.305 8.90847C107.468 8.9863 107.69 9.03003 107.922 9.03003C108.153 9.03003 108.375 8.98631 108.538 8.9085C108.702 8.8307 108.794 8.72516 108.794 8.61513C108.794 8.50509 108.702 8.39956 108.538 8.32175C108.375 8.24394 108.153 8.2 107.922 8.2ZM114.206 8.17252C113.975 8.17252 113.753 8.21623 113.59 8.29404C113.426 8.37185 113.334 8.47738 113.334 8.58742C113.334 8.69746 113.426 8.80299 113.59 8.8808C113.753 8.95861 113.975 9.00232 114.206 9.00232C114.438 9.00232 114.66 8.95861 114.823 8.8808C114.987 8.80299 115.079 8.69746 115.079 8.58742C115.079 8.47738 114.987 8.37185 114.823 8.29404C114.66 8.21623 114.438 8.17252 114.206 8.17252ZM109.957 8.17252C109.725 8.17252 109.503 8.21623 109.34 8.29404C109.176 8.37185 109.084 8.47738 109.084 8.58742C109.084 8.69746 109.176 8.80299 109.34 8.8808C109.503 8.95861 109.725 9.00232 109.957 9.00232C110.188 9.00232 110.41 8.95861 110.573 8.8808C110.737 8.80299 110.829 8.69746 110.829 8.58742C110.829 8.47738 110.737 8.37185 110.573 8.29404C110.41 8.21623 110.188 8.17252 109.957 8.17252ZM112.063 8.17252C111.832 8.17252 111.61 8.21623 111.447 8.29404C111.283 8.37185 111.191 8.47738 111.191 8.58742C111.191 8.69746 111.283 8.80299 111.447 8.8808C111.61 8.95861 111.832 9.00232 112.063 9.00232C112.295 9.00232 112.517 8.95861 112.68 8.8808C112.844 8.80299 112.936 8.69746 112.936 8.58742C112.936 8.47738 112.844 8.37185 112.68 8.29404C112.517 8.21623 112.295 8.17252 112.063 8.17252ZM115.022 7.09937C114.922 7.09826 114.822 7.10545 114.729 7.12052C114.636 7.13559 114.551 7.15822 114.479 7.1871C114.407 7.21597 114.35 7.25049 114.311 7.28862C114.272 7.32675 114.252 7.36771 114.252 7.4091C114.252 7.45049 114.272 7.49145 114.311 7.52958C114.35 7.56771 114.407 7.60223 114.479 7.6311C114.551 7.65998 114.636 7.68261 114.729 7.69768C114.822 7.71275 114.922 7.71994 115.022 7.71883C115.122 7.71994 115.221 7.71275 115.315 7.69768C115.408 7.68261 115.493 7.65998 115.565 7.6311C115.636 7.60223 115.693 7.56771 115.732 7.52958C115.771 7.49145 115.791 7.45049 115.791 7.4091C115.791 7.36771 115.771 7.32675 115.732 7.28862C115.693 7.25049 115.636 7.21597 115.565 7.1871C115.493 7.15822 115.408 7.13559 115.315 7.12052C115.221 7.10545 115.122 7.09826 115.022 7.09937ZM107.903 7.13815C107.803 7.13704 107.704 7.14424 107.611 7.15931C107.517 7.17437 107.432 7.19701 107.361 7.22588C107.289 7.25475 107.232 7.28927 107.193 7.3274C107.154 7.36553 107.134 7.4065 107.134 7.44789C107.134 7.48927 107.154 7.53024 107.193 7.56837C107.232 7.6065 107.289 7.64102 107.361 7.66989C107.432 7.69876 107.517 7.7214 107.611 7.73647C107.704 7.75153 107.803 7.75873 107.903 7.75762C108.004 7.75873 108.103 7.75153 108.196 7.73647C108.29 7.7214 108.375 7.69876 108.446 7.66989C108.518 7.64102 108.575 7.6065 108.614 7.56837C108.653 7.53024 108.673 7.48927 108.673 7.44789C108.673 7.4065 108.653 7.36553 108.614 7.3274C108.575 7.28927 108.518 7.25475 108.446 7.22588C108.375 7.19701 108.29 7.17437 108.196 7.15931C108.103 7.14424 108.004 7.13704 107.903 7.13815ZM113.316 7.12153C113.216 7.12042 113.117 7.12762 113.023 7.14268C112.93 7.15775 112.845 7.18039 112.774 7.20926C112.702 7.23813 112.645 7.27265 112.606 7.31078C112.567 7.34891 112.547 7.38988 112.547 7.43126C112.547 7.47265 112.567 7.51362 112.606 7.55175C112.645 7.58988 112.702 7.6244 112.774 7.65327C112.845 7.68214 112.93 7.70478 113.023 7.71984C113.117 7.73491 113.216 7.74211 113.316 7.741C113.416 7.74211 113.516 7.73491 113.609 7.71984C113.702 7.70478 113.787 7.68214 113.859 7.65327C113.931 7.6244 113.988 7.58988 114.027 7.55175C114.066 7.51362 114.086 7.47265 114.086 7.43126C114.086 7.38988 114.066 7.34891 114.027 7.31078C113.988 7.27265 113.931 7.23813 113.859 7.20926C113.787 7.18039 113.702 7.15775 113.609 7.14268C113.516 7.12762 113.416 7.12042 113.316 7.12153ZM109.657 7.12153C109.556 7.12042 109.456 7.12762 109.363 7.14268C109.269 7.15775 109.184 7.18039 109.112 7.20926C109.04 7.23813 108.983 7.27265 108.944 7.31078C108.905 7.34891 108.884 7.38988 108.884 7.43126C108.884 7.47265 108.905 7.51362 108.944 7.55175C108.983 7.58988 109.04 7.6244 109.112 7.65327C109.184 7.68214 109.269 7.70478 109.363 7.71984C109.456 7.73491 109.556 7.74211 109.657 7.741C109.757 7.74211 109.857 7.73491 109.951 7.71984C110.044 7.70478 110.13 7.68214 110.202 7.65327C110.274 7.6244 110.331 7.58988 110.37 7.55175C110.409 7.51362 110.429 7.47265 110.429 7.43126C110.429 7.38988 110.409 7.34891 110.37 7.31078C110.331 7.27265 110.274 7.23813 110.202 7.20926C110.13 7.18039 110.044 7.15775 109.951 7.14268C109.857 7.12762 109.757 7.12042 109.657 7.12153ZM111.47 7.12153C111.37 7.12042 111.27 7.12762 111.176 7.14268C111.082 7.15775 110.997 7.18039 110.925 7.20926C110.853 7.23813 110.796 7.27265 110.757 7.31078C110.718 7.34891 110.698 7.38988 110.698 7.43126C110.698 7.47265 110.718 7.51362 110.757 7.55175C110.796 7.58988 110.853 7.6244 110.925 7.65327C110.997 7.68214 111.082 7.70478 111.176 7.71984C111.27 7.73491 111.37 7.74211 111.47 7.741C111.57 7.74211 111.67 7.73491 111.764 7.71984C111.858 7.70478 111.943 7.68214 112.015 7.65327C112.087 7.6244 112.144 7.58988 112.183 7.55175C112.222 7.51362 112.242 7.47265 112.242 7.43126C112.242 7.38988 112.222 7.34891 112.183 7.31078C112.144 7.27265 112.087 7.23813 112.015 7.20926C111.943 7.18039 111.858 7.15775 111.764 7.14268C111.67 7.12762 111.57 7.12042 111.47 7.12153ZM113.379 6.09248C113.208 6.09248 113.043 6.12512 112.921 6.18323C112.8 6.24134 112.732 6.32015 112.732 6.40232C112.732 6.4845 112.8 6.56331 112.921 6.62142C113.043 6.67952 113.208 6.71217 113.379 6.71217C113.551 6.71217 113.716 6.67952 113.837 6.62142C113.959 6.56331 114.027 6.4845 114.027 6.40232C114.027 6.32015 113.959 6.24134 113.837 6.18323C113.716 6.12512 113.551 6.09248 113.379 6.09248ZM107.235 6.13127C107.149 6.13016 107.063 6.13735 106.982 6.15242C106.901 6.16749 106.828 6.19012 106.766 6.219C106.704 6.24787 106.655 6.28239 106.621 6.32052C106.588 6.35864 106.57 6.39961 106.57 6.441C106.57 6.48239 106.588 6.52335 106.621 6.56148C106.655 6.59961 106.704 6.63413 106.766 6.663C106.828 6.69187 106.901 6.71451 106.982 6.72958C107.063 6.74465 107.149 6.75184 107.235 6.75073C107.322 6.75184 107.408 6.74465 107.488 6.72958C107.569 6.71451 107.642 6.69187 107.704 6.663C107.766 6.63413 107.815 6.59961 107.849 6.56148C107.883 6.52335 107.9 6.48239 107.9 6.441C107.9 6.39961 107.883 6.35864 107.849 6.32052C107.815 6.28239 107.766 6.24787 107.704 6.219C107.642 6.19012 107.569 6.16749 107.488 6.15242C107.408 6.13735 107.322 6.13016 107.235 6.13127ZM111.908 6.11464C111.821 6.11354 111.735 6.12073 111.655 6.1358C111.574 6.15086 111.501 6.1735 111.439 6.20237C111.377 6.23124 111.327 6.26576 111.294 6.30389C111.26 6.34202 111.243 6.38299 111.243 6.42438C111.243 6.46576 111.26 6.50673 111.294 6.54486C111.327 6.58299 111.377 6.61751 111.439 6.64638C111.501 6.67525 111.574 6.69789 111.655 6.71296C111.735 6.72803 111.821 6.73522 111.908 6.73411C111.994 6.73522 112.08 6.72803 112.161 6.71296C112.241 6.69789 112.315 6.67525 112.377 6.64638C112.439 6.61751 112.488 6.58299 112.521 6.54486C112.555 6.50673 112.572 6.46576 112.572 6.42438C112.572 6.38299 112.555 6.34202 112.521 6.30389C112.488 6.26576 112.439 6.23124 112.377 6.20237C112.315 6.1735 112.241 6.15086 112.161 6.1358C112.08 6.12073 111.994 6.11354 111.908 6.11464ZM108.746 6.11464C108.659 6.11354 108.573 6.12073 108.493 6.1358C108.412 6.15086 108.339 6.1735 108.277 6.20237C108.215 6.23124 108.166 6.26576 108.132 6.30389C108.098 6.34202 108.081 6.38299 108.081 6.42438C108.081 6.46576 108.098 6.50673 108.132 6.54486C108.166 6.58299 108.215 6.61751 108.277 6.64638C108.339 6.67525 108.412 6.69789 108.493 6.71296C108.573 6.72803 108.659 6.73522 108.746 6.73411C108.832 6.73522 108.918 6.72803 108.999 6.71296C109.079 6.69789 109.153 6.67525 109.215 6.64638C109.277 6.61751 109.326 6.58299 109.36 6.54486C109.393 6.50673 109.41 6.46576 109.41 6.42438C109.41 6.38299 109.393 6.34202 109.36 6.30389C109.326 6.26576 109.277 6.23124 109.215 6.20237C109.153 6.1735 109.079 6.15086 108.999 6.1358C108.918 6.12073 108.832 6.11354 108.746 6.11464ZM110.313 6.11464C110.227 6.11354 110.141 6.12073 110.06 6.1358C109.98 6.15086 109.906 6.1735 109.844 6.20237C109.782 6.23124 109.733 6.26576 109.699 6.30389C109.666 6.34202 109.648 6.38299 109.648 6.42438C109.648 6.46576 109.666 6.50673 109.699 6.54486C109.733 6.58299 109.782 6.61751 109.844 6.64638C109.906 6.67525 109.98 6.69789 110.06 6.71296C110.141 6.72803 110.227 6.73522 110.313 6.73411C110.4 6.73522 110.486 6.72803 110.566 6.71296C110.647 6.69789 110.72 6.67525 110.782 6.64638C110.844 6.61751 110.893 6.58299 110.927 6.54486C110.961 6.50673 110.978 6.46576 110.978 6.42438C110.978 6.38299 110.961 6.34202 110.927 6.30389C110.893 6.26576 110.844 6.23124 110.782 6.20237C110.72 6.1735 110.647 6.15086 110.566 6.1358C110.486 6.12073 110.4 6.11354 110.313 6.11464ZM112.249 5.31255C112.098 5.31255 111.953 5.33469 111.846 5.37412C111.74 5.41354 111.68 5.46701 111.68 5.52277C111.68 5.57852 111.74 5.63199 111.846 5.67142C111.953 5.71084 112.098 5.73299 112.249 5.73299C112.4 5.73299 112.545 5.71084 112.652 5.67142C112.759 5.63199 112.819 5.57852 112.819 5.52277C112.819 5.46701 112.759 5.41354 112.652 5.37412C112.545 5.33469 112.4 5.31255 112.249 5.31255ZM106.858 5.34025C106.706 5.34025 106.562 5.3624 106.455 5.40182C106.348 5.44125 106.288 5.49472 106.288 5.55047C106.288 5.60623 106.348 5.6597 106.455 5.69912C106.562 5.73854 106.706 5.76069 106.858 5.76069C107.009 5.76069 107.154 5.73854 107.261 5.69912C107.367 5.6597 107.427 5.60623 107.427 5.55047C107.427 5.49472 107.367 5.44125 107.261 5.40182C107.154 5.3624 107.009 5.34025 106.858 5.34025ZM110.958 5.32917C110.807 5.32917 110.662 5.35132 110.555 5.39074C110.448 5.43016 110.388 5.48364 110.388 5.53939C110.388 5.59514 110.448 5.64861 110.555 5.68804C110.662 5.72746 110.807 5.74961 110.958 5.74961C111.109 5.74961 111.254 5.72746 111.361 5.68804C111.467 5.64861 111.527 5.59514 111.527 5.53939C111.527 5.48364 111.467 5.43016 111.361 5.39074C111.254 5.35132 111.109 5.32917 110.958 5.32917ZM108.185 5.32917C108.034 5.32917 107.889 5.35132 107.782 5.39074C107.675 5.43016 107.615 5.48364 107.615 5.53939C107.615 5.59514 107.675 5.64861 107.782 5.68804C107.889 5.72746 108.034 5.74961 108.185 5.74961C108.336 5.74961 108.481 5.72746 108.588 5.68804C108.695 5.64861 108.755 5.59514 108.755 5.53939C108.755 5.48364 108.695 5.43016 108.588 5.39074C108.481 5.35132 108.336 5.32917 108.185 5.32917ZM109.558 5.32917C109.407 5.32917 109.262 5.35132 109.155 5.39074C109.048 5.43016 108.988 5.48364 108.988 5.53939C108.988 5.59514 109.048 5.64861 109.155 5.68804C109.262 5.72746 109.407 5.74961 109.558 5.74961C109.709 5.74961 109.854 5.72746 109.961 5.68804C110.068 5.64861 110.128 5.59514 110.128 5.53939C110.128 5.48364 110.068 5.43016 109.961 5.39074C109.854 5.35132 109.709 5.32917 109.558 5.32917ZM111.122 4.78683C110.99 4.78683 110.864 4.80141 110.77 4.82737C110.677 4.85333 110.624 4.88853 110.624 4.92524C110.624 4.96195 110.677 4.99715 110.77 5.02311C110.864 5.04907 110.99 5.06365 111.122 5.06365C111.254 5.06365 111.381 5.04908 111.474 5.02314C111.568 4.99721 111.62 4.96203 111.62 4.92535C111.62 4.88867 111.568 4.85349 111.474 4.82756C111.381 4.80162 111.254 4.78683 111.122 4.78683ZM106.399 4.80345C106.267 4.80345 106.14 4.81802 106.047 4.84396C105.954 4.86989 105.901 4.90507 105.901 4.94175C105.901 4.97843 105.954 5.01361 106.047 5.03954C106.14 5.06548 106.267 5.08005 106.399 5.08005C106.531 5.08005 106.657 5.06548 106.751 5.03954C106.844 5.01361 106.897 4.97843 106.897 4.94175C106.897 4.90507 106.844 4.86989 106.751 4.84396C106.657 4.81802 106.531 4.80345 106.399 4.80345ZM109.993 4.79259C109.861 4.79259 109.734 4.80716 109.641 4.8331C109.547 4.85903 109.495 4.89421 109.495 4.93089C109.495 4.96757 109.547 5.00275 109.641 5.02868C109.734 5.05462 109.861 5.06919 109.993 5.06919C110.125 5.06919 110.251 5.05462 110.345 5.02868C110.438 5.00275 110.49 4.96757 110.49 4.93089C110.49 4.89421 110.438 4.85903 110.345 4.8331C110.251 4.80716 110.125 4.79259 109.993 4.79259ZM107.562 4.79259C107.43 4.79259 107.303 4.80716 107.21 4.8331C107.117 4.85903 107.064 4.89421 107.064 4.93089C107.064 4.96757 107.117 5.00275 107.21 5.02868C107.303 5.05462 107.43 5.06919 107.562 5.06919C107.694 5.06919 107.821 5.05462 107.914 5.02868C108.007 5.00275 108.06 4.96757 108.06 4.93089C108.06 4.89421 108.007 4.85903 107.914 4.8331C107.821 4.80716 107.694 4.79259 107.562 4.79259ZM108.767 4.79259C108.635 4.79259 108.508 4.80716 108.415 4.8331C108.322 4.85903 108.269 4.89421 108.269 4.93089C108.269 4.96757 108.322 5.00275 108.415 5.02868C108.508 5.05462 108.635 5.06919 108.767 5.06919C108.899 5.06919 109.025 5.05462 109.119 5.02868C109.212 5.00275 109.265 4.96757 109.265 4.93089C109.265 4.89421 109.212 4.85903 109.119 4.8331C109.025 4.80716 108.899 4.79259 108.767 4.79259ZM110.032 4.28904C109.919 4.28904 109.811 4.30361 109.731 4.32954C109.651 4.35548 109.606 4.39066 109.606 4.42734C109.606 4.46402 109.651 4.49919 109.731 4.52513C109.811 4.55107 109.919 4.56564 110.032 4.56564C110.144 4.56564 110.253 4.55107 110.332 4.52513C110.412 4.49919 110.457 4.46402 110.457 4.42734C110.457 4.39066 110.412 4.35548 110.332 4.32954C110.253 4.30361 110.144 4.28904 110.032 4.28904ZM105.985 4.30566C105.872 4.30566 105.764 4.32023 105.684 4.34617C105.604 4.3721 105.56 4.40728 105.56 4.44396C105.56 4.48064 105.604 4.51582 105.684 4.54175C105.764 4.56769 105.872 4.58226 105.985 4.58226C106.098 4.58226 106.206 4.56769 106.286 4.54175C106.366 4.51582 106.411 4.48064 106.411 4.44396C106.411 4.40728 106.366 4.3721 106.286 4.34617C106.206 4.32023 106.098 4.30566 105.985 4.30566ZM109.063 4.30012C109.007 4.30012 108.952 4.3037 108.9 4.31065C108.849 4.3176 108.802 4.32778 108.762 4.34063C108.723 4.35347 108.692 4.36871 108.67 4.38549C108.649 4.40227 108.638 4.42026 108.638 4.43842C108.638 4.45658 108.649 4.47456 108.67 4.49134C108.692 4.50812 108.723 4.52337 108.762 4.53621C108.802 4.54905 108.849 4.55924 108.9 4.56619C108.952 4.57314 109.007 4.57672 109.063 4.57672C109.119 4.57672 109.175 4.57314 109.226 4.56619C109.278 4.55924 109.325 4.54905 109.364 4.53621C109.404 4.52337 109.435 4.50812 109.456 4.49134C109.478 4.47456 109.489 4.45658 109.489 4.43842C109.489 4.42026 109.478 4.40227 109.456 4.38549C109.435 4.36871 109.404 4.35347 109.364 4.34063C109.325 4.32778 109.278 4.3176 109.226 4.31065C109.175 4.3037 109.119 4.30012 109.063 4.30012ZM106.98 4.30012C106.924 4.30012 106.868 4.3037 106.816 4.31065C106.764 4.3176 106.717 4.32778 106.677 4.34063C106.637 4.35347 106.606 4.36871 106.584 4.38549C106.563 4.40227 106.552 4.42026 106.552 4.43842C106.552 4.45658 106.563 4.47456 106.584 4.49134C106.606 4.50812 106.637 4.52337 106.677 4.53621C106.717 4.54905 106.764 4.55924 106.816 4.56619C106.868 4.57314 106.924 4.57672 106.98 4.57672C107.037 4.57672 107.092 4.57314 107.145 4.56619C107.197 4.55924 107.244 4.54905 107.284 4.53621C107.323 4.52337 107.355 4.50812 107.377 4.49134C107.398 4.47456 107.409 4.45658 107.409 4.43842C107.409 4.42026 107.398 4.40227 107.377 4.38549C107.355 4.36871 107.323 4.35347 107.284 4.34063C107.244 4.32778 107.197 4.3176 107.145 4.31065C107.092 4.3037 107.037 4.30012 106.98 4.30012ZM108.011 4.30012C107.956 4.30012 107.9 4.3037 107.849 4.31065C107.797 4.3176 107.75 4.32778 107.71 4.34063C107.671 4.35347 107.64 4.36871 107.618 4.38549C107.597 4.40227 107.586 4.42026 107.586 4.43842C107.586 4.45658 107.597 4.47456 107.618 4.49134C107.64 4.50812 107.671 4.52337 107.71 4.53621C107.75 4.54905 107.797 4.55924 107.849 4.56619C107.9 4.57314 107.956 4.57672 108.011 4.57672C108.067 4.57672 108.123 4.57314 108.174 4.56619C108.226 4.55924 108.273 4.54905 108.312 4.53621C108.352 4.52337 108.383 4.50812 108.405 4.49134C108.426 4.47456 108.437 4.45658 108.437 4.43842C108.437 4.42026 108.426 4.40227 108.405 4.38549C108.383 4.36871 108.352 4.35347 108.312 4.34063C108.273 4.32778 108.226 4.3176 108.174 4.31065C108.123 4.3037 108.067 4.30012 108.011 4.30012ZM108.937 3.84643C108.847 3.84643 108.76 3.85751 108.696 3.87724C108.631 3.89696 108.595 3.92371 108.595 3.9516C108.595 3.97949 108.631 4.00624 108.696 4.02596C108.76 4.04568 108.847 4.05676 108.937 4.05676C109.028 4.05676 109.115 4.04568 109.179 4.02596C109.244 4.00624 109.28 3.97949 109.28 3.9516C109.28 3.92371 109.244 3.89696 109.179 3.87724C109.115 3.85751 109.028 3.84643 108.937 3.84643ZM105.713 3.85751C105.622 3.85751 105.535 3.86859 105.471 3.88832C105.407 3.90804 105.371 3.93479 105.371 3.96268C105.371 3.99057 105.407 4.01732 105.471 4.03704C105.535 4.05677 105.622 4.06785 105.713 4.06785C105.803 4.06785 105.89 4.05677 105.955 4.03704C106.019 4.01732 106.055 3.99057 106.055 3.96268C106.055 3.93479 106.019 3.90804 105.955 3.88832C105.89 3.86859 105.803 3.85751 105.713 3.85751ZM108.164 3.85197C108.073 3.85197 107.986 3.86305 107.922 3.88278C107.858 3.9025 107.822 3.92925 107.822 3.95714C107.822 3.98503 107.858 4.01178 107.922 4.0315C107.986 4.05123 108.073 4.0623 108.164 4.0623C108.255 4.0623 108.342 4.05123 108.406 4.0315C108.47 4.01178 108.506 3.98503 108.506 3.95714C108.506 3.92925 108.47 3.9025 108.406 3.88278C108.342 3.86305 108.255 3.85197 108.164 3.85197ZM106.507 3.85197C106.416 3.85197 106.329 3.86305 106.265 3.88278C106.201 3.9025 106.165 3.92925 106.165 3.95714C106.165 3.98503 106.201 4.01178 106.265 4.0315C106.329 4.05123 106.416 4.0623 106.507 4.0623C106.598 4.0623 106.685 4.05123 106.749 4.0315C106.813 4.01178 106.849 3.98503 106.849 3.95714C106.849 3.92925 106.813 3.9025 106.749 3.88278C106.685 3.86305 106.598 3.85197 106.507 3.85197ZM107.328 3.85197C107.237 3.85197 107.15 3.86305 107.086 3.88278C107.022 3.9025 106.986 3.92925 106.986 3.95714C106.986 3.98503 107.022 4.01178 107.086 4.0315C107.15 4.05123 107.237 4.0623 107.328 4.0623C107.419 4.0623 107.506 4.05123 107.57 4.0315C107.634 4.01178 107.67 3.98503 107.67 3.95714C107.67 3.92925 107.634 3.9025 107.57 3.88278C107.506 3.86305 107.419 3.85197 107.328 3.85197ZM108.041 3.4537C107.963 3.4537 107.889 3.46478 107.833 3.4845C107.778 3.50422 107.747 3.53097 107.747 3.55886C107.747 3.58675 107.778 3.6135 107.833 3.63323C107.889 3.65295 107.963 3.66403 108.041 3.66403C108.119 3.66403 108.194 3.65295 108.249 3.63323C108.304 3.6135 108.335 3.58675 108.335 3.55886C108.335 3.53097 108.304 3.50422 108.249 3.4845C108.194 3.46478 108.119 3.4537 108.041 3.4537ZM105.248 3.47032C105.17 3.47032 105.095 3.4814 105.04 3.50112C104.985 3.52084 104.954 3.54759 104.954 3.57548C104.954 3.60338 104.985 3.63013 105.04 3.64985C105.095 3.66957 105.17 3.68065 105.248 3.68065C105.326 3.68065 105.401 3.66957 105.456 3.64985C105.511 3.63013 105.542 3.60338 105.542 3.57548C105.542 3.54759 105.511 3.52084 105.456 3.50112C105.401 3.4814 105.326 3.47032 105.248 3.47032ZM107.373 3.45924C107.295 3.45924 107.22 3.47032 107.165 3.49004C107.11 3.50976 107.079 3.53651 107.079 3.5644C107.079 3.59229 107.11 3.61904 107.165 3.63877C107.22 3.65849 107.295 3.66957 107.373 3.66957C107.451 3.66957 107.526 3.65849 107.581 3.63877C107.636 3.61904 107.667 3.59229 107.667 3.5644C107.667 3.53651 107.636 3.50976 107.581 3.49004C107.526 3.47032 107.451 3.45924 107.373 3.45924ZM105.937 3.45924C105.859 3.45924 105.785 3.47032 105.729 3.49004C105.674 3.50976 105.643 3.53651 105.643 3.5644C105.643 3.59229 105.674 3.61904 105.729 3.63877C105.785 3.65849 105.859 3.66957 105.937 3.66957C106.015 3.66957 106.09 3.65849 106.145 3.63877C106.2 3.61904 106.231 3.59229 106.231 3.5644C106.231 3.53651 106.2 3.50976 106.145 3.49004C106.09 3.47032 106.015 3.45924 105.937 3.45924ZM106.648 3.45924C106.57 3.45924 106.495 3.47032 106.44 3.49004C106.385 3.50976 106.354 3.53651 106.354 3.5644C106.354 3.59229 106.385 3.61904 106.44 3.63877C106.495 3.65849 106.57 3.66957 106.648 3.66957C106.726 3.66957 106.8 3.65849 106.856 3.63877C106.911 3.61904 106.942 3.59229 106.942 3.5644C106.942 3.53651 106.911 3.50976 106.856 3.49004C106.8 3.47032 106.726 3.45924 106.648 3.45924ZM106.84 3.16601C106.77 3.16601 106.702 3.17185 106.653 3.18224C106.604 3.19263 106.576 3.20673 106.576 3.22142C106.576 3.23612 106.604 3.25021 106.653 3.2606C106.702 3.27099 106.77 3.27683 106.84 3.27683C106.909 3.27683 106.977 3.27099 107.026 3.2606C107.075 3.25021 107.103 3.23612 107.103 3.22142C107.103 3.20673 107.075 3.19263 107.026 3.18224C106.977 3.17185 106.909 3.16601 106.84 3.16601ZM106.24 3.16601C106.17 3.16601 106.103 3.17185 106.054 3.18224C106.004 3.19263 105.976 3.20673 105.976 3.22142C105.976 3.23612 106.004 3.25021 106.054 3.2606C106.103 3.27099 106.17 3.27683 106.24 3.27683C106.31 3.27683 106.377 3.27099 106.427 3.2606C106.476 3.25021 106.504 3.23612 106.504 3.22142C106.504 3.20673 106.476 3.19263 106.427 3.18224C106.377 3.17185 106.31 3.16601 106.24 3.16601ZM104.957 3.16601C104.887 3.16601 104.82 3.17185 104.771 3.18224C104.721 3.19263 104.694 3.20673 104.694 3.22142C104.694 3.23612 104.721 3.25021 104.771 3.2606C104.82 3.27099 104.887 3.27683 104.957 3.27683C105.027 3.27683 105.094 3.27099 105.144 3.2606C105.193 3.25021 105.221 3.23612 105.221 3.22142C105.221 3.20673 105.193 3.19263 105.144 3.18224C105.094 3.17185 105.027 3.16601 104.957 3.16601ZM105.596 3.16601C105.526 3.16601 105.459 3.17185 105.409 3.18224C105.36 3.19263 105.332 3.20673 105.332 3.22142C105.332 3.23612 105.36 3.25021 105.409 3.2606C105.459 3.27099 105.526 3.27683 105.596 3.27683C105.666 3.27683 105.733 3.27099 105.782 3.2606C105.832 3.25021 105.86 3.23612 105.86 3.22142C105.86 3.20673 105.832 3.19263 105.782 3.18224C105.733 3.17185 105.666 3.16601 105.596 3.16601ZM106.261 2.87855C106.23 2.87808 106.199 2.87915 106.17 2.88171C106.14 2.88428 106.113 2.88827 106.091 2.89345C106.068 2.89863 106.05 2.90489 106.038 2.91184C106.025 2.91879 106.019 2.92628 106.019 2.93385C106.019 2.94142 106.025 2.94891 106.038 2.95586C106.05 2.96281 106.068 2.96907 106.091 2.97425C106.113 2.97943 106.14 2.98343 106.17 2.98599C106.199 2.98855 106.23 2.98963 106.261 2.98915C106.321 2.98915 106.379 2.98331 106.422 2.97292C106.465 2.96253 106.489 2.94844 106.489 2.93374C106.489 2.91905 106.465 2.90495 106.422 2.89456C106.379 2.88417 106.321 2.87855 106.261 2.87855ZM105.74 2.88387C105.679 2.88387 105.621 2.88971 105.579 2.9001C105.536 2.91049 105.512 2.92459 105.512 2.93928C105.512 2.95398 105.536 2.96807 105.579 2.97846C105.621 2.98885 105.679 2.99469 105.74 2.99469C105.8 2.99469 105.858 2.98885 105.901 2.97846C105.943 2.96807 105.967 2.95398 105.967 2.93928C105.967 2.92459 105.943 2.91049 105.901 2.9001C105.858 2.88971 105.8 2.88387 105.74 2.88387ZM104.628 2.88387C104.567 2.88387 104.509 2.88971 104.467 2.9001C104.424 2.91049 104.4 2.92459 104.4 2.93928C104.4 2.95398 104.424 2.96807 104.467 2.97846C104.509 2.98885 104.567 2.99469 104.628 2.99469C104.688 2.99469 104.746 2.98885 104.789 2.97846C104.832 2.96807 104.856 2.95398 104.856 2.93928C104.856 2.92459 104.832 2.91049 104.789 2.9001C104.746 2.88971 104.688 2.88387 104.628 2.88387ZM105.179 2.88387C105.119 2.88387 105.061 2.88971 105.018 2.9001C104.976 2.91049 104.952 2.92459 104.952 2.93928C104.952 2.95398 104.976 2.96807 105.018 2.97846C105.061 2.98885 105.119 2.99469 105.179 2.99469C105.24 2.99469 105.298 2.98885 105.34 2.97846C105.383 2.96807 105.407 2.95398 105.407 2.93928C105.407 2.92459 105.383 2.91049 105.34 2.9001C105.298 2.88971 105.24 2.88387 105.179 2.88387ZM105.773 2.60727C105.719 2.60727 105.668 2.61311 105.631 2.6235C105.593 2.63389 105.572 2.64799 105.572 2.66268C105.572 2.67738 105.593 2.69147 105.631 2.70186C105.668 2.71225 105.719 2.71809 105.773 2.71809C105.826 2.71809 105.877 2.71225 105.915 2.70186C105.952 2.69147 105.973 2.67738 105.973 2.66268C105.973 2.64799 105.952 2.63389 105.915 2.6235C105.877 2.61311 105.826 2.60727 105.773 2.60727ZM105.314 2.61281C105.261 2.61281 105.21 2.61865 105.172 2.62904C105.134 2.63943 105.113 2.65353 105.113 2.66822C105.113 2.68292 105.134 2.69701 105.172 2.7074C105.21 2.71779 105.261 2.72363 105.314 2.72363C105.367 2.72363 105.418 2.71779 105.456 2.7074C105.494 2.69701 105.515 2.68292 105.515 2.66822C105.515 2.65353 105.494 2.63943 105.456 2.62904C105.418 2.61865 105.367 2.61281 105.314 2.61281ZM104.331 2.61281C104.278 2.61281 104.227 2.61865 104.189 2.62904C104.151 2.63943 104.13 2.65353 104.13 2.66822C104.13 2.68292 104.151 2.69701 104.189 2.7074C104.227 2.71779 104.278 2.72363 104.331 2.72363C104.384 2.72363 104.435 2.71779 104.473 2.7074C104.511 2.69701 104.532 2.68292 104.532 2.66822C104.532 2.65353 104.511 2.63943 104.473 2.62904C104.435 2.61865 104.384 2.61281 104.331 2.61281ZM104.82 2.61281C104.766 2.61281 104.715 2.61865 104.678 2.62904C104.64 2.63943 104.619 2.65353 104.619 2.66822C104.619 2.68292 104.64 2.69701 104.678 2.7074C104.715 2.71779 104.766 2.72363 104.82 2.72363C104.873 2.72363 104.924 2.71779 104.962 2.7074C104.999 2.69701 105.02 2.68292 105.02 2.66822C105.02 2.65353 104.999 2.63943 104.962 2.62904C104.924 2.61865 104.873 2.61281 104.82 2.61281ZM105.044 2.375C104.996 2.375 104.949 2.37909 104.915 2.38636C104.881 2.39363 104.861 2.4035 104.861 2.41379C104.861 2.42407 104.881 2.43394 104.915 2.44121C104.949 2.44849 104.996 2.45257 105.044 2.45257C105.093 2.45257 105.139 2.44849 105.174 2.44121C105.208 2.43394 105.227 2.42407 105.227 2.41379C105.227 2.4035 105.208 2.39363 105.174 2.38636C105.139 2.37909 105.093 2.375 105.044 2.375ZM104.628 2.375C104.579 2.375 104.533 2.37909 104.498 2.38636C104.464 2.39363 104.445 2.4035 104.445 2.41379C104.445 2.42407 104.464 2.43394 104.498 2.44121C104.533 2.44849 104.579 2.45257 104.628 2.45257C104.676 2.45257 104.723 2.44849 104.757 2.44121C104.791 2.43394 104.811 2.42407 104.811 2.41379C104.811 2.4035 104.791 2.39363 104.757 2.38636C104.723 2.37909 104.676 2.375 104.628 2.375ZM104.175 2.375C104.127 2.375 104.08 2.37909 104.046 2.38636C104.012 2.39363 103.992 2.4035 103.992 2.41379C103.992 2.42407 104.012 2.43394 104.046 2.44121C104.08 2.44849 104.127 2.45257 104.175 2.45257C104.224 2.45257 104.27 2.44849 104.305 2.44121C104.339 2.43394 104.358 2.42407 104.358 2.41379C104.358 2.4035 104.339 2.39363 104.305 2.38636C104.27 2.37909 104.224 2.375 104.175 2.375Z" fill="white"/>
</svg>
