<svg width="24" height="24" viewBox="0 0 24 24" fill="none" xmlns="http://www.w3.org/2000/svg"> <g clip-path="url(#clip0_61_8113)"> <path d="M20.2507 6.75H3.75073C3.33652 6.75 3.00073 7.08579 3.00073 7.5V19.5C3.00073 19.9142 3.33652 20.25 3.75073 20.25H20.2507C20.6649 20.25 21.0007 19.9142 21.0007 19.5V7.5C21.0007 7.08579 20.6649 6.75 20.2507 6.75Z" stroke="#0A65CC" stroke-width="2" stroke-linecap="round" stroke-linejoin="round"/> <path d="M15.75 6.75V5.25C15.75 4.85218 15.592 4.47064 15.3107 4.18934C15.0294 3.90804 14.6478 3.75 14.25 3.75H9.75C9.35218 3.75 8.97064 3.90804 8.68934 4.18934C8.40804 4.47064 8.25 4.85218 8.25 5.25V6.75" stroke="#0A65CC" stroke-width="2" stroke-linecap="round" stroke-linejoin="round"/> <path d="M21.0009 11.8418C18.2655 13.4243 15.1603 14.2553 12.0001 14.2503C8.8405 14.2553 5.73576 13.4246 3.00073 11.8426" stroke="#0A65CC" stroke-width="2" stroke-linecap="round" stroke-linejoin="round"/> <path d="M10.875 11.25H13.125" stroke="#0A65CC" stroke-width="2" stroke-linecap="round" stroke-linejoin="round"/> </g> <defs> <clipPath id="clip0_61_8113"> <rect width="24" height="24" fill="white"/> </clipPath> </defs> </svg>