<svg width="18" height="18" viewBox="0 0 18 18" fill="none" xmlns="http://www.w3.org/2000/svg">
<path d="M6.49984 0.833984V2.50065H11.4998V0.833984H13.1665V2.50065H16.4998C16.9601 2.50065 17.3332 2.87375 17.3332 3.33398V16.6673C17.3332 17.1276 16.9601 17.5007 16.4998 17.5007H1.49984C1.0396 17.5007 0.666504 17.1276 0.666504 16.6673V3.33398C0.666504 2.87375 1.0396 2.50065 1.49984 2.50065H4.83317V0.833984H6.49984ZM15.6665 9.16732H2.33317V15.834H15.6665V9.16732ZM4.83317 4.16732H2.33317V7.50065H15.6665V4.16732H13.1665V5.83398H11.4998V4.16732H6.49984V5.83398H4.83317V4.16732Z" fill="black"/>
</svg>
