<svg width="200" height="200" viewBox="0 0 200 200" fill="none" xmlns="http://www.w3.org/2000/svg">
<path d="M109.044 38.2768C109.044 38.2768 95.6518 68.335 60.2357 61.4492C24.8196 54.5634 3.4815 103.008 36.9644 120.672C70.4473 138.336 47.2428 158.627 69.5736 168.992C94.9542 180.772 104.419 141.381 123.117 145.04C164.384 153.114 189.911 139.266 178.624 120.63C158.81 87.9179 144.424 89.1222 150.27 67.9973C156.116 46.8724 123.1 14.4421 109.044 38.2768Z" fill="#DEEEFF"/>
<path d="M102.579 106.88C99.4672 112.844 98.6821 116.013 89.2426 121.931C89.1693 121.979 89.1143 122.05 89.0867 122.133C87.5786 126.808 85.0258 131.079 81.6218 134.621C81.5759 134.668 81.5437 134.727 81.5284 134.791C81.5132 134.855 81.5155 134.922 81.5352 134.984C82.5917 138.5 83.7352 144.84 80.5537 150.036C75.8773 157.686 72.4137 153.067 73.135 151.335C73.7527 149.851 79.0296 146.664 77.8114 138.702C77.8011 138.639 77.7747 138.579 77.7345 138.528C77.6944 138.478 77.6419 138.438 77.5822 138.414C77.5224 138.39 77.4574 138.381 77.3934 138.389C77.3294 138.397 77.2685 138.422 77.2167 138.46C73.3918 141.236 69.0019 143.134 64.3595 144.02C64.3079 144.028 64.2588 144.048 64.2152 144.077C64.1717 144.105 64.1348 144.143 64.107 144.187C64.0791 144.232 64.061 144.281 64.0538 144.333C64.0465 144.385 64.0503 144.437 64.065 144.488C65.2486 148.725 65.8086 155.348 60.8666 161.438C58.2282 164.614 54.7295 159.972 58.2282 156.808C60.3989 154.851 60.2315 149.222 59.2154 144.886C59.196 144.802 59.1479 144.727 59.0795 144.675C59.011 144.622 58.9264 144.595 58.8401 144.598C58.6381 144.603 58.4301 144.603 58.2282 144.603C51.0871 144.614 44.1445 142.254 38.4891 137.894C38.4373 137.854 38.376 137.827 38.311 137.818C38.246 137.808 38.1797 137.816 38.1186 137.84C38.0574 137.864 38.0035 137.903 37.9622 137.954C37.9209 138.005 37.8935 138.066 37.8829 138.131C36.5261 147.091 41.9129 150.191 42.6805 152.489C43.535 155.058 41.572 157.345 39.153 156.698C39.1005 156.682 39.0515 156.657 39.0087 156.623C31.1223 150.699 31.8093 138.287 32.6753 132.311C32.6832 132.262 32.6806 132.212 32.6676 132.165C32.6547 132.117 32.6317 132.072 32.6002 132.034C28.1899 126.359 25.8023 119.373 25.8165 112.185C25.8165 99.0048 33.6856 87.6601 44.9841 82.5969C44.9848 82.5969 44.9856 82.5968 44.9863 82.5965C44.987 82.5963 44.9877 82.5958 44.9882 82.5953C44.9887 82.5948 44.9892 82.5941 44.9895 82.5934C44.9897 82.5927 44.9899 82.592 44.9899 82.5912C46.7276 80.3912 48.8465 77.2797 49.1699 75.0974C49.1805 75.0235 49.213 74.9544 49.2631 74.899C49.3132 74.8436 49.3787 74.8044 49.4512 74.7864C49.5237 74.7685 49.5999 74.7725 49.6701 74.7981C49.7403 74.8236 49.8013 74.8695 49.8453 74.9299C50.6767 76.0499 51.9642 78.1861 51.6813 80.4377C51.6697 80.5127 51.664 80.5877 51.6524 80.6628C51.6293 80.7899 51.6005 80.9111 51.5716 81.0381C51.5427 81.1363 51.5196 81.2344 51.485 81.3326C51.8887 80.9957 52.274 80.6372 52.6391 80.2587C53.4877 79.387 54.5616 78.0764 55.0235 76.6735C55.0453 76.5987 55.0898 76.5324 55.1509 76.4839C55.2119 76.4354 55.2865 76.407 55.3643 76.4026C55.4422 76.3982 55.5195 76.4181 55.5856 76.4594C55.6517 76.5008 55.7033 76.5616 55.7335 76.6335C56.0335 77.3725 56.3859 78.4059 56.5071 79.4624C56.5175 79.5572 56.563 79.6446 56.6345 79.7076C56.7061 79.7706 56.7986 79.8046 56.8939 79.803C57.3385 79.7857 57.783 79.7742 58.2276 79.7742C76.1307 79.7742 90.645 94.2884 90.645 112.186C90.645 112.596 90.6392 113 90.6218 113.404C90.6192 113.466 90.6318 113.527 90.6583 113.583C90.6848 113.639 90.7245 113.687 90.774 113.724C90.8235 113.761 90.8812 113.785 90.9422 113.795C91.0032 113.805 91.0656 113.799 91.1241 113.779C93.0524 113.104 95.483 111.476 96.9494 107.602C99.6918 100.385 99.9805 98.3644 99.1145 92.7353C98.2485 87.1062 102.434 87.3953 103.3 89.2713C104.166 91.1473 106.043 100.24 102.579 106.88Z" fill="#3B82F6"/>
<path d="M45.5665 115.028C45.456 115.028 45.3488 114.991 45.2614 114.924C45.174 114.856 45.1114 114.762 45.0834 114.655C44.8657 113.704 44.8189 112.722 44.9453 111.755C45.2296 109.653 46.3736 108.108 48.2537 107.286C49.4823 106.75 50.6437 106.719 51.7055 107.195C53.8818 108.17 54.8083 110.936 54.8467 111.053C54.8839 111.178 54.8709 111.312 54.8104 111.428C54.75 111.543 54.6469 111.63 54.5231 111.671C54.3993 111.712 54.2645 111.702 54.1475 111.645C54.0305 111.587 53.9405 111.487 53.8967 111.364C53.8888 111.34 53.0647 108.897 51.2935 108.106C50.5005 107.752 49.6126 107.784 48.6543 108.203C47.0986 108.883 46.1856 110.113 45.9408 111.859C45.8289 112.707 45.8664 113.568 46.0514 114.402C46.0846 114.531 46.0656 114.667 45.9985 114.781C45.9314 114.896 45.8217 114.979 45.6934 115.012C45.6519 115.023 45.6092 115.028 45.5665 115.028Z" fill="white"/>
<path d="M60.6385 110.451C60.5337 110.451 60.4316 110.418 60.3466 110.357C60.2616 110.295 60.198 110.209 60.1647 110.11C59.8856 109.179 59.7752 108.206 59.8387 107.236C59.9862 105.129 61.0278 103.519 62.8509 102.581C64.0445 101.967 65.2031 101.861 66.2952 102.268C68.5252 103.098 69.6274 105.78 69.6732 105.894C69.7213 106.016 69.719 106.153 69.6668 106.274C69.6146 106.395 69.5167 106.491 69.3945 106.54C69.2723 106.589 69.1356 106.588 69.0141 106.537C68.8926 106.486 68.7961 106.389 68.7457 106.267C68.7357 106.244 67.7578 103.877 65.9426 103.204C65.1262 102.901 64.2402 102.991 63.3086 103.47C61.8005 104.246 60.9695 105.527 60.8386 107.276C60.7821 108.125 60.8751 108.977 61.1135 109.793C61.1383 109.868 61.1449 109.948 61.1328 110.027C61.1208 110.105 61.0903 110.179 61.044 110.243C60.9976 110.307 60.9367 110.36 60.8663 110.396C60.7958 110.432 60.7178 110.451 60.6387 110.451H60.6385Z" fill="white"/>
<path d="M59.3671 120.91C55.964 120.91 53.3692 118.645 53.2393 118.53C53.1902 118.486 53.1502 118.433 53.1215 118.374C53.0928 118.315 53.0761 118.251 53.0722 118.186C53.0683 118.12 53.0773 118.054 53.0988 117.992C53.1203 117.93 53.1538 117.873 53.1974 117.824C53.241 117.775 53.2939 117.735 53.3529 117.706C53.412 117.677 53.4761 117.661 53.5417 117.657C53.6072 117.653 53.6729 117.662 53.735 117.683C53.797 117.705 53.8542 117.738 53.9033 117.782C53.9374 117.812 57.364 120.79 61.222 119.64C65.062 118.496 66.1151 113.62 66.1254 113.571C66.1534 113.443 66.231 113.33 66.3414 113.259C66.4517 113.187 66.5859 113.161 66.7148 113.188C66.8437 113.215 66.9569 113.291 67.0299 113.4C67.103 113.51 67.1299 113.644 67.1048 113.773C66.8671 114.783 66.4947 115.756 65.9977 116.667C64.8999 118.691 63.3477 120.05 61.5077 120.599C60.8131 120.806 60.092 120.911 59.3671 120.91Z" fill="white"/>
<path d="M167.149 98.6554C167.106 99.7411 166.995 100.823 166.818 101.895C164.408 116.641 150.506 126.636 135.761 124.225C121.021 121.815 111.02 107.913 113.431 93.1674C113.584 92.2274 113.788 91.3074 114.028 90.4102C103.091 82.9832 103.73 68.6615 105.827 67.0737C107.944 65.4659 110.256 66.8207 110.014 71.2682C109.766 77.7269 113.742 83.0682 115.947 85.3947C121.111 75.1004 132.523 68.8812 144.488 70.8372C156.1 72.7353 164.763 81.7622 166.746 92.71C168.911 91.9231 172.733 89.6522 175.83 83.197C176.263 81.9105 176.382 80.9648 176.405 80.3952C176.421 79.8631 176.629 79.3547 176.99 78.964C177.668 78.2557 178.867 77.504 180.416 78.6582C180.768 78.9216 181.052 79.2655 181.244 79.6613C181.435 80.0571 181.53 80.4931 181.518 80.9327C181.421 84.4214 178.629 92.9096 167.149 98.6554Z" fill="#699CFF"/>
<path d="M151.062 103.437C150.38 107.614 144.636 110.15 138.237 109.104C131.833 108.057 127.195 103.824 127.878 99.6474C128.008 98.8696 128.312 98.1313 128.767 97.4874C128.892 97.313 129.078 97.1931 129.288 97.1521C129.499 97.1112 129.716 97.1525 129.897 97.2674C132.19 98.7027 135.818 99.9684 140.005 100.653C143.858 101.283 147.423 101.292 150.018 100.8C150.23 100.759 150.448 100.802 150.629 100.918C150.81 101.034 150.939 101.216 150.99 101.425C151.146 102.084 151.171 102.768 151.062 103.437Z" fill="white"/>
<path d="M138.921 95.1516C138.848 95.1517 138.777 95.136 138.711 95.1056C138.645 95.0752 138.587 95.0308 138.54 94.9756C138.493 94.9203 138.458 94.8555 138.439 94.7856C138.419 94.7158 138.415 94.6425 138.427 94.5709C138.595 93.5442 138.348 92.4929 137.741 91.6483C137.133 90.8037 136.215 90.2349 135.189 90.0671C134.162 89.8993 133.111 90.1462 132.266 90.7535C131.421 91.3608 130.853 92.2787 130.685 93.3054C130.663 93.4362 130.591 93.5533 130.483 93.6307C130.376 93.7081 130.242 93.7395 130.111 93.7181C129.98 93.6967 129.863 93.6242 129.785 93.5165C129.708 93.4089 129.677 93.2749 129.698 93.144C129.909 91.8556 130.622 90.7036 131.682 89.9415C132.742 89.1794 134.062 88.8695 135.35 89.0801C136.638 89.2907 137.79 90.0045 138.552 91.0645C139.315 92.1245 139.624 93.4438 139.414 94.7322C139.395 94.8491 139.335 94.9555 139.244 95.0323C139.154 95.1092 139.04 95.1514 138.921 95.1516Z" fill="white"/>
<path d="M150.915 97.113C150.843 97.1129 150.771 97.0971 150.705 97.0667C150.64 97.0362 150.581 96.9918 150.534 96.9366C150.487 96.8814 150.453 96.8166 150.433 96.7468C150.414 96.677 150.41 96.6038 150.421 96.5322C150.585 95.5074 150.336 94.4595 149.728 93.618C149.121 92.7765 148.205 92.2101 147.181 92.0427C146.156 91.8752 145.108 92.1205 144.264 92.7248C143.42 93.3291 142.85 94.2431 142.679 95.2667C142.669 95.3317 142.646 95.3939 142.611 95.45C142.577 95.506 142.531 95.5546 142.478 95.5931C142.425 95.6316 142.364 95.6592 142.3 95.6743C142.236 95.6894 142.17 95.6917 142.105 95.6811C142.04 95.6705 141.978 95.6472 141.922 95.6125C141.866 95.5778 141.817 95.5324 141.779 95.4789C141.741 95.4254 141.713 95.3649 141.699 95.3008C141.684 95.2367 141.682 95.1703 141.692 95.1054C141.907 93.8203 142.621 92.6725 143.68 91.9136C144.739 91.1546 146.056 90.8465 147.342 91.0567C148.628 91.2669 149.778 91.9782 150.54 93.0348C151.302 94.0915 151.614 95.4072 151.408 96.6936C151.389 96.8106 151.329 96.917 151.239 96.9938C151.148 97.0706 151.034 97.1129 150.915 97.113Z" fill="white"/>
</svg>
