<svg width="226" height="175" viewBox="0 0 226 175" fill="none" xmlns="http://www.w3.org/2000/svg">
<g clip-path="url(#clip0_241_7461)">
<path d="M-0.000139461 96.8305C-0.0337877 119.688 8.04553 141.814 22.7974 159.264C23.3331 159.901 23.8788 160.528 24.4346 161.151C30.9752 168.512 38.5941 174.837 47.0313 179.91C48.9665 181.073 50.9441 182.169 52.9642 183.197C53.1684 183.301 53.376 183.405 53.5803 183.506C53.8247 183.63 54.0724 183.75 54.3202 183.871C59.4319 186.375 64.7565 188.417 70.2306 189.975C70.7998 190.136 71.3701 190.293 71.9415 190.445C79.1425 192.351 86.5397 193.418 93.9857 193.624C94.3741 193.634 94.7558 193.641 95.1241 193.648C95.2546 193.651 95.3819 193.654 95.5091 193.654C95.9276 193.658 96.3428 193.661 96.7613 193.661C104.608 193.667 112.426 192.718 120.044 190.837C120.808 190.649 121.568 190.451 122.324 190.244C126.31 189.155 130.221 187.808 134.033 186.213C136.042 185.375 138.015 184.472 139.952 183.502C140.391 183.281 140.83 183.06 141.262 182.832C141.446 182.742 141.626 182.645 141.807 182.551C152.134 177.097 161.394 169.826 169.145 161.087C169.681 160.487 170.206 159.878 170.725 159.264C184.948 142.408 225.689 117.353 225.689 93.5644C225.689 61.5735 178.021 36.4739 154.122 18.8434C153.573 18.438 153.02 18.0359 152.461 17.6439C152.351 17.5669 152.24 17.4898 152.13 17.4127C142.305 10.526 131.278 5.54268 119.619 2.72063C118.956 2.55646 118.293 2.40233 117.624 2.25826C104.995 -0.506037 91.9444 -0.734945 79.2271 1.5848C78.5608 1.70877 77.8945 1.83609 77.2316 1.97346C65.677 4.34514 54.6568 8.82336 44.7211 15.1846C44.5001 15.3254 44.2791 15.4661 44.0581 15.6135C43.6128 15.9016 43.1675 16.1965 42.7289 16.4947C29.5671 25.3496 18.7849 37.3095 11.3332 51.3196C3.88147 65.3297 -0.0107215 80.9595 -0.000139461 96.8305Z" fill="#F2F2F2"/>
<path d="M121.26 146.154C121.245 146.359 121.311 146.562 121.444 146.719C121.578 146.876 121.767 146.974 121.972 146.993L152.13 149.672L152.461 149.702V17.6438C152.351 17.5668 152.24 17.4897 152.13 17.4126C145.684 12.901 138.712 9.19468 131.368 6.37598L129.788 28.188L129.644 30.1849L128.08 51.816L127.598 58.4701L121.26 146.154Z" fill="#E6E6E6"/>
<path d="M44.7213 15.1851C44.5003 15.3259 44.2793 15.4666 44.0583 15.614V149.703L44.7213 149.642L75.3133 146.925L75.2564 146.154L68.9183 58.4707L68.4362 51.8166L66.8726 30.1855L66.7286 28.1886L65.0713 5.31445C57.9242 7.79364 51.0938 11.1067 44.7213 15.1851Z" fill="#E6E6E6"/>
<path d="M44.0582 15.6134C43.6129 15.9016 43.1676 16.1964 42.729 16.4946V151.531C42.729 154.905 44.7279 157.733 47.3997 158.454C47.8363 158.572 48.2866 158.632 48.7389 158.631H148.112C148.563 158.632 149.012 158.572 149.448 158.454C150.441 158.178 151.341 157.638 152.053 156.892C153.41 155.441 154.152 153.519 154.122 151.531V18.8434C153.573 18.4379 153.02 18.0359 152.461 17.6439C152.351 17.5668 152.24 17.4897 152.13 17.4127V151.531C152.13 151.966 152.079 152.399 151.976 152.821C151.504 154.815 149.947 156.276 148.112 156.276H48.7389C46.5225 156.276 44.7212 154.148 44.7212 151.531V15.1846C44.5002 15.3253 44.2792 15.466 44.0582 15.6134Z" fill="#E6E6E6"/>
<path d="M153.126 28.1895H43.7242V30.186H153.126V28.1895Z" fill="#E6E6E6"/>
<path d="M119.619 2.72019C118.956 2.55601 118.293 2.40189 117.624 2.25781V56.4729H119.619V2.72019Z" fill="#E6E6E6"/>
<path d="M79.2272 1.58496C78.5609 1.70893 77.8946 1.83625 77.2317 1.97362V56.4735H79.2272V1.58496Z" fill="#E6E6E6"/>
<path d="M22.2751 155.136C22.2747 156.282 22.4941 157.417 22.9213 158.48C23.0855 158.892 23.2814 159.291 23.5073 159.673C23.7991 160.171 24.1376 160.64 24.5184 161.073C25.3595 162.032 26.3956 162.801 27.5573 163.327C28.719 163.854 29.9796 164.126 31.2549 164.126H162.271C164.653 164.126 166.937 163.179 168.621 161.494C170.305 159.808 171.251 157.523 171.251 155.139C171.251 152.756 170.305 150.471 168.621 148.785C166.937 147.1 164.653 146.153 162.271 146.153H31.2549C28.8746 146.156 26.5924 147.103 24.909 148.787C23.2256 150.471 22.2784 152.754 22.2751 155.136Z" fill="#E6E6E6"/>
<path d="M43.7244 58.4707L152.461 58.4707V51.8154L43.7244 51.8154V58.4707Z" fill="#E6E6E6"/>
<path d="M102.748 53.4795H93.4373C93.4373 52.5087 93.8227 51.5776 94.5086 50.8912C95.1946 50.2047 96.125 49.8191 97.0951 49.8191H99.0902C100.06 49.8191 100.991 50.2047 101.677 50.8912C102.363 51.5776 102.748 52.5087 102.748 53.4795Z" fill="#E6E6E6"/>
<path d="M193.373 120.871H165.596C165.239 120.871 164.897 120.728 164.645 120.476C164.393 120.224 164.251 119.881 164.25 119.524V87.3721C164.25 86.6994 173.24 81.1366 177.105 78.7762C177.82 78.3319 178.644 78.0965 179.486 78.0967C180.327 78.0969 181.151 78.3326 181.866 78.7772C185.729 81.1366 194.719 86.6994 194.719 87.3721V119.524C194.718 119.881 194.576 120.224 194.324 120.476C194.072 120.728 193.73 120.871 193.373 120.871Z" fill="#CCCCCC"/>
<path d="M196.369 81.9248L191.26 71.5012C191.181 71.3407 191.064 71.2018 190.919 71.0967C190.775 70.9915 190.606 70.9234 190.429 70.8982C190.429 70.8982 190.429 70.8948 190.426 70.8982C190.305 70.8814 190.181 70.8848 190.061 70.9082C189.966 70.9283 189.874 70.9598 189.787 71.002L172.962 79.2578L172.939 79.2711C172.767 79.3597 172.621 79.4922 172.516 79.6551C172.412 79.8181 172.352 80.0058 172.343 80.1993C172.333 80.3834 172.371 80.5668 172.453 80.732L175.229 86.3944L176.196 88.3712L177.02 90.0465H182.314L185.729 88.3712L195.86 83.399C196.123 83.271 196.324 83.0438 196.42 82.7674C196.515 82.4909 196.497 82.1878 196.369 81.9248Z" fill="white"/>
<path d="M196.369 81.9248L191.26 71.5012C191.181 71.3407 191.064 71.2018 190.919 71.0967C190.775 70.9915 190.606 70.9234 190.429 70.8982C190.429 70.8982 190.429 70.8948 190.426 70.8982C190.305 70.8814 190.181 70.8848 190.061 70.9082C189.966 70.9283 189.874 70.9598 189.787 71.002L172.962 79.2578L172.939 79.2711C172.767 79.3597 172.621 79.4922 172.516 79.6551C172.412 79.8181 172.352 80.0058 172.343 80.1993C172.333 80.3834 172.371 80.5668 172.453 80.732L175.229 86.3944L176.196 88.3712L177.02 90.0465H182.314L185.729 88.3712L195.86 83.399C196.123 83.271 196.324 83.0438 196.42 82.7674C196.515 82.4909 196.497 82.1878 196.369 81.9248ZM194.836 82.7691C193.041 83.6838 188.256 86.0895 183.606 88.3712C183.546 88.4014 183.482 88.4315 183.422 88.4617C182.943 88.6996 182.719 88.8068 182.635 88.847C182.712 88.8034 182.879 88.7163 182.906 88.6996C182.896 88.6962 182.749 88.7632 182.293 88.9777C181.514 89.3457 180.645 89.4842 179.79 89.3768C178.934 89.2694 178.127 88.9206 177.462 88.3712C176.978 87.9701 176.585 87.4711 176.307 86.907L175.875 86.0225L173.414 81.0034L173.119 80.4036C173.099 80.361 173.087 80.3146 173.084 80.2673C173.081 80.2199 173.087 80.1724 173.103 80.1276C173.119 80.0828 173.143 80.0415 173.174 80.006C173.206 79.9706 173.244 79.9418 173.287 79.9212L173.337 79.8977L190.111 71.6621C190.154 71.6412 190.2 71.6289 190.248 71.626C190.295 71.6231 190.342 71.6297 190.387 71.6452C190.432 71.6608 190.473 71.6851 190.509 71.7168C190.544 71.7484 190.573 71.7868 190.593 71.8296L191.012 72.6873L195.291 81.4088C195.407 81.6502 195.424 81.9274 195.339 82.1815C195.254 82.4355 195.074 82.6463 194.836 82.7691Z" fill="#3B82F6"/>
<path d="M178.441 84.8218L191.26 78.5302C191.373 78.4746 191.466 78.3856 191.527 78.2751C191.588 78.1645 191.613 78.038 191.6 77.9126L190.87 71.4137C190.861 71.3341 190.837 71.257 190.798 71.1869C190.759 71.1169 190.706 71.0552 190.644 71.0054C190.581 70.9557 190.509 70.9188 190.432 70.897C190.355 70.8752 190.274 70.8688 190.194 70.8783C190.125 70.8863 190.058 70.9061 189.995 70.9367L172.788 79.3444L172.788 79.3448C172.697 79.3887 172.618 79.4547 172.559 79.5367C172.5 79.6187 172.462 79.7142 172.449 79.8145C172.436 79.9148 172.448 80.0168 172.484 80.1113C172.52 80.2057 172.579 80.2896 172.656 80.3555L177.773 84.7382C177.864 84.8159 177.976 84.8653 178.095 84.8802C178.214 84.895 178.334 84.8747 178.441 84.8218Z" fill="#3B82F6"/>
<path d="M185.312 83.1407C186.068 82.7694 186.382 81.8582 186.013 81.1054C185.644 80.3526 184.732 80.0434 183.976 80.4146C183.219 80.7859 182.905 81.6972 183.274 82.4499C183.643 83.2027 184.555 83.512 185.312 83.1407Z" fill="#3F3D56"/>
<path d="M176.026 85.9122C175.644 86.2281 175.197 86.4562 174.717 86.5805C174.236 86.7048 173.735 86.7222 173.247 86.6316C172.76 86.5409 172.298 86.3443 171.894 86.0557C171.491 85.7671 171.155 85.3935 170.912 84.9612L155.895 90.3521L139.802 86.4802L142.715 79.6973L154.872 83.622L172.397 80.188C173.15 79.8266 174.009 79.7542 174.812 79.9844C175.615 80.2146 176.305 80.7314 176.752 81.437C177.2 82.1426 177.373 82.9879 177.239 83.8127C177.105 84.6375 176.674 85.3845 176.026 85.9122Z" fill="#FFB6B6"/>
<path d="M129.33 83.305C132.256 84.1302 148.164 89.8208 152.385 89.8498C152.516 90.4271 152.835 90.9444 153.292 91.3201C153.749 91.6959 154.318 91.9089 154.909 91.9254L155.949 83.209C154.646 81.7073 153.576 82.4922 153.07 83.0878L148.003 80.2204L129.339 71.4469C128.53 71.0666 127.634 70.9091 126.744 70.9907C125.854 71.0723 125.002 71.39 124.276 71.9111C123.656 72.3568 123.146 72.9376 122.784 73.6096C122.422 74.2816 122.217 75.0272 122.186 75.7899C122.154 76.5527 122.296 77.3127 122.601 78.0125C122.907 78.7122 123.367 79.3333 123.947 79.8288C125.763 81.3897 127.783 82.8687 129.33 83.305Z" fill="#3B82F6"/>
<path d="M82.6789 140.218C82.9458 142.186 84.2823 143.962 86.0014 145.121C86.411 145.398 86.8432 145.64 87.2935 145.844C87.7886 146.068 88.2992 146.256 88.8213 146.405C91.112 147.075 93.5872 147.104 95.9957 147.117C98.4309 147.133 100.865 147.149 103.299 147.164C105.218 147.175 107.2 147.175 108.972 146.439C108.999 146.429 109.025 146.418 109.05 146.405C110.791 145.653 112.275 144 112.232 142.108C112.215 141.441 112.027 140.791 111.685 140.218C111.459 139.834 111.187 139.478 110.876 139.159C109.911 138.158 108.572 137.372 107.318 136.74C105.249 135.701 102.912 134.352 102.307 132.216C102.243 131.991 102.2 131.761 102.178 131.528C102.036 130.059 102.75 128.708 103.659 127.5C103.748 127.379 103.842 127.259 103.937 127.139C104.142 126.883 104.353 126.632 104.562 126.391C104.651 126.289 104.74 126.184 104.831 126.08C105.672 125.105 106.519 124.064 106.962 122.9C107.152 122.412 107.258 121.896 107.275 121.373C107.324 119.483 105.214 117.581 103.617 118.473C102.834 118.397 102.051 118.319 101.269 118.239C100.308 118.144 99.3516 118.048 98.3931 117.95H98.3908C98.1751 117.932 97.9638 117.91 97.7526 117.888C95.7577 117.69 93.7643 117.49 91.7725 117.289C90.8873 117.202 89.8466 117.169 89.2706 117.85C88.6434 118.593 88.9681 119.768 89.5886 120.518C90.2091 121.266 91.0697 121.796 91.6524 122.57C92.0068 123.074 92.2532 123.646 92.3761 124.25C92.4989 124.854 92.4956 125.477 92.3662 126.08C92.3038 126.44 92.21 126.795 92.086 127.139C91.8683 127.754 91.5667 128.336 91.1898 128.868C89.8821 130.702 87.9451 131.966 86.226 133.419C84.5047 134.875 82.8946 136.722 82.6589 138.961C82.6522 139.026 82.6455 139.092 82.6433 139.159C82.6183 139.512 82.6303 139.867 82.6789 140.218Z" fill="#E6E6E6"/>
<path d="M96.6645 119.841C98.3998 118.125 99.8779 116.167 101.053 114.028C102.224 111.9 103.089 109.617 103.623 107.246C104.164 104.841 104.343 102.368 104.154 99.9093C103.763 94.9023 101.915 90.1196 98.8363 86.1529C98.6483 85.9117 98.4559 85.674 98.2589 85.4401C98.0393 85.1785 97.6662 85.5552 97.8842 85.815C101.025 89.5842 102.993 94.1924 103.545 99.0692C103.943 102.796 103.498 106.565 102.242 110.096C100.986 113.627 98.9518 116.829 96.2898 119.466C96.0466 119.706 96.4213 120.081 96.6645 119.841Z" fill="#E6E6E6"/>
<path d="M99.05 86.6029C98.8355 86.5226 98.6254 86.4309 98.4207 86.3281C98.4103 86.3441 98.4003 86.3603 98.3899 86.3763L99.05 86.6029Z" fill="#E6E6E6"/>
<path d="M100.509 81.6765C100.393 80.4254 99.7845 79.2008 98.6253 78.6182C98.0119 78.276 97.2927 78.1763 96.6095 78.3388C95.9263 78.5013 95.3288 78.9141 94.9348 79.4958C94.8805 79.5922 94.8588 79.7036 94.873 79.8133C94.8871 79.9231 94.9364 80.0253 95.0133 80.1048C95.1845 80.3162 95.3572 80.5263 95.5287 80.7374C95.6392 80.8734 95.8376 81.0353 95.8084 81.2336C95.7662 81.5205 95.4354 81.4972 95.1755 81.4572C95.1235 81.4391 95.0688 81.4304 95.0138 81.4315C94.9953 81.4287 94.975 81.4252 94.9593 81.4234C94.8263 81.4243 94.6991 81.4775 94.6051 81.5716C94.5111 81.6656 94.4579 81.7929 94.457 81.926C94.457 81.9703 94.4629 82.0144 94.4748 82.0571L94.475 82.0596C94.7571 83.4168 95.4611 84.65 96.4861 85.5826C96.9578 86.0296 97.4891 86.4092 98.0649 86.7103C98.1244 86.7556 98.1925 86.7882 98.265 86.8062C98.3375 86.8243 98.4129 86.8274 98.4867 86.8154C98.5604 86.8033 98.631 86.7764 98.694 86.7362C98.757 86.6961 98.8112 86.6435 98.8533 86.5817C99.065 86.283 99.257 85.9708 99.4283 85.6472C100.114 84.4476 100.64 83.0821 100.509 81.6765Z" fill="#E6E6E6"/>
<path d="M108.839 84.3476C108.405 84.2804 107.97 84.213 107.536 84.1453C107.958 83.7277 108.43 83.3655 108.943 83.0674C109.02 83.0239 109.083 82.9607 109.127 82.8844C109.17 82.808 109.193 82.7214 109.192 82.6334C109.087 81.673 108.667 80.8134 107.765 80.37C107.359 80.1652 106.907 80.0691 106.453 80.0909C105.999 80.1128 105.559 80.2519 105.175 80.4946C104.719 80.8547 104.321 81.2818 103.994 81.7613C103.561 82.2926 103.126 82.823 102.726 83.3793C101.921 84.4327 101.394 85.6716 101.193 86.982C101.008 88.4318 101.279 89.9031 101.969 91.1914C102.026 91.9314 102.082 92.6715 102.138 93.4115C102.141 93.4991 102.165 93.5847 102.21 93.66C102.255 93.7353 102.318 93.7978 102.394 93.8414C102.47 93.885 102.556 93.9083 102.644 93.909C102.731 93.9097 102.818 93.8878 102.894 93.8455C104.621 92.9981 106.105 91.7273 107.209 90.1513C108.313 88.5754 109 86.7456 109.208 84.8322C109.208 84.7221 109.172 84.6149 109.105 84.5273C109.039 84.4397 108.945 84.3765 108.839 84.3476Z" fill="#E6E6E6"/>
<path d="M103.079 107.354C103.252 107.363 103.426 107.368 103.597 107.366C105.077 107.356 106.539 107.044 107.894 106.449C109.25 105.854 110.469 104.988 111.478 103.905C112.295 103.01 112.952 101.981 113.42 100.863C113.404 100.86 113.391 100.858 113.375 100.856C112.655 100.745 111.932 100.631 111.211 100.52C111.977 99.5221 112.994 98.7462 114.158 98.2722C114.316 97.2665 114.328 96.2434 114.194 95.2344C112.566 97.8894 108.761 98.1031 106.357 100.079C105.21 101.036 104.429 102.359 104.144 103.825C104.073 104.187 104.035 104.555 104.03 104.924C104.028 105.013 104.028 105.1 104.03 105.187L103.977 105.307L103.079 107.354Z" fill="#E6E6E6"/>
<path d="M101.156 106.941C100.616 105.653 100.197 104.108 98.704 103.668C98.0632 103.483 97.3762 103.547 96.7802 103.847C96.1842 104.146 95.7231 104.66 95.4889 105.285C95.4656 105.37 95.4652 105.461 95.4879 105.547C95.5106 105.632 95.5555 105.711 95.6181 105.774C95.7848 105.979 95.9515 106.184 96.118 106.389C95.9118 106.398 95.7051 106.401 95.4973 106.393C95.3875 106.394 95.281 106.431 95.1937 106.497C95.1064 106.564 95.043 106.657 95.013 106.762C94.8301 107.515 94.7239 108.284 94.6959 109.059C94.6447 109.342 94.6956 109.635 94.8397 109.884C95.0661 110.198 95.3104 110.498 95.5714 110.783C95.8283 111.099 96.0849 111.415 96.3412 111.731C96.0919 111.742 95.8417 111.741 95.5907 111.728C95.5136 111.729 95.4377 111.747 95.3688 111.782C95.2999 111.816 95.2398 111.866 95.1931 111.928C95.1464 111.989 95.1143 112.06 95.0993 112.136C95.0842 112.211 95.0867 112.29 95.1064 112.364C95.7113 114.481 96.9054 116.382 98.5492 117.845C98.6122 117.905 98.6895 117.948 98.7738 117.97C98.8582 117.991 98.9467 117.991 99.0309 117.969C99.1151 117.947 99.1922 117.903 99.2548 117.843C99.3174 117.782 99.3635 117.706 99.3886 117.623C99.4163 117.544 99.4532 117.464 99.4731 117.383C99.4764 117.371 99.4804 117.358 99.4852 117.346C99.4717 117.368 99.4526 117.397 99.429 117.433C99.4609 117.384 99.4884 117.333 99.5109 117.28C99.5566 117.176 99.5895 117.063 99.6282 116.955C99.7873 116.515 99.9464 116.074 100.106 115.633C100.123 115.584 100.14 115.533 100.159 115.484C100.175 115.483 100.19 115.479 100.204 115.471C100.344 115.407 100.5 115.134 100.598 115.008C100.736 114.833 100.867 114.653 100.987 114.465C101.434 113.761 101.752 112.982 101.924 112.166C102.315 110.344 101.864 108.625 101.156 106.941Z" fill="#E6E6E6"/>
<path d="M99.4854 117.347C99.5506 117.242 99.5124 117.278 99.4854 117.347Z" fill="#E6E6E6"/>
<path d="M188.859 88.3711H170.11C169.888 88.3711 169.675 88.4593 169.518 88.6164C169.361 88.7735 169.273 88.9866 169.273 89.2087C169.273 89.4309 169.361 89.6439 169.518 89.801C169.675 89.9581 169.888 90.0464 170.11 90.0464H188.859C189.081 90.0464 189.294 89.9581 189.451 89.801C189.608 89.6439 189.696 89.4309 189.696 89.2087C189.696 88.9866 189.608 88.7735 189.451 88.6164C189.294 88.4593 189.081 88.3711 188.859 88.3711Z" fill="white"/>
<path d="M166.762 106.967C167.501 106.967 168.101 106.367 168.101 105.626C168.101 104.886 167.501 104.286 166.762 104.286C166.022 104.286 165.422 104.886 165.422 105.626C165.422 106.367 166.022 106.967 166.762 106.967Z" fill="white"/>
<path d="M138.992 65.5572L127.544 64.5654L123.59 70.062L118.902 118.645L141.548 120.431L151.696 123.241L138.992 65.5572Z" fill="#3F3D56"/>
<path d="M112.105 109.28C110.069 115.425 110.285 122.095 112.595 129.253L113.582 169.558C111.95 171.356 111.7 187.443 114.215 192.693C117.573 199.702 114.485 200.639 116.858 205.29H123.744L126.926 184.221L127.153 167.144C128.067 164.978 127.316 157.352 127.316 157.352L127.581 141.541L139.995 169.239C134.371 174.057 134.877 189.619 134.784 196.521L132.94 204.666L141.414 205.424L145.154 194.379L149.359 187.572C151.501 175.512 152.136 166.657 150.31 163.041L137.847 116.64L112.105 109.28Z" fill="#2F2E41"/>
<path d="M110.724 109.608C110.748 110.101 110.85 110.587 111.026 111.049C111.046 111.106 111.066 111.159 111.089 111.216C111.502 112.204 112.236 113.025 113.172 113.545C113.447 113.7 113.738 113.827 114.039 113.923L116.647 114.342L139.076 117.931L139.977 115.22L138.28 110.972L139.405 107.32L139.659 71.9311V71.9043L135.584 65.4009L135.551 61.2898L124.174 61.0117L122.938 64.1478L120.498 65.6087C115.087 68.8453 113.138 74.7724 113.255 81.0815C115.12 88.3086 113.748 96.3432 112.358 104.957L111.223 107.229C110.855 107.966 110.684 108.785 110.724 109.608Z" fill="#3B82F6"/>
<path opacity="0.2" d="M110.724 109.608C110.748 110.101 110.85 110.587 111.026 111.048L113.172 113.545C113.447 113.7 113.738 113.827 114.039 113.923L116.647 114.342L112.874 107.242L121.167 89.0723L110.724 109.608Z" fill="black"/>
<path d="M134.386 65.1393L122.938 64.1475C119.668 65.6433 116.844 67.9654 114.743 70.8852C112.643 73.8051 111.338 77.2221 110.957 80.7998L107.184 116.3L131.504 120.432L141.651 123.241L134.386 65.1393Z" fill="#3F3D56"/>
<path d="M120.475 49.503C120.856 52.2873 122.327 54.8062 124.563 56.5063C126.799 58.2063 129.619 58.9483 132.401 58.5693C135.184 58.1903 137.703 56.7213 139.404 54.485C141.105 52.2487 141.849 49.4282 141.473 46.6431L141.452 46.4926C141.013 43.745 139.513 41.2801 137.274 39.6298C135.035 37.9795 132.238 37.2759 129.485 37.6709C126.733 38.0659 124.246 39.5278 122.561 41.7412C120.876 43.9546 120.128 46.7422 120.478 49.5025L120.475 49.503Z" fill="#FFB8B8"/>
<path d="M123.172 54.9638C122.628 53.8577 122.069 52.6702 122.222 51.4469C122.375 50.2235 123.573 49.0543 124.751 49.4178C125.455 49.6352 125.987 50.3308 126.722 50.3664C127.735 50.4154 128.315 49.2559 128.631 48.2918L129.914 44.3652C131.147 45.3264 132.576 46.0036 134.1 46.3482C135.624 46.6929 137.206 46.6966 138.731 46.3591C139.923 46.0865 141.127 45.5549 141.826 44.5513C142.525 43.5478 142.521 41.9911 141.562 41.2322C141.092 40.8601 140.466 40.7187 140.017 40.3217C139.738 40.0754 139.546 39.7458 139.469 39.3818C139.392 39.0178 139.434 38.6386 139.589 38.3004C139.745 37.9622 140.004 37.683 140.33 37.504C140.656 37.325 141.031 37.2558 141.399 37.3066L138.168 36.9025L139.131 35.1597C138.437 35.707 137.471 35.7806 136.602 35.624C135.732 35.4673 134.913 35.1091 134.063 34.8702C129.98 33.7232 125.234 35.7174 123.193 39.4379C122.398 39.1721 121.54 39.1545 120.735 39.3872C119.929 39.62 119.214 40.0922 118.682 40.7412C117.817 41.84 117.582 43.3064 117.548 44.7048C117.486 47.4623 118.086 50.1944 119.3 52.6707C119.648 53.4572 120.148 54.1671 120.772 54.7596C121.085 55.0533 121.46 55.2748 121.868 55.4084C122.277 55.5421 122.709 55.5847 123.136 55.5333" fill="#2F2E41"/>
<path d="M131.939 119.63L110.214 115.584L117.198 78.0328C117.464 76.6053 118.007 75.2441 118.799 74.027C119.59 72.8098 120.613 71.7605 121.809 70.939C123.005 70.1174 124.352 69.5398 125.771 69.2389C127.191 68.9381 128.656 68.92 130.082 69.1857C131.508 69.4513 132.869 69.9956 134.085 70.7873C135.301 71.579 136.35 72.6027 137.171 73.7999C137.992 74.9972 138.569 76.3445 138.87 77.765C139.17 79.1855 139.188 80.6513 138.923 82.0788L131.939 119.63ZM111.776 114.512L130.868 118.067L137.606 81.8336C137.84 80.5788 137.825 79.2902 137.561 78.0414C137.297 76.7926 136.79 75.608 136.069 74.5554C135.347 73.5027 134.426 72.6027 133.357 71.9065C132.288 71.2104 131.092 70.7319 129.838 70.4984C128.584 70.2648 127.296 70.2808 126.048 70.5454C124.801 70.81 123.617 71.318 122.566 72.0405C121.514 72.7629 120.615 73.6856 119.92 74.7559C119.225 75.8261 118.747 77.0229 118.515 78.2779L111.776 114.512Z" fill="#CCCCCC"/>
<path d="M105.012 131.383L129.414 136.685C130.807 136.988 132.182 136.103 132.484 134.709L136.053 118.264C136.355 116.87 135.471 115.495 134.078 115.192L109.675 109.89C108.282 109.587 106.908 110.472 106.605 111.866L103.037 128.311C102.735 129.705 103.619 131.08 105.012 131.383Z" fill="#CCCCCC"/>
<path d="M119.147 115.675V120.741L119.405 120.798L119.72 120.868L128.405 122.794H128.412L131.07 123.384H131.184C131.276 123.384 131.367 123.366 131.452 123.33C131.537 123.293 131.613 123.24 131.676 123.173C131.791 123.049 131.854 122.886 131.854 122.717V115.675C131.854 115.571 131.831 115.469 131.784 115.377C131.737 115.285 131.669 115.206 131.586 115.145C131.573 115.131 131.558 115.119 131.542 115.108C131.492 115.08 131.44 115.056 131.385 115.038C131.38 115.035 131.374 115.034 131.368 115.035C131.367 115.033 131.365 115.032 131.364 115.032C131.362 115.031 131.36 115.031 131.358 115.031C131.301 115.016 131.243 115.009 131.184 115.008H119.804C119.666 115.007 119.532 115.052 119.422 115.135C119.337 115.197 119.267 115.278 119.22 115.372C119.172 115.465 119.147 115.569 119.147 115.675Z" fill="white"/>
<path d="M119.147 115.675V120.741L119.405 120.798L119.72 120.868C119.689 120.77 119.664 120.671 119.646 120.57C119.64 120.549 119.636 120.528 119.633 120.506C119.609 120.361 119.596 120.214 119.596 120.067V115.675C119.597 115.616 119.62 115.561 119.662 115.52C119.703 115.479 119.759 115.457 119.817 115.457H131.184C131.242 115.457 131.298 115.479 131.339 115.52C131.381 115.561 131.404 115.616 131.405 115.675V122.148C131.404 122.311 131.339 122.466 131.224 122.582C131.11 122.698 130.955 122.764 130.792 122.768C130.561 122.771 130.257 122.774 129.895 122.778C129.473 122.784 128.971 122.791 128.412 122.794L131.07 123.384H131.184C131.276 123.384 131.367 123.366 131.452 123.33C131.537 123.293 131.613 123.24 131.676 123.173C131.791 123.049 131.854 122.886 131.854 122.717V115.675C131.854 115.571 131.831 115.469 131.784 115.377C131.737 115.285 131.669 115.206 131.586 115.145C131.573 115.131 131.558 115.119 131.542 115.108C131.492 115.08 131.44 115.056 131.385 115.038C131.38 115.035 131.374 115.034 131.368 115.035C131.367 115.033 131.365 115.032 131.364 115.032C131.362 115.031 131.36 115.031 131.358 115.031C131.301 115.016 131.243 115.009 131.184 115.008H119.804C119.666 115.007 119.532 115.052 119.422 115.135C119.337 115.197 119.267 115.278 119.22 115.372C119.172 115.465 119.147 115.569 119.147 115.675ZM119.147 120.255V120.395L119.633 120.506C119.609 120.361 119.596 120.214 119.596 120.067V119.826C119.449 119.973 119.298 120.114 119.147 120.255Z" fill="#3B82F6"/>
<path d="M121.316 119.503H129.977C130.054 119.503 130.128 119.48 130.191 119.436C130.254 119.392 130.301 119.33 130.327 119.258L131.665 115.523C131.681 115.477 131.688 115.429 131.686 115.38C131.683 115.332 131.671 115.284 131.65 115.24C131.629 115.196 131.6 115.157 131.564 115.124C131.528 115.092 131.486 115.067 131.44 115.051C131.4 115.037 131.358 115.029 131.315 115.029L119.699 115.009H119.699C119.638 115.008 119.577 115.023 119.523 115.052C119.469 115.081 119.423 115.123 119.389 115.174C119.355 115.225 119.334 115.284 119.329 115.345C119.323 115.406 119.333 115.468 119.357 115.524L120.975 119.279C121.003 119.346 121.051 119.403 121.112 119.442C121.173 119.482 121.244 119.503 121.316 119.503Z" fill="#3B82F6"/>
<path d="M125.507 120.424C126.018 120.424 126.432 120.012 126.432 119.503C126.432 118.994 126.018 118.582 125.507 118.582C124.996 118.582 124.582 118.994 124.582 119.503C124.582 120.012 124.996 120.424 125.507 120.424Z" fill="#3F3D56"/>
<path d="M109.933 118.7L110.148 118.747L110.563 118.837L114.832 119.785L118.736 120.65L119.147 120.74L119.405 120.797L119.646 120.569L119.7 120.519L120.986 119.299L124.136 116.314C124.251 116.206 124.324 116.06 124.341 115.902C124.358 115.745 124.319 115.587 124.23 115.456C124.212 115.424 124.189 115.395 124.163 115.369L123.828 115.014L123.822 115.007L119.325 110.256C119.253 110.179 119.163 110.121 119.063 110.086C118.963 110.051 118.857 110.041 118.752 110.055C118.741 110.055 118.73 110.056 118.719 110.059C118.647 110.073 118.578 110.099 118.515 110.136C118.466 110.162 118.421 110.195 118.381 110.233L110.124 118.056L110.118 118.063C110.034 118.143 109.974 118.244 109.943 118.355C109.933 118.381 109.93 118.405 109.923 118.425C109.91 118.516 109.913 118.609 109.933 118.7Z" fill="white"/>
<path d="M109.933 118.7L110.148 118.747L110.563 118.837L110.422 118.69C110.393 118.659 110.374 118.62 110.367 118.578C110.36 118.537 110.365 118.494 110.382 118.455C110.393 118.427 110.41 118.402 110.432 118.381L118.689 110.558C118.709 110.538 118.734 110.522 118.761 110.512C118.788 110.501 118.816 110.497 118.845 110.498C118.874 110.499 118.902 110.505 118.928 110.517C118.954 110.529 118.978 110.547 118.997 110.568L119.399 110.99L123.199 115.007L123.205 115.014L123.447 115.269C123.498 115.323 123.539 115.387 123.567 115.456C123.614 115.571 123.625 115.697 123.6 115.818C123.575 115.939 123.514 116.05 123.426 116.136C122.921 116.629 121.93 117.591 120.738 118.73C120.373 119.085 119.992 119.45 119.596 119.825C119.449 119.973 119.298 120.114 119.147 120.254C119.107 120.295 119.067 120.335 119.027 120.368C118.93 120.465 118.833 120.556 118.736 120.65L119.147 120.74L119.405 120.797L119.646 120.569L119.7 120.519L120.986 119.299L124.136 116.314C124.251 116.206 124.324 116.06 124.341 115.902C124.358 115.745 124.319 115.587 124.23 115.456C124.212 115.424 124.189 115.395 124.163 115.369L123.828 115.014L123.822 115.007L119.325 110.256C119.253 110.179 119.163 110.121 119.063 110.086C118.963 110.051 118.857 110.041 118.752 110.055C118.741 110.055 118.73 110.056 118.719 110.059C118.647 110.073 118.578 110.099 118.515 110.136C118.466 110.162 118.421 110.195 118.381 110.233L110.124 118.056L110.118 118.063C110.034 118.143 109.974 118.244 109.943 118.355C109.933 118.381 109.93 118.405 109.923 118.425C109.91 118.516 109.913 118.609 109.933 118.7Z" fill="#3B82F6"/>
<path d="M109.923 118.409V118.425C109.927 118.513 109.963 118.597 110.024 118.66C110.059 118.697 110.101 118.726 110.148 118.747L110.563 118.837L114.832 119.786L115.13 119.504L116.673 118.04L118.019 116.767L119.147 115.695L119.352 115.504L119.874 115.008L120.591 114.328C120.647 114.275 120.685 114.207 120.701 114.132C120.716 114.057 120.708 113.979 120.678 113.909L119.399 110.991L119.084 110.277C119.056 110.212 119.009 110.157 118.951 110.118C118.892 110.078 118.823 110.057 118.752 110.056C118.741 110.055 118.73 110.056 118.719 110.059C118.676 110.06 118.633 110.07 118.595 110.089C118.566 110.101 118.539 110.117 118.515 110.136C118.505 110.143 118.498 110.153 118.488 110.16L110.124 118.057L110.118 118.064L110.041 118.137C109.986 118.198 109.948 118.272 109.93 118.352C109.924 118.37 109.922 118.389 109.923 118.409Z" fill="#3B82F6"/>
<path d="M117.979 118.073C118.35 117.721 118.367 117.136 118.018 116.767C117.668 116.398 117.084 116.384 116.713 116.735C116.342 117.087 116.324 117.671 116.674 118.041C117.023 118.41 117.607 118.424 117.979 118.073Z" fill="#3F3D56"/>
<path d="M108.999 118.492L109.933 118.7L110.148 118.747L110.563 118.837L114.832 119.785L118.736 120.65L119.148 120.74L119.405 120.797L119.72 120.868L128.405 122.794H128.412L131.07 123.384L132.326 123.662L135.292 117.621L134.991 117.474L132.142 123.277L131.676 123.173L129.895 122.778L119.7 120.519L119.633 120.506L119.148 120.395L119.027 120.368L115.13 119.504L110.382 118.455L109.943 118.355L109.93 118.351L109.347 118.224L109.676 111.664L109.341 111.65L108.999 118.492Z" fill="#CCCCCC"/>
<path d="M133.37 127.188C132.948 126.927 132.589 126.576 132.318 126.161C132.046 125.745 131.869 125.275 131.799 124.784C131.729 124.293 131.767 123.792 131.911 123.317C132.055 122.842 132.302 122.404 132.633 122.035L122.723 109.523L121.239 93.0264L128.593 93.6174L128.768 106.4L137.627 121.916C138.21 122.514 138.554 123.305 138.593 124.14C138.632 124.975 138.364 125.795 137.839 126.445C137.314 127.095 136.569 127.529 135.745 127.666C134.922 127.803 134.076 127.633 133.37 127.188Z" fill="#FFB6B6"/>
<path d="M120.893 82.0822C121.048 85.1203 120.752 102.024 122.075 106.035C121.57 106.344 121.183 106.812 120.973 107.365C120.764 107.919 120.744 108.527 120.918 109.092L129.503 107.289C130.507 105.573 129.422 104.809 128.696 104.521L129.789 98.7989L132.122 78.2962C132.223 77.4075 132.086 76.5079 131.724 75.6901C131.362 74.8723 130.788 74.1661 130.062 73.6441C129.442 73.1994 128.729 72.9018 127.977 72.7736C127.225 72.6454 126.454 72.6901 125.721 72.9042C124.989 73.1183 124.315 73.4963 123.75 74.0095C123.185 74.5227 122.745 75.1577 122.461 75.8665C121.565 78.0874 120.811 80.476 120.893 82.0822Z" fill="#3B82F6"/>
</g>
<defs>
<clipPath id="clip0_241_7461">
<rect width="226" height="175" fill="white"/>
</clipPath>
</defs>
</svg>
