<svg width="21" height="20" viewBox="0 0 21 20" fill="none" xmlns="http://www.w3.org/2000/svg">
<path d="M20.369 10.2276C20.3698 9.54615 20.3118 8.86591 20.1956 8.19434H10.6998V12.0455H16.1386C16.0273 12.6606 15.7917 13.247 15.4461 13.7692C15.1005 14.2915 14.6519 14.7388 14.1275 15.0843V17.5841H17.3734C19.274 15.844 20.369 13.2705 20.369 10.2276Z" fill="#4285F4"/>
<path d="M10.6998 19.9998C13.4171 19.9998 15.705 19.1137 17.3734 17.586L14.1275 15.0861C13.2241 15.6944 12.0605 16.0416 10.6998 16.0416C8.0734 16.0416 5.8442 14.2834 5.04705 11.9141H1.70325V14.4903C2.54132 16.1465 3.82641 17.5387 5.41506 18.5116C7.0037 19.4844 8.83336 19.9997 10.6998 19.9998V19.9998Z" fill="#34A853"/>
<path d="M5.04701 11.9136C4.62559 10.6721 4.62559 9.32757 5.04701 8.08603V5.50977H1.7032C0.998184 6.90296 0.631012 8.44059 0.631012 9.99982C0.631012 11.559 0.998184 13.0967 1.7032 14.4899L5.04701 11.9136Z" fill="#FBBC04"/>
<path d="M10.6998 3.95879C12.1357 3.93549 13.5233 4.47429 14.5624 5.45872L17.4363 2.60469C15.614 0.904883 13.1998 -0.0283412 10.6998 0.000656061C8.83336 0.000740536 7.0037 0.515984 5.41506 1.48886C3.82641 2.46174 2.54132 3.85397 1.70325 5.5101L5.04705 8.08636C5.8442 5.71704 8.0734 3.95879 10.6998 3.95879Z" fill="#EA4335"/>
</svg>
